<?xml version="1.0" encoding="utf-8"?>
<svg id="flat" style="width: 100%; border: medium solid black;" class="noselect" xmlns="http://www.w3.org/2000/svg" version="1.1" xmlns:xlink="http://www.w3.org/1999/xlink" xmlns:svgjs="http://svgjs.com/svgjs" width="100%" height="100%" viewBox="0 0 150 150"><polygon id="SvgjsPolygon62583" points="27.270292269908047,122.72970773009195 122.72970773009195,122.72970773009195 75,102.9594154601839" fill-opacity="0" fill="blue" stroke-linecap="round" stroke-opacity="0.2" stroke="black" stroke-width="0.2"></polygon><polygon id="SvgjsPolygon62584" points="30.727183501810806,122.72970773009195 111.50457141007983,122.72970773009195 71.2582878933293,106.05915126234113" fill-opacity="0.1" fill="blue" stroke-linecap="round" stroke-opacity="0.2" stroke="black" stroke-width="0.2"></polygon><polygon id="SvgjsPolygon62585" points="27.270292269908047,122.72970773009195 47.040584539816095,75 27.270292269908047,27.270292269908047" fill-opacity="0" fill="blue" stroke-linecap="round" stroke-opacity="0.2" stroke="black" stroke-width="0.2"></polygon><polygon id="SvgjsPolygon62586" points="27.270292269908047,118.98799562342126 43.940848737658854,78.7417121066707 27.270292269908047,37.64096596561632" fill-opacity="0.1" fill="blue" stroke-linecap="round" stroke-opacity="0.2" stroke="black" stroke-width="0.2"></polygon><polygon id="SvgjsPolygon62587" points="27.270292269908047,122.72970773009195 75,102.9594154601839 47.040584539816095,75" fill-opacity="0" fill="blue" stroke-linecap="round" stroke-opacity="0.2" stroke="black" stroke-width="0.2"></polygon><polygon id="SvgjsPolygon62588" points="29.916082273782706,120.0839177262173 72.4721866653012,102.4566021254851 47.543397874514895,77.5278133346988" fill-opacity="0.1" fill="blue" stroke-linecap="round" stroke-opacity="0.2" stroke="black" stroke-width="0.2"></polygon><polygon id="SvgjsPolygon62589" points="75,75 47.040584539816095,75 75,102.9594154601839" fill-opacity="0" fill="blue" stroke-linecap="round" stroke-opacity="0.2" stroke="black" stroke-width="0.2"></polygon><polygon id="SvgjsPolygon62590" points="73.56810876809725,76.43189123190275 50.49747577171884,76.43189123190275 73.56810876809725,99.50252422828115" fill-opacity="0.1" fill="blue" stroke-linecap="round" stroke-opacity="0.2" stroke="black" stroke-width="0.2"></polygon><polygon id="SvgjsPolygon62591" points="122.72970773009195,122.72970773009195 75,75 75,102.9594154601839" fill-opacity="0" fill="blue" stroke-linecap="round" stroke-opacity="0.2" stroke="black" stroke-width="0.2"></polygon><polygon id="SvgjsPolygon62592" points="111.33544648656522,113.36044648656522 76.43189123190275,78.45689123190276 76.43189123190275,98.90292052504532" fill-opacity="0.1" fill="blue" stroke-linecap="round" stroke-opacity="0.2" stroke="black" stroke-width="0.2"></polygon><polygon id="SvgjsPolygon62593" points="75,75 27.270292269908047,27.270292269908047 47.040584539816095,75" fill-opacity="0" fill="blue" stroke-linecap="round" stroke-opacity="0.2" stroke="black" stroke-width="0.2"></polygon><polygon id="SvgjsPolygon62594" points="71.54310876809724,73.56810876809725 36.639553513434784,38.664553513434775 51.09707947495468,73.56810876809725" fill-opacity="0.1" fill="blue" stroke-linecap="round" stroke-opacity="0.2" stroke="black" stroke-width="0.2"></polygon><polygon id="SvgjsPolygon62595" points="122.72970773009195,122.72970773009195 102.9594154601839,75 75,75" fill-opacity="0" fill="blue" stroke-linecap="round" stroke-opacity="0.2" stroke="black" stroke-width="0.2"></polygon><polygon id="SvgjsPolygon62596" points="113.36044648656522,111.33544648656522 98.9029205250453,76.43189123190275 78.45689123190276,76.43189123190275" fill-opacity="0.1" fill="blue" stroke-linecap="round" stroke-opacity="0.2" stroke="black" stroke-width="0.2"></polygon><polygon id="SvgjsPolygon62597" points="75,75 75,47.040584539816095 27.270292269908047,27.270292269908047" fill-opacity="0" fill="blue" stroke-linecap="round" stroke-opacity="0.2" stroke="black" stroke-width="0.2"></polygon><polygon id="SvgjsPolygon62598" points="73.56810876809725,71.54310876809724 73.56810876809725,51.0970794749547 38.66455351343478,36.639553513434784" fill-opacity="0.1" fill="blue" stroke-linecap="round" stroke-opacity="0.2" stroke="black" stroke-width="0.2"></polygon><polygon id="SvgjsPolygon62599" points="75,75 102.9594154601839,75 75,47.040584539816095" fill-opacity="0" fill="blue" stroke-linecap="round" stroke-opacity="0.2" stroke="black" stroke-width="0.2"></polygon><polygon id="SvgjsPolygon62600" points="76.43189123190275,73.56810876809725 99.50252422828115,73.56810876809725 76.43189123190275,50.497475771718854" fill-opacity="0.1" fill="blue" stroke-linecap="round" stroke-opacity="0.2" stroke="black" stroke-width="0.2"></polygon><polygon id="SvgjsPolygon62601" points="122.72970773009195,27.270292269908047 75,47.040584539816095 102.9594154601839,75" fill-opacity="0" fill="blue" stroke-linecap="round" stroke-opacity="0.2" stroke="black" stroke-width="0.2"></polygon><polygon id="SvgjsPolygon62602" points="120.0839177262173,29.916082273782713 77.5278133346988,47.543397874514895 102.45660212548509,72.4721866653012" fill-opacity="0.1" fill="blue" stroke-linecap="round" stroke-opacity="0.2" stroke="black" stroke-width="0.2"></polygon><polygon id="SvgjsPolygon62603" points="122.72970773009195,122.72970773009195 122.72970773009195,27.270292269908047 102.9594154601839,75" fill-opacity="0" fill="blue" stroke-linecap="round" stroke-opacity="0.2" stroke="black" stroke-width="0.2"></polygon><polygon id="SvgjsPolygon62604" points="122.72970773009195,112.35903403438368 122.72970773009195,31.01200437657875 106.05915126234113,71.2582878933293" fill-opacity="0.1" fill="blue" stroke-linecap="round" stroke-opacity="0.2" stroke="black" stroke-width="0.2"></polygon><polygon id="SvgjsPolygon62605" points="27.270292269908047,27.270292269908047 75,47.040584539816095 122.72970773009195,27.270292269908047" fill-opacity="0" fill="blue" stroke-linecap="round" stroke-opacity="0.2" stroke="black" stroke-width="0.2"></polygon><polygon id="SvgjsPolygon62606" points="38.495428589920174,27.270292269908047 78.74171210667072,43.940848737658854 119.2728164981892,27.270292269908047" fill-opacity="0.1" fill="blue" stroke-linecap="round" stroke-opacity="0.2" stroke="black" stroke-width="0.2"></polygon><polygon id="SvgjsPolygon62607" points="111.50457141007983,122.72970773009195 71.2582878933293,106.05915126234113 76.43189123190275,98.90292052504532 111.33544648656522,113.36044648656522" fill-opacity="0.1" fill="red" stroke-linecap="round" stroke-opacity="0.2" stroke="black" stroke-width="0.2"></polygon><polygon id="SvgjsPolygon62608" points="71.2582878933293,106.05915126234113 30.727183501810806,122.72970773009195 29.916082273782706,120.0839177262173 72.4721866653012,102.4566021254851" fill-opacity="0.1" fill="red" stroke-linecap="round" stroke-opacity="0.2" stroke="black" stroke-width="0.2"></polygon><polygon id="SvgjsPolygon62609" points="27.270292269908047,118.98799562342126 43.940848737658854,78.7417121066707 47.543397874514895,77.5278133346988 29.916082273782706,120.0839177262173" fill-opacity="0.1" fill="red" stroke-linecap="round" stroke-opacity="0.2" stroke="black" stroke-width="0.2"></polygon><polygon id="SvgjsPolygon62610" points="43.940848737658854,78.7417121066707 27.270292269908047,37.64096596561632 36.639553513434784,38.664553513434775 51.09707947495468,73.56810876809725" fill-opacity="0.1" fill="red" stroke-linecap="round" stroke-opacity="0.2" stroke="black" stroke-width="0.2"></polygon><polygon id="SvgjsPolygon62611" points="72.4721866653012,102.4566021254851 47.543397874514895,77.5278133346988 50.49747577171884,76.43189123190275 73.56810876809725,99.50252422828115" fill-opacity="0.1" fill="red" stroke-linecap="round" stroke-opacity="0.2" stroke="black" stroke-width="0.2"></polygon><polygon id="SvgjsPolygon62612" points="73.56810876809725,76.43189123190275 50.49747577171884,76.43189123190275 51.09707947495468,73.56810876809725 71.54310876809724,73.56810876809725" fill-opacity="0.1" fill="red" stroke-linecap="round" stroke-opacity="0.2" stroke="black" stroke-width="0.2"></polygon><polygon id="SvgjsPolygon62613" points="73.56810876809725,99.50252422828115 73.56810876809725,76.43189123190275 76.43189123190275,78.45689123190276 76.43189123190275,98.90292052504532" fill-opacity="0.1" fill="red" stroke-linecap="round" stroke-opacity="0.2" stroke="black" stroke-width="0.2"></polygon><polygon id="SvgjsPolygon62614" points="111.33544648656522,113.36044648656522 76.43189123190275,78.45689123190276 78.45689123190276,76.43189123190275 113.36044648656522,111.33544648656522" fill-opacity="0.1" fill="red" stroke-linecap="round" stroke-opacity="0.2" stroke="black" stroke-width="0.2"></polygon><polygon id="SvgjsPolygon62615" points="71.54310876809724,73.56810876809725 36.639553513434784,38.664553513434775 38.66455351343478,36.639553513434784 73.56810876809725,71.54310876809724" fill-opacity="0.1" fill="red" stroke-linecap="round" stroke-opacity="0.2" stroke="black" stroke-width="0.2"></polygon><polygon id="SvgjsPolygon62616" points="113.36044648656522,111.33544648656522 98.9029205250453,76.43189123190275 106.05915126234113,71.2582878933293 122.72970773009195,112.35903403438368" fill-opacity="0.1" fill="red" stroke-linecap="round" stroke-opacity="0.2" stroke="black" stroke-width="0.2"></polygon><polygon id="SvgjsPolygon62617" points="98.9029205250453,76.43189123190275 78.45689123190276,76.43189123190275 76.43189123190275,73.56810876809725 99.50252422828115,73.56810876809725" fill-opacity="0.1" fill="red" stroke-linecap="round" stroke-opacity="0.2" stroke="black" stroke-width="0.2"></polygon><polygon id="SvgjsPolygon62618" points="73.56810876809725,71.54310876809724 73.56810876809725,51.0970794749547 76.43189123190275,50.497475771718854 76.43189123190275,73.56810876809725" fill-opacity="0.1" fill="red" stroke-linecap="round" stroke-opacity="0.2" stroke="black" stroke-width="0.2"></polygon><polygon id="SvgjsPolygon62619" points="73.56810876809725,51.0970794749547 38.66455351343478,36.639553513434784 38.495428589920174,27.270292269908047 78.74171210667072,43.940848737658854" fill-opacity="0.1" fill="red" stroke-linecap="round" stroke-opacity="0.2" stroke="black" stroke-width="0.2"></polygon><polygon id="SvgjsPolygon62620" points="99.50252422828115,73.56810876809725 76.43189123190275,50.497475771718854 77.5278133346988,47.543397874514895 102.45660212548509,72.4721866653012" fill-opacity="0.1" fill="red" stroke-linecap="round" stroke-opacity="0.2" stroke="black" stroke-width="0.2"></polygon><polygon id="SvgjsPolygon62621" points="120.0839177262173,29.916082273782713 77.5278133346988,47.543397874514895 78.74171210667072,43.940848737658854 119.2728164981892,27.270292269908047" fill-opacity="0.1" fill="red" stroke-linecap="round" stroke-opacity="0.2" stroke="black" stroke-width="0.2"></polygon><polygon id="SvgjsPolygon62622" points="102.45660212548509,72.4721866653012 120.0839177262173,29.916082273782713 122.72970773009195,31.01200437657875 106.05915126234113,71.2582878933293" fill-opacity="0.1" fill="red" stroke-linecap="round" stroke-opacity="0.2" stroke="black" stroke-width="0.2"></polygon></svg>