<?xml version="1.0" encoding="utf-8"?>
<!-- Generator: Adobe Illustrator 16.0.0, SVG Export Plug-In . SVG Version: 6.00 Build 0)  -->
<!DOCTYPE svg PUBLIC "-//W3C//DTD SVG 1.1//EN" "http://www.w3.org/Graphics/SVG/1.1/DTD/svg11.dtd">
<svg version="1.1" id="Layer_3" xmlns="http://www.w3.org/2000/svg" xmlns:xlink="http://www.w3.org/1999/xlink" x="0px" y="0px"
	 width="612px" height="792px" viewBox="0 0 612 792" enable-background="new 0 0 612 792" xml:space="preserve">
<path fill="none" stroke="#000000" stroke-miterlimit="10" d="M514.65,781.119c-3.229-6.748-5.039-14.306-5.039-22.287
	c0-27.195,21.002-49.489,47.672-51.543"/>
<path fill="none" stroke="#000000" stroke-miterlimit="10" d="M452.939,707.29c26.67,2.053,47.672,24.347,47.672,51.542
	c0,7.979-1.81,15.539-5.039,22.286"/>
<polyline fill="none" stroke="#000000" stroke-miterlimit="10" points="557.28,707.285 573.822,735.937 540.74,735.937 
	557.283,707.289 "/>
<polyline fill="none" stroke="#000000" stroke-miterlimit="10" points="452.936,707.285 469.477,735.937 436.395,735.937 
	452.939,707.29 "/>
<path fill="none" stroke="#000000" stroke-miterlimit="10" d="M358.146,781.118c-3.229-6.747-5.037-14.307-5.037-22.286
	c0-27.197,21.001-49.489,47.67-51.544"/>
<path fill="none" stroke="#000000" stroke-miterlimit="10" d="M296.435,707.288c26.67,2.055,47.672,24.347,47.672,51.544
	c0,7.979-1.81,15.537-5.038,22.286"/>
<polyline fill="none" stroke="#000000" stroke-miterlimit="10" points="400.776,707.284 417.317,735.935 384.234,735.935 
	400.778,707.288 "/>
<path fill="none" stroke="#000000" stroke-miterlimit="10" d="M469.728,735.578c-9.29,13.751-25.022,22.793-42.867,22.793
	c-17.693,0-33.308-8.888-42.629-22.439"/>
<path fill="none" stroke="#000000" stroke-miterlimit="10" d="M201.645,781.121c-3.229-6.749-5.038-14.307-5.038-22.288
	c0-27.196,21.001-49.489,47.671-51.543"/>
<path fill="none" stroke="#000000" stroke-miterlimit="10" d="M139.934,707.29c26.671,2.054,47.673,24.347,47.673,51.543
	c0,7.98-1.809,15.538-5.038,22.286"/>
<polyline fill="none" stroke="#000000" stroke-miterlimit="10" points="244.276,707.285 260.817,735.937 227.734,735.937 
	244.279,707.29 "/>
<polyline fill="none" stroke="#000000" stroke-miterlimit="10" points="139.931,707.286 156.472,735.937 123.39,735.937 
	139.934,707.29 "/>
<path fill="none" stroke="#000000" stroke-miterlimit="10" d="M313.227,735.579c-9.29,13.752-25.022,22.794-42.868,22.794
	c-17.692,0-33.308-8.888-42.627-22.44"/>
<polyline fill="none" stroke="#000000" stroke-miterlimit="10" points="296.686,706.931 313.227,735.579 280.145,735.579 
	296.689,706.933 "/>
<path fill="none" stroke="#000000" stroke-miterlimit="10" d="M45.396,780.765c-3.23-6.749-5.039-14.307-5.039-22.287
	c0-27.196,21.002-49.488,47.672-51.543"/>
<polyline fill="none" stroke="#000000" stroke-miterlimit="10" points="88.025,706.932 104.566,735.581 71.484,735.581 
	88.028,706.935 "/>
<path fill="none" stroke="#000000" stroke-miterlimit="10" d="M156.977,735.225c-9.291,13.752-25.023,22.793-42.868,22.793
	c-17.691,0-33.308-8.888-42.627-22.439"/>
<path fill="none" stroke="#000000" stroke-miterlimit="10" d="M547.979,690.398c-9.29,13.751-25.022,22.793-42.868,22.793
	c-17.691,0-33.307-8.887-42.627-22.439"/>
<polyline fill="none" stroke="#000000" stroke-miterlimit="10" points="479.025,662.103 495.566,690.752 462.484,690.752 
	479.028,662.105 "/>
<polyline fill="none" stroke="#000000" stroke-miterlimit="10" points="531.438,661.749 547.979,690.398 514.897,690.398 
	531.441,661.753 "/>
<path fill="none" stroke="#000000" stroke-miterlimit="10" d="M531.188,662.107c26.67,2.054,47.671,24.346,47.671,51.542
	c0,7.98-1.809,15.538-5.037,22.287"/>
<path fill="none" stroke="#000000" stroke-miterlimit="10" d="M391.476,690.398c-9.289,13.751-25.022,22.791-42.868,22.791
	c-17.691,0-33.307-8.886-42.627-22.439"/>
<polyline fill="none" stroke="#000000" stroke-miterlimit="10" points="322.521,662.1 339.062,690.75 305.98,690.75 
	322.524,662.104 "/>
<polyline fill="none" stroke="#000000" stroke-miterlimit="10" points="374.935,661.747 391.476,690.398 358.393,690.398 
	374.938,661.751 "/>
<path fill="none" stroke="#000000" stroke-miterlimit="10" d="M436.395,735.937c-3.229-6.749-5.038-14.307-5.038-22.288
	c0-27.196,21.001-49.489,47.672-51.543"/>
<path fill="none" stroke="#000000" stroke-miterlimit="10" d="M374.684,662.105c26.67,2.054,47.672,24.347,47.672,51.543
	c0,7.98-1.809,15.538-5.038,22.286"/>
<path fill="none" stroke="#000000" stroke-miterlimit="10" d="M234.975,690.399c-9.291,13.752-25.022,22.792-42.868,22.792
	c-17.692,0-33.307-8.886-42.627-22.438"/>
<polyline fill="none" stroke="#000000" stroke-miterlimit="10" points="166.02,662.103 182.562,690.753 149.479,690.753 
	166.023,662.105 "/>
<polyline fill="none" stroke="#000000" stroke-miterlimit="10" points="218.434,661.749 234.975,690.399 201.892,690.399 
	218.437,661.753 "/>
<path fill="none" stroke="#000000" stroke-miterlimit="10" d="M279.894,735.938c-3.23-6.749-5.039-14.307-5.039-22.288
	c0-27.197,21.001-49.489,47.672-51.543"/>
<path fill="none" stroke="#000000" stroke-miterlimit="10" d="M218.183,662.107c26.67,2.054,47.672,24.346,47.672,51.543
	c0,7.979-1.809,15.537-5.038,22.286"/>
<path fill="none" stroke="#000000" stroke-miterlimit="10" d="M123.39,735.937c-3.229-6.749-5.038-14.307-5.038-22.288
	c0-27.196,21.001-49.487,47.672-51.543"/>
<path fill="none" stroke="#000000" stroke-miterlimit="10" d="M61.933,661.753c26.67,2.053,47.671,24.346,47.671,51.543
	c0,7.979-1.809,15.537-5.038,22.285"/>
<path fill="none" stroke="#000000" stroke-miterlimit="10" d="M514.897,690.398c-3.229-6.748-5.039-14.307-5.039-22.287
	c0-27.196,21.002-49.488,47.673-51.543"/>
<path fill="none" stroke="#000000" stroke-miterlimit="10" d="M453.186,616.569c26.671,2.054,47.673,24.346,47.673,51.542
	c0,7.979-1.81,15.538-5.038,22.287"/>
<polyline fill="none" stroke="#000000" stroke-miterlimit="10" points="557.273,616.92 573.815,645.569 540.733,645.569 
	557.277,616.923 "/>
<path fill="none" stroke="#000000" stroke-miterlimit="10" d="M358.393,690.398c-3.229-6.749-5.037-14.308-5.037-22.288
	c0-27.196,21.001-49.489,47.671-51.543"/>
<path fill="none" stroke="#000000" stroke-miterlimit="10" d="M296.682,616.567c26.669,2.054,47.671,24.347,47.671,51.543
	c0,7.98-1.809,15.537-5.037,22.286"/>
<path fill="none" stroke="#000000" stroke-miterlimit="10" d="M469.724,645.215c-9.29,13.752-25.022,22.793-42.868,22.793
	c-17.69,0-33.307-8.887-42.627-22.44"/>
<polyline fill="none" stroke="#000000" stroke-miterlimit="10" points="400.771,616.918 417.311,645.567 384.229,645.567 
	400.773,616.921 "/>
<polyline fill="none" stroke="#000000" stroke-miterlimit="10" points="453.184,616.566 469.724,645.215 436.643,645.215 
	453.186,616.568 "/>
<path fill="none" stroke="#000000" stroke-miterlimit="10" d="M201.892,690.399c-3.229-6.748-5.038-14.306-5.038-22.287
	c0-27.197,21.001-49.489,47.671-51.543"/>
<path fill="none" stroke="#000000" stroke-miterlimit="10" d="M140.181,616.569c26.67,2.054,47.672,24.346,47.672,51.543
	c0,7.979-1.809,15.537-5.037,22.286"/>
<path fill="none" stroke="#000000" stroke-miterlimit="10" d="M313.223,645.217c-9.29,13.752-25.022,22.793-42.868,22.793
	c-17.692,0-33.308-8.887-42.627-22.44"/>
<polyline fill="none" stroke="#000000" stroke-miterlimit="10" points="244.269,616.92 260.81,645.569 227.728,645.569 
	244.272,616.923 "/>
<polyline fill="none" stroke="#000000" stroke-miterlimit="10" points="140.178,616.566 156.719,645.215 123.637,645.215 
	140.181,616.569 "/>
<polyline fill="none" stroke="#000000" stroke-miterlimit="10" points="296.682,616.567 313.223,645.217 280.141,645.217 
	296.685,616.57 "/>
<polyline fill="none" stroke="#000000" stroke-miterlimit="10" points="62.183,661.394 78.724,690.044 45.642,690.044 
	62.186,661.397 "/>
<path fill="none" stroke="#000000" stroke-miterlimit="10" d="M45.642,690.044c-3.229-6.748-5.039-14.307-5.039-22.287
	c0-27.196,21.002-49.489,47.672-51.543"/>
<path fill="none" stroke="#000000" stroke-miterlimit="10" d="M156.973,644.861c-9.291,13.752-25.024,22.793-42.868,22.793
	c-17.692,0-33.308-8.887-42.627-22.439"/>
<polyline fill="none" stroke="#000000" stroke-miterlimit="10" points="88.019,616.564 104.56,645.215 71.478,645.215 
	88.022,616.567 "/>
<path fill="none" stroke="#000000" stroke-miterlimit="10" d="M548.227,599.678c-9.29,13.752-25.023,22.793-42.868,22.793
	c-17.691,0-33.308-8.886-42.628-22.439"/>
<path fill="none" stroke="#000000" stroke-miterlimit="10" d="M391.722,599.677c-9.289,13.752-25.022,22.793-42.867,22.793
	c-17.692,0-33.308-8.887-42.627-22.44"/>
<polyline fill="none" stroke="#000000" stroke-miterlimit="10" points="375.182,571.027 391.722,599.677 358.641,599.677 
	375.185,571.03 "/>
<polyline fill="none" stroke="#000000" stroke-miterlimit="10" points="479.272,571.382 495.813,600.031 462.73,600.031 
	479.275,571.385 "/>
<polyline fill="none" stroke="#000000" stroke-miterlimit="10" points="531.686,571.028 548.227,599.678 515.145,599.678 
	531.688,571.031 "/>
<path fill="none" stroke="#000000" stroke-miterlimit="10" d="M436.643,645.215c-3.229-6.749-5.039-14.308-5.039-22.287
	c0-27.197,21.001-49.488,47.672-51.543"/>
<path fill="none" stroke="#000000" stroke-miterlimit="10" d="M374.931,571.385c26.671,2.054,47.672,24.346,47.672,51.543
	c0,7.979-1.81,15.537-5.038,22.286"/>
<path fill="none" stroke="#000000" stroke-miterlimit="10" d="M531.181,571.74c26.67,2.054,47.671,24.346,47.671,51.543
	c0,7.979-1.808,15.537-5.036,22.286"/>
<polyline fill="none" stroke="#000000" stroke-miterlimit="10" points="323.021,571.026 339.563,599.676 306.481,599.676 
	323.025,571.028 "/>
<path fill="none" stroke="#000000" stroke-miterlimit="10" d="M235.222,599.679c-9.291,13.752-25.023,22.793-42.869,22.793
	c-17.692,0-33.307-8.887-42.627-22.439"/>
<polyline fill="none" stroke="#000000" stroke-miterlimit="10" points="166.267,571.382 182.809,600.032 149.726,600.032 
	166.271,571.385 "/>
<polyline fill="none" stroke="#000000" stroke-miterlimit="10" points="218.68,571.028 235.222,599.679 202.139,599.679 
	218.684,571.033 "/>
<path fill="none" stroke="#000000" stroke-miterlimit="10" d="M123.637,645.215c-3.229-6.748-5.038-14.306-5.038-22.287
	c0-27.197,21.002-49.487,47.672-51.543"/>
<path fill="none" stroke="#000000" stroke-miterlimit="10" d="M279.887,645.571c-3.229-6.75-5.038-14.307-5.038-22.288
	c0-27.196,21.001-49.488,47.672-51.542"/>
<path fill="none" stroke="#000000" stroke-miterlimit="10" d="M218.175,571.741c26.671,2.054,47.672,24.346,47.672,51.542
	c0,7.979-1.809,15.538-5.037,22.286"/>
<polyline fill="none" stroke="#000000" stroke-miterlimit="10" points="62.43,570.674 78.972,599.323 45.889,599.323 
	62.434,570.677 "/>
<path fill="none" stroke="#000000" stroke-miterlimit="10" d="M61.925,571.386c26.67,2.055,47.671,24.345,47.671,51.542
	c0,7.979-1.808,15.537-5.037,22.287"/>
<path fill="none" stroke="#000000" stroke-miterlimit="10" d="M469.971,554.494c-9.29,13.751-25.023,22.793-42.868,22.793
	c-17.691,0-33.307-8.888-42.627-22.439"/>
<path fill="none" stroke="#000000" stroke-miterlimit="10" d="M515.145,599.678c-3.229-6.749-5.039-14.307-5.039-22.287
	c0-27.196,21.002-49.488,47.673-51.542"/>
<path fill="none" stroke="#000000" stroke-miterlimit="10" d="M453.433,525.849c26.672,2.053,47.673,24.346,47.673,51.542
	c0,7.979-1.81,15.537-5.038,22.286"/>
<path fill="none" stroke="#000000" stroke-miterlimit="10" d="M358.641,599.677c-3.229-6.749-5.038-14.307-5.038-22.287
	c0-27.197,21.001-49.488,47.672-51.543"/>
<path fill="none" stroke="#000000" stroke-miterlimit="10" d="M296.929,525.847c26.67,2.054,47.672,24.346,47.672,51.543
	c0,7.979-1.81,15.537-5.038,22.286"/>
<polyline fill="none" stroke="#000000" stroke-miterlimit="10" points="453.43,525.844 469.971,554.494 436.889,554.494 
	453.433,525.847 "/>
<polyline fill="none" stroke="#000000" stroke-miterlimit="10" points="401.017,526.197 417.558,554.848 384.476,554.848 
	401.02,526.201 "/>
<polyline fill="none" stroke="#000000" stroke-miterlimit="10" points="557.267,526.554 573.809,555.202 540.726,555.202 
	557.271,526.557 "/>
<path fill="none" stroke="#000000" stroke-miterlimit="10" d="M202.139,599.679c-3.229-6.748-5.038-14.307-5.038-22.287
	c0-27.197,21.001-49.488,47.672-51.543"/>
<path fill="none" stroke="#000000" stroke-miterlimit="10" d="M140.428,525.849c26.67,2.054,47.672,24.346,47.672,51.543
	c0,7.979-1.808,15.537-5.037,22.285"/>
<path fill="none" stroke="#000000" stroke-miterlimit="10" d="M313.217,554.849c-9.292,13.752-25.023,22.794-42.869,22.794
	c-17.692,0-33.307-8.887-42.627-22.439"/>
<polyline fill="none" stroke="#000000" stroke-miterlimit="10" points="140.425,525.845 156.966,554.494 123.884,554.494 
	140.428,525.849 "/>
<polyline fill="none" stroke="#000000" stroke-miterlimit="10" points="244.262,526.554 260.803,555.203 227.721,555.203 
	244.265,526.557 "/>
<polyline fill="none" stroke="#000000" stroke-miterlimit="10" points="296.675,526.2 313.217,554.849 280.134,554.849 
	296.678,526.203 "/>
<path fill="none" stroke="#000000" stroke-miterlimit="10" d="M45.889,599.323c-3.229-6.749-5.039-14.307-5.039-22.287
	c0-27.197,21.002-49.487,47.673-51.543"/>
<path fill="none" stroke="#000000" stroke-miterlimit="10" d="M156.966,554.494c-9.291,13.752-25.023,22.793-42.869,22.793
	c-17.691,0-33.307-8.887-42.627-22.438"/>
<polyline fill="none" stroke="#000000" stroke-miterlimit="10" points="88.012,526.198 104.553,554.849 71.47,554.849 
	88.015,526.202 "/>
<path fill="none" stroke="#000000" stroke-miterlimit="10" d="M436.893,554.496c-3.23-6.748-5.038-14.306-5.038-22.286
	c0-27.197,21.001-49.488,47.672-51.543"/>
<path fill="none" stroke="#000000" stroke-miterlimit="10" d="M375.181,480.667c26.671,2.054,47.672,24.346,47.672,51.543
	c0,7.979-1.808,15.537-5.037,22.286"/>
<polyline fill="none" stroke="#000000" stroke-miterlimit="10" points="375.175,480.66 391.715,509.311 358.634,509.311 
	375.178,480.663 "/>
<polyline fill="none" stroke="#000000" stroke-miterlimit="10" points="323.016,480.659 339.557,509.31 306.474,509.31 
	323.019,480.663 "/>
<polyline fill="none" stroke="#000000" stroke-miterlimit="10" points="479.52,480.66 496.061,509.311 462.979,509.311 
	479.522,480.663 "/>
<path fill="none" stroke="#000000" stroke-miterlimit="10" d="M280.385,554.493c-3.229-6.749-5.039-14.307-5.039-22.288
	c0-27.196,21.002-49.488,47.672-51.542"/>
<path fill="none" stroke="#000000" stroke-miterlimit="10" d="M218.674,480.663c26.671,2.054,47.672,24.346,47.672,51.542
	c0,7.979-1.809,15.538-5.038,22.286"/>
<path fill="none" stroke="#000000" stroke-miterlimit="10" d="M123.887,554.497c-3.229-6.748-5.038-14.306-5.038-22.287
	c0-27.196,21.001-49.488,47.672-51.542"/>
<path fill="none" stroke="#000000" stroke-miterlimit="10" d="M62.176,480.668c26.67,2.054,47.671,24.346,47.671,51.542
	c0,7.979-1.809,15.537-5.037,22.286"/>
<polyline fill="none" stroke="#000000" stroke-miterlimit="10" points="62.17,480.661 78.711,509.311 45.629,509.311 
	62.173,480.664 "/>
<polyline fill="none" stroke="#000000" stroke-miterlimit="10" points="166.515,480.661 183.056,509.311 149.974,509.311 
	166.518,480.664 "/>
<path fill="none" stroke="#000000" stroke-miterlimit="10" d="M548.474,508.957c-9.29,13.751-25.022,22.793-42.868,22.793
	c-17.692,0-33.307-8.887-42.627-22.439"/>
<path fill="none" stroke="#000000" stroke-miterlimit="10" d="M391.97,508.956c-9.29,13.752-25.022,22.793-42.868,22.793
	c-17.691,0-33.307-8.888-42.627-22.439"/>
<path fill="none" stroke="#000000" stroke-miterlimit="10" d="M235.469,508.958c-9.29,13.751-25.023,22.793-42.868,22.793
	c-17.692,0-33.307-8.888-42.627-22.44"/>
<path fill="none" stroke="#000000" stroke-miterlimit="10" d="M531.174,481.374c26.67,2.054,47.672,24.346,47.672,51.541
	c0,7.979-1.809,15.537-5.037,22.287"/>
<polyline fill="none" stroke="#000000" stroke-miterlimit="10" points="531.174,481.374 547.715,510.022 514.633,510.022 
	531.177,481.377 "/>
<polyline fill="none" stroke="#000000" stroke-miterlimit="10" points="218.674,480.663 235.215,509.312 202.132,509.312 
	218.677,480.665 "/>
<polyline fill="none" stroke="#000000" stroke-miterlimit="10" points="453.427,435.481 469.968,464.131 436.885,464.131 
	453.43,435.483 "/>
<polyline fill="none" stroke="#000000" stroke-miterlimit="10" points="401.267,435.48 417.809,464.13 384.727,464.13 
	401.271,435.483 "/>
<path fill="none" stroke="#000000" stroke-miterlimit="10" d="M515.138,509.311c-3.229-6.748-5.039-14.306-5.039-22.287
	c0-27.196,21.002-49.487,47.673-51.542"/>
<path fill="none" stroke="#000000" stroke-miterlimit="10" d="M453.427,435.481c26.67,2.054,47.672,24.346,47.672,51.542
	c0,7.979-1.81,15.537-5.038,22.287"/>
<path fill="none" stroke="#000000" stroke-miterlimit="10" d="M358.634,509.311c-3.229-6.75-5.038-14.308-5.038-22.289
	c0-27.195,21.001-49.486,47.671-51.541"/>
<path fill="none" stroke="#000000" stroke-miterlimit="10" d="M296.922,435.48c26.669,2.054,47.671,24.346,47.671,51.541
	c0,7.98-1.809,15.538-5.037,22.288"/>
<path fill="none" stroke="#000000" stroke-miterlimit="10" d="M470.222,463.776c-9.29,13.752-25.022,22.793-42.868,22.793
	c-17.692,0-33.308-8.888-42.627-22.439"/>
<polyline fill="none" stroke="#000000" stroke-miterlimit="10" points="296.922,435.48 313.463,464.13 280.381,464.13 
	296.925,435.483 "/>
<polyline fill="none" stroke="#000000" stroke-miterlimit="10" points="244.763,435.479 261.304,464.129 228.222,464.129 
	244.766,435.481 "/>
<path fill="none" stroke="#000000" stroke-miterlimit="10" d="M313.715,463.771c-9.29,13.751-25.023,22.793-42.869,22.793
	c-17.692,0-33.308-8.888-42.627-22.439"/>
<polyline fill="none" stroke="#000000" stroke-miterlimit="10" points="140.421,435.481 156.963,464.131 123.88,464.131 
	140.425,435.484 "/>
<polyline fill="none" stroke="#000000" stroke-miterlimit="10" points="88.262,435.481 104.804,464.131 71.721,464.131 
	88.266,435.483 "/>
<path fill="none" stroke="#000000" stroke-miterlimit="10" d="M202.133,509.312c-3.229-6.748-5.038-14.306-5.038-22.287
	c0-27.197,21.001-49.488,47.671-51.543"/>
<path fill="none" stroke="#000000" stroke-miterlimit="10" d="M140.421,435.481c26.671,2.055,47.672,24.346,47.672,51.543
	c0,7.979-1.809,15.537-5.038,22.286"/>
<path fill="none" stroke="#000000" stroke-miterlimit="10" d="M45.629,509.311c-3.229-6.749-5.039-14.307-5.039-22.288
	c0-27.196,21.001-49.487,47.672-51.541"/>
<path fill="none" stroke="#000000" stroke-miterlimit="10" d="M157.217,463.776c-9.291,13.752-25.023,22.794-42.868,22.794
	c-17.692,0-33.307-8.888-42.627-22.439"/>
<polyline fill="none" stroke="#000000" stroke-miterlimit="10" points="558.02,435.119 574.561,463.771 541.478,463.771 
	558.022,435.123 "/>
<path fill="none" stroke="#000000" stroke-miterlimit="10" d="M436.885,464.131c-3.229-6.749-5.038-14.307-5.038-22.287
	c0-27.197,21.002-49.488,47.673-51.543"/>
<path fill="none" stroke="#000000" stroke-miterlimit="10" d="M375.175,390.301c26.67,2.055,47.671,24.346,47.671,51.543
	c0,7.979-1.807,15.537-5.037,22.286"/>
<polyline fill="none" stroke="#000000" stroke-miterlimit="10" points="479.516,390.297 496.058,418.946 462.975,418.946 
	479.52,390.301 "/>
<polyline fill="none" stroke="#000000" stroke-miterlimit="10" points="375.171,390.297 391.713,418.947 358.63,418.947 
	375.175,390.301 "/>
<path fill="none" stroke="#000000" stroke-miterlimit="10" d="M548.467,418.59c-9.29,13.753-25.022,22.794-42.867,22.794
	c-17.692,0-33.308-8.888-42.628-22.44"/>
<path fill="none" stroke="#000000" stroke-miterlimit="10" d="M391.963,418.589c-9.291,13.752-25.022,22.794-42.868,22.794
	c-17.692,0-33.308-8.887-42.627-22.439"/>
<polyline fill="none" stroke="#000000" stroke-miterlimit="10" points="323.012,390.296 339.553,418.945 306.471,418.945 
	323.015,390.299 "/>
<path fill="none" stroke="#000000" stroke-miterlimit="10" d="M280.381,464.13c-3.229-6.75-5.039-14.307-5.039-22.288
	c0-27.196,21.001-49.488,47.672-51.542"/>
<path fill="none" stroke="#000000" stroke-miterlimit="10" d="M218.67,390.299c26.67,2.053,47.671,24.346,47.671,51.542
	c0,7.98-1.809,15.538-5.038,22.287"/>
<path fill="none" stroke="#000000" stroke-miterlimit="10" d="M123.88,464.131c-3.229-6.748-5.037-14.306-5.037-22.287
	c0-27.196,21.001-49.488,47.671-51.542"/>
<path fill="none" stroke="#000000" stroke-miterlimit="10" d="M62.169,390.302c26.671,2.054,47.672,24.346,47.672,51.542
	c0,7.979-1.808,15.538-5.037,22.287"/>
<polyline fill="none" stroke="#000000" stroke-miterlimit="10" points="166.511,390.297 183.052,418.947 149.969,418.947 
	166.514,390.302 "/>
<polyline fill="none" stroke="#000000" stroke-miterlimit="10" points="62.166,390.298 78.707,418.948 45.625,418.948 
	62.169,390.302 "/>
<path fill="none" stroke="#000000" stroke-miterlimit="10" d="M235.462,418.591c-9.29,13.752-25.022,22.794-42.868,22.794
	c-17.692,0-33.307-8.888-42.627-22.44"/>
<path fill="none" stroke="#000000" stroke-miterlimit="10" d="M470.215,373.41c-9.29,13.752-25.022,22.792-42.868,22.792
	c-17.691,0-33.308-8.886-42.628-22.439"/>
<polyline fill="none" stroke="#000000" stroke-miterlimit="10" points="401.26,345.113 417.802,373.764 384.719,373.764 
	401.264,345.117 "/>
<polyline fill="none" stroke="#000000" stroke-miterlimit="10" points="453.674,344.761 470.215,373.41 437.132,373.41 
	453.677,344.764 "/>
<path fill="none" stroke="#000000" stroke-miterlimit="10" d="M358.63,418.946c-3.229-6.748-5.039-14.306-5.039-22.287
	c0-27.196,21.002-49.488,47.673-51.542"/>
<path fill="none" stroke="#000000" stroke-miterlimit="10" d="M296.918,345.117c26.671,2.054,47.673,24.346,47.673,51.542
	c0,7.979-1.809,15.537-5.038,22.286"/>
<polyline fill="none" stroke="#000000" stroke-miterlimit="10" points="296.918,345.117 313.461,373.766 280.377,373.766 
	296.921,345.12 "/>
<path fill="none" stroke="#000000" stroke-miterlimit="10" d="M515.388,418.594c-3.229-6.748-5.038-14.307-5.038-22.287
	c0-27.197,21.001-49.488,47.672-51.543"/>
<path fill="none" stroke="#000000" stroke-miterlimit="10" d="M453.677,344.764c26.67,2.054,47.672,24.346,47.672,51.543
	c0,7.979-1.809,15.537-5.038,22.286"/>
<path fill="none" stroke="#000000" stroke-miterlimit="10" d="M313.71,373.409c-9.29,13.751-25.022,22.793-42.867,22.793
	c-17.692,0-33.308-8.887-42.628-22.44"/>
<polyline fill="none" stroke="#000000" stroke-miterlimit="10" points="244.756,345.113 261.298,373.763 228.215,373.763 
	244.76,345.117 "/>
<polyline fill="none" stroke="#000000" stroke-miterlimit="10" points="531.926,389.941 548.467,418.59 515.385,418.59 
	531.929,389.944 "/>
<path fill="none" stroke="#000000" stroke-miterlimit="10" d="M157.209,373.41c-9.29,13.752-25.022,22.793-42.868,22.793
	c-17.691,0-33.307-8.887-42.627-22.439"/>
<polyline fill="none" stroke="#000000" stroke-miterlimit="10" points="88.255,345.114 104.796,373.765 71.714,373.765 
	88.258,345.117 "/>
<polyline fill="none" stroke="#000000" stroke-miterlimit="10" points="140.668,344.762 157.209,373.41 124.127,373.41 
	140.671,344.765 "/>
<path fill="none" stroke="#000000" stroke-miterlimit="10" d="M45.625,418.947c-3.229-6.748-5.038-14.306-5.038-22.287
	c0-27.197,21.001-49.488,47.671-51.543"/>
<path fill="none" stroke="#000000" stroke-miterlimit="10" d="M202.383,418.595c-3.229-6.748-5.038-14.307-5.038-22.287
	c0-27.197,21.002-49.488,47.672-51.543"/>
<path fill="none" stroke="#000000" stroke-miterlimit="10" d="M140.671,344.765c26.671,2.054,47.672,24.346,47.672,51.543
	c0,7.979-1.809,15.537-5.038,22.285"/>
<polyline fill="none" stroke="#000000" stroke-miterlimit="10" points="218.921,389.941 235.462,418.591 202.38,418.591 
	218.924,389.944 "/>
<polyline fill="none" stroke="#000000" stroke-miterlimit="10" points="558.015,344.757 574.557,373.406 541.475,373.406 
	558.02,344.76 "/>
<path fill="none" stroke="#000000" stroke-miterlimit="10" d="M531.926,389.941c26.67,2.054,47.672,24.347,47.672,51.541
	c0,7.98-1.809,15.538-5.037,22.288"/>
<path fill="none" stroke="#000000" stroke-miterlimit="10" d="M437.132,373.41c-3.229-6.749-5.037-14.306-5.037-22.287
	c0-27.197,21.001-49.489,47.671-51.543"/>
<path fill="none" stroke="#000000" stroke-miterlimit="10" d="M470.461,282.689c-9.289,13.752-25.021,22.793-42.867,22.793
	c-17.692,0-33.309-8.887-42.628-22.44"/>
<path fill="none" stroke="#000000" stroke-miterlimit="10" d="M375.421,299.581c26.671,2.053,47.672,24.346,47.672,51.543
	c0,7.979-1.809,15.537-5.037,22.286"/>
<polyline fill="none" stroke="#000000" stroke-miterlimit="10" points="479.509,299.931 496.05,328.581 462.967,328.581 
	479.512,299.935 "/>
<path fill="none" stroke="#000000" stroke-miterlimit="10" d="M280.374,373.765c-3.229-6.75-5.038-14.307-5.038-22.289
	c0-27.196,21-49.488,47.671-51.542"/>
<path fill="none" stroke="#000000" stroke-miterlimit="10" d="M313.703,283.042c-9.29,13.751-25.022,22.793-42.868,22.793
	c-17.692,0-33.307-8.887-42.627-22.439"/>
<path fill="none" stroke="#000000" stroke-miterlimit="10" d="M218.663,299.934c26.67,2.054,47.672,24.346,47.672,51.542
	c0,7.979-1.809,15.537-5.037,22.287"/>
<path fill="none" stroke="#000000" stroke-miterlimit="10" d="M391.959,328.226c-9.289,13.752-25.022,22.794-42.868,22.794
	c-17.692,0-33.308-8.888-42.628-22.44"/>
<polyline fill="none" stroke="#000000" stroke-miterlimit="10" points="323.256,299.572 339.797,328.222 306.715,328.222 
	323.26,299.576 "/>
<polyline fill="none" stroke="#000000" stroke-miterlimit="10" points="375.414,299.573 391.957,328.224 358.873,328.224 
	375.418,299.577 "/>
<path fill="none" stroke="#000000" stroke-miterlimit="10" d="M548.717,327.873c-9.289,13.751-25.021,22.792-42.868,22.792
	c-17.691,0-33.308-8.886-42.627-22.439"/>
<polyline fill="none" stroke="#000000" stroke-miterlimit="10" points="532.177,299.223 548.717,327.873 515.635,327.873 
	532.179,299.226 "/>
<path fill="none" stroke="#000000" stroke-miterlimit="10" d="M124.127,373.41c-3.229-6.748-5.038-14.305-5.038-22.287
	c0-27.196,21.001-49.489,47.672-51.543"/>
<path fill="none" stroke="#000000" stroke-miterlimit="10" d="M157.457,282.69c-9.291,13.751-25.023,22.792-42.868,22.792
	c-17.692,0-33.308-8.886-42.627-22.44"/>
<path fill="none" stroke="#000000" stroke-miterlimit="10" d="M62.417,299.581c26.67,2.053,47.672,24.346,47.672,51.542
	c0,7.979-1.809,15.537-5.038,22.287"/>
<polyline fill="none" stroke="#000000" stroke-miterlimit="10" points="166.504,299.931 183.045,328.582 149.963,328.582 
	166.507,299.935 "/>
<polyline fill="none" stroke="#000000" stroke-miterlimit="10" points="62.41,299.574 78.951,328.224 45.869,328.224 
	62.413,299.577 "/>
<path fill="none" stroke="#000000" stroke-miterlimit="10" d="M235.712,327.874c-9.29,13.751-25.022,22.792-42.869,22.792
	c-17.691,0-33.307-8.886-42.627-22.439"/>
<polyline fill="none" stroke="#000000" stroke-miterlimit="10" points="219.171,299.224 235.712,327.874 202.63,327.874 
	219.174,299.227 "/>
<path fill="none" stroke="#000000" stroke-miterlimit="10" d="M532.177,299.224c26.67,2.054,47.672,24.346,47.672,51.543
	c0,7.98-1.81,15.538-5.038,22.286"/>
<polyline fill="none" stroke="#000000" stroke-miterlimit="10" points="453.666,254.394 470.208,283.044 437.126,283.044 
	453.67,254.397 "/>
<polyline fill="none" stroke="#000000" stroke-miterlimit="10" points="401.508,254.393 418.048,283.042 384.966,283.042 
	401.51,254.396 "/>
<path fill="none" stroke="#000000" stroke-miterlimit="10" d="M515.378,328.224c-3.23-6.749-5.038-14.307-5.038-22.288
	c0-27.196,21.001-49.488,47.672-51.542"/>
<path fill="none" stroke="#000000" stroke-miterlimit="10" d="M453.666,254.394c26.671,2.054,47.673,24.346,47.673,51.542
	c0,7.98-1.809,15.537-5.038,22.287"/>
<polyline fill="none" stroke="#000000" stroke-miterlimit="10" points="297.163,254.393 313.703,283.042 280.621,283.042 
	297.166,254.396 "/>
<polyline fill="none" stroke="#000000" stroke-miterlimit="10" points="245.003,254.392 261.545,283.041 228.462,283.041 
	245.007,254.395 "/>
<path fill="none" stroke="#000000" stroke-miterlimit="10" d="M358.873,328.224c-3.229-6.75-5.038-14.307-5.038-22.288
	c0-27.197,21.002-49.488,47.673-51.542"/>
<path fill="none" stroke="#000000" stroke-miterlimit="10" d="M297.163,254.393c26.671,2.053,47.671,24.346,47.671,51.542
	c0,7.979-1.809,15.538-5.037,22.286"/>
<polyline fill="none" stroke="#000000" stroke-miterlimit="10" points="140.662,254.395 157.203,283.044 124.121,283.044 
	140.665,254.398 "/>
<polyline fill="none" stroke="#000000" stroke-miterlimit="10" points="88.502,254.394 105.044,283.043 71.961,283.043 
	88.506,254.396 "/>
<path fill="none" stroke="#000000" stroke-miterlimit="10" d="M202.373,328.225c-3.23-6.749-5.038-14.307-5.038-22.288
	c0-27.196,21.001-49.488,47.672-51.543"/>
<path fill="none" stroke="#000000" stroke-miterlimit="10" d="M140.662,254.395c26.67,2.054,47.671,24.347,47.671,51.543
	c0,7.979-1.809,15.537-5.038,22.287"/>
<path fill="none" stroke="#000000" stroke-miterlimit="10" d="M45.869,328.224c-3.229-6.75-5.038-14.307-5.038-22.288
	c0-27.197,21.001-49.488,47.671-51.542"/>
<polyline fill="none" stroke="#000000" stroke-miterlimit="10" points="558.008,254.391 574.55,283.04 541.467,283.04 
	558.012,254.394 "/>
<path fill="none" stroke="#000000" stroke-miterlimit="10" d="M437.126,283.044c-3.23-6.749-5.039-14.306-5.039-22.287
	c0-27.197,21.002-49.489,47.672-51.543"/>
<path fill="none" stroke="#000000" stroke-miterlimit="10" d="M470.454,192.323c-9.289,13.751-25.021,22.792-42.868,22.792
	c-17.691,0-33.307-8.887-42.627-22.439"/>
<path fill="none" stroke="#000000" stroke-miterlimit="10" d="M375.414,209.214c26.67,2.054,47.672,24.346,47.672,51.543
	c0,7.979-1.809,15.538-5.038,22.286"/>
<polyline fill="none" stroke="#000000" stroke-miterlimit="10" points="479.756,209.21 496.297,237.86 463.215,237.86 
	479.759,209.214 "/>
<polyline fill="none" stroke="#000000" stroke-miterlimit="10" points="375.411,209.21 391.952,237.86 358.87,237.86 
	375.414,209.214 "/>
<path fill="none" stroke="#000000" stroke-miterlimit="10" d="M548.707,237.503c-9.291,13.752-25.022,22.794-42.868,22.794
	c-17.691,0-33.308-8.888-42.627-22.44"/>
<path fill="none" stroke="#000000" stroke-miterlimit="10" d="M280.621,283.042c-3.229-6.748-5.038-14.306-5.038-22.287
	c0-27.196,21.001-49.489,47.67-51.543"/>
<path fill="none" stroke="#000000" stroke-miterlimit="10" d="M313.951,192.322c-9.29,13.751-25.023,22.792-42.869,22.792
	c-17.692,0-33.307-8.887-42.627-22.44"/>
<path fill="none" stroke="#000000" stroke-miterlimit="10" d="M218.91,209.212c26.67,2.054,47.672,24.347,47.672,51.543
	c0,7.98-1.809,15.537-5.037,22.286"/>
<polyline fill="none" stroke="#000000" stroke-miterlimit="10" points="323.252,209.208 339.793,237.858 306.71,237.858 
	323.254,209.212 "/>
<path fill="none" stroke="#000000" stroke-miterlimit="10" d="M392.203,237.502c-9.29,13.751-25.023,22.793-42.868,22.793
	c-17.692,0-33.307-8.887-42.628-22.44"/>
<polyline fill="none" stroke="#000000" stroke-miterlimit="10" points="532.166,208.854 548.707,237.503 515.625,237.503 
	532.17,208.856 "/>
<path fill="none" stroke="#000000" stroke-miterlimit="10" d="M124.121,283.044c-3.229-6.749-5.038-14.306-5.038-22.288
	c0-27.196,21.001-49.488,47.672-51.542"/>
<path fill="none" stroke="#000000" stroke-miterlimit="10" d="M157.45,192.324c-9.291,13.752-25.023,22.792-42.868,22.792
	c-17.692,0-33.308-8.886-42.627-22.439"/>
<path fill="none" stroke="#000000" stroke-miterlimit="10" d="M62.409,209.214c26.671,2.054,47.672,24.347,47.672,51.542
	c0,7.98-1.809,15.538-5.038,22.286"/>
<polyline fill="none" stroke="#000000" stroke-miterlimit="10" points="166.751,209.21 183.292,237.86 150.21,237.86 
	166.754,209.214 "/>
<polyline fill="none" stroke="#000000" stroke-miterlimit="10" points="62.406,209.211 78.947,237.861 45.865,237.861 
	62.409,209.214 "/>
<path fill="none" stroke="#000000" stroke-miterlimit="10" d="M235.703,237.504c-9.291,13.751-25.023,22.793-42.868,22.793
	c-17.692,0-33.308-8.887-42.627-22.44"/>
<polyline fill="none" stroke="#000000" stroke-miterlimit="10" points="219.161,208.854 235.703,237.504 202.62,237.504 
	219.165,208.857 "/>
<path fill="none" stroke="#000000" stroke-miterlimit="10" d="M532.165,208.854c26.671,2.053,47.673,24.346,47.673,51.543
	c0,7.979-1.809,15.536-5.037,22.286"/>
<polyline fill="none" stroke="#000000" stroke-miterlimit="10" points="401.501,164.026 418.042,192.676 384.959,192.676 
	401.504,164.03 "/>
<polyline fill="none" stroke="#000000" stroke-miterlimit="10" points="453.914,163.673 470.454,192.323 437.372,192.323 
	453.916,163.677 "/>
<path fill="none" stroke="#000000" stroke-miterlimit="10" d="M515.374,237.861c-3.229-6.749-5.038-14.306-5.038-22.287
	c0-27.197,21.001-49.489,47.672-51.543"/>
<path fill="none" stroke="#000000" stroke-miterlimit="10" d="M453.663,164.031c26.671,2.054,47.672,24.346,47.672,51.543
	c0,7.979-1.81,15.538-5.038,22.286"/>
<polyline fill="none" stroke="#000000" stroke-miterlimit="10" points="244.997,164.024 261.538,192.675 228.455,192.675 
	245,164.028 "/>
<polyline fill="none" stroke="#000000" stroke-miterlimit="10" points="297.41,163.672 313.951,192.322 280.868,192.322 
	297.413,163.676 "/>
<path fill="none" stroke="#000000" stroke-miterlimit="10" d="M358.87,237.86c-3.23-6.748-5.038-14.306-5.038-22.287
	c0-27.196,21.001-49.489,47.672-51.543"/>
<path fill="none" stroke="#000000" stroke-miterlimit="10" d="M297.159,164.03c26.669,2.054,47.671,24.347,47.671,51.543
	c0,7.979-1.808,15.537-5.037,22.286"/>
<polyline fill="none" stroke="#000000" stroke-miterlimit="10" points="88.496,164.027 105.037,192.677 71.955,192.677 
	88.499,164.03 "/>
<polyline fill="none" stroke="#000000" stroke-miterlimit="10" points="140.909,163.674 157.45,192.324 124.368,192.324 
	140.912,163.677 "/>
<path fill="none" stroke="#000000" stroke-miterlimit="10" d="M202.369,237.862c-3.23-6.749-5.038-14.306-5.038-22.287
	c0-27.196,21.001-49.489,47.672-51.543"/>
<path fill="none" stroke="#000000" stroke-miterlimit="10" d="M140.658,164.031c26.67,2.054,47.671,24.347,47.671,51.543
	c0,7.98-1.809,15.538-5.038,22.286"/>
<path fill="none" stroke="#000000" stroke-miterlimit="10" d="M45.865,237.86c-3.229-6.748-5.039-14.306-5.039-22.287
	c0-27.196,21.001-49.488,47.672-51.543"/>
<polyline fill="none" stroke="#000000" stroke-miterlimit="10" points="558.255,163.67 574.797,192.32 541.715,192.32 
	558.259,163.673 "/>
<path fill="none" stroke="#000000" stroke-miterlimit="10" d="M437.372,192.323c-3.229-6.749-5.038-14.306-5.038-22.287
	c0-27.197,21.002-49.489,47.672-51.543"/>
<path fill="none" stroke="#000000" stroke-miterlimit="10" d="M375.661,118.493c26.67,2.054,47.672,24.346,47.672,51.543
	c0,7.979-1.809,15.538-5.037,22.286"/>
<path fill="none" stroke="#000000" stroke-miterlimit="10" d="M548.703,147.141c-9.29,13.751-25.023,22.792-42.868,22.792
	c-17.691,0-33.307-8.886-42.627-22.439"/>
<polyline fill="none" stroke="#000000" stroke-miterlimit="10" points="479.749,118.844 496.29,147.494 463.208,147.494 
	479.752,118.847 "/>
<path fill="none" stroke="#000000" stroke-miterlimit="10" d="M280.868,192.322c-3.229-6.749-5.038-14.307-5.038-22.288
	c0-27.196,21.001-49.489,47.671-51.543"/>
<path fill="none" stroke="#000000" stroke-miterlimit="10" d="M219.157,118.492c26.67,2.053,47.672,24.346,47.672,51.542
	c0,7.98-1.809,15.537-5.037,22.286"/>
<path fill="none" stroke="#000000" stroke-miterlimit="10" d="M392.199,147.14c-9.29,13.751-25.022,22.792-42.869,22.792
	c-17.689,0-33.307-8.887-42.626-22.44"/>
<polyline fill="none" stroke="#000000" stroke-miterlimit="10" points="323.246,118.842 339.786,147.492 306.704,147.492 
	323.249,118.846 "/>
<polyline fill="none" stroke="#000000" stroke-miterlimit="10" points="375.659,118.49 392.199,147.14 359.117,147.14 
	375.661,118.493 "/>
<polyline fill="none" stroke="#000000" stroke-miterlimit="10" points="532.162,118.491 548.703,147.141 515.621,147.141 
	532.165,118.494 "/>
<path fill="none" stroke="#000000" stroke-miterlimit="10" d="M124.368,192.324c-3.229-6.749-5.038-14.306-5.038-22.288
	c0-27.196,21.001-49.488,47.672-51.542"/>
<path fill="none" stroke="#000000" stroke-miterlimit="10" d="M62.657,118.494c26.67,2.054,47.671,24.347,47.671,51.542
	c0,7.98-1.809,15.538-5.037,22.286"/>
<path fill="none" stroke="#000000" stroke-miterlimit="10" d="M235.699,147.141c-9.291,13.752-25.023,22.792-42.868,22.792
	c-17.692,0-33.308-8.886-42.628-22.44"/>
<polyline fill="none" stroke="#000000" stroke-miterlimit="10" points="166.744,118.844 183.286,147.494 150.203,147.494 
	166.748,118.848 "/>
<polyline fill="none" stroke="#000000" stroke-miterlimit="10" points="62.654,118.49 79.194,147.14 46.112,147.14 62.657,118.494 
	"/>
<polyline fill="none" stroke="#000000" stroke-miterlimit="10" points="219.157,118.492 235.699,147.141 202.616,147.141 
	219.161,118.495 "/>
<path fill="none" stroke="#000000" stroke-miterlimit="10" d="M532.163,118.492c26.67,2.054,47.671,24.346,47.671,51.542
	c0,7.98-1.809,15.538-5.037,22.287"/>
<path fill="none" stroke="#000000" stroke-miterlimit="10" d="M470.702,101.602c-9.29,13.752-25.023,22.793-42.869,22.793
	c-17.691,0-33.307-8.887-42.628-22.439"/>
<path fill="none" stroke="#000000" stroke-miterlimit="10" d="M314.197,101.602c-9.29,13.751-25.022,22.792-42.867,22.792
	c-17.692,0-33.308-8.886-42.627-22.44"/>
<path fill="none" stroke="#000000" stroke-miterlimit="10" d="M515.367,147.495c-3.229-6.749-5.038-14.307-5.038-22.288
	c0-27.197,21.001-49.488,47.672-51.542"/>
<path fill="none" stroke="#000000" stroke-miterlimit="10" d="M453.656,73.665c26.67,2.054,47.671,24.346,47.671,51.542
	c0,7.979-1.809,15.538-5.037,22.287"/>
<path fill="none" stroke="#000000" stroke-miterlimit="10" d="M157.697,101.603c-9.29,13.752-25.022,22.792-42.868,22.792
	c-17.692,0-33.308-8.886-42.627-22.439"/>
<path fill="none" stroke="#000000" stroke-miterlimit="10" d="M202.362,147.496c-3.229-6.749-5.038-14.307-5.038-22.288
	c0-27.196,21.001-49.488,47.671-51.542"/>
<path fill="none" stroke="#000000" stroke-miterlimit="10" d="M140.65,73.666c26.671,2.053,47.672,24.346,47.672,51.542
	c0,7.98-1.809,15.538-5.037,22.286"/>
<polyline fill="none" stroke="#000000" stroke-miterlimit="10" points="297.657,72.952 314.197,101.602 281.116,101.602 
	297.66,72.955 "/>
<polyline fill="none" stroke="#000000" stroke-miterlimit="10" points="401.748,73.306 418.289,101.956 385.205,101.956 
	401.751,73.309 "/>
<polyline fill="none" stroke="#000000" stroke-miterlimit="10" points="454.161,72.953 470.702,101.602 437.619,101.602 
	454.164,72.956 "/>
<path fill="none" stroke="#000000" stroke-miterlimit="10" d="M359.117,147.14c-3.229-6.75-5.038-14.308-5.038-22.288
	c0-27.196,21.001-49.488,47.672-51.542"/>
<path fill="none" stroke="#000000" stroke-miterlimit="10" d="M392.446,56.418c-9.29,13.751-25.023,22.794-42.868,22.794
	c-17.691,0-33.307-8.888-42.627-22.44"/>
<path fill="none" stroke="#000000" stroke-miterlimit="10" d="M297.405,73.309c26.671,2.054,47.673,24.346,47.673,51.542
	c0,7.98-1.81,15.537-5.038,22.286"/>
<path fill="none" stroke="#000000" stroke-miterlimit="10" d="M548.697,56.773c-9.292,13.751-25.024,22.793-42.869,22.793
	c-17.691,0-33.308-8.887-42.627-22.439"/>
<polyline fill="none" stroke="#000000" stroke-miterlimit="10" points="245.498,72.95 262.039,101.6 228.957,101.6 245.501,72.953 
	"/>
<polyline fill="none" stroke="#000000" stroke-miterlimit="10" points="88.743,73.307 105.284,101.956 72.202,101.956 88.746,73.31 
	"/>
<polyline fill="none" stroke="#000000" stroke-miterlimit="10" points="141.156,72.953 157.697,101.603 124.615,101.603 
	141.159,72.957 "/>
<path fill="none" stroke="#000000" stroke-miterlimit="10" d="M46.112,147.14c-3.229-6.749-5.039-14.307-5.039-22.287
	c0-27.197,21.002-49.488,47.672-51.543"/>
<path fill="none" stroke="#000000" stroke-miterlimit="10" d="M235.691,56.774c-9.29,13.752-25.022,22.793-42.868,22.793
	c-17.692,0-33.307-8.887-42.627-22.439"/>
<polyline fill="none" stroke="#000000" stroke-miterlimit="10" points="558.248,73.304 574.79,101.954 541.708,101.954 
	558.252,73.307 "/>
<path fill="none" stroke="#000000" stroke-miterlimit="10" d="M437.619,101.602c-3.229-6.749-5.038-14.306-5.038-22.287
	c0-27.197,21.002-49.488,47.673-51.542"/>
<path fill="none" stroke="#000000" stroke-miterlimit="10" d="M375.908,27.772c26.671,2.054,47.672,24.346,47.672,51.542
	c0,7.979-1.809,15.537-5.037,22.287"/>
<path fill="none" stroke="#000000" stroke-miterlimit="10" d="M281.116,101.602c-3.229-6.75-5.039-14.307-5.039-22.288
	c0-27.196,21.002-49.488,47.673-51.542"/>
<path fill="none" stroke="#000000" stroke-miterlimit="10" d="M219.405,27.771c26.67,2.054,47.671,24.346,47.671,51.542
	c0,7.979-1.809,15.537-5.037,22.286"/>
<polyline fill="none" stroke="#000000" stroke-miterlimit="10" points="375.905,27.769 392.446,56.418 359.364,56.418 
	375.908,27.771 "/>
<polyline fill="none" stroke="#000000" stroke-miterlimit="10" points="323.492,28.122 340.033,56.771 306.951,56.771 
	323.495,28.125 "/>
<polyline fill="none" stroke="#000000" stroke-miterlimit="10" points="479.742,28.478 496.283,57.127 463.201,57.127 
	479.746,28.481 "/>
<polyline fill="none" stroke="#000000" stroke-miterlimit="10" points="532.155,28.124 548.697,56.773 515.614,56.773 
	532.159,28.127 "/>
<path fill="none" stroke="#000000" stroke-miterlimit="10" d="M124.615,101.603c-3.229-6.749-5.038-14.307-5.038-22.288
	c0-27.197,21.001-49.488,47.672-51.542"/>
<path fill="none" stroke="#000000" stroke-miterlimit="10" d="M62.904,27.773c26.67,2.054,47.671,24.346,47.671,51.542
	c0,7.979-1.808,15.538-5.037,22.287"/>
<polyline fill="none" stroke="#000000" stroke-miterlimit="10" points="62.901,27.77 79.441,56.419 46.36,56.419 62.904,27.772 "/>
<polyline fill="none" stroke="#000000" stroke-miterlimit="10" points="166.737,28.478 183.278,57.128 150.196,57.128 
	166.74,28.481 "/>
<polyline fill="none" stroke="#000000" stroke-miterlimit="10" points="219.15,28.125 235.691,56.774 202.609,56.774 
	219.153,28.128 "/>
<path fill="none" stroke="#000000" stroke-miterlimit="10" d="M532.155,28.124c26.67,2.054,47.671,24.346,47.671,51.543
	c0,7.979-1.808,15.537-5.036,22.287"/>
</svg>
