<?xml version="1.0" encoding="utf-8"?>
<!-- Generator: Adobe Illustrator 16.0.0, SVG Export Plug-In . SVG Version: 6.00 Build 0)  -->
<!DOCTYPE svg PUBLIC "-//W3C//DTD SVG 1.1//EN" "http://www.w3.org/Graphics/SVG/1.1/DTD/svg11.dtd">
<svg version="1.1" xmlns="http://www.w3.org/2000/svg" xmlns:xlink="http://www.w3.org/1999/xlink" x="0px" y="0px" width="700px"
	 height="700px" viewBox="0 0 700 700" enable-background="new 0 0 700 700" xml:space="preserve">
<g id="Layer_4">
	<path fill="none" stroke="#000000" stroke-miterlimit="10" d="M460.995,152.353l-54.983-12.519
		c-54.984-12.519-70.489-11.474-70.489-11.474s-16.076-1.195-70.491,11.474l-54.986,12.519"/>
	<path fill="none" stroke="#000000" stroke-miterlimit="10" d="M205.728,128.332c75.753-2.969,129.793-4.769,129.793-4.769
		s54.461,1.798,130.214,4.769"/>
	<path fill="none" stroke="#000000" stroke-miterlimit="10" d="M470.232,103.893l-58.938-13.317
		c-58.937-13.317-75.557-12.204-75.557-12.204s-17.229-1.272-75.559,12.204l-58.936,13.317"/>
	<path fill="none" stroke="#000000" stroke-miterlimit="10" d="M196.612,78.339c81.199-3.156,139.125-5.071,139.125-5.071
		s58.376,1.912,139.573,5.071"/>
	<path fill="none" stroke="#000000" stroke-miterlimit="10" d="M479.828,51.829l-63.122-14.314
		c-63.124-14.316-80.925-13.118-80.925-13.118s-18.456-1.37-80.928,13.118l-63.122,14.314"/>
	<path fill="none" stroke="#000000" stroke-miterlimit="10" d="M186.773,24.361c86.966-3.395,149.005-5.452,149.005-5.452
		s62.525,2.056,149.491,5.452"/>
	<path fill="none" stroke="#000000" stroke-miterlimit="10" d="M437.844,280.017l-44.761-10.211
		c-44.761-10.212-57.384-9.356-57.384-9.356s-13.087-0.977-57.385,9.356l-44.761,10.211"/>
	<path fill="none" stroke="#000000" stroke-miterlimit="10" d="M230.037,260.423c61.669-2.419,105.662-3.889,105.662-3.889
		s44.334,1.467,106.002,3.889"/>
	<path fill="none" stroke="#000000" stroke-miterlimit="10" d="M445.362,240.492l-47.979-10.862
		c-47.979-10.86-61.51-9.954-61.51-9.954s-14.027-1.039-61.512,9.954l-47.977,10.862"/>
	<path fill="none" stroke="#000000" stroke-miterlimit="10" d="M222.615,219.649c66.102-2.574,113.256-4.135,113.256-4.135
		s47.525,1.56,113.626,4.135"/>
	<path fill="none" stroke="#000000" stroke-miterlimit="10" d="M453.175,198.029l-51.387-11.676
		c-51.387-11.676-65.879-10.699-65.879-10.699s-15.024-1.118-65.881,10.699l-51.387,11.676"/>
	<path fill="none" stroke="#000000" stroke-miterlimit="10" d="M214.605,175.625c70.797-2.77,121.304-4.446,121.304-4.446
		s50.897,1.676,121.696,4.446"/>
	<path fill="none" stroke="#000000" stroke-miterlimit="10" d="M418.832,383.628l-36.477-8.295
		c-36.475-8.295-46.76-7.602-46.76-7.602s-10.666-0.792-46.764,7.602l-36.475,8.295"/>
	<path fill="none" stroke="#000000" stroke-miterlimit="10" d="M249.492,367.711c50.253-1.967,86.104-3.158,86.104-3.158
		s36.127,1.191,86.38,3.158"/>
	<path fill="none" stroke="#000000" stroke-miterlimit="10" d="M424.957,351.518l-39.098-8.824
		c-39.097-8.824-50.123-8.085-50.123-8.085s-11.431-0.843-50.125,8.085l-39.097,8.824"/>
	<path fill="none" stroke="#000000" stroke-miterlimit="10" d="M243.444,334.586c53.866-2.093,92.291-3.359,92.291-3.359
		s38.726,1.266,92.592,3.359"/>
	<path fill="none" stroke="#000000" stroke-miterlimit="10" d="M431.324,317.02l-41.874-9.484
		c-41.876-9.486-53.685-8.691-53.685-8.691s-12.243-0.907-53.685,8.691l-41.875,9.484"/>
	<path fill="none" stroke="#000000" stroke-miterlimit="10" d="M236.918,298.819c57.69-2.248,98.847-3.613,98.847-3.613
		s41.477,1.363,99.169,3.613"/>
	<path fill="none" stroke="#000000" stroke-miterlimit="10" d="M403.387,468.14l-29.675-6.769c-29.676-6.767-38.043-6.2-38.043-6.2
		s-8.674-0.648-38.043,6.2l-29.673,6.769"/>
	<path fill="none" stroke="#000000" stroke-miterlimit="10" d="M265.621,455.153c40.884-1.605,70.047-2.576,70.047-2.576
		s29.393,0.971,70.277,2.576"/>
	<path fill="none" stroke="#000000" stroke-miterlimit="10" d="M408.372,441.942l-31.809-7.199
		c-31.808-7.196-40.778-6.594-40.778-6.594s-9.299-0.688-40.778,6.594l-31.808,7.199"/>
	<path fill="none" stroke="#000000" stroke-miterlimit="10" d="M260.701,428.132c43.824-1.707,75.083-2.742,75.083-2.742
		s31.508,1.035,75.33,2.742"/>
	<path fill="none" stroke="#000000" stroke-miterlimit="10" d="M413.55,413.802l-34.066-7.738
		c-34.066-7.74-43.674-7.092-43.674-7.092s-9.96-0.738-43.676,7.092l-34.067,7.738"/>
	<path fill="none" stroke="#000000" stroke-miterlimit="10" d="M255.39,398.954c46.936-1.834,80.42-2.948,80.42-2.948
		s33.743,1.114,80.679,2.948"/>
	<path fill="none" stroke="#000000" stroke-miterlimit="10" d="M390.791,536.919l-24.172-5.521
		c-24.173-5.521-30.99-5.057-30.99-5.057s-7.066-0.529-30.99,5.057l-24.17,5.521"/>
	<path fill="none" stroke="#000000" stroke-miterlimit="10" d="M278.57,526.328c33.301-1.31,57.059-2.104,57.059-2.104
		s23.943,0.795,57.247,2.104"/>
	<path fill="none" stroke="#000000" stroke-miterlimit="10" d="M394.852,515.552l-25.91-5.871
		c-25.911-5.873-33.218-5.381-33.218-5.381s-7.574-0.561-33.217,5.381l-25.911,5.871"/>
	<path fill="none" stroke="#000000" stroke-miterlimit="10" d="M274.56,504.284c35.699-1.392,61.164-2.234,61.164-2.234
		s25.663,0.843,61.36,2.234"/>
	<path fill="none" stroke="#000000" stroke-miterlimit="10" d="M399.071,492.597l-27.751-6.312
		c-27.751-6.312-35.577-5.782-35.577-5.782s-8.114-0.604-35.578,5.782l-27.752,6.312"/>
	<path fill="none" stroke="#000000" stroke-miterlimit="10" d="M270.235,480.486c38.233-1.497,65.509-2.404,65.509-2.404
		s27.485,0.907,65.72,2.404"/>
	<path fill="none" stroke="#000000" stroke-miterlimit="10" d="M380.396,592.899l-19.641-4.488
		c-19.642-4.49-25.18-4.113-25.18-4.113s-5.741-0.43-25.181,4.113l-19.64,4.488"/>
	<path fill="none" stroke="#000000" stroke-miterlimit="10" d="M289.211,584.287c27.062-1.065,46.365-1.711,46.365-1.711
		s19.455,0.646,46.512,1.711"/>
	<path fill="none" stroke="#000000" stroke-miterlimit="10" d="M383.696,575.524l-21.054-4.774
		c-21.052-4.775-26.989-4.376-26.989-4.376s-6.156-0.457-26.991,4.376l-21.054,4.774"/>
	<path fill="none" stroke="#000000" stroke-miterlimit="10" d="M285.956,566.363c29.005-1.132,49.697-1.817,49.697-1.817
		s20.851,0.686,49.856,1.817"/>
	<path fill="none" stroke="#000000" stroke-miterlimit="10" d="M387.126,556.857l-22.55-5.133
		c-22.549-5.132-28.908-4.702-28.908-4.702s-6.592-0.491-28.908,4.702l-22.549,5.133"/>
	<path fill="none" stroke="#000000" stroke-miterlimit="10" d="M282.44,547.01c31.067-1.218,53.228-1.957,53.228-1.957
		s22.333,0.739,53.4,1.957"/>
	<path fill="none" stroke="#000000" stroke-miterlimit="10" d="M372.08,638.627l-15.979-3.661
		c-15.977-3.663-20.485-3.356-20.485-3.356s-4.671-0.349-20.485,3.356l-15.979,3.661"/>
	<path fill="none" stroke="#000000" stroke-miterlimit="10" d="M297.896,631.601c22.016-0.869,37.719-1.395,37.719-1.395
		s15.83,0.525,37.842,1.395"/>
	<path fill="none" stroke="#000000" stroke-miterlimit="10" d="M374.764,624.452l-17.126-3.895
		c-17.128-3.896-21.958-3.569-21.958-3.569s-5.009-0.372-21.96,3.569l-17.126,3.895"/>
	<path fill="none" stroke="#000000" stroke-miterlimit="10" d="M295.248,616.978c23.597-0.922,40.432-1.482,40.432-1.482
		s16.965,0.561,40.562,1.482"/>
	<path fill="none" stroke="#000000" stroke-miterlimit="10" d="M377.554,609.226l-18.346-4.188
		c-18.343-4.187-23.518-3.836-23.518-3.836s-5.361-0.401-23.517,3.836l-18.344,4.188"/>
	<path fill="none" stroke="#000000" stroke-miterlimit="10" d="M292.39,601.19c25.273-0.992,43.301-1.595,43.301-1.595
		s18.171,0.603,43.444,1.595"/>
	<path fill="none" stroke="#000000" stroke-miterlimit="10" d="M365.298,675.843l-13.017-2.986
		c-13.016-2.986-16.686-2.736-16.686-2.736s-3.804-0.285-16.687,2.736l-13.017,2.986"/>
	<path fill="none" stroke="#000000" stroke-miterlimit="10" d="M304.871,670.113c17.931-0.708,30.725-1.138,30.725-1.138
		s12.892,0.43,30.824,1.138"/>
	<path fill="none" stroke="#000000" stroke-miterlimit="10" d="M367.485,664.282l-13.952-3.179
		c-13.952-3.176-17.887-2.911-17.887-2.911s-4.08-0.303-17.887,2.911l-13.952,3.179"/>
	<path fill="none" stroke="#000000" stroke-miterlimit="10" d="M302.711,658.186c19.221-0.754,32.935-1.209,32.935-1.209
		s13.82,0.455,33.041,1.209"/>
	<path fill="none" stroke="#000000" stroke-miterlimit="10" d="M369.758,651.86l-14.943-3.414
		c-14.944-3.417-19.157-3.13-19.157-3.13s-4.372-0.326-19.16,3.13l-14.942,3.414"/>
	<path fill="none" stroke="#000000" stroke-miterlimit="10" d="M300.382,645.308c20.586-0.81,35.275-1.299,35.275-1.299
		s14.799,0.487,35.387,1.299"/>
	<path fill="none" stroke="#000000" stroke-miterlimit="10" d="M306.893,681.092c16.802-0.65,28.791-1.045,28.791-1.045
		s12.08,0.395,28.881,1.045"/>
</g>
<g id="Layer_8">
	<line fill="none" stroke="#000000" stroke-miterlimit="10" x1="485.27" y1="24.361" x2="364.565" y2="681.092"/>
	<line fill="none" stroke="#000000" stroke-miterlimit="10" x1="306.893" y1="681.092" x2="186.773" y2="24.361"/>
</g>
</svg>
