<?xml version="1.0" encoding="utf-8"?>
<!-- Generator: Adobe Illustrator 16.0.0, SVG Export Plug-In . SVG Version: 6.00 Build 0)  -->
<!DOCTYPE svg PUBLIC "-//W3C//DTD SVG 1.1//EN" "http://www.w3.org/Graphics/SVG/1.1/DTD/svg11.dtd">
<svg version="1.1" xmlns="http://www.w3.org/2000/svg" xmlns:xlink="http://www.w3.org/1999/xlink" x="0px" y="0px" width="700px"
	 height="1000px" viewBox="0 0 700 1000" enable-background="new 0 0 700 1000" xml:space="preserve">
<g id="Layer_1">
	<polyline fill="none" stroke="#010101" stroke-miterlimit="10" points="552.459,856.9 509.625,782.711 393.291,715.045 
		393,715.377 307.332,715.377 307.475,715.797 190.709,782.711 147.875,856.9 	"/>
	<polyline fill="none" stroke="#010101" stroke-miterlimit="10" points="62.5,573.523 148.166,573.523 264.5,641.189 
		307.334,715.379 307.475,715.797 307.332,850.043 307.332,850.045 264.5,924.234 	"/>
	<polyline fill="none" stroke="#010101" stroke-miterlimit="10" points="637.98,573.438 552.314,573.438 552.457,573.857 
		435.689,640.773 435.834,641.188 393,715.377 393.291,715.045 393.291,849.711 393,850.043 435.834,924.232 	"/>
	<polyline fill="none" stroke="#010101" stroke-miterlimit="10" points="190.998,500 307.332,432.334 392.998,432.334 509.332,500 
		509.623,499.668 552.457,573.857 552.314,708.105 552.457,708.521 509.625,782.711 393.291,849.711 393,850.043 307.332,850.043 
		190.709,782.711 147.875,708.521 148.166,708.189 148.166,573.523 147.875,573.855 190.709,499.666 	"/>
	<polyline fill="none" stroke="#010101" stroke-miterlimit="10" points="638.266,291.23 552.6,291.23 435.832,358.145 
		392.998,432.334 392.723,432.666 392.723,567.332 392.998,567 435.832,641.189 435.689,640.773 552.314,708.105 637.98,708.105 	
		"/>
	<polyline fill="none" stroke="#010101" stroke-miterlimit="10" points="62.5,291.316 148.166,291.316 264.499,358.982 
		307.333,433.172 307.057,432.666 307.057,567.332 307.332,567 264.5,641.189 148.166,708.189 62.5,708.189 	"/>
	<polyline fill="none" stroke="#010101" stroke-miterlimit="10" points="190.998,500 307.332,567 392.998,567 509.332,500 
		509.623,499.667 552.457,425.479 552.6,291.23 552.457,291.649 509.623,217.46 393.289,149.793 392.998,150.127 307.332,150.127 
		190.565,217.041 190.708,217.46 147.874,291.649 148.166,291.316 148.166,425.982 147.875,426.315 190.708,500.504 	"/>
	<polyline fill="none" stroke="#010101" stroke-miterlimit="10" points="147.873,143.27 190.707,217.459 190.565,217.041 
		307.189,284.374 307.332,284.793 392.998,284.793 393.289,284.46 509.623,217.46 552.455,143.271 	"/>
	<polyline fill="none" stroke="#010101" stroke-miterlimit="10" points="435.832,75.938 392.998,150.127 393.289,149.793 
		393.289,284.46 392.998,284.793 435.832,358.982 435.832,358.145 552.457,425.479 552.6,425.896 638.266,425.896 	"/>
	<polyline fill="none" stroke="#010101" stroke-miterlimit="10" points="264.498,75.938 307.332,150.127 307.189,284.374 
		307.332,284.793 264.499,358.982 148.166,425.982 62.5,425.982 	"/>
</g>
<g id="Layer_3">
	<path fill="none" stroke="#CB4699" stroke-miterlimit="10" d="M509.626,782.71c-13.146-18.642-30.223-34.617-50.932-46.574
		c-20.711-11.957-43.086-18.759-65.808-20.819l-0.131-0.061c-9.572,20.704-14.869,43.481-14.869,67.396
		c0,23.916,5.297,46.694,14.873,67.399l-0.275,0.331c22.717-2.06,45.09-8.863,65.799-20.819
		c20.713-11.957,37.791-27.935,50.936-46.58"/>
	<path fill="none" stroke="#CB4699" stroke-miterlimit="10" d="M190.708,782.71c13.143-18.642,30.221-34.617,50.93-46.574
		c20.713-11.957,43.088-18.759,65.809-20.819l0.129-0.061c9.574,20.704,14.869,43.481,14.869,67.396
		c0,23.916-5.297,46.694-14.871,67.399l0.275,0.331c-22.717-2.06-45.092-8.863-65.801-20.819
		c-20.711-11.957-37.791-27.935-50.936-46.58"/>
	<path fill="none" stroke="#CB4699" stroke-miterlimit="10" d="M264.501,641.189c-13.145-18.643-30.223-34.617-50.932-46.574
		c-20.711-11.957-43.086-18.76-65.807-20.82l-0.131-0.061c-9.572,20.703-14.869,43.48-14.869,67.395
		c0,23.916,5.297,46.695,14.873,67.4l-0.276,0.332c22.717-2.061,45.09-8.863,65.799-20.82c20.713-11.957,37.791-27.934,50.936-46.58
		"/>
	<path fill="none" stroke="#CB4699" stroke-miterlimit="10" d="M435.833,641.188c13.144-18.643,30.221-34.617,50.93-46.574
		c20.713-11.957,43.088-18.76,65.81-20.82l0.129-0.061c9.574,20.703,14.869,43.48,14.869,67.395c0,23.916-5.297,46.695-14.871,67.4
		l0.275,0.332c-22.717-2.061-45.092-8.863-65.801-20.82c-20.711-11.957-37.791-27.934-50.936-46.58"/>
	<path fill="none" stroke="#CB4699" stroke-miterlimit="10" d="M509.737,499.729c-13.144-18.643-30.222-34.617-50.931-46.574
		c-20.713-11.958-43.088-18.761-65.809-20.821l-0.404,0.271c-9.574,20.703-14.869,43.48-14.869,67.395
		c0,23.916,5.298,46.695,14.871,67.4c22.717-2.061,45.092-8.863,65.801-20.82c20.711-11.957,37.791-27.934,50.936-46.58"/>
	<path fill="none" stroke="#CB4699" stroke-miterlimit="10" d="M307.588,567.673c9.576-20.705,14.873-43.483,14.873-67.399
		c0-23.914-5.297-46.691-14.869-67.396l0.145-0.271c-22.721,2.061-45.096,8.862-65.808,20.819
		c-20.709,11.957-37.787,27.933-50.931,46.574l0.406,0.272c13.145,18.646,30.224,34.623,50.937,46.58
		c20.709,11.956,43.082,18.76,65.799,20.819"/>
	<path fill="none" stroke="#CB4699" stroke-miterlimit="10" d="M264.5,358.982c-13.144-18.642-30.222-34.617-50.931-46.574
		c-20.712-11.958-43.087-18.76-65.808-20.821l-0.13-0.062c-9.573,20.706-14.869,43.482-14.869,67.395
		c0,23.916,5.297,46.695,14.872,67.402l-0.276,0.332c22.717-2.062,45.091-8.865,65.8-20.82
		c20.712-11.959,37.791-27.935,50.936-46.58"/>
	<path fill="none" stroke="#CB4699" stroke-miterlimit="10" d="M435.86,358.624c13.143-18.642,30.221-34.617,50.93-46.574
		c20.713-11.957,43.088-18.759,65.81-20.82l0.129-0.062c9.574,20.705,14.869,43.482,14.869,67.395
		c0,23.916-5.297,46.695-14.871,67.401l0.275,0.332c-22.717-2.062-45.092-8.864-65.801-20.82
		c-20.711-11.958-37.791-27.934-50.936-46.58"/>
	<path fill="none" stroke="#CB4699" stroke-miterlimit="10" d="M509.624,217.459c-13.146-18.642-30.223-34.617-50.932-46.574
		c-20.711-11.958-43.086-18.76-65.808-20.821l-0.131-0.06c-9.572,20.704-14.869,43.481-14.869,67.395
		c0,23.916,5.297,46.695,14.873,67.4l-0.275,0.331c22.717-2.06,45.09-8.863,65.799-20.82c20.713-11.957,37.791-27.934,50.936-46.58"
		/>
	<path fill="none" stroke="#CB4699" stroke-miterlimit="10" d="M190.565,217.04c13.144-18.642,30.222-34.617,50.931-46.574
		c20.712-11.957,43.087-18.759,65.808-20.82l0.13-0.061c9.573,20.705,14.869,43.482,14.869,67.395
		c0,23.916-5.297,46.695-14.872,67.401l0.276,0.331c-22.717-2.061-45.091-8.864-65.8-20.82
		c-20.712-11.958-37.791-27.934-50.936-46.58"/>
</g>
<g id="Layer_2">
	<polygon fill="none" stroke="#000000" stroke-miterlimit="10" points="62.5,573.523 62.5,708.189 147.875,856.9 264.5,924.234 
		435.834,924.232 552.459,856.9 637.98,708.105 637.98,573.438 638.266,425.896 638.266,291.23 552.455,143.271 435.832,75.938 
		264.498,75.938 147.873,143.27 62.5,291.316 62.5,425.982 	"/>
</g>
</svg>
