<?xml version="1.0" encoding="utf-8"?>
<!-- Generator: Adobe Illustrator 16.0.0, SVG Export Plug-In . SVG Version: 6.00 Build 0)  -->
<!DOCTYPE svg PUBLIC "-//W3C//DTD SVG 1.1//EN" "http://www.w3.org/Graphics/SVG/1.1/DTD/svg11.dtd">
<svg version="1.1" id="Layer_1" xmlns="http://www.w3.org/2000/svg" xmlns:xlink="http://www.w3.org/1999/xlink" x="0px" y="0px"
	 width="841.458px" height="607.469px" viewBox="0 0 841.458 607.469" enable-background="new 0 0 841.458 607.469"
	 xml:space="preserve">
<polyline fill="none" stroke="#000000" points="22.714,103.834 24.601,102.836 26.487,101.838 28.373,100.839 30.259,99.841 
	32.147,98.874 34.033,97.879 35.92,96.914 37.806,95.916 39.692,94.949 41.579,93.984 43.465,93.051 45.352,92.119 47.238,91.19 
	49.125,90.259 51.012,89.36 52.898,88.461 54.784,87.597 56.671,86.731 58.557,85.865 60.444,85.034 62.331,84.236 64.217,83.438 
	66.103,82.638 67.989,81.906 69.877,81.143 71.763,80.44 73.65,79.741 75.536,79.044 77.422,78.412 79.309,77.781 81.195,77.146 
	83.082,76.583 84.968,76.016 86.855,75.482 88.742,74.983 90.628,74.487 92.514,74.021 94.401,73.587 96.287,73.188 98.174,72.823 
	100.061,72.488 101.947,72.155 103.833,71.856 105.719,71.591 107.607,71.36 109.493,71.16 111.38,70.991 113.266,70.857 
	115.152,70.726 117.039,70.66 118.925,70.59 120.812,70.559 122.698,70.559 124.585,70.59 126.472,70.66 128.358,70.76 
	130.244,70.892 132.131,71.024 134.017,71.225 135.904,71.423 137.791,71.657 139.677,71.958 141.563,72.254 143.449,72.556 
	145.337,72.922 147.223,73.319 149.11,73.721 150.996,74.152 152.882,74.617 154.769,75.119 156.655,75.618 158.542,76.183 
	160.428,76.75 162.315,77.315 164.202,77.945 166.088,78.578 167.974,79.245 169.86,79.941 171.747,80.643 173.634,81.373 
	175.521,82.104 177.407,82.872 179.293,83.669 181.179,84.47 183.067,85.269 184.953,86.1 186.839,86.966 188.726,87.828 
	190.612,88.728 192.499,89.624 194.385,90.523 196.272,91.457 198.158,92.388 200.045,93.318 201.932,94.284 203.818,95.216 
	205.704,96.182 207.591,97.179 209.477,98.144 211.364,99.142 213.251,100.14 215.137,101.107 217.023,102.103 218.909,103.104 
	220.797,104.1 222.683,105.099 224.569,106.099 226.456,107.094 228.342,108.095 230.229,109.091 232.115,110.057 234.002,111.056 
	235.888,112.021 237.775,112.984 239.662,113.95 241.548,114.88 243.434,115.813 245.321,116.744 247.207,117.643 249.094,118.576 
	250.98,119.439 252.867,120.306 254.753,121.171 256.639,122.034 258.527,122.866 260.413,123.666 262.299,124.466 264.186,125.232 
	266.072,125.995 267.959,126.727 269.846,127.425 271.731,128.124 273.618,128.79 275.505,129.456 277.392,130.088 279.278,130.686 
	281.164,131.255 283.051,131.818 284.937,132.318 286.824,132.849 288.711,133.317 290.597,133.751 292.482,134.182 294.37,134.582 
	296.257,134.946 298.143,135.279 300.029,135.611 301.916,135.878 303.802,136.145 305.688,136.379 307.576,136.543 
	309.462,136.709 311.348,136.878 313.234,136.977 315.122,137.041 317.008,137.078 318.894,137.109 320.781,137.109 
	322.667,137.041 324.554,136.977 326.44,136.878 328.327,136.742 330.213,136.576 332.1,136.411 333.987,136.177 335.873,135.91 
	337.759,135.646 339.646,135.344 341.532,135.013 343.419,134.645 345.306,134.247 347.191,133.813 349.078,133.382 
	350.964,132.918 352.852,132.417 354.739,131.887 356.625,131.354 358.51,130.753 360.397,130.154 362.284,129.554 364.17,128.892 
	366.057,128.224 367.944,127.56 369.831,126.827 371.717,126.095 373.602,125.362 375.489,124.563 377.375,123.798 379.262,122.967 
	381.149,122.167 383.036,121.303 384.922,120.472 386.807,119.572 388.694,118.706 390.583,117.811 392.467,116.879 394.354,115.98 
	396.241,115.016 398.127,114.082 400.014,113.117 401.901,112.152 403.788,111.188 405.672,110.225 407.559,109.226 
	409.448,108.259 411.333,107.263 413.219,106.262 415.106,105.267 416.993,104.266 418.879,103.268 420.766,102.272 
	422.653,101.271 424.538,100.276 426.424,99.309 428.311,98.31 430.198,97.312 432.084,96.347 433.971,95.383 435.856,94.418 
	437.745,93.451 439.631,92.521 441.516,91.587 443.403,90.657 445.29,89.761 447.176,88.86 449.063,87.96 450.95,87.096 
	452.836,86.264 454.721,85.4 456.61,84.6 458.497,83.769 460.381,83.006 462.268,82.236 464.155,81.476 466.042,80.742 
	467.928,80.042 469.815,79.343 471.702,78.678 473.586,78.045 475.473,77.415 477.36,76.814 479.247,76.249 481.133,75.716 
	483.02,75.184 484.907,74.688 486.793,74.22 488.678,73.786 490.565,73.353 492.452,72.986 494.338,72.622 496.225,72.291 
	498.112,71.992 499.999,71.724 501.883,71.459 503.772,71.258 505.659,71.059 507.545,70.892 509.43,70.76 511.317,70.692 
	513.204,70.59 515.09,70.559 516.977,70.559 518.864,70.59 520.75,70.628 522.637,70.726 524.522,70.824 526.409,70.96 
	528.295,71.126 530.182,71.322 532.069,71.557 533.956,71.823 535.842,72.09 537.729,72.424 539.614,72.756 541.502,73.123 
	543.389,73.52 545.274,73.954 547.161,74.419 549.047,74.885 550.934,75.385 552.821,75.917 554.708,76.483 556.594,77.082 
	558.479,77.679 560.368,78.312 562.252,78.946 564.139,79.609 566.026,80.311 567.913,81.041 569.799,81.773 571.686,82.539 
	573.573,83.303 575.458,84.101 577.344,84.902 579.231,85.733 581.118,86.596 583.004,87.462 584.891,88.326 586.778,89.228 
	588.665,90.125 590.551,91.023 592.438,91.957 594.323,92.887 596.209,93.852 598.096,94.817 599.983,95.78 601.87,96.747 
	603.756,97.712 605.643,98.71 607.53,99.706 609.417,100.673 611.301,101.672 613.188,102.67 615.075,103.669 616.961,104.665 
	618.848,105.664 620.735,106.662 622.622,107.661 624.506,108.659 626.395,109.626 628.28,110.622 630.167,111.587 632.053,112.554 
	633.94,113.517 635.827,114.482 637.713,115.413 639.6,116.343 641.485,117.245 643.372,118.177 645.26,119.073 647.145,119.938 
	649.032,120.805 650.918,121.67 652.805,122.503 654.692,123.3 656.579,124.098 658.465,124.896 660.35,125.663 662.237,126.396 
	664.124,127.126 666.01,127.825 667.897,128.49 669.784,129.157 671.67,129.788 673.557,130.423 675.444,130.987 677.329,131.551 
	679.215,132.117 681.102,132.617 682.989,133.116 684.875,133.581 686.762,134.013 688.649,134.414 690.536,134.78 692.422,135.146 
	694.309,135.478 696.194,135.778 698.081,136.047 699.967,136.276 701.854,136.478 703.741,136.644 705.627,136.81 707.514,136.909 
	709.399,137.008 711.288,137.078 713.174,137.109 715.059,137.109 716.946,137.078 718.833,137.008 720.719,136.943 722.606,136.81 
	724.493,136.677 726.379,136.478 728.264,136.276 730.153,136.047 732.038,135.778 733.924,135.478 735.811,135.146 
	737.698,134.814 739.584,134.414 741.471,134.013 743.358,133.581 745.243,133.116 747.129,132.649 749.018,132.117 
	750.903,131.584 752.79,131.021 754.676,130.423 756.563,129.822 758.45,129.19 760.336,128.524 762.223,127.857 764.108,127.158 
	765.995,126.428 767.881,125.694 769.768,124.93 771.655,124.133 773.542,123.334 775.428,122.535 777.315,121.703 779.202,120.839 
	781.086,119.973 782.973,119.106 784.86,118.207 786.747,117.276 788.633,116.381 790.52,115.449 792.407,114.516 794.292,113.552 
	796.18,112.585 798.067,111.62 799.952,110.655 801.838,109.657 803.725,108.692 805.612,107.693 807.499,106.696 809.385,105.699 
	811.272,104.697 813.157,103.702 "/>
<polyline fill="none" stroke="#000000" points="813.157,103.966 811.272,102.971 809.385,101.969 807.499,100.972 805.612,99.975 
	803.725,98.976 801.838,98.011 799.952,97.013 798.067,96.048 796.18,95.083 794.292,94.116 792.407,93.152 790.52,92.219 
	788.633,91.287 786.747,90.392 784.86,89.461 782.973,88.562 781.086,87.695 779.202,86.829 777.315,85.965 775.428,85.133 
	773.542,84.334 771.655,83.535 769.768,82.738 767.881,81.974 765.995,81.24 764.108,80.51 762.223,79.811 760.336,79.144 
	758.45,78.478 756.563,77.846 754.676,77.245 752.79,76.646 750.903,76.084 749.018,75.551 747.129,75.019 745.243,74.552 
	743.358,74.087 741.471,73.655 739.584,73.254 737.698,72.854 735.811,72.521 733.924,72.19 732.038,71.89 730.153,71.621 
	728.264,71.392 726.379,71.19 724.493,70.991 722.606,70.858 720.719,70.725 718.833,70.66 716.946,70.59 715.059,70.559 
	713.174,70.559 711.288,70.59 709.399,70.66 707.514,70.759 705.627,70.858 703.741,71.024 701.854,71.19 699.967,71.392 
	698.081,71.621 696.194,71.89 694.309,72.19 692.422,72.521 690.536,72.888 688.649,73.254 686.762,73.655 684.875,74.087 
	682.989,74.552 681.102,75.051 679.215,75.551 677.329,76.117 675.444,76.681 673.557,77.245 671.67,77.88 669.784,78.511 
	667.897,79.178 666.01,79.843 664.124,80.542 662.237,81.272 660.35,82.005 658.465,82.771 656.579,83.57 654.692,84.368 
	652.805,85.165 650.918,85.998 649.032,86.863 647.145,87.729 645.26,88.595 643.372,89.491 641.485,90.423 639.6,91.325 
	637.713,92.255 635.827,93.186 633.94,94.151 632.053,95.114 630.167,96.081 628.28,97.046 626.395,98.042 624.506,99.009 
	622.622,100.007 620.735,101.006 618.848,102.004 616.961,103.003 615.075,103.999 613.188,104.998 611.301,105.996 
	609.417,106.995 607.53,107.962 605.643,108.958 603.756,109.956 601.87,110.921 599.983,111.888 598.096,112.851 596.209,113.816 
	594.323,114.781 592.438,115.711 590.551,116.645 588.665,117.543 586.778,118.44 584.891,119.342 583.004,120.206 581.118,121.072 
	579.231,121.935 577.344,122.766 575.458,123.567 573.573,124.365 571.686,125.129 569.799,125.895 567.913,126.627 
	566.026,127.357 564.139,128.059 562.252,128.722 560.368,129.356 558.479,129.989 556.594,130.586 554.708,131.185 
	552.821,131.751 550.934,132.283 549.047,132.783 547.161,133.249 545.274,133.714 543.389,134.148 541.502,134.545 
	539.614,134.912 537.729,135.244 535.842,135.578 533.956,135.845 532.069,136.111 530.182,136.346 528.295,136.542 
	526.409,136.708 524.522,136.844 522.637,136.942 520.75,137.04 518.864,137.078 516.977,137.109 515.09,137.109 513.204,137.078 
	511.317,136.976 509.43,136.908 507.545,136.776 505.659,136.609 503.772,136.41 501.883,136.209 499.999,135.944 498.112,135.676 
	496.225,135.377 494.338,135.046 492.452,134.682 490.565,134.315 488.678,133.882 486.793,133.448 484.907,132.98 483.02,132.484 
	481.133,131.952 479.247,131.419 477.36,130.854 475.473,130.253 473.586,129.623 471.702,128.99 469.815,128.325 467.928,127.626 
	466.042,126.926 464.155,126.192 462.268,125.432 460.381,124.662 458.497,123.899 456.61,123.068 454.721,122.268 452.836,121.404 
	450.95,120.572 449.063,119.708 447.176,118.808 445.29,117.907 443.403,117.011 441.516,116.081 439.631,115.147 437.745,114.217 
	435.856,113.25 433.971,112.285 432.084,111.321 430.198,110.355 428.311,109.358 426.424,108.359 424.538,107.392 422.653,106.397 
	420.766,105.396 418.879,104.4 416.993,103.402 415.106,102.401 413.219,101.406 411.333,100.405 409.448,99.409 407.559,98.442 
	405.672,97.443 403.788,96.479 401.901,95.516 400.014,94.551 398.127,93.586 396.241,92.652 394.354,91.688 392.467,90.789 
	390.583,89.857 388.694,88.962 386.807,88.096 384.922,87.196 383.036,86.365 381.149,85.501 379.262,84.701 377.375,83.87 
	375.489,83.104 373.602,82.306 371.717,81.573 369.831,80.841 367.944,80.108 366.057,79.444 364.17,78.776 362.284,78.114 
	360.397,77.514 358.51,76.915 356.625,76.313 354.739,75.781 352.852,75.251 350.964,74.75 349.078,74.286 347.191,73.854 
	345.306,73.421 343.419,73.023 341.532,72.655 339.646,72.324 337.759,72.022 335.873,71.758 333.987,71.491 332.1,71.257 
	330.213,71.092 328.327,70.926 326.44,70.79 324.554,70.691 322.667,70.627 320.781,70.559 318.894,70.559 317.008,70.59 
	315.122,70.627 313.234,70.691 311.348,70.79 309.462,70.959 307.576,71.125 305.688,71.289 303.802,71.523 301.916,71.79 
	300.029,72.057 298.143,72.389 296.257,72.722 294.37,73.086 292.482,73.486 290.597,73.917 288.711,74.351 286.824,74.819 
	284.937,75.35 283.051,75.85 281.164,76.413 279.278,76.982 277.392,77.58 275.505,78.212 273.618,78.878 271.731,79.544 
	269.846,80.243 267.959,80.941 266.072,81.673 264.186,82.436 262.299,83.202 260.413,84.002 258.527,84.802 256.639,85.634 
	254.753,86.497 252.867,87.362 250.98,88.229 249.094,89.092 247.207,90.025 245.321,90.924 243.434,91.854 241.548,92.788 
	239.662,93.718 237.775,94.684 235.888,95.647 234.002,96.612 232.115,97.611 230.229,98.577 228.342,99.573 226.456,100.574 
	224.569,101.569 222.683,102.569 220.797,103.568 218.909,104.564 217.023,105.565 215.137,106.561 213.251,107.528 
	211.364,108.526 209.477,109.524 207.591,110.489 205.704,111.486 203.818,112.452 201.932,113.384 200.045,114.35 198.158,115.28 
	196.272,116.211 194.385,117.145 192.499,118.044 190.612,118.94 188.726,119.84 186.839,120.702 184.953,121.568 183.067,122.399 
	181.179,123.198 179.293,123.999 177.407,124.796 175.521,125.563 173.634,126.295 171.747,127.025 169.86,127.727 167.974,128.423 
	166.088,129.09 164.202,129.723 162.315,130.353 160.428,130.918 158.542,131.485 156.655,132.05 154.769,132.549 152.882,133.051 
	150.996,133.516 149.11,133.947 147.223,134.349 145.337,134.746 143.449,135.112 141.563,135.414 139.677,135.71 137.791,136.011 
	135.904,136.245 134.017,136.443 132.131,136.644 130.244,136.776 128.358,136.908 126.472,137.008 124.585,137.078 
	122.698,137.109 120.812,137.109 118.925,137.078 117.039,137.008 115.152,136.942 113.266,136.811 111.38,136.677 109.493,136.508 
	107.607,136.308 105.719,136.077 103.833,135.812 101.947,135.513 100.061,135.18 98.174,134.845 96.287,134.48 94.401,134.081 
	92.514,133.647 90.628,133.181 88.742,132.685 86.855,132.186 84.968,131.652 83.082,131.085 81.195,130.521 79.309,129.887 
	77.422,129.256 75.536,128.624 73.65,127.927 71.763,127.228 69.877,126.525 67.989,125.762 66.103,125.03 64.217,124.23 
	62.331,123.432 60.444,122.634 58.557,121.803 56.671,120.937 54.784,120.071 52.898,119.207 51.012,118.308 49.125,117.409 
	47.238,116.478 45.352,115.549 43.465,114.617 41.579,113.684 39.692,112.719 37.806,111.752 35.92,110.754 34.033,109.789 
	32.147,108.794 30.259,107.827 28.373,106.829 26.487,105.83 24.601,104.832 22.714,103.834 "/>
<polyline fill="none" stroke="#000000" points="22.618,236.31 24.505,236.279 26.392,236.208 28.278,236.144 30.165,236.01 
	32.052,235.877 33.939,235.678 35.823,235.477 37.712,235.248 39.597,234.979 41.484,234.678 43.37,234.347 45.257,234.015 
	47.144,233.615 49.03,233.213 50.917,232.782 52.802,232.317 54.689,231.85 56.577,231.318 58.462,230.785 60.349,230.222 
	62.235,229.624 64.122,229.023 66.009,228.391 67.896,227.725 69.782,227.058 71.667,226.359 73.554,225.628 75.441,224.895 
	77.327,224.13 79.214,223.333 81.101,222.535 82.987,221.736 84.874,220.904 86.761,220.04 88.646,219.173 90.532,218.307 
	92.419,217.408 94.306,216.477 96.193,215.582 98.079,214.65 99.966,213.716 101.851,212.752 103.739,211.786 105.626,210.821 
	107.511,209.856 109.398,208.858 111.284,207.893 113.171,206.894 115.058,205.897 116.944,204.9 118.831,203.898 120.716,202.903 
	120.716,203.167 122.602,202.168 124.488,201.17 126.375,200.171 128.261,199.173 130.148,198.207 132.035,197.211 133.921,196.247 
	135.807,195.249 137.693,194.282 139.581,193.317 141.467,192.383 143.353,191.452 145.24,190.523 147.126,189.591 149.013,188.693 
	150.9,187.793 152.786,186.929 154.672,186.064 156.559,185.198 158.446,184.367 160.332,183.569 162.218,182.77 164.105,181.97 
	165.991,181.239 167.878,180.475 169.765,179.773 171.651,179.074 173.537,178.376 175.423,177.745 177.311,177.114 
	179.197,176.479 181.083,175.916 182.97,175.348 184.856,174.815 186.743,174.316 188.63,173.82 190.516,173.353 192.402,172.919 
	194.289,172.52 196.176,172.156 198.062,171.821 199.948,171.488 201.835,171.189 203.721,170.923 205.608,170.693 207.495,170.493 
	209.381,170.324 211.267,170.19 213.153,170.058 215.041,169.993 216.927,169.922 218.814,169.891 220.7,169.891 222.586,169.922 
	224.473,169.993 226.36,170.092 228.246,170.224 230.132,170.357 232.019,170.557 233.906,170.755 235.792,170.99 237.678,171.291 
	239.564,171.586 241.451,171.888 243.338,172.254 245.225,172.652 247.111,173.053 248.997,173.485 250.883,173.95 252.771,174.452 
	254.657,174.951 256.544,175.515 258.43,176.083 260.315,176.648 262.203,177.278 264.089,177.911 265.976,178.578 267.862,179.274 
	269.749,179.975 271.636,180.706 273.521,181.437 275.408,182.205 277.295,183.001 279.181,183.802 281.068,184.601 
	282.955,185.432 284.841,186.298 286.727,187.161 288.613,188.06 290.501,188.957 292.387,189.856 294.273,190.79 296.16,191.72 
	298.046,192.651 299.933,193.617 301.818,194.548 303.706,195.514 305.592,196.511 307.479,197.476 309.366,198.474 
	311.252,199.472 313.138,200.44 315.024,201.435 316.911,202.436 318.798,203.432 320.685,204.431 322.571,205.431 324.457,206.426 
	326.343,207.427 328.23,208.423 330.117,209.389 332.004,210.388 333.89,211.353 335.775,212.317 337.663,213.283 339.549,214.212 
	341.436,215.146 343.322,216.077 345.209,216.975 347.096,217.909 348.981,218.772 350.868,219.638 352.755,220.503 
	354.641,221.367 356.528,222.199 358.415,222.999 360.301,223.798 362.186,224.565 364.073,225.328 365.961,226.059 
	367.846,226.757 369.733,227.457 371.62,228.123 373.506,228.789 375.393,229.42 377.28,230.018 379.167,230.587 381.051,231.151 
	382.938,231.651 384.827,232.181 386.711,232.65 388.598,233.083 390.485,233.514 392.372,233.915 394.258,234.279 396.145,234.612 
	398.032,234.944 399.917,235.21 401.803,235.477 403.69,235.711 405.577,235.875 407.463,236.042 409.35,236.21 411.237,236.309 
	413.124,236.374 415.008,236.411 416.895,236.442 418.782,236.442 420.668,236.374 422.555,236.309 424.442,236.21 426.329,236.075 
	428.213,235.909 430.1,235.744 431.989,235.509 433.875,235.243 435.76,234.978 437.647,234.676 439.534,234.345 441.42,233.977 
	443.307,233.58 445.194,233.146 447.081,232.714 448.965,232.25 450.852,231.75 452.739,231.219 454.625,230.687 456.512,230.085 
	458.399,229.487 460.286,228.886 462.172,228.224 464.057,227.556 465.944,226.892 467.831,226.16 469.717,225.427 471.604,224.695 
	473.491,223.896 475.377,223.13 477.262,222.299 479.151,221.5 481.038,220.635 482.922,219.804 484.809,218.905 486.696,218.039 
	488.583,217.143 490.469,216.211 492.356,215.313 494.243,214.348 496.129,213.415 498.016,212.45 499.903,211.485 501.788,210.521 
	503.674,209.557 505.561,208.558 507.448,207.591 509.334,206.595 511.221,205.594 513.106,204.599 514.993,203.598 516.881,202.6 
	518.766,201.605 520.653,200.603 522.54,199.609 524.426,198.641 526.313,197.642 528.2,196.645 530.086,195.679 531.971,194.715 
	533.86,193.75 535.747,192.784 537.631,191.853 539.518,190.919 541.405,189.99 543.292,189.093 545.178,188.193 547.065,187.292 
	548.952,186.428 550.836,185.596 552.723,184.733 554.612,183.932 556.497,183.101 558.383,182.338 560.27,181.569 562.157,180.808 
	564.043,180.075 565.93,179.375 567.817,178.675 569.702,178.01 571.588,177.377 573.475,176.748 575.362,176.147 577.249,175.582 
	579.135,175.048 581.022,174.516 582.909,174.02 584.795,173.552 586.68,173.119 588.567,172.685 590.454,172.319 592.34,171.955 
	594.227,171.624 596.114,171.325 598,171.056 599.885,170.792 601.774,170.59 603.661,170.391 605.545,170.224 607.432,170.092 
	609.319,170.025 611.206,169.922 613.092,169.891 614.979,169.891 616.866,169.922 618.75,169.96 620.639,170.058 622.524,170.157 
	624.411,170.292 626.297,170.458 628.184,170.655 630.071,170.889 631.958,171.156 633.844,171.422 635.731,171.756 
	637.616,172.088 639.504,172.456 641.391,172.852 643.276,173.287 645.163,173.751 647.049,174.217 648.936,174.717 650.823,175.25 
	652.709,175.816 654.596,176.415 656.481,177.011 658.37,177.644 660.254,178.279 662.141,178.942 664.028,179.643 665.915,180.374 
	667.801,181.106 669.688,181.872 671.575,182.635 673.459,183.433 675.346,184.235 677.233,185.066 679.12,185.928 681.006,186.794 
	682.893,187.659 684.78,188.56 686.667,189.458 688.553,190.356 690.44,191.29 692.325,192.219 694.211,193.184 696.098,194.15 
	697.985,195.113 699.872,196.08 701.758,197.044 703.645,198.042 705.532,199.039 707.418,200.005 709.303,201.004 711.19,202.002 
	713.077,203.001 714.963,203.998 716.85,204.997 718.737,205.995 720.624,206.994 722.508,207.992 724.397,208.958 726.282,209.955 
	728.168,210.919 730.055,211.886 731.942,212.849 733.829,213.815 735.715,214.746 737.602,215.675 739.487,216.578 
	741.374,217.509 743.262,218.406 745.147,219.271 747.034,220.137 748.92,221.002 750.807,221.835 752.694,222.632 754.581,223.43 
	756.467,224.229 758.352,224.996 760.239,225.728 762.125,226.458 764.012,227.158 765.899,227.823 767.786,228.49 769.672,229.121 
	771.559,229.755 773.446,230.32 775.331,230.883 777.217,231.45 779.104,231.95 780.991,232.449 782.877,232.914 784.764,233.345 
	786.651,233.747 788.538,234.113 790.424,234.479 792.311,234.81 794.196,235.111 796.083,235.379 797.969,235.609 799.856,235.81 
	801.743,235.976 803.629,236.142 805.516,236.242 807.401,236.34 809.29,236.411 811.176,236.442 813.061,236.442 "/>
<polyline fill="none" stroke="#000000" points="22.618,169.759 24.505,169.791 26.392,169.861 28.278,169.925 30.165,170.059 
	32.052,170.192 33.939,170.391 35.823,170.592 37.712,170.822 39.597,171.09 41.484,171.391 43.37,171.722 45.257,172.054 
	47.144,172.455 49.03,172.856 50.917,173.288 52.802,173.752 54.689,174.219 56.577,174.751 58.462,175.285 60.349,175.847 
	62.235,176.446 64.122,177.046 66.009,177.678 67.896,178.344 69.782,179.011 71.667,179.71 73.554,180.441 75.441,181.174 
	77.327,181.939 79.214,182.736 81.101,183.535 82.987,184.333 84.874,185.166 86.761,186.03 88.646,186.896 90.532,187.762 
	92.419,188.662 94.306,189.592 96.193,190.488 98.079,191.419 99.966,192.353 101.851,193.317 103.739,194.284 105.626,195.249 
	107.511,196.213 109.398,197.211 111.284,198.176 113.171,199.175 115.058,200.172 116.944,201.169 118.831,202.171 
	120.716,203.167 122.602,204.165 124.488,205.163 126.375,206.162 128.261,207.16 130.148,208.126 132.035,209.122 133.921,210.086 
	135.807,211.084 137.693,212.051 139.581,213.016 141.467,213.95 143.353,214.881 145.24,215.81 147.126,216.742 149.013,217.64 
	150.9,218.54 152.786,219.404 154.672,220.269 156.559,221.135 158.446,221.966 160.332,222.764 162.218,223.563 164.105,224.363 
	165.991,225.094 167.878,225.858 169.765,226.56 171.651,227.259 173.537,227.957 175.423,228.588 177.311,229.219 179.197,229.854 
	181.083,230.417 182.97,230.985 184.856,231.518 186.743,232.017 188.63,232.513 190.516,232.98 192.402,233.414 194.289,233.813 
	196.176,234.177 198.062,234.512 199.948,234.845 201.835,235.144 203.721,235.41 205.608,235.64 207.495,235.84 209.381,236.009 
	211.267,236.143 213.153,236.275 215.041,236.34 216.927,236.411 218.814,236.442 220.7,236.442 222.586,236.411 224.473,236.34 
	226.36,236.241 228.246,236.109 230.132,235.976 232.019,235.776 233.906,235.578 235.792,235.343 237.678,235.042 239.564,234.747 
	241.451,234.445 243.338,234.079 245.225,233.681 247.111,233.28 248.997,232.848 250.883,232.383 252.771,231.881 254.657,231.382 
	256.544,230.818 258.43,230.25 260.315,229.685 262.203,229.055 264.089,228.422 265.976,227.755 267.862,227.059 269.749,226.358 
	271.636,225.627 273.521,224.896 275.408,224.128 277.295,223.332 279.181,222.531 281.068,221.732 282.955,220.901 
	284.841,220.035 286.727,219.172 288.613,218.273 290.501,217.376 292.387,216.477 294.273,215.543 296.16,214.613 298.046,213.682 
	299.933,212.716 301.818,211.785 303.706,210.819 305.592,209.822 307.479,208.857 309.366,207.859 311.252,206.861 
	313.138,205.893 315.024,204.898 316.911,203.897 318.798,202.901 320.685,201.902 322.571,200.902 324.457,199.907 
	326.343,198.906 328.23,197.91 330.117,196.944 332.004,195.945 333.89,194.98 335.775,194.016 337.663,193.05 339.549,192.121 
	341.436,191.187 343.322,190.256 345.209,189.358 347.096,188.424 348.981,187.561 350.868,186.695 352.755,185.83 354.641,184.966 
	356.528,184.134 358.415,183.334 360.301,182.535 362.186,181.768 364.073,181.005 365.961,180.274 367.846,179.576 
	369.733,178.876 371.62,178.21 373.506,177.544 375.393,176.913 377.28,176.315 379.167,175.746 381.051,175.182 382.938,174.682 
	384.827,174.152 386.711,173.683 388.598,173.25 390.485,172.819 392.372,172.418 394.258,172.054 396.145,171.721 398.032,171.389 
	399.917,171.123 401.803,170.856 403.69,170.622 405.577,170.458 407.463,170.292 409.35,170.123 411.237,170.024 413.124,169.959 
	415.008,169.922 416.895,169.891 418.782,169.891 420.668,169.959 422.555,170.024 424.442,170.123 426.329,170.258 
	428.213,170.424 430.1,170.589 431.989,170.824 433.875,171.09 435.76,171.355 437.647,171.657 439.534,171.988 441.42,172.356 
	443.307,172.753 445.194,173.187 447.081,173.619 448.965,174.083 450.852,174.583 452.739,175.114 454.625,175.646 
	456.512,176.248 458.399,176.846 460.286,177.447 462.172,178.109 464.057,178.777 465.944,179.441 467.831,180.173 
	469.717,180.906 471.604,181.638 473.491,182.437 475.377,183.203 477.262,184.034 479.151,184.833 481.038,185.698 
	482.922,186.529 484.809,187.428 486.696,188.294 488.583,189.19 490.469,190.122 492.356,191.02 494.243,191.985 496.129,192.918 
	498.016,193.883 499.903,194.848 501.788,195.812 503.674,196.776 505.561,197.775 507.448,198.742 509.334,199.738 
	511.221,200.739 513.106,201.734 514.993,202.735 516.881,203.733 518.766,204.728 520.653,205.73 522.54,206.724 524.426,207.692 
	526.313,208.691 528.2,209.688 530.086,210.654 531.971,211.618 533.86,212.583 535.747,213.549 537.631,214.48 539.518,215.414 
	541.405,216.343 543.292,217.24 545.178,218.14 547.065,219.041 548.952,219.905 550.836,220.737 552.723,221.6 554.612,222.401 
	556.497,223.232 558.383,223.995 560.27,224.764 562.157,225.525 564.043,226.258 565.93,226.958 567.817,227.658 569.702,228.323 
	571.588,228.956 573.475,229.585 575.362,230.186 577.249,230.751 579.135,231.285 581.022,231.817 582.909,232.313 
	584.795,232.781 586.68,233.214 588.567,233.648 590.454,234.014 592.34,234.378 594.227,234.709 596.114,235.008 598,235.277 
	599.885,235.542 601.774,235.743 603.661,235.942 605.545,236.109 607.432,236.241 609.319,236.308 611.206,236.411 
	613.092,236.442 614.979,236.442 616.866,236.411 618.75,236.373 620.639,236.275 622.524,236.176 624.411,236.041 626.297,235.875 
	628.184,235.678 630.071,235.444 631.958,235.177 633.844,234.911 635.731,234.577 637.616,234.245 639.504,233.877 
	641.391,233.481 643.276,233.046 645.163,232.582 647.049,232.116 648.936,231.616 650.823,231.083 652.709,230.517 
	654.596,229.918 656.481,229.322 658.37,228.689 660.254,228.054 662.141,227.391 664.028,226.69 665.915,225.959 667.801,225.227 
	669.688,224.461 671.575,223.698 673.459,222.9 675.346,222.098 677.233,221.267 679.12,220.405 681.006,219.539 682.893,218.674 
	684.78,217.773 686.667,216.875 688.553,215.977 690.44,215.043 692.325,214.114 694.211,213.149 696.098,212.183 697.985,211.22 
	699.872,210.253 701.758,209.289 703.645,208.291 705.532,207.294 707.418,206.328 709.303,205.329 711.19,204.331 713.077,203.332 
	714.963,202.335 716.85,201.336 718.737,200.338 720.624,199.339 722.508,198.341 724.397,197.375 726.282,196.378 728.168,195.414 
	730.055,194.447 731.942,193.484 733.829,192.518 735.715,191.587 737.602,190.658 739.487,189.755 741.374,188.824 
	743.262,187.927 745.147,187.062 747.034,186.196 748.92,185.331 750.807,184.498 752.694,183.701 754.581,182.903 756.467,182.104 
	758.352,181.337 760.239,180.605 762.125,179.875 764.012,179.175 765.899,178.51 767.786,177.843 769.672,177.212 771.559,176.578 
	773.446,176.013 775.331,175.45 777.217,174.883 779.104,174.383 780.991,173.884 782.877,173.419 784.764,172.988 786.651,172.586 
	788.538,172.22 790.424,171.854 792.311,171.523 794.196,171.222 796.083,170.954 797.969,170.724 799.856,170.523 801.743,170.357 
	803.629,170.191 805.516,170.091 807.401,169.993 809.29,169.922 811.176,169.891 813.061,169.891 "/>
<polyline fill="none" stroke="#000000" points="22.714,302.834 24.601,301.836 26.487,300.838 28.373,299.839 30.259,298.841 
	32.147,297.874 34.033,296.879 35.92,295.914 37.806,294.916 39.692,293.949 41.579,292.984 43.465,292.051 45.352,291.119 
	47.238,290.189 49.125,289.259 51.012,288.359 52.898,287.461 54.784,286.598 56.671,285.73 58.557,284.865 60.444,284.034 
	62.331,283.236 64.217,282.438 66.103,281.639 67.989,280.906 69.877,280.143 71.763,279.439 73.65,278.741 75.536,278.044 
	77.422,277.412 79.309,276.781 81.195,276.146 83.082,275.583 84.968,275.016 86.855,274.482 88.742,273.982 90.628,273.486 
	92.514,273.021 94.401,272.587 96.287,272.188 98.174,271.823 100.061,271.488 101.947,271.154 103.833,270.855 105.719,270.591 
	107.607,270.359 109.493,270.16 111.38,269.991 113.266,269.857 115.152,269.727 117.039,269.66 118.925,269.59 120.812,269.559 
	122.698,269.559 124.585,269.59 126.472,269.66 128.358,269.76 130.244,269.893 132.131,270.023 134.017,270.225 135.904,270.423 
	137.791,270.657 139.677,270.958 141.563,271.254 143.449,271.557 145.337,271.922 147.223,272.318 149.11,272.721 150.996,273.152 
	152.882,273.617 154.769,274.119 156.655,274.618 158.542,275.184 160.428,275.75 162.315,276.314 164.202,276.945 166.088,277.578 
	167.974,278.245 169.86,278.941 171.747,279.643 173.634,280.373 175.521,281.104 177.407,281.872 179.293,282.669 181.179,283.471 
	183.067,284.27 184.953,285.1 186.839,285.966 188.726,286.828 190.612,287.729 192.499,288.624 194.385,289.523 196.272,290.457 
	198.158,291.389 200.045,292.318 201.932,293.284 203.818,294.216 205.704,295.182 207.591,296.18 209.477,297.145 211.364,298.143 
	213.251,299.141 215.137,300.107 217.023,301.104 218.909,302.104 220.797,303.1 222.683,304.1 224.569,305.1 226.456,306.094 
	228.342,307.096 230.229,308.091 232.115,309.057 234.002,310.057 235.888,311.021 237.775,311.984 239.662,312.95 241.548,313.88 
	243.434,314.812 245.321,315.744 247.207,316.643 249.094,317.576 250.98,318.439 252.867,319.307 254.753,320.171 256.639,321.034 
	258.527,321.866 260.413,322.666 262.299,323.466 264.186,324.232 266.072,324.995 267.959,325.727 269.846,326.425 
	271.731,327.124 273.618,327.79 275.505,328.456 277.392,329.088 279.278,329.686 281.164,330.255 283.051,330.818 284.937,331.318 
	286.824,331.85 288.711,332.316 290.597,332.751 292.482,333.182 294.37,333.582 296.257,333.945 298.143,334.279 300.029,334.611 
	301.916,334.878 303.802,335.145 305.688,335.379 307.576,335.543 309.462,335.709 311.348,335.878 313.234,335.977 
	315.122,336.041 317.008,336.078 318.894,336.109 320.781,336.109 322.667,336.041 324.554,335.977 326.44,335.878 328.327,335.742 
	330.213,335.576 332.1,335.411 333.987,335.177 335.873,334.91 337.759,334.646 339.646,334.344 341.532,334.014 343.419,333.645 
	345.306,333.247 347.191,332.812 349.078,332.382 350.964,331.918 352.852,331.417 354.739,330.887 356.625,330.354 358.51,329.753 
	360.397,329.154 362.284,328.555 364.17,327.893 366.057,327.225 367.944,326.561 369.831,325.827 371.717,325.096 373.602,324.361 
	375.489,323.562 377.375,322.798 379.262,321.967 381.149,321.167 383.036,320.303 384.922,319.473 386.807,318.572 
	388.694,317.706 390.583,316.811 392.467,315.879 394.354,314.98 396.241,314.016 398.127,313.082 400.014,312.117 401.901,311.152 
	403.788,310.188 405.672,309.225 407.559,308.227 409.448,307.259 411.333,306.264 413.219,305.262 415.106,304.268 
	416.993,303.266 418.879,302.268 420.766,301.271 422.653,300.271 424.538,299.275 426.424,298.309 428.311,297.311 
	430.198,296.312 432.084,295.348 433.971,294.383 435.856,293.418 437.745,292.451 439.631,291.521 441.516,290.587 
	443.403,289.657 445.29,288.761 447.176,287.859 449.063,286.96 450.95,286.096 452.836,285.264 454.721,284.4 456.61,283.6 
	458.497,282.77 460.381,282.006 462.268,281.236 464.155,280.477 466.042,279.742 467.928,279.042 469.815,278.343 471.702,277.678 
	473.586,277.045 475.473,276.415 477.36,275.814 479.247,275.249 481.133,274.716 483.02,274.184 484.907,273.688 486.793,273.221 
	488.678,272.786 490.565,272.354 492.452,271.986 494.338,271.622 496.225,271.291 498.112,270.992 499.999,270.725 
	501.883,270.459 503.772,270.258 505.659,270.059 507.545,269.893 509.43,269.76 511.317,269.691 513.204,269.59 515.09,269.559 
	516.977,269.559 518.864,269.59 520.75,269.628 522.637,269.727 524.522,269.824 526.409,269.96 528.295,270.126 530.182,270.322 
	532.069,270.557 533.956,270.823 535.842,271.09 537.729,271.424 539.614,271.756 541.502,272.123 543.389,272.52 545.274,272.954 
	547.161,273.419 549.047,273.885 550.934,274.385 552.821,274.917 554.708,275.482 556.594,276.082 558.479,276.68 560.368,277.312 
	562.252,277.945 564.139,278.609 566.026,279.311 567.913,280.041 569.799,280.773 571.686,281.539 573.573,282.303 
	575.458,283.102 577.344,283.902 579.231,284.732 581.118,285.596 583.004,286.462 584.891,287.326 586.778,288.229 
	588.665,289.125 590.551,290.023 592.438,290.957 594.323,291.887 596.209,292.852 598.096,293.816 599.983,294.779 601.87,295.747 
	603.756,296.712 605.643,297.71 607.53,298.706 609.417,299.673 611.301,300.672 613.188,301.67 615.075,302.669 616.961,303.665 
	618.848,304.664 620.735,305.662 622.622,306.661 624.506,307.659 626.395,308.626 628.28,309.622 630.167,310.587 632.053,311.555 
	633.94,312.518 635.827,313.482 637.713,314.413 639.6,315.343 641.485,316.245 643.372,317.177 645.26,318.073 647.145,318.938 
	649.032,319.805 650.918,320.67 652.805,321.503 654.692,322.3 656.579,323.098 658.465,323.896 660.35,324.663 662.237,325.396 
	664.124,326.126 666.01,326.825 667.897,327.49 669.784,328.157 671.67,328.788 673.557,329.423 675.444,329.986 677.329,330.551 
	679.215,331.117 681.102,331.617 682.989,332.116 684.875,332.581 686.762,333.014 688.649,333.414 690.536,333.779 
	692.422,334.146 694.309,334.479 696.194,334.777 698.081,335.047 699.967,335.275 701.854,335.479 703.741,335.645 
	705.627,335.811 707.514,335.909 709.399,336.008 711.288,336.078 713.174,336.109 715.059,336.109 716.946,336.078 
	718.833,336.008 720.719,335.943 722.606,335.811 724.493,335.677 726.379,335.479 728.264,335.275 730.153,335.047 
	732.038,334.777 733.924,334.479 735.811,334.146 737.698,333.814 739.584,333.414 741.471,333.014 743.358,332.581 
	745.243,332.116 747.129,331.648 749.018,331.117 750.903,330.584 752.79,330.021 754.676,329.423 756.563,328.822 758.45,328.189 
	760.336,327.523 762.223,326.857 764.108,326.158 765.995,325.428 767.881,324.693 769.768,323.93 771.655,323.133 773.542,322.334 
	775.428,321.535 777.315,320.703 779.202,319.839 781.086,318.973 782.973,318.105 784.86,317.207 786.747,316.275 788.633,315.381 
	790.52,314.449 792.407,313.516 794.292,312.552 796.18,311.585 798.067,310.62 799.952,309.654 801.838,308.657 803.725,307.691 
	805.612,306.693 807.499,305.695 809.385,304.699 811.272,303.697 813.157,302.702 "/>
<polyline fill="none" stroke="#000000" points="813.157,302.966 811.272,301.971 809.385,300.969 807.499,299.973 805.612,298.975 
	803.725,297.977 801.838,297.011 799.952,296.014 798.067,295.048 796.18,294.083 794.292,293.116 792.407,292.152 790.52,291.219 
	788.633,290.287 786.747,289.393 784.86,288.461 782.973,287.562 781.086,286.695 779.202,285.829 777.315,284.965 775.428,284.133 
	773.542,283.334 771.655,282.535 769.768,281.738 767.881,280.975 765.995,280.24 764.108,279.51 762.223,278.811 760.336,278.145 
	758.45,277.479 756.563,276.846 754.676,276.245 752.79,275.646 750.903,275.084 749.018,274.551 747.129,274.02 745.243,273.552 
	743.358,273.087 741.471,272.654 739.584,272.254 737.698,271.854 735.811,271.521 733.924,271.189 732.038,270.891 
	730.153,270.621 728.264,270.393 726.379,270.189 724.493,269.991 722.606,269.857 720.719,269.725 718.833,269.66 716.946,269.59 
	715.059,269.559 713.174,269.559 711.288,269.59 709.399,269.66 707.514,269.759 705.627,269.857 703.741,270.023 701.854,270.189 
	699.967,270.393 698.081,270.621 696.194,270.891 694.309,271.189 692.422,271.521 690.536,271.889 688.649,272.254 
	686.762,272.654 684.875,273.087 682.989,273.552 681.102,274.051 679.215,274.551 677.329,275.117 675.444,275.682 
	673.557,276.245 671.67,276.88 669.784,277.511 667.897,278.178 666.01,278.843 664.124,279.542 662.237,280.271 660.35,281.005 
	658.465,281.771 656.579,282.57 654.692,283.368 652.805,284.165 650.918,284.998 649.032,285.863 647.145,286.729 645.26,287.596 
	643.372,288.491 641.485,289.423 639.6,290.325 637.713,291.255 635.827,292.186 633.94,293.15 632.053,294.114 630.167,295.081 
	628.28,296.046 626.395,297.042 624.506,298.009 622.622,299.007 620.735,300.006 618.848,301.004 616.961,302.003 615.075,302.999 
	613.188,303.998 611.301,304.996 609.417,305.995 607.53,306.962 605.643,307.958 603.756,308.956 601.87,309.921 599.983,310.889 
	598.096,311.852 596.209,312.816 594.323,313.781 592.438,314.711 590.551,315.645 588.665,316.543 586.778,317.439 
	584.891,318.342 583.004,319.206 581.118,320.072 579.231,320.936 577.344,321.766 575.458,322.566 573.573,323.365 
	571.686,324.129 569.799,324.895 567.913,325.627 566.026,326.357 564.139,327.059 562.252,327.723 560.368,328.355 
	558.479,328.989 556.594,329.586 554.708,330.186 552.821,330.751 550.934,331.283 549.047,331.783 547.161,332.249 
	545.274,332.714 543.389,333.148 541.502,333.545 539.614,333.912 537.729,334.244 535.842,334.578 533.956,334.846 
	532.069,335.111 530.182,335.346 528.295,335.542 526.409,335.708 524.522,335.844 522.637,335.941 520.75,336.04 518.864,336.078 
	516.977,336.109 515.09,336.109 513.204,336.078 511.317,335.977 509.43,335.908 507.545,335.775 505.659,335.609 503.772,335.41 
	501.883,335.209 499.999,334.943 498.112,334.676 496.225,334.377 494.338,334.046 492.452,333.682 490.565,333.314 
	488.678,332.882 486.793,332.448 484.907,331.98 483.02,331.484 481.133,330.952 479.247,330.419 477.36,329.854 475.473,329.253 
	473.586,328.623 471.702,327.99 469.815,327.325 467.928,326.626 466.042,325.926 464.155,325.191 462.268,324.432 460.381,323.662 
	458.497,322.898 456.61,322.068 454.721,321.268 452.836,320.404 450.95,319.572 449.063,318.708 447.176,317.809 445.29,316.907 
	443.403,316.011 441.516,315.081 439.631,314.146 437.745,313.217 435.856,312.25 433.971,311.285 432.084,310.32 430.198,309.355 
	428.311,308.357 426.424,307.359 424.538,306.393 422.653,305.396 420.766,304.396 418.879,303.4 416.993,302.402 415.106,301.4 
	413.219,300.406 411.333,299.404 409.448,298.409 407.559,297.441 405.672,296.443 403.788,295.479 401.901,294.516 
	400.014,293.551 398.127,292.586 396.241,291.652 394.354,290.688 392.467,289.789 390.583,288.857 388.694,287.962 
	386.807,287.096 384.922,286.195 383.036,285.365 381.149,284.501 379.262,283.701 377.375,282.87 375.489,282.104 373.602,281.307 
	371.717,280.573 369.831,279.841 367.944,279.107 366.057,278.443 364.17,277.775 362.284,277.114 360.397,276.514 358.51,275.915 
	356.625,275.312 354.739,274.781 352.852,274.251 350.964,273.75 349.078,273.286 347.191,272.854 345.306,272.421 343.419,272.023 
	341.532,271.654 339.646,271.324 337.759,271.021 335.873,270.758 333.987,270.491 332.1,270.257 330.213,270.092 328.327,269.926 
	326.44,269.79 324.554,269.691 322.667,269.627 320.781,269.559 318.894,269.559 317.008,269.59 315.122,269.627 313.234,269.691 
	311.348,269.79 309.462,269.959 307.576,270.125 305.688,270.289 303.802,270.523 301.916,270.79 300.029,271.057 298.143,271.389 
	296.257,271.723 294.37,272.086 292.482,272.486 290.597,272.917 288.711,273.352 286.824,273.818 284.937,274.35 283.051,274.85 
	281.164,275.413 279.278,275.982 277.392,276.58 275.505,277.212 273.618,277.878 271.731,278.544 269.846,279.243 267.959,279.941 
	266.072,280.673 264.186,281.436 262.299,282.202 260.413,283.002 258.527,283.802 256.639,284.634 254.753,285.497 
	252.867,286.361 250.98,287.229 249.094,288.092 247.207,289.025 245.321,289.924 243.434,290.854 241.548,291.788 239.662,292.718 
	237.775,293.684 235.888,294.646 234.002,295.611 232.115,296.611 230.229,297.577 228.342,298.573 226.456,299.574 
	224.569,300.568 222.683,301.568 220.797,302.568 218.909,303.564 217.023,304.564 215.137,305.561 213.251,306.527 
	211.364,307.525 209.477,308.523 207.591,309.489 205.704,310.486 203.818,311.452 201.932,312.384 200.045,313.35 198.158,314.279 
	196.272,315.211 194.385,316.145 192.499,317.044 190.612,317.939 188.726,318.84 186.839,319.702 184.953,320.568 183.067,321.398 
	181.179,322.198 179.293,322.999 177.407,323.796 175.521,324.562 173.634,325.295 171.747,326.025 169.86,326.727 167.974,327.423 
	166.088,328.09 164.202,328.723 162.315,329.354 160.428,329.918 158.542,330.484 156.655,331.05 154.769,331.549 152.882,332.051 
	150.996,332.516 149.11,332.947 147.223,333.35 145.337,333.746 143.449,334.111 141.563,334.414 139.677,334.71 137.791,335.011 
	135.904,335.245 134.017,335.443 132.131,335.645 130.244,335.775 128.358,335.908 126.472,336.008 124.585,336.078 
	122.698,336.109 120.812,336.109 118.925,336.078 117.039,336.008 115.152,335.941 113.266,335.811 111.38,335.677 109.493,335.508 
	107.607,335.309 105.719,335.077 103.833,334.812 101.947,334.514 100.061,334.18 98.174,333.846 96.287,333.48 94.401,333.081 
	92.514,332.646 90.628,332.182 88.742,331.686 86.855,331.186 84.968,330.652 83.082,330.085 81.195,329.521 79.309,328.887 
	77.422,328.256 75.536,327.624 73.65,326.927 71.763,326.229 69.877,325.525 67.989,324.762 66.103,324.029 64.217,323.23 
	62.331,322.432 60.444,321.634 58.557,320.803 56.671,319.938 54.784,319.07 52.898,318.207 51.012,317.309 49.125,316.409 
	47.238,315.479 45.352,314.549 43.465,313.617 41.579,312.684 39.692,311.719 37.806,310.752 35.92,309.754 34.033,308.789 
	32.147,307.794 30.259,306.827 28.373,305.829 26.487,304.83 24.601,303.832 22.714,302.834 "/>
<polyline fill="none" stroke="#000000" points="22.618,435.311 24.505,435.279 26.392,435.209 28.278,435.145 30.165,435.01 
	32.052,434.877 33.939,434.678 35.823,434.477 37.712,434.248 39.597,433.979 41.484,433.678 43.37,433.348 45.257,433.016 
	47.144,432.615 49.03,432.213 50.917,431.781 52.802,431.316 54.689,430.85 56.577,430.318 58.462,429.785 60.349,429.223 
	62.235,428.623 64.122,428.023 66.009,427.391 67.896,426.725 69.782,426.059 71.667,425.359 73.554,424.629 75.441,423.895 
	77.327,423.131 79.214,422.334 81.101,421.535 82.987,420.736 84.874,419.904 86.761,419.039 88.646,418.174 90.532,417.307 
	92.419,416.408 94.306,415.477 96.193,414.582 98.079,413.65 99.966,412.717 101.851,411.752 103.739,410.785 105.626,409.82 
	107.511,408.855 109.398,407.857 111.284,406.893 113.171,405.895 115.058,404.896 116.944,403.9 118.831,402.898 120.716,401.902 
	120.716,402.166 122.602,401.168 124.488,400.17 126.375,399.172 128.261,398.174 130.148,397.207 132.035,396.211 133.921,395.246 
	135.807,394.248 137.693,393.281 139.581,392.316 141.467,391.383 143.353,390.451 145.24,389.523 147.126,388.592 149.013,387.693 
	150.9,386.793 152.786,385.93 154.672,385.064 156.559,384.197 158.446,383.367 160.332,382.568 162.218,381.77 164.105,380.971 
	165.991,380.238 167.878,379.475 169.765,378.773 171.651,378.074 173.537,377.377 175.423,376.744 177.311,376.113 
	179.197,375.479 181.083,374.916 182.97,374.348 184.856,373.814 186.743,373.316 188.63,372.82 190.516,372.354 192.402,371.92 
	194.289,371.52 196.176,371.156 198.062,370.82 199.948,370.488 201.835,370.189 203.721,369.924 205.608,369.693 207.495,369.492 
	209.381,369.324 211.267,369.189 213.153,369.059 215.041,368.992 216.927,368.922 218.814,368.891 220.7,368.891 222.586,368.922 
	224.473,368.992 226.36,369.092 228.246,369.225 230.132,369.357 232.019,369.557 233.906,369.756 235.792,369.99 237.678,370.291 
	239.564,370.586 241.451,370.889 243.338,371.254 245.225,371.652 247.111,372.053 248.997,372.484 250.883,372.949 
	252.771,373.451 254.657,373.951 256.544,374.516 258.43,375.082 260.315,375.648 262.203,376.277 264.089,376.91 265.976,377.578 
	267.862,378.273 269.749,378.975 271.636,379.705 273.521,380.438 275.408,381.205 277.295,382.002 279.181,382.803 
	281.068,383.602 282.955,384.432 284.841,385.299 286.727,386.16 288.613,387.061 290.501,387.957 292.387,388.855 294.273,389.789 
	296.16,390.721 298.046,391.65 299.933,392.617 301.818,393.549 303.706,394.514 305.592,395.512 307.479,396.477 309.366,397.475 
	311.252,398.473 313.138,399.439 315.024,400.436 316.911,401.436 318.798,402.432 320.685,403.432 322.571,404.432 
	324.457,405.426 326.343,406.428 328.23,407.424 330.117,408.389 332.004,409.389 333.89,410.354 335.775,411.316 337.663,412.283 
	339.549,413.213 341.436,414.146 343.322,415.076 345.209,415.975 347.096,416.908 348.981,417.771 350.868,418.639 
	352.755,419.504 354.641,420.367 356.528,421.199 358.415,421.998 360.301,422.799 362.186,423.564 364.073,424.328 
	365.961,425.059 367.846,425.758 369.733,426.457 371.62,427.123 373.506,427.789 375.393,428.42 377.28,429.018 379.167,429.588 
	381.051,430.15 382.938,430.65 384.827,431.182 386.711,431.65 388.598,432.084 390.485,432.514 392.372,432.914 394.258,433.279 
	396.145,433.611 398.032,433.943 399.917,434.211 401.803,434.477 403.69,434.711 405.577,434.875 407.463,435.041 409.35,435.211 
	411.237,435.309 413.124,435.373 415.008,435.41 416.895,435.441 418.782,435.441 420.668,435.373 422.555,435.309 424.442,435.211 
	426.329,435.074 428.213,434.908 430.1,434.744 431.989,434.51 433.875,434.242 435.76,433.979 437.647,433.676 439.534,433.346 
	441.42,432.977 443.307,432.58 445.194,432.146 447.081,431.715 448.965,431.25 450.852,430.75 452.739,430.219 454.625,429.688 
	456.512,429.086 458.399,428.486 460.286,427.887 462.172,427.225 464.057,426.557 465.944,425.893 467.831,425.16 469.717,424.428 
	471.604,423.695 473.491,422.896 475.377,422.131 477.262,421.299 479.151,420.5 481.038,419.635 482.922,418.805 484.809,417.904 
	486.696,417.039 488.583,416.143 490.469,415.211 492.356,414.312 494.243,413.348 496.129,412.414 498.016,411.449 
	499.903,410.484 501.788,409.521 503.674,408.557 505.561,407.559 507.448,406.592 509.334,405.596 511.221,404.594 513.106,403.6 
	514.993,402.598 516.881,401.6 518.766,400.605 520.653,399.604 522.54,398.609 524.426,397.641 526.313,396.643 528.2,395.645 
	530.086,394.68 531.971,393.715 533.86,392.75 535.747,391.783 537.631,390.854 539.518,389.92 541.405,388.99 543.292,388.094 
	545.178,387.193 547.065,386.293 548.952,385.428 550.836,384.596 552.723,383.732 554.612,382.932 556.497,382.102 
	558.383,381.338 560.27,380.568 562.157,379.809 564.043,379.074 565.93,378.375 567.817,377.676 569.702,377.01 571.588,376.377 
	573.475,375.748 575.362,375.146 577.249,374.582 579.135,374.049 581.022,373.516 582.909,373.02 584.795,372.553 586.68,372.119 
	588.567,371.686 590.454,371.318 592.34,370.955 594.227,370.623 596.114,370.324 598,370.057 599.885,369.791 601.774,369.59 
	603.661,369.391 605.545,369.225 607.432,369.092 609.319,369.025 611.206,368.922 613.092,368.891 614.979,368.891 
	616.866,368.922 618.75,368.961 620.639,369.059 622.524,369.156 624.411,369.293 626.297,369.459 628.184,369.654 630.071,369.889 
	631.958,370.156 633.844,370.422 635.731,370.756 637.616,371.088 639.504,371.455 641.391,371.852 643.276,372.287 
	645.163,372.752 647.049,373.217 648.936,373.717 650.823,374.25 652.709,374.816 654.596,375.414 656.481,376.012 658.37,376.645 
	660.254,377.279 662.141,377.941 664.028,378.643 665.915,379.373 667.801,380.105 669.688,380.871 671.575,381.635 
	673.459,382.434 675.346,383.234 677.233,384.066 679.12,384.928 681.006,385.795 682.893,386.658 684.78,387.561 686.667,388.457 
	688.553,389.355 690.44,390.289 692.325,391.219 694.211,392.184 696.098,393.15 697.985,394.113 699.872,395.08 701.758,396.045 
	703.645,397.043 705.532,398.039 707.418,399.006 709.303,400.004 711.19,401.002 713.077,402.002 714.963,402.998 716.85,403.996 
	718.737,404.994 720.624,405.994 722.508,406.992 724.397,407.959 726.282,408.955 728.168,409.92 730.055,410.887 731.942,411.85 
	733.829,412.814 735.715,413.746 737.602,414.676 739.487,415.578 741.374,416.51 743.262,417.406 745.147,418.271 747.034,419.137 
	748.92,420.002 750.807,420.836 752.694,421.633 754.581,422.43 756.467,423.229 758.352,423.996 760.239,424.729 762.125,425.459 
	764.012,426.158 765.899,426.822 767.786,427.49 769.672,428.121 771.559,428.756 773.446,429.32 775.331,429.883 777.217,430.449 
	779.104,430.949 780.991,431.449 782.877,431.914 784.764,432.346 786.651,432.746 788.538,433.113 790.424,433.479 
	792.311,433.811 794.196,434.111 796.083,434.379 797.969,434.609 799.856,434.811 801.743,434.977 803.629,435.143 
	805.516,435.242 807.401,435.34 809.29,435.41 811.176,435.441 813.061,435.441 "/>
<polyline fill="none" stroke="#000000" points="22.618,368.76 24.505,368.791 26.392,368.861 28.278,368.926 30.165,369.059 
	32.052,369.191 33.939,369.391 35.823,369.592 37.712,369.822 39.597,370.09 41.484,370.391 43.37,370.723 45.257,371.055 
	47.144,371.455 49.03,371.855 50.917,372.287 52.802,372.752 54.689,373.219 56.577,373.752 58.462,374.285 60.349,374.848 
	62.235,375.445 64.122,376.047 66.009,376.678 67.896,377.344 69.782,378.012 71.667,378.711 73.554,379.441 75.441,380.174 
	77.327,380.939 79.214,381.736 81.101,382.535 82.987,383.334 84.874,384.166 86.761,385.029 88.646,385.896 90.532,386.762 
	92.419,387.662 94.306,388.592 96.193,389.488 98.079,390.42 99.966,391.354 101.851,392.316 103.739,393.283 105.626,394.248 
	107.511,395.213 109.398,396.211 111.284,397.176 113.171,398.176 115.058,399.172 116.944,400.17 118.831,401.172 120.716,402.166 
	122.602,403.164 124.488,404.162 126.375,405.162 128.261,406.16 130.148,407.127 132.035,408.121 133.921,409.086 135.807,410.084 
	137.693,411.051 139.581,412.016 141.467,412.949 143.353,413.881 145.24,414.811 147.126,415.742 149.013,416.641 150.9,417.539 
	152.786,418.404 154.672,419.27 156.559,420.135 158.446,420.967 160.332,421.764 162.218,422.562 164.105,423.363 165.991,424.094 
	167.878,424.857 169.765,425.561 171.651,426.26 173.537,426.957 175.423,427.588 177.311,428.219 179.197,428.854 181.083,429.418 
	182.97,429.984 184.856,430.518 186.743,431.018 188.63,431.514 190.516,431.98 192.402,432.414 194.289,432.812 196.176,433.178 
	198.062,433.512 199.948,433.846 201.835,434.145 203.721,434.41 205.608,434.641 207.495,434.84 209.381,435.01 211.267,435.143 
	213.153,435.275 215.041,435.34 216.927,435.41 218.814,435.441 220.7,435.441 222.586,435.41 224.473,435.34 226.36,435.24 
	228.246,435.109 230.132,434.977 232.019,434.775 233.906,434.578 235.792,434.344 237.678,434.043 239.564,433.746 
	241.451,433.445 243.338,433.078 245.225,432.682 247.111,432.279 248.997,431.848 250.883,431.383 252.771,430.881 
	254.657,430.383 256.544,429.818 258.43,429.25 260.315,428.686 262.203,428.055 264.089,427.422 265.976,426.756 267.862,426.059 
	269.749,425.357 271.636,424.627 273.521,423.896 275.408,423.129 277.295,422.332 279.181,421.531 281.068,420.732 282.955,419.9 
	284.841,419.035 286.727,418.172 288.613,417.273 290.501,416.377 292.387,415.477 294.273,414.543 296.16,413.613 298.046,412.682 
	299.933,411.717 301.818,410.785 303.706,409.818 305.592,408.822 307.479,407.857 309.366,406.859 311.252,405.861 
	313.138,404.893 315.024,403.898 316.911,402.896 318.798,401.9 320.685,400.902 322.571,399.902 324.457,398.906 326.343,397.906 
	328.23,396.91 330.117,395.943 332.004,394.945 333.89,393.98 335.775,393.016 337.663,392.051 339.549,391.121 341.436,390.188 
	343.322,389.256 345.209,388.357 347.096,387.424 348.981,386.561 350.868,385.695 352.755,384.83 354.641,383.967 356.528,383.135 
	358.415,382.334 360.301,381.535 362.186,380.768 364.073,380.006 365.961,379.273 367.846,378.576 369.733,377.877 371.62,377.211 
	373.506,376.545 375.393,375.912 377.28,375.314 379.167,374.746 381.051,374.182 382.938,373.682 384.827,373.152 386.711,372.684 
	388.598,372.25 390.485,371.818 392.372,371.418 394.258,371.055 396.145,370.721 398.032,370.389 399.917,370.123 401.803,369.855 
	403.69,369.621 405.577,369.457 407.463,369.291 409.35,369.123 411.237,369.023 413.124,368.959 415.008,368.922 416.895,368.891 
	418.782,368.891 420.668,368.959 422.555,369.023 424.442,369.123 426.329,369.258 428.213,369.424 430.1,369.59 431.989,369.824 
	433.875,370.09 435.76,370.355 437.647,370.656 439.534,370.988 441.42,371.355 443.307,371.754 445.194,372.188 447.081,372.619 
	448.965,373.082 450.852,373.584 452.739,374.113 454.625,374.646 456.512,375.248 458.399,375.846 460.286,376.447 
	462.172,377.109 464.057,377.777 465.944,378.441 467.831,379.174 469.717,379.906 471.604,380.639 473.491,381.438 
	475.377,382.203 477.262,383.033 479.151,383.834 481.038,384.697 482.922,385.529 484.809,386.428 486.696,387.295 
	488.583,388.189 490.469,389.121 492.356,390.02 494.243,390.984 496.129,391.918 498.016,392.883 499.903,393.848 501.788,394.812 
	503.674,395.775 505.561,396.775 507.448,397.742 509.334,398.738 511.221,399.738 513.106,400.734 514.993,401.734 
	516.881,402.732 518.766,403.729 520.653,404.73 522.54,405.725 524.426,406.691 526.313,407.691 528.2,408.688 530.086,409.654 
	531.971,410.617 533.86,411.582 535.747,412.549 537.631,413.48 539.518,414.414 541.405,415.344 543.292,416.24 545.178,417.141 
	547.065,418.041 548.952,418.904 550.836,419.736 552.723,420.6 554.612,421.4 556.497,422.232 558.383,422.994 560.27,423.764 
	562.157,424.525 564.043,425.258 565.93,425.959 567.817,426.658 569.702,427.322 571.588,427.955 573.475,428.586 575.362,429.186 
	577.249,429.752 579.135,430.285 581.022,430.816 582.909,431.312 584.795,431.781 586.68,432.215 588.567,432.648 590.454,433.014 
	592.34,433.379 594.227,433.709 596.114,434.008 598,434.277 599.885,434.541 601.774,434.742 603.661,434.941 605.545,435.109 
	607.432,435.24 609.319,435.309 611.206,435.41 613.092,435.441 614.979,435.441 616.866,435.41 618.75,435.373 620.639,435.275 
	622.524,435.176 624.411,435.041 626.297,434.875 628.184,434.678 630.071,434.443 631.958,434.178 633.844,433.91 635.731,433.576 
	637.616,433.244 639.504,432.877 641.391,432.48 643.276,432.047 645.163,431.582 647.049,431.115 648.936,430.615 650.823,430.084 
	652.709,429.518 654.596,428.918 656.481,428.322 658.37,427.689 660.254,427.055 662.141,426.391 664.028,425.689 665.915,424.959 
	667.801,424.227 669.688,423.461 671.575,422.697 673.459,421.9 675.346,421.098 677.233,420.268 679.12,419.404 681.006,418.539 
	682.893,417.674 684.78,416.773 686.667,415.875 688.553,414.977 690.44,414.043 692.325,413.113 694.211,412.148 696.098,411.184 
	697.985,410.221 699.872,409.254 701.758,408.289 703.645,407.291 705.532,406.295 707.418,405.328 709.303,404.328 711.19,403.33 
	713.077,402.332 714.963,401.336 716.85,400.336 718.737,399.338 720.624,398.34 722.508,397.342 724.397,396.375 726.282,395.379 
	728.168,394.414 730.055,393.447 731.942,392.484 733.829,391.518 735.715,390.588 737.602,389.658 739.487,388.756 
	741.374,387.824 743.262,386.928 745.147,386.062 747.034,385.195 748.92,384.33 750.807,383.498 752.694,382.701 754.581,381.902 
	756.467,381.104 758.352,380.338 760.239,379.605 762.125,378.875 764.012,378.176 765.899,377.51 767.786,376.844 769.672,376.213 
	771.559,375.578 773.446,375.014 775.331,374.449 777.217,373.883 779.104,373.383 780.991,372.885 782.877,372.42 784.764,371.988 
	786.651,371.586 788.538,371.221 790.424,370.854 792.311,370.523 794.196,370.223 796.083,369.953 797.969,369.725 
	799.856,369.523 801.743,369.357 803.629,369.191 805.516,369.092 807.401,368.992 809.29,368.922 811.176,368.891 813.061,368.891 
	"/>
<polyline fill="none" stroke="#000000" points="22.714,499.834 24.601,498.836 26.487,497.838 28.373,496.839 30.259,495.841 
	32.147,494.874 34.033,493.879 35.92,492.914 37.806,491.916 39.692,490.949 41.579,489.984 43.465,489.051 45.352,488.119 
	47.238,487.19 49.125,486.259 51.012,485.36 52.898,484.461 54.784,483.597 56.671,482.731 58.557,481.865 60.444,481.034 
	62.331,480.236 64.217,479.438 66.103,478.638 67.989,477.906 69.877,477.143 71.763,476.44 73.65,475.741 75.536,475.044 
	77.422,474.412 79.309,473.781 81.195,473.146 83.082,472.583 84.968,472.016 86.855,471.482 88.742,470.983 90.628,470.487 
	92.514,470.021 94.401,469.587 96.287,469.188 98.174,468.823 100.061,468.488 101.947,468.155 103.833,467.856 105.719,467.591 
	107.607,467.36 109.493,467.16 111.38,466.991 113.266,466.857 115.152,466.726 117.039,466.66 118.925,466.59 120.812,466.559 
	122.698,466.559 124.585,466.59 126.472,466.66 128.358,466.76 130.244,466.892 132.131,467.024 134.017,467.225 135.904,467.423 
	137.791,467.657 139.677,467.958 141.563,468.254 143.449,468.556 145.337,468.922 147.223,469.319 149.11,469.721 150.996,470.152 
	152.882,470.617 154.769,471.119 156.655,471.618 158.542,472.183 160.428,472.75 162.315,473.315 164.202,473.945 166.088,474.578 
	167.974,475.245 169.86,475.941 171.747,476.643 173.634,477.373 175.521,478.104 177.407,478.872 179.293,479.669 181.179,480.47 
	183.067,481.269 184.953,482.1 186.839,482.966 188.726,483.828 190.612,484.729 192.499,485.624 194.385,486.523 196.272,487.457 
	198.158,488.388 200.045,489.318 201.932,490.284 203.818,491.216 205.704,492.182 207.591,493.179 209.477,494.144 
	211.364,495.142 213.251,496.14 215.137,497.107 217.023,498.104 218.909,499.104 220.797,500.1 222.683,501.099 224.569,502.099 
	226.456,503.094 228.342,504.095 230.229,505.091 232.115,506.057 234.002,507.056 235.888,508.021 237.775,508.984 239.662,509.95 
	241.548,510.88 243.434,511.812 245.321,512.744 247.207,513.643 249.094,514.576 250.98,515.439 252.867,516.306 254.753,517.171 
	256.639,518.034 258.527,518.866 260.413,519.666 262.299,520.466 264.186,521.232 266.072,521.995 267.959,522.727 
	269.846,523.425 271.731,524.124 273.618,524.79 275.505,525.456 277.392,526.088 279.278,526.686 281.164,527.255 283.051,527.818 
	284.937,528.318 286.824,528.849 288.711,529.317 290.597,529.751 292.482,530.182 294.37,530.582 296.257,530.946 298.143,531.279 
	300.029,531.611 301.916,531.878 303.802,532.145 305.688,532.379 307.576,532.543 309.462,532.709 311.348,532.878 
	313.234,532.977 315.122,533.041 317.008,533.078 318.894,533.109 320.781,533.109 322.667,533.041 324.554,532.977 326.44,532.878 
	328.327,532.742 330.213,532.576 332.1,532.411 333.987,532.177 335.873,531.91 337.759,531.646 339.646,531.344 341.532,531.013 
	343.419,530.645 345.306,530.247 347.191,529.812 349.078,529.382 350.964,528.918 352.852,528.417 354.739,527.887 
	356.625,527.354 358.51,526.753 360.397,526.154 362.284,525.554 364.17,524.892 366.057,524.224 367.944,523.56 369.831,522.827 
	371.717,522.095 373.602,521.362 375.489,520.562 377.375,519.798 379.262,518.967 381.149,518.167 383.036,517.303 
	384.922,516.472 386.807,515.572 388.694,514.706 390.583,513.811 392.467,512.879 394.354,511.98 396.241,511.016 398.127,510.082 
	400.014,509.117 401.901,508.152 403.788,507.188 405.672,506.225 407.559,505.226 409.448,504.259 411.333,503.263 
	413.219,502.262 415.106,501.267 416.993,500.266 418.879,499.268 420.766,498.271 422.653,497.271 424.538,496.276 
	426.424,495.309 428.311,494.31 430.198,493.312 432.084,492.347 433.971,491.383 435.856,490.418 437.745,489.451 439.631,488.521 
	441.516,487.587 443.403,486.657 445.29,485.761 447.176,484.86 449.063,483.96 450.95,483.096 452.836,482.264 454.721,481.4 
	456.61,480.6 458.497,479.769 460.381,479.006 462.268,478.236 464.155,477.476 466.042,476.742 467.928,476.042 469.815,475.343 
	471.702,474.678 473.586,474.045 475.473,473.415 477.36,472.814 479.247,472.249 481.133,471.716 483.02,471.184 484.907,470.688 
	486.793,470.22 488.678,469.786 490.565,469.353 492.452,468.986 494.338,468.622 496.225,468.291 498.112,467.992 499.999,467.724 
	501.883,467.459 503.772,467.258 505.659,467.059 507.545,466.892 509.43,466.76 511.317,466.692 513.204,466.59 515.09,466.559 
	516.977,466.559 518.864,466.59 520.75,466.628 522.637,466.726 524.522,466.824 526.409,466.96 528.295,467.126 530.182,467.322 
	532.069,467.557 533.956,467.823 535.842,468.09 537.729,468.424 539.614,468.756 541.502,469.123 543.389,469.52 545.274,469.954 
	547.161,470.419 549.047,470.885 550.934,471.385 552.821,471.917 554.708,472.483 556.594,473.082 558.479,473.679 
	560.368,474.312 562.252,474.946 564.139,475.609 566.026,476.311 567.913,477.041 569.799,477.773 571.686,478.539 
	573.573,479.303 575.458,480.101 577.344,480.902 579.231,481.733 581.118,482.596 583.004,483.462 584.891,484.326 
	586.778,485.229 588.665,486.125 590.551,487.023 592.438,487.957 594.323,488.887 596.209,489.852 598.096,490.817 599.983,491.78 
	601.87,492.747 603.756,493.712 605.643,494.71 607.53,495.706 609.417,496.673 611.301,497.672 613.188,498.67 615.075,499.669 
	616.961,500.665 618.848,501.664 620.735,502.662 622.622,503.661 624.506,504.659 626.395,505.626 628.28,506.622 630.167,507.587 
	632.053,508.554 633.94,509.517 635.827,510.482 637.713,511.413 639.6,512.343 641.485,513.245 643.372,514.177 645.26,515.073 
	647.145,515.938 649.032,516.805 650.918,517.67 652.805,518.503 654.692,519.3 656.579,520.098 658.465,520.896 660.35,521.663 
	662.237,522.396 664.124,523.126 666.01,523.825 667.897,524.49 669.784,525.157 671.67,525.788 673.557,526.423 675.444,526.987 
	677.329,527.551 679.215,528.117 681.102,528.617 682.989,529.116 684.875,529.581 686.762,530.013 688.649,530.414 690.536,530.78 
	692.422,531.146 694.309,531.479 696.194,531.778 698.081,532.047 699.967,532.276 701.854,532.479 703.741,532.644 705.627,532.81 
	707.514,532.909 709.399,533.008 711.288,533.078 713.174,533.109 715.059,533.109 716.946,533.078 718.833,533.008 
	720.719,532.943 722.606,532.81 724.493,532.677 726.379,532.479 728.264,532.276 730.153,532.047 732.038,531.778 733.924,531.479 
	735.811,531.146 737.698,530.814 739.584,530.414 741.471,530.013 743.358,529.581 745.243,529.116 747.129,528.649 
	749.018,528.117 750.903,527.584 752.79,527.021 754.676,526.423 756.563,525.822 758.45,525.19 760.336,524.524 762.223,523.857 
	764.108,523.158 765.995,522.428 767.881,521.694 769.768,520.93 771.655,520.133 773.542,519.334 775.428,518.535 777.315,517.703 
	779.202,516.839 781.086,515.973 782.973,515.106 784.86,514.207 786.747,513.276 788.633,512.381 790.52,511.449 792.407,510.516 
	794.292,509.552 796.18,508.585 798.067,507.62 799.952,506.655 801.838,505.657 803.725,504.692 805.612,503.693 807.499,502.696 
	809.385,501.699 811.272,500.697 813.157,499.702 "/>
<polyline fill="none" stroke="#000000" points="813.157,499.966 811.272,498.971 809.385,497.969 807.499,496.972 805.612,495.975 
	803.725,494.976 801.838,494.011 799.952,493.013 798.067,492.048 796.18,491.083 794.292,490.116 792.407,489.152 790.52,488.219 
	788.633,487.287 786.747,486.392 784.86,485.461 782.973,484.562 781.086,483.695 779.202,482.829 777.315,481.965 775.428,481.133 
	773.542,480.334 771.655,479.535 769.768,478.738 767.881,477.974 765.995,477.24 764.108,476.51 762.223,475.811 760.336,475.144 
	758.45,474.479 756.563,473.846 754.676,473.245 752.79,472.646 750.903,472.084 749.018,471.551 747.129,471.019 745.243,470.552 
	743.358,470.087 741.471,469.655 739.584,469.254 737.698,468.854 735.811,468.521 733.924,468.19 732.038,467.89 730.153,467.621 
	728.264,467.392 726.379,467.19 724.493,466.991 722.606,466.858 720.719,466.725 718.833,466.66 716.946,466.59 715.059,466.559 
	713.174,466.559 711.288,466.59 709.399,466.66 707.514,466.759 705.627,466.858 703.741,467.024 701.854,467.19 699.967,467.392 
	698.081,467.621 696.194,467.89 694.309,468.19 692.422,468.521 690.536,468.888 688.649,469.254 686.762,469.655 684.875,470.087 
	682.989,470.552 681.102,471.051 679.215,471.551 677.329,472.117 675.444,472.681 673.557,473.245 671.67,473.88 669.784,474.511 
	667.897,475.178 666.01,475.843 664.124,476.542 662.237,477.271 660.35,478.005 658.465,478.771 656.579,479.57 654.692,480.368 
	652.805,481.165 650.918,481.998 649.032,482.863 647.145,483.729 645.26,484.595 643.372,485.491 641.485,486.423 639.6,487.325 
	637.713,488.255 635.827,489.186 633.94,490.151 632.053,491.114 630.167,492.081 628.28,493.046 626.395,494.042 624.506,495.009 
	622.622,496.007 620.735,497.006 618.848,498.004 616.961,499.003 615.075,499.999 613.188,500.998 611.301,501.996 
	609.417,502.995 607.53,503.962 605.643,504.958 603.756,505.956 601.87,506.921 599.983,507.888 598.096,508.851 596.209,509.816 
	594.323,510.781 592.438,511.711 590.551,512.645 588.665,513.543 586.778,514.44 584.891,515.342 583.004,516.206 581.118,517.072 
	579.231,517.935 577.344,518.766 575.458,519.567 573.573,520.365 571.686,521.129 569.799,521.895 567.913,522.627 
	566.026,523.357 564.139,524.059 562.252,524.722 560.368,525.356 558.479,525.989 556.594,526.586 554.708,527.185 
	552.821,527.751 550.934,528.283 549.047,528.783 547.161,529.249 545.274,529.714 543.389,530.148 541.502,530.545 
	539.614,530.912 537.729,531.244 535.842,531.578 533.956,531.845 532.069,532.111 530.182,532.346 528.295,532.542 
	526.409,532.708 524.522,532.844 522.637,532.942 520.75,533.04 518.864,533.078 516.977,533.109 515.09,533.109 513.204,533.078 
	511.317,532.976 509.43,532.908 507.545,532.776 505.659,532.609 503.772,532.41 501.883,532.209 499.999,531.944 498.112,531.676 
	496.225,531.377 494.338,531.046 492.452,530.682 490.565,530.315 488.678,529.882 486.793,529.448 484.907,528.98 483.02,528.484 
	481.133,527.952 479.247,527.419 477.36,526.854 475.473,526.253 473.586,525.623 471.702,524.99 469.815,524.325 467.928,523.626 
	466.042,522.926 464.155,522.192 462.268,521.432 460.381,520.662 458.497,519.899 456.61,519.068 454.721,518.268 452.836,517.404 
	450.95,516.572 449.063,515.708 447.176,514.808 445.29,513.907 443.403,513.011 441.516,512.081 439.631,511.146 437.745,510.217 
	435.856,509.25 433.971,508.285 432.084,507.321 430.198,506.355 428.311,505.358 426.424,504.359 424.538,503.392 422.653,502.396 
	420.766,501.396 418.879,500.4 416.993,499.402 415.106,498.401 413.219,497.406 411.333,496.405 409.448,495.409 407.559,494.442 
	405.672,493.443 403.788,492.479 401.901,491.516 400.014,490.551 398.127,489.586 396.241,488.652 394.354,487.688 
	392.467,486.789 390.583,485.857 388.694,484.962 386.807,484.096 384.922,483.196 383.036,482.365 381.149,481.501 
	379.262,480.701 377.375,479.87 375.489,479.104 373.602,478.306 371.717,477.573 369.831,476.841 367.944,476.108 366.057,475.444 
	364.17,474.776 362.284,474.114 360.397,473.514 358.51,472.915 356.625,472.312 354.739,471.781 352.852,471.251 350.964,470.75 
	349.078,470.286 347.191,469.854 345.306,469.421 343.419,469.023 341.532,468.655 339.646,468.324 337.759,468.022 
	335.873,467.758 333.987,467.491 332.1,467.257 330.213,467.092 328.327,466.926 326.44,466.79 324.554,466.691 322.667,466.627 
	320.781,466.559 318.894,466.559 317.008,466.59 315.122,466.627 313.234,466.691 311.348,466.79 309.462,466.959 307.576,467.125 
	305.688,467.289 303.802,467.523 301.916,467.79 300.029,468.057 298.143,468.389 296.257,468.722 294.37,469.086 292.482,469.486 
	290.597,469.917 288.711,470.351 286.824,470.819 284.937,471.35 283.051,471.85 281.164,472.413 279.278,472.982 277.392,473.58 
	275.505,474.212 273.618,474.878 271.731,475.544 269.846,476.243 267.959,476.941 266.072,477.673 264.186,478.436 
	262.299,479.202 260.413,480.002 258.527,480.802 256.639,481.634 254.753,482.497 252.867,483.362 250.98,484.229 249.094,485.092 
	247.207,486.025 245.321,486.924 243.434,487.854 241.548,488.788 239.662,489.718 237.775,490.684 235.888,491.646 
	234.002,492.612 232.115,493.611 230.229,494.577 228.342,495.573 226.456,496.574 224.569,497.569 222.683,498.569 
	220.797,499.568 218.909,500.564 217.023,501.565 215.137,502.561 213.251,503.528 211.364,504.526 209.477,505.524 
	207.591,506.489 205.704,507.486 203.818,508.452 201.932,509.384 200.045,510.35 198.158,511.28 196.272,512.211 194.385,513.145 
	192.499,514.044 190.612,514.94 188.726,515.84 186.839,516.702 184.953,517.568 183.067,518.399 181.179,519.198 179.293,519.999 
	177.407,520.796 175.521,521.562 173.634,522.295 171.747,523.025 169.86,523.727 167.974,524.423 166.088,525.09 164.202,525.723 
	162.315,526.354 160.428,526.918 158.542,527.485 156.655,528.05 154.769,528.549 152.882,529.051 150.996,529.516 149.11,529.947 
	147.223,530.349 145.337,530.746 143.449,531.112 141.563,531.414 139.677,531.71 137.791,532.011 135.904,532.245 134.017,532.443 
	132.131,532.644 130.244,532.776 128.358,532.908 126.472,533.008 124.585,533.078 122.698,533.109 120.812,533.109 
	118.925,533.078 117.039,533.008 115.152,532.942 113.266,532.811 111.38,532.677 109.493,532.508 107.607,532.308 105.719,532.077 
	103.833,531.812 101.947,531.513 100.061,531.18 98.174,530.845 96.287,530.48 94.401,530.081 92.514,529.646 90.628,529.181 
	88.742,528.685 86.855,528.186 84.968,527.652 83.082,527.085 81.195,526.521 79.309,525.887 77.422,525.256 75.536,524.624 
	73.65,523.927 71.763,523.229 69.877,522.525 67.989,521.762 66.103,521.03 64.217,520.23 62.331,519.432 60.444,518.634 
	58.557,517.803 56.671,516.938 54.784,516.071 52.898,515.207 51.012,514.308 49.125,513.409 47.238,512.479 45.352,511.549 
	43.465,510.617 41.579,509.684 39.692,508.719 37.806,507.752 35.92,506.754 34.033,505.789 32.147,504.794 30.259,503.827 
	28.373,502.829 26.487,501.83 24.601,500.832 22.714,499.834 "/>
<rect x="20.997" y="21.605" fill="none" stroke="#000000" width="793.46" height="562.472"/>
</svg>
