<?xml version="1.0" encoding="utf-8"?>
<!-- Generator: Adobe Illustrator 16.0.0, SVG Export Plug-In . SVG Version: 6.00 Build 0)  -->
<!DOCTYPE svg PUBLIC "-//W3C//DTD SVG 1.1//EN" "http://www.w3.org/Graphics/SVG/1.1/DTD/svg11.dtd">
<svg version="1.1" id="Layer_2" xmlns="http://www.w3.org/2000/svg" xmlns:xlink="http://www.w3.org/1999/xlink" x="0px" y="0px"
	 width="400px" height="400px" viewBox="0 0 400 400" enable-background="new 0 0 400 400" xml:space="preserve">
<rect x="17.394" y="17.332" fill="none" stroke="#000000" stroke-miterlimit="10" width="366.206" height="366.205"/>
<line fill="none" stroke="#000000" stroke-miterlimit="10" x1="384.626" y1="200.478" x2="18.421" y2="200.479"/>
<line fill="none" stroke="#000000" stroke-miterlimit="10" x1="201.524" y1="17.375" x2="201.524" y2="383.581"/>
<rect x="151.056" y="150.548" fill="none" stroke="#000000" stroke-miterlimit="10" width="100.624" height="100.627"/>
<line fill="none" stroke="#000000" stroke-miterlimit="10" x1="251.68" y1="251.176" x2="151.056" y2="150.55"/>
<line fill="none" stroke="#000000" stroke-miterlimit="10" x1="251.68" y1="150.549" x2="151.056" y2="251.175"/>
<path fill="none" stroke="#000000" stroke-miterlimit="10" d="M201.594,150.438c-24.129-24.131-54.866-32.313-68.789-18.391
	c-13.92,13.921-5.862,44.284,18.269,68.414c-24.13,24.13-32.443,55.041-18.521,68.964c13.922,13.922,44.832,5.888,68.962-18.242
	c24.132,24.13,55.042,32.442,68.964,18.519c13.921-13.92,5.359-45.088-18.771-69.218c24.13-24.13,32.397-54.262,18.477-68.184
	C256.262,118.379,225.724,126.308,201.594,150.438z"/>
</svg>
