<?xml version="1.0" encoding="utf-8"?>
<!-- Generator: Adobe Illustrator 16.0.0, SVG Export Plug-In . SVG Version: 6.00 Build 0)  -->
<!DOCTYPE svg PUBLIC "-//W3C//DTD SVG 1.1//EN" "http://www.w3.org/Graphics/SVG/1.1/DTD/svg11.dtd">
<svg version="1.1" id="Layer_2" xmlns="http://www.w3.org/2000/svg" xmlns:xlink="http://www.w3.org/1999/xlink" x="0px" y="0px"
	 width="400px" height="400px" viewBox="0 0 400 400" enable-background="new 0 0 400 400" xml:space="preserve">
<path fill="none" stroke="#000000" stroke-miterlimit="10" d="M24.032,95.737c60.801-0.001,108.801,14.8,135.202,28
	c26.399,13.201,39.2,24.802,49.6,38.399c10.396,13.601,13.6,26.4,13.398,36.8"/>
<path fill="none" stroke="#000000" stroke-miterlimit="10" d="M96.471,374.576c-0.001-60.801,14.8-108.801,28.001-135.203
	c13.2-26.4,24.801-39.2,38.398-49.599c13.601-10.397,26.4-13.599,36.801-13.399"/>
<path fill="none" stroke="#000000" stroke-miterlimit="10" d="M375.311,302.137c-60.802,0-108.802-14.801-135.201-28.002
	c-26.397-13.199-39.198-24.801-49.601-38.398c-10.396-13.6-13.599-26.397-13.399-36.797"/>
<path fill="none" stroke="#000000" stroke-miterlimit="10" d="M302.872,23.297c0,60.8-14.802,108.8-28,135.202
	c-13.2,26.4-24.802,39.199-38.399,49.601c-13.602,10.396-26.398,13.6-36.8,13.397"/>
<rect x="24.032" y="23.737" fill="none" stroke="#000000" stroke-miterlimit="10" width="351.601" height="351.599"/>
<line fill="none" stroke="#000000" stroke-miterlimit="10" x1="199.671" y1="176.375" x2="222.232" y2="198.936"/>
<line fill="none" stroke="#000000" stroke-miterlimit="10" x1="222.232" y1="198.936" x2="199.673" y2="221.497"/>
<line fill="none" stroke="#000000" stroke-miterlimit="10" x1="199.673" y1="221.497" x2="177.11" y2="198.939"/>
<line fill="none" stroke="#000000" stroke-miterlimit="10" x1="177.11" y1="198.939" x2="199.671" y2="176.375"/>
</svg>
