<?xml version="1.0" encoding="utf-8"?>
<!-- Generator: Adobe Illustrator 16.0.0, SVG Export Plug-In . SVG Version: 6.00 Build 0)  -->
<!DOCTYPE svg PUBLIC "-//W3C//DTD SVG 1.1//EN" "http://www.w3.org/Graphics/SVG/1.1/DTD/svg11.dtd">
<svg version="1.1" id="Layer_2" xmlns="http://www.w3.org/2000/svg" xmlns:xlink="http://www.w3.org/1999/xlink" x="0px" y="0px"
	 width="400px" height="400px" viewBox="0 0 400 400" enable-background="new 0 0 400 400" xml:space="preserve">
<path fill="none" stroke="#000000" stroke-miterlimit="10" d="M378.918,244.945c-16.632,5.079-34.287,7.812-52.58,7.812
	c-49.629,0-94.562-20.107-127.094-52.622c-32.532-32.514-77.465-52.622-127.093-52.622c-18.346,0-36.05,2.748-52.723,7.854"/>
<path fill="none" stroke="#000000" stroke-miterlimit="10" d="M379.031,379.871c-46.011,0-92.021-17.553-127.127-52.657
	c-35.094-35.094-52.648-81.084-52.66-127.079c-0.013-45.994-17.566-91.985-52.659-127.077c-35.11-35.11-81.13-52.664-127.148-52.659
	"/>
<path fill="none" stroke="#000000" stroke-miterlimit="10" d="M154.39,379.668c-5.051-16.59-7.768-34.197-7.768-52.438
	c0-49.63,20.107-94.562,52.622-127.095c32.514-32.532,52.622-77.465,52.621-127.093c0-18.37-2.755-36.097-7.874-52.789"/>
<path fill="none" stroke="#000000" stroke-miterlimit="10" d="M19.508,379.923c0-46.011,17.552-92.022,52.657-127.128
	c35.094-35.094,81.084-52.647,127.079-52.66c45.994-0.013,91.985-17.566,127.077-52.659c35.106-35.105,52.659-81.117,52.659-127.129
	"/>
<rect x="19.438" y="20.375" fill="none" stroke="#000000" stroke-miterlimit="10" width="359.532" height="359.531"/>
</svg>
