<svg version="1.1" xmlns="http://www.w3.org/2000/svg" viewBox="0 0 600 300">
	<path fill="none" stroke="black" d="M575,287.5H25c0-151.9,123.1-275,275-275S575,135.6,575,287.5z"/>
	<path fill="none" stroke="blue" d="M69.1,287.5C69.1,178.9,172.5,90.8,300,90.8s230.9,88.1,230.9,196.8"/>
	<path fill="none" stroke="red" stroke-dasharray="4 2" d="M114.1,287.5c0-102.5,83.2-185.6,185.9-185.6S485.9,185,485.9,287.5"/>
	<path fill="none" stroke="blue" d="M124.5,287.5c0-79.1,78.6-143.4,175.5-143.4s175.5,64.1,175.5,143.4"/>
	<path fill="none" stroke="red" stroke-dasharray="4 2" d="M167.1,287.5c0-73.4,59.6-132.9,132.9-132.9s133,59.5,133,132.9"/>
	<path fill="none" stroke="blue" d="M176.8,287.5c0-51.2,55.1-92.8,123.2-92.8s123.2,41.6,123.2,92.8"/>
	<path fill="none" stroke="red" stroke-dasharray="4 2" d="M217.4,287.5c0-45.6,37-82.6,82.6-82.6s82.6,37,82.6,82.6"/>
	<path fill="none" stroke="blue" d="M227.1,287.5c0-24.5,32.6-44.2,72.9-44.2s73,19.8,73,44.2"/>
</svg>
