<?xml version="1.0" encoding="utf-8"?>
<svg version="1.1" xmlns="http://www.w3.org/2000/svg" viewBox="0 0 500 500">
<polyline fill="none" stroke="#000000" stroke-width="0.3692" points="0.8,304.8 101,304.8 102.1,304.8 103.2,304.9 104.4,304.9 
	105.5,305 106.6,305.1 107.7,305.3 108.9,305.5 110,305.6 111.1,305.9 112.3,306.1 113.4,306.4 114.5,306.7 115.7,307 116.8,307.3 
	117.9,307.7 119.1,308.1 120.2,308.5 121.3,308.9 122.4,309.4 123.6,309.8 124.7,310.4 125.8,310.9 127,311.4 128.1,312 
	129.2,312.6 130.4,313.2 131.5,313.9 132.6,314.6 133.8,315.3 134.9,316 136,316.7 137.1,317.5 138.3,318.3 139.4,319.1 140.5,320 
	141.7,320.8 142.8,321.7 143.9,322.6 145.1,323.6 146.2,324.6 147.3,325.5 148.4,326.6 149.6,327.6 150.7,328.7 151.8,329.7 
	153,330.8 154.5,332.3 156.8,334.6 159.2,336.8 161.5,338.9 163.8,341 166.2,343.1 168.5,345 170.9,347 173.2,348.8 175.5,350.6 
	177.9,352.4 180.2,354.1 182.6,355.7 184.9,357.3 187.2,358.8 189.6,360.3 191.9,361.7 194.3,363 196.6,364.3 198.9,365.6 
	201.3,366.8 203.6,367.9 206,369 208.3,370 210.6,370.9 213,371.8 215.3,372.7 217.6,373.5 220,374.2 222.3,374.9 224.7,375.5 
	227,376.1 229.3,376.6 231.7,377 234,377.4 236.4,377.8 238.7,378 241,378.3 243.4,378.4 245.7,378.5 248.1,378.6 250.4,378.6 
	252.7,378.6 255.1,378.5 257.4,378.4 259.8,378.3 262.1,378 264.4,377.8 266.8,377.4 269.1,377 271.5,376.6 273.8,376.1 
	276.1,375.5 278.5,374.9 280.8,374.2 283.2,373.5 285.5,372.7 287.8,371.8 290.2,370.9 292.5,370 294.8,369 297.2,367.9 
	299.5,366.8 301.9,365.6 304.2,364.3 306.5,363 308.9,361.7 311.2,360.3 313.6,358.8 315.9,357.3 318.2,355.7 320.6,354.1 
	322.9,352.4 325.3,350.6 327.6,348.8 329.9,347 332.3,345 334.6,343.1 337,341 339.3,338.9 341.6,336.8 344,334.6 346.3,332.3 
	347.8,330.8 349,329.7 350.1,328.7 351.2,327.6 352.4,326.6 353.5,325.5 354.6,324.6 355.7,323.6 356.9,322.6 358,321.7 
	359.1,320.8 360.3,320 361.4,319.1 362.5,318.3 363.7,317.5 364.8,316.7 365.9,316 367,315.3 368.2,314.6 369.3,313.9 370.4,313.2 
	371.6,312.6 372.7,312 373.8,311.4 375,310.9 376.1,310.4 377.2,309.8 378.4,309.4 379.5,308.9 380.6,308.5 381.7,308.1 
	382.9,307.7 384,307.3 385.1,307 386.3,306.7 387.4,306.4 388.5,306.1 389.7,305.9 390.8,305.6 391.9,305.5 393.1,305.3 
	394.2,305.1 395.3,305 396.4,304.9 397.6,304.9 398.7,304.8 399.8,304.8 500,304.8 "/>
<polyline fill="none" stroke="#000000" stroke-width="0.3692" points="0,283.2 112,283.2 113.8,283.2 115.6,283.2 117.4,283.3 
	119.2,283.4 121.1,283.6 122.9,283.8 124.7,284 126.5,284.3 128.3,284.6 130.1,284.9 131.9,285.3 133.8,285.8 135.6,286.2 
	137.4,286.8 139.2,287.3 141,287.9 142.8,288.5 144.6,289.2 146.4,289.9 148.3,290.6 150.1,291.4 151.9,292.2 153.7,293.1 
	155.5,294 157.3,294.9 159.1,295.9 160.9,296.9 162.8,298 164.6,299.1 166.4,300.2 168.2,301.4 170,302.6 171.8,303.9 173.6,305.2 
	175.5,306.5 177.3,307.9 179.1,309.3 180.9,310.7 182.7,312.2 184.5,313.8 186.3,315.3 188.1,316.9 190,318.6 191.8,320.3 
	193.6,322 195.4,323.8 197.2,325.6 199,327.4 200.8,329.3 202.7,331.2 203.5,332 205.1,333.6 206.7,335.1 208.3,336.6 209.9,338 
	211.5,339.3 213.2,340.6 214.8,341.9 216.4,343.1 218,344.2 219.6,345.3 221.3,346.3 222.9,347.2 224.5,348.1 226.1,349 
	227.7,349.8 229.4,350.5 231,351.2 232.6,351.8 234.2,352.4 235.8,352.9 237.4,353.3 239.1,353.7 240.7,354.1 242.3,354.4 
	243.9,354.6 245.5,354.7 247.2,354.9 248.8,354.9 250.4,354.9 252,354.9 253.6,354.7 255.3,354.6 256.9,354.4 258.5,354.1 
	260.1,353.7 261.7,353.3 263.4,352.9 265,352.4 266.6,351.8 268.2,351.2 269.8,350.5 271.4,349.8 273.1,349 274.7,348.1 
	276.3,347.2 277.9,346.3 279.5,345.3 281.2,344.2 282.8,343.1 284.4,341.9 286,340.6 287.6,339.3 289.3,338 290.9,336.6 
	292.5,335.1 294.1,333.6 295.7,332 297.3,330.4 299.2,328.5 301,326.6 302.8,324.7 304.6,322.9 306.4,321.2 308.2,319.4 310,317.8 
	311.9,316.1 313.7,314.5 315.5,312.9 317.3,311.4 319.1,309.9 320.9,308.5 322.7,307.1 324.5,305.7 326.4,304.4 328.2,303.1 
	330,301.8 331.8,300.6 333.6,299.4 335.4,298.3 337.2,297.2 339.1,296.1 340.9,295.1 342.7,294.1 344.5,293.2 346.3,292.3 
	348.1,291.4 349.9,290.6 351.7,289.8 353.6,289.1 355.4,288.4 357.2,287.7 359,287.1 360.8,286.5 362.6,285.9 364.4,285.4 
	366.2,284.9 368.1,284.5 369.9,284.1 371.7,283.8 373.5,283.5 375.3,283.2 377.1,282.9 378.9,282.8 380.8,282.6 382.6,282.5 
	384.4,282.4 386.2,282.4 388,282.4 500,282.4 "/>
<rect fill="none" stroke="#000000" stroke-width="0.3692" width="500" height="500"/>
</svg>
