<?xml version="1.0" encoding="utf-8"?>
<!-- Generator: Adobe Illustrator 22.1.0, SVG Export Plug-In . SVG Version: 6.00 Build 0)  -->
<svg version="1.1" id="Layer_1" xmlns="http://www.w3.org/2000/svg" xmlns:xlink="http://www.w3.org/1999/xlink" x="0px" y="0px"
	 viewBox="0 0 400 400" enable-background="new 0 0 400 400" xml:space="preserve">
<g id="Layer_1_1_">
	<rect x="72.7" y="72.7" fill="none" stroke="#000000" stroke-width="0.3" stroke-miterlimit="10" width="254.6" height="254.6"/>
	
		<rect x="72.7" y="72.7" transform="matrix(0.7071 -0.7071 0.7071 0.7071 -82.8489 199.9958)" fill="none" stroke="#000000" stroke-width="0.3" stroke-miterlimit="10" width="254.6" height="254.6"/>
	<line fill="none" stroke="#000000" stroke-width="0.3" stroke-miterlimit="10" x1="20" y1="200" x2="380" y2="200"/>
	<line fill="none" stroke="#000000" stroke-width="0.3" stroke-miterlimit="10" x1="72.7" y1="72.7" x2="327.3" y2="327.3"/>
	<line fill="none" stroke="#000000" stroke-width="0.3" stroke-miterlimit="10" x1="200" y1="20" x2="200" y2="380"/>
	<line fill="none" stroke="#000000" stroke-width="0.3" stroke-miterlimit="10" x1="72.7" y1="327.3" x2="327.3" y2="72.7"/>
	<line fill="none" stroke="#000000" stroke-width="0.3" stroke-miterlimit="10" x1="252.7" y1="72.7" x2="147.3" y2="327.3"/>
	<line fill="none" stroke="#000000" stroke-width="0.3" stroke-miterlimit="10" x1="72.7" y1="147.3" x2="327.3" y2="252.7"/>
	<line fill="none" stroke="#000000" stroke-width="0.3" stroke-miterlimit="10" x1="252.7" y1="327.3" x2="147.3" y2="72.7"/>
	<line fill="none" stroke="#000000" stroke-width="0.3" stroke-miterlimit="10" x1="72.7" y1="252.7" x2="327.3" y2="147.3"/>
</g>
<g id="Layer_2_1_">
	<rect fill="none" stroke="#000000" stroke-width="0.3" stroke-miterlimit="10" width="400" height="400"/>
	
		<rect x="102.6" y="102.6" transform="matrix(0.9239 -0.3827 0.3827 0.9239 -61.3068 91.7709)" fill="none" stroke="#000000" stroke-width="0.3" stroke-miterlimit="10" width="194.8" height="194.8"/>
	
		<rect x="102.6" y="102.6" transform="matrix(0.3827 -0.9239 0.9239 0.3827 -61.2849 308.2457)" fill="none" stroke="#000000" stroke-width="0.3" stroke-miterlimit="10" width="194.8" height="194.8"/>
	
		<rect x="125.4" y="125.5" transform="matrix(0.7071 -0.7071 0.7071 0.7071 -82.8697 199.9458)" fill="none" stroke="#000000" stroke-width="0.3" stroke-miterlimit="10" width="149.1" height="149.1"/>
	<rect x="125.4" y="125.4" fill="none" stroke="#000000" stroke-width="0.3" stroke-miterlimit="10" width="149.1" height="149.1"/>
	
		<rect x="142.9" y="143" transform="matrix(0.3827 -0.9239 0.9239 0.3827 -61.3502 308.2021)" fill="none" stroke="#000000" stroke-width="0.3" stroke-miterlimit="10" width="114.1" height="114.1"/>
	
		<rect x="142.9" y="142.9" transform="matrix(0.9239 -0.3827 0.3827 0.9239 -61.3014 91.7438)" fill="none" stroke="#000000" stroke-width="0.3" stroke-miterlimit="10" width="114.1" height="114.1"/>
	<rect x="156.3" y="156.3" fill="none" stroke="#000000" stroke-width="0.3" stroke-miterlimit="10" width="87.4" height="87.4"/>
	
		<rect x="156.3" y="156.3" transform="matrix(0.7071 -0.7071 0.7071 0.7071 -82.849 199.9958)" fill="none" stroke="#000000" stroke-width="0.3" stroke-miterlimit="10" width="87.4" height="87.4"/>
	
		<rect x="166.6" y="166.6" transform="matrix(0.9239 -0.3827 0.3827 0.9239 -61.3122 91.798)" fill="none" stroke="#000000" stroke-width="0.3" stroke-miterlimit="10" width="66.9" height="66.9"/>
	
		<rect x="166.6" y="166.5" transform="matrix(0.3827 -0.9239 0.9239 0.3827 -61.2196 308.2894)" fill="none" stroke="#000000" stroke-width="0.3" stroke-miterlimit="10" width="66.9" height="66.9"/>
	
		<rect x="174.4" y="174.4" transform="matrix(0.7071 -0.7071 0.7071 0.7071 -82.8489 199.9958)" fill="none" stroke="#000000" stroke-width="0.3" stroke-miterlimit="10" width="51.2" height="51.2"/>
	<rect x="174.4" y="174.4" fill="none" stroke="#000000" stroke-width="0.3" stroke-miterlimit="10" width="51.2" height="51.2"/>
	
		<rect x="180.4" y="180.4" transform="matrix(0.3827 -0.9239 0.9239 0.3827 -61.2849 308.2457)" fill="none" stroke="#000000" stroke-width="0.3" stroke-miterlimit="10" width="39.2" height="39.2"/>
	
		<rect x="180.4" y="180.4" transform="matrix(0.9239 -0.3827 0.3827 0.9239 -61.3068 91.7709)" fill="none" stroke="#000000" stroke-width="0.3" stroke-miterlimit="10" width="39.2" height="39.2"/>
	<rect x="185" y="185" fill="none" stroke="#000000" stroke-width="0.3" stroke-miterlimit="10" width="30" height="30"/>
	
		<rect x="185" y="185" transform="matrix(0.7071 -0.7071 0.7071 0.7071 -82.8489 199.9958)" fill="none" stroke="#000000" stroke-width="0.3" stroke-miterlimit="10" width="30" height="30"/>
	
		<rect x="188.5" y="188.5" transform="matrix(0.9239 -0.3827 0.3827 0.9239 -61.3014 91.7438)" fill="none" stroke="#000000" stroke-width="0.3" stroke-miterlimit="10" width="22.9" height="22.9"/>
	
		<rect x="188.5" y="188.6" transform="matrix(0.3827 -0.9239 0.9239 0.3827 -61.3502 308.2021)" fill="none" stroke="#000000" stroke-width="0.3" stroke-miterlimit="10" width="22.9" height="22.9"/>
	
		<rect x="191.2" y="191.2" transform="matrix(0.7071 -0.7071 0.7071 0.7071 -82.8489 199.9958)" fill="none" stroke="#000000" stroke-width="0.3" stroke-miterlimit="10" width="17.6" height="17.6"/>
	<rect x="191.2" y="191.2" fill="none" stroke="#000000" stroke-width="0.3" stroke-miterlimit="10" width="17.6" height="17.6"/>
	
		<rect x="193.3" y="193.3" transform="matrix(0.3827 -0.9239 0.9239 0.3827 -61.2849 308.2457)" fill="none" stroke="#000000" stroke-width="0.3" stroke-miterlimit="10" width="13.4" height="13.4"/>
	
		<rect x="193.3" y="193.3" transform="matrix(0.9239 -0.3827 0.3827 0.9239 -61.3068 91.7709)" fill="none" stroke="#000000" stroke-width="0.3" stroke-miterlimit="10" width="13.4" height="13.4"/>
	<rect x="194.9" y="194.9" fill="none" stroke="#000000" stroke-width="0.3" stroke-miterlimit="10" width="10.3" height="10.3"/>
	
		<rect x="194.9" y="194.9" transform="matrix(0.7071 -0.7071 0.7071 0.7071 -82.8282 200.0458)" fill="none" stroke="#000000" stroke-width="0.3" stroke-miterlimit="10" width="10.3" height="10.3"/>
	
		<rect x="196.1" y="196.1" transform="matrix(0.9239 -0.3827 0.3827 0.9239 -61.3122 91.798)" fill="none" stroke="#000000" stroke-width="0.3" stroke-miterlimit="10" width="7.9" height="7.9"/>
	
		<rect x="196.1" y="196" transform="matrix(0.3827 -0.9239 0.9239 0.3827 -61.2196 308.2894)" fill="none" stroke="#000000" stroke-width="0.3" stroke-miterlimit="10" width="7.9" height="7.9"/>
	
		<rect x="197" y="197" transform="matrix(0.7071 -0.7071 0.7071 0.7071 -82.8489 199.9958)" fill="none" stroke="#000000" stroke-width="0.3" stroke-miterlimit="10" width="6" height="6"/>
	<rect x="197" y="197" fill="none" stroke="#000000" stroke-width="0.3" stroke-miterlimit="10" width="6" height="6"/>
	
		<rect x="197.7" y="197.7" transform="matrix(0.3827 -0.9239 0.9239 0.3827 -61.2849 308.2457)" fill="none" stroke="#000000" stroke-width="0.3" stroke-miterlimit="10" width="4.6" height="4.6"/>
	
		<rect x="197.7" y="197.7" transform="matrix(0.9239 -0.3827 0.3827 0.9239 -61.3068 91.7709)" fill="none" stroke="#000000" stroke-width="0.3" stroke-miterlimit="10" width="4.6" height="4.6"/>
	<rect x="198.2" y="198.2" fill="none" stroke="#000000" stroke-width="0.3" stroke-miterlimit="10" width="3.5" height="3.5"/>
	
		<rect x="198.2" y="198.3" transform="matrix(0.7071 -0.7071 0.7071 0.7071 -82.8696 199.9458)" fill="none" stroke="#000000" stroke-width="0.3" stroke-miterlimit="10" width="3.5" height="3.5"/>
	
		<rect x="198.6" y="198.6" transform="matrix(0.9239 -0.3827 0.3827 0.9239 -61.3014 91.7438)" fill="none" stroke="#000000" stroke-width="0.3" stroke-miterlimit="10" width="2.7" height="2.7"/>
	
		<rect x="198.6" y="198.7" transform="matrix(0.3827 -0.9239 0.9239 0.3827 -61.3502 308.2021)" fill="none" stroke="#000000" stroke-width="0.3" stroke-miterlimit="10" width="2.7" height="2.7"/>
	
		<rect x="199" y="199" transform="matrix(0.7071 -0.7071 0.7071 0.7071 -82.8282 200.0458)" fill="none" stroke="#000000" stroke-width="0.3" stroke-miterlimit="10" width="2.1" height="2.1"/>
	<rect x="199" y="199" fill="none" stroke="#000000" stroke-width="0.3" stroke-miterlimit="10" width="2.1" height="2.1"/>
	
		<rect x="199.2" y="199.2" transform="matrix(0.3827 -0.9239 0.9239 0.3827 -61.2849 308.2457)" fill="none" stroke="#000000" stroke-width="0.3" stroke-miterlimit="10" width="1.6" height="1.6"/>
	
		<rect x="199.2" y="199.2" transform="matrix(0.9239 -0.3827 0.3827 0.9239 -61.3068 91.7709)" fill="none" stroke="#000000" stroke-width="0.3" stroke-miterlimit="10" width="1.6" height="1.6"/>
	<rect x="199.4" y="199.4" fill="none" stroke="#000000" stroke-width="0.3" stroke-miterlimit="10" width="1.2" height="1.2"/>
	
		<rect x="199.4" y="199.4" transform="matrix(0.7071 -0.7071 0.7071 0.7071 -82.8489 199.9958)" fill="none" stroke="#000000" stroke-width="0.3" stroke-miterlimit="10" width="1.2" height="1.2"/>
	
		<rect x="199.5" y="199.5" transform="matrix(0.9239 -0.3827 0.3827 0.9239 -61.3014 91.7438)" fill="none" stroke="#000000" stroke-width="0.3" stroke-miterlimit="10" width="0.9" height="0.9"/>
	
		<rect x="199.5" y="199.6" transform="matrix(0.3827 -0.9239 0.9239 0.3827 -61.3502 308.2021)" fill="none" stroke="#000000" stroke-width="0.3" stroke-miterlimit="10" width="0.9" height="0.9"/>
	
		<rect x="199.6" y="199.7" transform="matrix(0.7071 -0.7071 0.7071 0.7071 -82.8697 199.9458)" fill="none" stroke="#000000" stroke-width="0.3" stroke-miterlimit="10" width="0.7" height="0.7"/>
	<rect x="199.6" y="199.6" fill="none" stroke="#000000" stroke-width="0.3" stroke-miterlimit="10" width="0.7" height="0.7"/>
	<polygon fill="none" stroke="#000000" stroke-width="0.3" stroke-miterlimit="10" points="200,20 72.7,72.7 20,200 72.7,327.3 
		200,380 327.3,327.3 380,200 327.3,72.7 	"/>
</g>
</svg>
