<?xml version="1.0" encoding="utf-8"?>
<!-- Generator: Adobe Illustrator 22.1.0, SVG Export Plug-In . SVG Version: 6.00 Build 0)  -->
<svg version="1.1" id="Layer_1" xmlns="http://www.w3.org/2000/svg" xmlns:xlink="http://www.w3.org/1999/xlink" x="0px" y="0px"
	 viewBox="0 0 595.3 841.9" enable-background="new 0 0 595.3 841.9" xml:space="preserve">
<g id="mountain">
	<g id="LINE_964_">
		<polyline fill="none" stroke="#000000" stroke-linecap="round" stroke-linejoin="round" points="30.2,612 58.2,616.7 65.3,617.9 
			68.5,618.5 97.6,623.2 113.7,625.8 121.8,627.1 140,630 162.5,633.5 175.6,635.6 184.8,637 213.1,641.4 232.1,644.3 232.8,644.4 
			236.9,645 		"/>
	</g>
	<g id="LINE_1311_">
		<polyline fill="none" stroke="#000000" stroke-linecap="round" stroke-linejoin="round" points="322.5,526.9 320.5,527.7 
			312.7,530.9 312.2,531.1 312,531.2 307.8,533 307.4,533.1 303,535 302.7,535.1 302.6,535.2 301.4,535.7 301.2,535.8 299.9,536.3 
			299.2,536.6 293.3,539.1 292,539.7 291.5,539.9 287.8,541.6 287.3,541.9 283.2,543.7 282.8,543.9 282.6,544 281.7,544.4 
			281.5,544.5 280.5,545 279.6,545.4 274.5,547.8 272.5,548.8 272,549.1 269.1,550.7 268.5,551 265.1,552.8 264.6,553.1 
			264.4,553.2 263.8,553.6 263.6,553.6 262.9,554.1 262.1,554.5 258,556.7 255.7,558.2 255.3,558.5 252.8,560.1 252.3,560.4 
			249.6,562.2 249,562.6 248.4,563 247.7,563.4 247.1,563.8 243.9,565.9 241.6,567.9 241.2,568.1 239.3,569.7 239,570 237,571.7 
			236.4,572.2 236,572.6 235.5,573 235.1,573.4 232.8,575.3 230.8,577.6 230.6,577.8 229.3,579.4 229.1,579.7 227.8,581.2 
			227.3,581.8 226.9,582.2 226.6,582.6 226.4,582.8 224.9,584.6 223.6,587.1 223.5,587.2 222.7,588.7 222.6,588.9 221.9,590.2 
			221.5,590.9 221.3,591.3 221.1,591.6 221,591.8 220.2,593.3 219.5,596 219.2,597.6 218.9,598.8 218.7,599.6 218.6,600 
			218.5,600.3 218.2,601.7 218.3,604.3 218.3,604.8 218.4,606.3 218.4,607.3 218.4,608.3 218.5,608.8 218.5,609.1 218.5,610.2 
			219.4,613.5 219.8,614.8 220,615.6 220.4,616.9 220.5,617.3 220.6,617.6 220.8,618.5 222.6,622.3 223.2,623.5 223.4,624.1 
			224.2,625.8 224.4,626.3 224.6,626.5 224.9,627.1 227.4,631.3 228,632.2 228.2,632.5 229.5,634.7 229.8,635.1 229.8,635.2 
			230.1,635.6 233.6,640.5 233.9,640.9 234,641 236.2,644.2 		"/>
	</g>
	<g id="LINE_1537_">
		<polyline fill="none" stroke="#000000" stroke-linecap="round" stroke-linejoin="round" points="158.2,607.3 149.3,601.7 
			147.1,599.9 138.9,593.3 137.4,591.6 131.4,584.5 130.7,582.8 127.4,575.3 127.5,573.6 127.8,565.9 128.9,564.2 133.4,556.7 
			135.4,554.9 143.6,547.7 147,545.9 159.2,539.1 163.7,537.1 177.6,530.9 181.4,529.4 182.7,528.4 181.4,529.4 186.6,528.4 		"/>
	</g>
	<g id="LINE_1612_">
		<polyline fill="none" stroke="#000000" stroke-linecap="round" stroke-linejoin="round" points="30.2,412.7 41.5,415.4 
			42.7,415.6 43.1,415.7 44,415.9 67.5,423.4 70.1,424.2 70.9,424.5 73.1,425.2 85.5,431.9 87.6,433 88.2,433.4 90,434.4 
			93.9,440.7 94.6,441.8 94.8,442.3 95.5,443.3 90.4,449.6 89.6,450.6 89.2,451 88.4,452 76,458.4 74.5,459.2 73.8,459.5 
			72.6,460.2 50.8,468.1 49.7,468.5 49.1,468.7 48.3,469 30.2,474.3 		"/>
	</g>
	<g id="LINE_336_">
		<polyline fill="none" stroke="#000000" stroke-linecap="round" stroke-linejoin="round" points="175.7,145.8 168.9,151.6 
			168.3,152.1 165.9,154.3 158.7,160.1 158,160.7 155.6,162.7 147.1,168.9 146.2,169.5 143.6,171.4 134.5,177.6 133.5,178.4 
			131.1,180 121.3,186.5 120.1,187.3 118,188.7 107.8,195.4 106.6,196.2 104.8,197.4 94.5,204.3 93.4,205.1 91.9,206.1 81.6,213.3 
			80.5,214 79.3,214.8 69.7,222 68.8,222.7 68,223.3 58.7,230.9 58,231.4 57.5,231.9 49.6,239.4 49.2,239.8 48.9,240.1 42.3,248.2 
			42,248.5 41.9,248.7 37.5,256.8 37.4,257 35.3,265.6 35.2,265.7 36,274.7 36,275 39.9,283.9 40.1,284.3 40.1,284.5 47.1,292.6 
			47.8,293.4 48,293.7 57.1,301 58.5,302.2 59,302.6 69.9,309.1 72.5,310.6 73.6,311.3 84.6,316.8 88.1,318.6 89.9,319.5 
			101.5,324.9 106.3,327.1 109,328.3 119.9,333 125.2,335.3 128.6,336.8 139.5,341.5 145.4,344 149.9,345.9 160.1,350.1 166,352.6 
			171.3,354.8 180.8,358.8 181.4,359.1 186.6,361.2 187.2,361.5 192.7,363.8 201.6,367.6 202.7,368 207.1,369.9 208.4,370.5 
			214,372.8 221.8,376.2 223.1,376.8 226.6,378.3 228.5,379.1 233.6,381.4 240.9,384.7 242.3,385.4 245.2,386.7 247.7,387.9 
			252.8,390.2 258.7,393.2 260,393.8 262.1,394.9 264.8,396.2 269,398.4 274.1,401.4 275.3,402.1 277,403.1 279.9,404.8 283.6,407 
			287.3,410 288.3,410.8 289.4,411.7 292,413.7 294.8,416 297.2,418.9 298,419.8 298.7,420.6 300.6,422.9 302.5,425.2 303.4,428 
			303.7,428.9 304,429.8 304.7,432.2 305.5,434.4 305.1,437 305,438 304.9,438.9 304.6,441.2 304.3,443.4 302.7,445.8 302.1,446.7 
			301.4,447.7 300.1,449.8 298.6,452 296.4,454.2 295.3,455.1 294.2,456.2 292.3,458 290,460.2 287,462.4 285.6,463.5 283.7,464.9 
			281.5,466.6 278.2,469 275.1,471 273.5,472.1 270.9,473.8 268.8,475.1 265,477.6 261.7,479.6 260,480.6 256.3,482.8 254.5,483.9 
			250.1,486.6 247,488.4 245.4,489.3 240.6,492.1 239.3,492.9 234.7,495.6 232,497.2 230.7,497.9 224.8,501.3 224,501.8 
			219.3,504.5 217.1,505.9 216.2,506.4 209.3,510.6 208.8,510.9 204.4,513.6 203,514.5 202.4,514.8 195.2,519.5 195,519.6 
			191.2,522.1 190.5,522.6 190.3,522.8 182.7,528.4 		"/>
	</g>
	<g id="LINE_390_">
		<polyline fill="none" stroke="#000000" stroke-linecap="round" stroke-linejoin="round" points="409.7,301.1 408.9,297.5 
			408.6,296.4 408,293.7 408.4,288.4 408.4,287.3 408.6,284.5 410.7,279 411.1,277.9 412.1,275.1 415.5,269.6 416.1,268.5 
			417.8,265.8 422.1,260.6 422.9,259.5 424.9,257.1 430.1,252 431.2,250.9 433.4,248.7 439.6,243.4 441,242.2 443.4,240.1 
			450.2,234.9 451.7,233.8 454.1,231.9 461.9,226.3 463.6,225 466.1,223.3 474.3,217.6 476.1,216.4 478.4,214.8 487.3,208.8 
			489.4,207.5 491.4,206.1 500.8,199.9 502.9,198.6 504.6,197.4 514.5,191 516.6,189.6 518,188.7 528.4,181.9 530.3,180.7 
			531.4,180 542,172.9 543.6,171.9 544.3,171.4 555.6,163.7 556.7,163 557.1,162.7 568.2,154.7 568.7,154.4 568.8,154.3 
			575.1,149.6 		"/>
	</g>
	<g id="LINE_161_">
		<polyline fill="none" stroke="#000000" stroke-linecap="round" stroke-linejoin="round" points="371.2,493.5 360,495.6 
			357.1,496.1 345.5,498.2 339,499.4 333.4,500.5 326.6,501.7 322.4,502.5 311.6,504.5 297.1,507.2 293.7,507.9 290.4,508.5 
			285.9,509.3 275.1,511.3 274.7,511.4 271.7,512 269.5,512.4 263.2,513.6 241.6,517.7 240.3,517.9 237.4,518.5 235.2,518.9 
			223.1,521.2 222.4,521.3 221.6,521.5 220.8,521.6 218.3,522.1 187.4,528.2 187.1,528.3 186.8,528.3 186.6,528.4 		"/>
	</g>
	<g id="LINE_1254_">
		<polyline fill="none" stroke="#000000" stroke-linecap="round" stroke-linejoin="round" points="236.2,644.2 236.9,645 
			247.6,649.5 255.8,652.9 267.7,657.9 276.9,661.7 288,666.3 298,670.4 306,673.8 		"/>
	</g>
	<g id="LINE_1646_">
		<polyline fill="none" stroke="#000000" stroke-linecap="round" stroke-linejoin="round" points="331.3,677 330,674.4 329.9,674.3 
			329.7,673.9 329.3,673.2 328,670.6 327.9,670.4 327.5,669.6 327.5,669.5 327.2,668.9 325.6,666 325.5,665.7 325.2,665.2 
			325.1,665 323.6,662.1 323.4,661.7 323,660.8 322.7,660.3 322.5,659.9 322.3,659.6 321.2,657.4 321,657 320.7,656.4 320.4,656 
			319.1,653.5 318.8,652.9 318.4,652 318,651.4 318,651.3 317.7,650.8 317.5,650.4 316.7,648.9 316.5,648.4 316.1,647.7 
			315.9,647.3 315.8,647.1 314.7,645 314.4,644.3 313.9,643.3 313.5,642.6 313.4,642.3 313.2,641.9 312.9,641.4 312.4,640.2 
			312.1,639.8 311.8,639 311.5,638.5 311.4,638.2 310.4,636.4 310.1,635.6 309.6,634.5 309.2,633.7 309,633.4 308.9,633 
			308.7,632.7 308.7,632.5 308.3,631.7 308.1,631.3 307.7,630.4 307.4,629.8 307.3,629.5 306.6,627.9 306.2,627.1 305.7,626 
			305.4,625.1 305.2,624.6 305,624.3 304.9,624 304.8,623.8 304.6,623.2 304.4,622.8 304,621.9 303.8,621.2 303.6,620.8 303,619.4 
			302.7,618.5 302.3,617.3 302,616.5 301.8,615.9 301.7,615.6 301.6,615.3 301.5,615.2 301.4,614.7 301.3,614.4 300.9,613.4 
			300.7,612.8 300.5,612.3 300.1,611.1 299.9,610.2 299.5,609 299.3,608.1 299.1,607.4 299.1,607.1 299,606.9 298.9,606.7 
			298.9,606.3 298.8,606 298.5,605 298.3,604.3 298.2,603.6 297.9,602.6 297.7,601.7 297.5,600.4 297.4,599.6 297.2,598.8 
			297.2,598.5 297.2,598.3 297.1,598.1 297.1,597.8 297.1,597.6 296.9,596.5 296.8,595.8 296.7,595.1 296.6,594.2 296.4,593.3 
			296.4,591.9 296.4,591.1 296.3,590.1 296.3,589.9 296.3,589.7 296.3,589.5 296.3,589.3 296.3,589 296.3,587.9 296.2,587.2 
			296.2,586.3 296.2,585.5 296.1,584.6 296.3,583.1 296.3,582.3 296.4,581.1 296.5,580.8 296.5,580.7 296.5,580.5 296.5,580.3 
			296.5,580 296.7,578.9 296.7,578.1 296.8,577.1 296.9,576.4 297,575.3 297.3,573.9 297.5,573.1 297.8,571.7 297.8,571.5 
			297.9,571.3 297.9,571.1 297.9,570.9 298,570.7 298.2,569.6 298.4,568.9 298.7,567.7 298.8,567 299.1,565.9 299.5,564.7 
			299.8,563.8 300.4,562.3 300.5,562.1 300.5,562 300.6,561.7 300.7,561.6 300.8,561.3 301.1,560.4 301.4,559.7 301.9,558.4 
			302.1,557.8 302.5,556.7 303,555.7 303.5,554.9 304.3,553.2 304.4,553.1 304.5,552.9 304.6,552.6 304.7,552.5 304.9,552.2 
			305.2,551.5 305.5,550.9 306.2,549.5 306.5,549 307.1,547.8 307.6,547 308.1,546.3 309.4,544.4 309.5,544.3 309.6,544.2 
			309.8,543.8 309.9,543.7 310.2,543.3 310.5,542.9 310.8,542.4 311.8,540.9 312.1,540.5 313,539.1 313.4,538.7 313.8,538.1 
			315.5,535.9 315.6,535.8 316,535.3 316.4,534.8 316.5,534.6 316.8,534.3 318,532.7 318.2,532.5 319.4,530.9 319.6,530.8 
			319.8,530.4 322.2,527.7 322.8,527 323,526.8 322.5,526.9 323,526.8 323.8,526.2 326.6,524.1 329.5,522.1 333.9,519.1 
			335.1,518.2 336.4,517.3 338.9,515.5 341.8,513.6 346.4,510.4 347.8,509.4 349.5,508.3 351.9,506.6 353.5,505.5 		"/>
	</g>
	<g id="LINE_705_">
		<polyline fill="none" stroke="#000000" stroke-linecap="round" stroke-linejoin="round" points="295.3,704.7 304,700.4 
			310.2,697.3 312.6,696.1 322,691.6 329.6,687.9 330.1,687.7 333.9,686 		"/>
	</g>
	<g id="LINE_927_">
		<polyline fill="none" stroke="#000000" stroke-linecap="round" stroke-linejoin="round" points="575.1,386.8 566.9,382.5 
			565.7,381.8 565.2,381.5 564.9,381.4 552.6,375.4 549.6,373.9 548.3,373.3 547.5,372.8 536.8,367.8 532,365.5 530,364.5 
			528.4,363.8 520,359.9 513.8,357 511.4,355.9 509.1,354.8 502.6,351.8 495.5,348.5 492.8,347.2 489.9,345.9 484.9,343.5 
			477.1,339.8 474.3,338.5 470.8,336.8 467.4,335.2 459.6,331.4 457.1,330.1 453.4,328.3 451.1,327.1 443.1,322.9 440.8,321.7 
			436.7,319.5 435.5,318.8 428.5,314.6 426.6,313.5 422.9,311.3 422.3,310.9 416,306.3 414.5,305.2 411,302.6 409.7,301.1 
			409.7,301.1 409.3,302.7 409.5,305.3 409.6,306.4 410,311.3 410.1,311.4 410.9,313.8 411.2,315 412.7,319.5 412.8,319.8 
			414,322.1 414.1,322.3 414.8,323.6 417.1,328.3 417.4,328.7 418.7,330.7 418.9,331 419.8,332.4 422.6,336.8 423,337.4 
			424.4,339.3 424.8,339.8 425.9,341.4 429.1,345.9 429.6,346.6 430.9,348.2 431.4,349 432.6,350.5 435.8,354.8 436.4,355.7 
			437.5,357.1 438.3,358.1 439.5,359.7 442.6,363.8 443.2,364.7 444.1,366 445.1,367.3 446.2,368.9 449,372.8 449.6,373.9 
			450.2,374.8 451.3,376.5 452.3,377.9 454.5,381.4 455,382.5 455.4,383.3 456.6,385.6 457.3,386.9 458.9,390.2 459.3,391.4 
			459.5,391.9 460.3,394.5 460.7,395.7 461.6,398.4 461.7,399.7 461.7,400.2 462,403.5 462.1,404.5 462.3,407 462.3,407 462,408.5 
			461.9,408.9 461,412.8 460.8,413.7 460.3,416 459.5,417.6 459.4,417.9 457.2,422.4 456.9,423.2 455.9,425.2 454.6,426.9 
			454.3,427.2 450.9,431.8 450.3,432.5 448.9,434.4 447.1,436.2 446.9,436.5 442.7,440.8 442,441.5 440.2,443.4 438,445.2 
			437.6,445.5 433.1,449.4 432.2,450.1 430,452 427.6,453.8 427,454.2 422.8,457.5 421.7,458.3 419.2,460.2 416.3,462.2 
			415.6,462.8 411.4,465.8 410.1,466.7 406.9,469 404,471 403,471.7 399.4,474.2 398.1,475.1 394.6,477.6 391.5,479.7 390.1,480.6 
			386.9,482.8 385.4,483.8 381.3,486.6 378.2,488.7 376.5,489.9 373.9,491.6 372.4,492.7 371.2,493.5 370,495.4 369.9,495.6 
			368.6,497.6 367.8,498.8 367.7,499 366.8,500.3 366.3,501.2 366.2,501.3 364.5,503.9 364.1,504.5 362.9,506.3 362.1,507.6 
			361.8,508.1 361.2,509 360.7,509.7 360.5,510 359,512.4 358.8,512.7 358.2,513.6 357.3,515 356.5,516.2 356.4,516.5 356,517 
			355.6,517.6 355.3,518.2 355.2,518.3 355,518.6 353.8,520.5 353.4,521.1 352.8,522.1 352,523.4 351.2,524.6 350.9,525.1 
			350.5,525.7 350.2,526.2 349.9,526.6 349.8,526.8 349.6,527.1 348.5,528.8 347.9,529.7 347.2,530.9 346.6,531.9 346,532.9 
			345.6,533.6 345.1,534.4 344.9,534.7 344.7,535 344.6,535.2 344.4,535.5 343.6,536.8 343,537.8 342.2,539.1 341.7,540 
			341.2,540.9 340.7,541.8 340.1,542.8 340,543.1 339.9,543.3 339.7,543.5 339.6,543.8 338.9,545 338.2,546.2 337.3,547.8 
			337,548.5 336.5,549.4 336.1,550.4 335.4,551.7 335.4,551.9 335.3,552.1 335.1,552.3 335,552.6 334.5,553.7 333.9,555 333,556.7 
			332.7,557.4 332.4,558.2 331.9,559.3 331.3,560.8 331.3,561 331.2,561.1 331.1,561.4 331,561.7 330.6,562.7 330,564.1 
			329.3,565.9 329,566.7 328.8,567.4 328.4,568.6 327.9,570.2 327.8,570.3 327.8,570.5 327.7,570.8 327.6,571.1 327.3,572 
			326.8,573.5 326.3,575.3 326.1,576.1 325.9,576.9 325.6,578.1 325.3,579.5 325.2,579.7 325.2,579.9 325.1,580.2 325,580.5 
			324.8,581.5 324.4,583 324.1,584.6 323.9,585.4 323.8,586.2 323.6,587.4 323.4,588.6 323.4,588.8 323.3,589 323.3,589.3 
			323.2,589.6 323.1,590.5 322.9,592 322.7,593.3 322.6,594.2 322.5,595 322.4,596.2 322.3,597.2 322.3,597.5 322.3,597.7 
			322.3,598 322.2,598.3 322.2,599.2 322,600.7 321.9,601.7 321.9,602.8 321.9,603.7 321.9,604.9 321.9,605.7 321.9,606.1 
			321.9,606.3 321.9,606.7 321.9,606.9 321.9,607.9 321.8,609.4 321.8,610.2 321.9,611.6 321.9,612.4 322,613.5 322,614.1 
			322,614.6 322,614.9 322.1,615.3 322.1,615.5 322.1,616.5 322.2,617.9 322.2,618.5 322.4,620.1 322.4,620.9 322.5,622 
			322.6,622.5 322.7,623.3 322.7,623.6 322.7,624.1 322.8,624.3 322.9,625.3 323,626.6 323,627.1 323.3,629 323.4,629.7 
			323.5,630.7 323.5,631 323.7,632 323.7,632.4 323.8,632.9 323.8,633 323.9,634 324.1,635.2 324.2,635.6 324.5,637.8 324.6,638.4 
			324.7,639.3 324.8,639.6 325,641 325.1,641.3 325.1,641.9 325.2,642 325.3,642.9 325.5,644 325.5,644.3 326,646.8 326.1,647.3 
			326.2,648.1 326.2,648.3 326.5,650.1 326.6,650.4 326.7,651 326.8,651.7 327,652.8 327,653 327.6,655.8 327.6,656.2 327.8,656.9 
			328.2,659.3 328.2,659.6 328.3,660.2 328.4,660.6 328.6,661.7 329.2,664.8 329.2,665 329.3,665.6 329.9,668.8 330,669.4 
			330,669.6 330.2,670.4 330.6,673.2 330.7,673.8 330.8,674.3 331.3,677 331.3,677 331.7,678.3 331.8,678.6 331.9,679 333,682.9 
			333.9,686 337.9,687.7 345.2,691.3 355.3,696.1 361.9,699.5 372.3,704.7 		"/>
	</g>
</g>
<g id="valley">
	<g id="ValleyLine">
		<g id="LINE_2090_">
			<polyline fill="none" stroke="#000000" stroke-linecap="round" stroke-linejoin="round" stroke-dasharray="4" points="236.9,645 
				235.1,644.3 227.8,641.1 214.8,635.6 208.7,632.8 196,627.1 190.8,624.6 178.2,618.5 174.1,616.3 162.8,610.2 159.6,608.2 
				158.2,607.3 143.3,602.1 142.1,601.7 137.8,600 123.6,594.5 120.5,593.3 117.4,591.9 106,586.7 101.2,584.5 99,583.4 90.7,578.8 
				84.4,575.3 83.2,574.4 78.3,570.7 71.9,565.9 71.4,565.2 69.4,562.4 65.3,556.6 65.2,556.1 65,553.9 64.3,547.7 64.7,547.2 
				66,545.3 70.4,539.1 71.2,538.5 73.5,536.7 81,530.9 82.5,530 86.1,528 96.3,522.1 98.5,521 102.9,518.9 113.9,513.5 
				117.1,512.1 122.4,509.7 134.1,504.5 138.2,502.7 143.7,500.4 154.9,495.5 159.9,493.4 165.3,491.1 175.8,486.6 181.4,484.1 
				186.3,481.8 195.9,477.5 201.5,474.9 205.5,472.9 213.5,469 218.8,466 222.1,464.1 228.8,460.2 232.8,457.1 234.8,455.6 
				239.5,452 241.8,448.6 242.9,447.1 245.5,443.3 245.3,439.8 245.1,438.4 244.8,434.4 242.2,430.8 241.1,429.5 237.9,425.2 
				232.8,421.7 230.9,420.5 224.2,415.9 217.8,412.9 215.2,411.7 205.5,407 198.4,404.3 195.3,403.2 182.3,398.4 175.5,396.2 
				172.2,395.1 156.9,390.2 150.4,388.2 146.8,387.1 127.4,381.3 122.3,379.9 119,379 97.4,372.8 93.7,371.8 90.8,370.9 65,363.8 
				63.1,363.2 61.3,362.7 32.5,354.8 32.4,354.8 32.3,354.7 30.2,354.1 			"/>
		</g>
		<g id="LINE_2089_">
			<polyline fill="none" stroke="#000000" stroke-linecap="round" stroke-linejoin="round" stroke-dasharray="4" points="
				158.2,607.3 156,601.7 156,601.5 156,599.7 156,599.6 156,599.4 156,593.3 156.1,592.9 156.2,592.8 156.8,591.2 157,590.9 
				157.1,590.5 159.6,584.5 160.1,583.9 160.2,583.8 160.3,583.7 161.5,582.3 162,581.8 162.5,581.2 167.5,575.3 168.7,574.4 
				168.9,574.3 169.1,574.1 170.7,572.9 171.8,572.1 172.8,571.3 179.9,565.9 182,564.8 182.4,564.6 182.7,564.4 184.7,563.3 
				186.6,562.3 188.2,561.4 196.9,556.7 200,555.3 200.6,555.1 201.2,554.8 203.5,553.8 206.1,552.7 208.4,551.7 			"/>
		</g>
		<g id="LINE_2088_">
			<polyline fill="none" stroke="#000000" stroke-linecap="round" stroke-linejoin="round" stroke-dasharray="4" points="
				181.4,529.4 183.9,528.4 200.1,522.1 207.7,519.3 223.6,513.6 233.3,510.2 249.5,504.5 260.6,500.7 275.7,495.6 288.1,491.3 
				301.9,486.6 315.4,481.9 327.8,477.6 341.2,472.7 351.4,469 365.2,463.6 373.8,460.2 385.8,454.9 392.2,452 402.9,446.1 
				407.8,443.4 415.1,437.1 418.2,434.4 422,427.8 423.6,425.2 422.8,418.6 422.5,416 418,409.6 416.1,407 407.9,401 404.2,398.4 
				394,392.9 388.9,390.2 376.5,384.6 369.4,381.4 356.8,376.3 348.4,372.8 335.3,367.8 325.1,363.8 312.8,359.2 301.3,354.8 
				290,350.6 277.6,345.9 267.4,341.9 254.2,336.8 245.9,333.5 233.3,328.3 226.2,325.1 213.8,319.5 208.7,316.8 198.4,311.3 
				194.8,308.7 186.5,302.6 184.8,300.1 180.4,293.7 180,291.2 179.1,284.5 180.2,281.9 183.1,275.1 185.5,272.5 191.4,265.8 
				194.8,263.2 202.7,257.1 207.3,254.4 216.7,248.7 222.7,245.7 233.7,240.1 240.8,237 252.2,231.9 261,228.2 273,223.3 
				283.1,219.3 294.7,214.8 306.4,210.4 317.8,206.1 330.7,201.3 341.2,197.4 355.4,192.2 365,188.7 380.3,183.1 388.8,180 
				404.5,174.1 411.7,171.4 428.2,165 434.3,162.7 450,156.2 454.7,154.3 470.9,147.4 474.8,145.7 			"/>
		</g>
		<g id="LINE_2087_">
			<polyline fill="none" stroke="#000000" stroke-linecap="round" stroke-linejoin="round" stroke-dasharray="4" points="
				409.7,301.1 410,302.6 411.6,305.2 412.3,306.4 415.2,311.3 417.3,313.7 418.3,314.8 422.4,319.5 425,321.9 426.5,323.3 
				431.8,328.3 434.4,330.5 436.2,332 442.1,336.8 444.8,339 447,340.7 453.6,345.9 456.2,347.8 458.6,349.7 465.4,354.8 
				467.7,356.6 470.3,358.6 477.2,363.8 479.2,365.4 481.9,367.5 488.7,372.8 490.3,374.2 492.9,376.3 499,381.4 500.3,382.6 
				502.7,384.8 508.4,390.2 509.3,391.2 511.1,393.3 515.6,398.4 516.1,399.3 517.5,401.5 520.8,407 521,407.9 521.5,410.2 
				522.9,416 522.8,416.9 522.7,419.2 522.1,425.2 521.7,426.1 520.7,428.4 518,434.4 517.3,435.4 515.6,437.6 511.3,443.4 
				510.2,444.4 507.8,446.5 502,452 500.5,453.1 497.9,455.2 491.3,460.2 489.3,461.6 486.2,463.7 478.6,469 476.1,470.6 
				473.1,472.5 465.3,477.6 462.3,479.4 459.2,481.4 450.9,486.6 447.4,488.7 444.5,490.5 436.3,495.6 432.5,497.9 429.8,499.6 
				421.7,504.5 417.6,507.1 415.2,508.6 407.3,513.6 403.1,516.3 401.1,517.5 394,522.1 389.7,525.1 388,526.2 381.3,530.9 
				377.4,533.9 376.2,534.8 370.6,539.1 367.1,542.4 366.1,543.3 361.3,547.8 358.7,551.3 358.1,552.1 354.7,556.7 353,560.4 
				352.6,561.3 350.4,565.9 349.8,569.8 349.7,570.6 348.9,575.3 349.2,579.1 349.3,580 349.7,584.6 350.8,588.2 351.1,589 
				352.4,593.3 354.2,596.7 354.7,597.6 356.9,601.7 359.3,605.1 360,606.2 363,610.3 365.7,613.4 366.7,614.6 370.1,618.5 
				373.3,621.7 374.6,623.1 378.6,627.1 381.8,630.1 383.4,631.6 387.7,635.6 391,638.5 393,640.3 397.6,644.3 400.8,647.1 403,649 
				407.7,653 410.8,655.6 413.3,657.7 418,661.7 420.9,664.2 423.6,666.5 428.3,670.4 430.9,672.7 433.7,675.2 438.1,679 
				440.5,681.2 443.4,683.8 447.6,687.7 449.5,689.7 452.3,692.4 455.9,696.1 457.6,698 460.5,701 464,704.7 			"/>
		</g>
		<g id="LINE_2086_">
			<polyline fill="none" stroke="#000000" stroke-linecap="round" stroke-linejoin="round" stroke-dasharray="4" points="
				30.2,689.6 61.3,687.7 73.3,687 96.2,685.7 213.5,679 285.4,675 306,673.8 			"/>
		</g>
		<g id="LINE_2085_">
			<polyline fill="none" stroke="#000000" stroke-linecap="round" stroke-linejoin="round" stroke-dasharray="4" points="331.3,677 
				330.4,674.3 330.2,673.9 330,673.2 329.1,670.4 328.9,669.6 328.8,669.5 328.6,668.9 327.5,665.7 327.4,665.1 327.3,664.9 
				326.2,661.7 325.9,660.7 325.7,660.2 325.6,659.7 325.5,659.5 324.6,657 324.4,656.3 324.3,655.9 323.3,653 322.9,651.9 
				322.7,651.1 322.5,650.6 322.4,650.2 321.7,648.3 321.5,647.5 321.3,646.9 320.4,644.3 320,643.1 319.7,642.1 319.5,641.6 
				319.4,641.2 318.9,639.7 318.6,638.7 318.4,638 317.7,635.6 317.3,634.2 317,633.2 316.8,632.7 316.7,632.2 316.4,631.1 
				316.1,630.1 315.9,629.2 315.3,627.1 314.9,625.6 314.6,624.4 314.5,623.9 314.4,623.5 314.2,622.6 313.9,621.4 313.7,620.4 
				313.2,618.5 312.9,616.9 312.7,615.7 312.6,615.2 312.6,614.9 312.4,614.2 312.2,612.9 312,611.9 311.7,610.2 311.5,608.4 
				311.4,607.2 311.3,606.7 311.3,606.3 311.2,605.8 311.1,604.3 310.9,603.2 310.8,601.7 310.7,599.8 310.7,598.5 310.7,598.1 
				310.7,597.8 310.7,597.4 310.6,595.7 310.6,594.6 310.6,593.3 310.7,591.2 310.8,589.8 310.9,589.4 310.9,589.1 310.9,588.8 
				311,587 311.1,585.8 311.2,584.6 311.6,582.2 311.8,580.8 311.9,580.3 312,580.1 312,579.8 312.4,577.8 312.6,576.6 312.8,575.3 
				313.4,572.9 313.9,571.4 314,571 314.1,570.7 314.1,570.4 314.7,568.4 315,567.1 315.4,565.9 316.3,563.6 316.9,562 317.1,561.6 
				317.2,561.3 317.3,561 318,559.2 318.5,557.9 319,556.7 320,554.6 320.9,552.9 321.1,552.5 321.2,552.2 321.4,551.9 322.1,550.4 
				322.8,549 323.4,547.8 324.6,545.9 325.7,544.1 325.9,543.8 326.1,543.4 326.3,543.1 327.1,541.8 328,540.4 328.8,539.1 
				329.8,537.7 331.1,535.7 331.3,535.4 331.6,535 331.9,534.6 332.5,533.7 333.5,532.3 334.4,530.9 335.3,529.7 337,527.4 
				337.2,527.1 337.6,526.5 338.1,525.9 338.5,525.3 339.7,523.7 340.9,522.1 341.4,521.3 343.3,518.8 343.5,518.7 344,518 
				344.6,517.2 344.8,516.9 346,515.3 347.3,513.6 347.6,513.2 349.8,510.3 350.6,509.4 351.4,508.2 352.7,506.6 353.5,505.5 
				355,504.5 359.4,501.5 360.9,500.5 363,499 365.1,497.7 368.2,495.6 371.2,493.5 353.5,505.5 349.5,506.7 343.8,508.4 
				343.2,508.5 339,509.7 335.7,510.7 325.8,513.6 323,514.4 316.9,516.2 311.7,517.7 309.8,518.2 307.1,519 304.8,519.7 
				296.6,522.1 291.1,523.8 285.9,525.3 280.9,526.8 278.3,527.6 276.5,528.2 274.6,528.8 267.5,530.9 260.3,533.2 256.4,534.4 
				252.3,535.8 249.7,536.6 248.6,537 247.3,537.4 241.9,539.1 233.1,542.2 229.8,543.4 226.3,544.6 223.7,545.6 222.8,545.8 
				221.9,546.2 217.5,547.7 208.4,551.7 			"/>
			<polyline fill="none" stroke="#000000" stroke-linecap="round" stroke-linejoin="round" stroke-dasharray="4" points="
				323.8,526.2 322.8,527 322.7,526.9 321.6,527.7 317.2,530.9 314.7,532.8 312,534.9 311.2,535.5 310.3,536.1 306.4,539.1 
				304,541.1 301.2,543.4 300.6,544 299.8,544.6 296.1,547.8 294.1,549.9 291.7,552.4 291.2,552.9 290.6,553.5 287.5,556.7 
				285.8,559 283.7,561.6 283.3,562.1 282.9,562.7 280.4,565.9 279.1,568.4 277.7,571 277.4,571.6 277,572.2 275.3,575.3 
				274.4,577.9 273.6,580.4 273.3,581 273.1,581.6 272.1,584.6 271.7,587.1 271.3,589.4 271.2,590.1 271.2,590.6 270.7,593.3 
				270.8,595.9 270.8,598 270.8,598.7 270.8,599.3 270.9,601.7 271.4,604.5 271.7,606.4 271.9,607.4 272,608 272.4,610.2 
				273.4,613.1 273.9,614.8 274.2,615.9 274.4,616.5 275.1,618.5 276.4,621.7 277.1,623.2 277.7,624.6 278,625.3 278.8,627.1 
				280.4,630.4 281.1,631.7 282,633.4 282.3,634 283.1,635.6 285.1,639.1 285.7,640.2 287,642.4 287.3,643 288,644.3 290.3,648 
				290.8,648.8 292.4,651.5 292.7,651.9 293.3,652.9 295.7,656.9 296,657.4 298.1,660.7 298.3,661 298.7,661.7 301.2,665.8 
				301.4,666.1 303.8,670.1 303.9,670.2 304,670.4 306,673.8 307.9,674.6 318.2,679 327.1,683 333.9,686 			"/>
		</g>
	</g>
</g>
<g id="boundary">
	<g id="CutLine">
		
			<rect x="30.3" y="145.7" fill="none" stroke="#000000" stroke-width="2" stroke-linecap="round" stroke-linejoin="round" width="544.9" height="559"/>
	</g>
</g>
</svg>
