<?xml version="1.0" encoding="utf-8"?>
<!-- Generator: Adobe Illustrator 22.1.0, SVG Export Plug-In . SVG Version: 6.00 Build 0)  -->
<svg version="1.1" id="Layer_1" xmlns="http://www.w3.org/2000/svg" xmlns:xlink="http://www.w3.org/1999/xlink" x="0px" y="0px"
	 viewBox="0 0 223.5 802.6" enable-background="new 0 0 223.5 802.6" xml:space="preserve">
<g id="CutLine">
	
		<line fill="none" stroke="#000000" stroke-width="2" stroke-linecap="round" stroke-linejoin="round" stroke-miterlimit="500" x1="182.9" y1="759" x2="182.9" y2="397.3"/>
	
		<line fill="none" stroke="#000000" stroke-width="2" stroke-linecap="round" stroke-linejoin="round" stroke-miterlimit="500" x1="37.6" y1="759" x2="37.6" y2="397.3"/>
	
		<line fill="none" stroke="#000000" stroke-width="2" stroke-linecap="round" stroke-linejoin="round" stroke-miterlimit="500" x1="182.9" y1="397.3" x2="182.9" y2="35.6"/>
	
		<line fill="none" stroke="#000000" stroke-width="2" stroke-linecap="round" stroke-linejoin="round" stroke-miterlimit="500" x1="37.6" y1="397.3" x2="37.6" y2="35.6"/>
	
		<line fill="none" stroke="#000000" stroke-width="2" stroke-linecap="round" stroke-linejoin="round" stroke-miterlimit="500" x1="182.9" y1="35.6" x2="37.6" y2="35.6"/>
	
		<line fill="none" stroke="#000000" stroke-width="2" stroke-linecap="round" stroke-linejoin="round" stroke-miterlimit="500" x1="182.9" y1="759" x2="37.6" y2="759"/>
</g>
<g id="ValleyLine">
	
		<polyline fill="none" stroke="#000000" stroke-linecap="round" stroke-linejoin="round" stroke-miterlimit="500" stroke-dasharray="4" points="
		37.6,643.5 50.2,646 55.2,647 60.1,647.9 65.1,648.9 70.1,649.8 75.1,650.6 80,651.3 85.1,652 90.1,652.5 95.1,652.9 100.2,653.3 
		105.2,653.5 110.3,653.5 115.3,653.5 120.4,653.3 125.4,652.9 130.4,652.5 135.5,652 140.5,651.3 145.5,650.6 150.5,649.8 
		155.4,648.9 160.4,647.9 165.4,647 170.3,646 182.9,643.5 	"/>
	
		<polyline fill="none" stroke="#000000" stroke-linecap="round" stroke-linejoin="round" stroke-miterlimit="500" stroke-dasharray="4" points="
		182.9,688.7 170.3,691.2 165.4,692.2 160.4,693.1 155.4,694.1 150.5,695 145.5,695.8 140.5,696.5 135.5,697.2 130.4,697.7 
		125.4,698.2 120.4,698.5 115.3,698.7 110.3,698.7 105.2,698.7 100.2,698.5 95.1,698.2 90.1,697.7 85.1,697.2 80,696.5 75.1,695.8 
		70.1,695 65.1,694.1 60.1,693.1 55.2,692.2 50.2,691.2 37.6,688.7 	"/>
	
		<polyline fill="none" stroke="#000000" stroke-linecap="round" stroke-linejoin="round" stroke-miterlimit="500" stroke-dasharray="4" points="
		37.6,733.9 50.2,736.4 55.2,737.4 60.1,738.4 65.1,739.3 70.1,740.2 75.1,741 80,741.7 85.1,742.4 90.1,742.9 95.1,743.4 
		100.2,743.7 105.2,743.9 110.3,743.9 115.3,743.9 120.4,743.7 125.4,743.4 130.4,742.9 135.5,742.4 140.5,741.7 145.5,741 
		150.5,740.2 155.4,739.3 160.4,738.4 165.4,737.4 170.3,736.4 182.9,733.9 	"/>
	
		<polyline fill="none" stroke="#000000" stroke-linecap="round" stroke-linejoin="round" stroke-miterlimit="500" stroke-dasharray="4" points="
		182.9,598.3 170.3,600.8 165.4,601.8 160.4,602.7 155.4,603.7 150.5,604.5 145.5,605.4 140.5,606.1 135.5,606.8 130.4,607.3 
		125.4,607.7 120.4,608.1 115.3,608.2 110.3,608.3 105.2,608.2 100.2,608.1 95.1,607.7 90.1,607.3 85.1,606.8 80,606.1 75.1,605.4 
		70.1,604.5 65.1,603.7 60.1,602.7 55.2,601.8 50.2,600.8 37.6,598.3 	"/>
	
		<polyline fill="none" stroke="#000000" stroke-linecap="round" stroke-linejoin="round" stroke-miterlimit="500" stroke-dasharray="4" points="
		37.6,553.1 50.2,555.6 55.2,556.5 60.1,557.5 65.1,558.4 70.1,559.3 75.1,560.2 80,560.9 85.1,561.5 90.1,562.1 95.1,562.5 
		100.2,562.8 105.2,563 110.3,563.1 115.3,563 120.4,562.8 125.4,562.5 130.4,562.1 135.5,561.5 140.5,560.9 145.5,560.2 
		150.5,559.3 155.4,558.4 160.4,557.5 165.4,556.5 170.3,555.6 182.9,553.1 	"/>
	
		<polyline fill="none" stroke="#000000" stroke-linecap="round" stroke-linejoin="round" stroke-miterlimit="500" stroke-dasharray="4" points="
		182.9,507.8 170.3,510.4 165.4,511.3 160.4,512.3 155.4,513.2 150.5,514.1 145.5,514.9 140.5,515.7 135.5,516.3 130.4,516.9 
		125.4,517.3 120.4,517.6 115.3,517.8 110.3,517.9 105.2,517.8 100.2,517.6 95.1,517.3 90.1,516.9 85.1,516.3 80,515.7 75.1,514.9 
		70.1,514.1 65.1,513.2 60.1,512.3 55.2,511.3 50.2,510.4 37.6,507.8 	"/>
	
		<polyline fill="none" stroke="#000000" stroke-linecap="round" stroke-linejoin="round" stroke-miterlimit="500" stroke-dasharray="4" points="
		37.6,462.6 50.2,465.1 55.2,466.1 60.1,467.1 65.1,468 70.1,468.9 75.1,469.7 80,470.5 85.1,471.1 90.1,471.7 95.1,472.1 
		100.2,472.4 105.2,472.6 110.3,472.7 115.3,472.6 120.4,472.4 125.4,472.1 130.4,471.7 135.5,471.1 140.5,470.5 145.5,469.7 
		150.5,468.9 155.4,468 160.4,467.1 165.4,466.1 170.3,465.1 182.9,462.6 	"/>
	
		<polyline fill="none" stroke="#000000" stroke-linecap="round" stroke-linejoin="round" stroke-miterlimit="500" stroke-dasharray="4" points="
		37.6,417.4 50.2,419.9 55.2,420.9 60.1,421.9 65.1,422.8 70.1,423.7 75.1,424.5 80,425.3 85.1,425.9 90.1,426.5 95.1,426.9 
		100.2,427.2 105.2,427.4 110.3,427.5 115.3,427.4 120.4,427.2 125.4,426.9 130.4,426.5 135.5,425.9 140.5,425.3 145.5,424.5 
		150.5,423.7 155.4,422.8 160.4,421.9 165.4,420.9 170.3,419.9 182.9,417.4 	"/>
	
		<polyline fill="none" stroke="#000000" stroke-linecap="round" stroke-linejoin="round" stroke-miterlimit="500" stroke-dasharray="4" points="
		182.9,372.2 170.3,374.7 165.4,375.7 160.4,376.7 155.4,377.6 150.5,378.5 145.5,379.3 140.5,380 135.5,380.7 130.4,381.2 
		125.4,381.7 120.4,382 115.3,382.2 110.3,382.2 105.2,382.2 100.2,382 95.1,381.7 90.1,381.2 85.1,380.7 80,380 75.1,379.3 
		70.1,378.5 65.1,377.6 60.1,376.7 55.2,375.7 50.2,374.7 37.6,372.2 	"/>
	
		<polyline fill="none" stroke="#000000" stroke-linecap="round" stroke-linejoin="round" stroke-miterlimit="500" stroke-dasharray="4" points="
		37.6,327 50.2,329.5 55.2,330.5 60.1,331.5 65.1,332.4 70.1,333.3 75.1,334.1 80,334.8 85.1,335.5 90.1,336 95.1,336.5 
		100.2,336.8 105.2,337 110.3,337 115.3,337 120.4,336.8 125.4,336.5 130.4,336 135.5,335.5 140.5,334.8 145.5,334.1 150.5,333.3 
		155.4,332.4 160.4,331.5 165.4,330.5 170.3,329.5 182.9,327 	"/>
	
		<polyline fill="none" stroke="#000000" stroke-linecap="round" stroke-linejoin="round" stroke-miterlimit="500" stroke-dasharray="4" points="
		182.9,281.8 170.3,284.3 165.4,285.3 160.4,286.2 155.4,287.2 150.5,288.1 145.5,288.9 140.5,289.6 135.5,290.3 130.4,290.8 
		125.4,291.3 120.4,291.6 115.3,291.8 110.3,291.8 105.2,291.8 100.2,291.6 95.1,291.3 90.1,290.8 85.1,290.3 80,289.6 75.1,288.9 
		70.1,288.1 65.1,287.2 60.1,286.2 55.2,285.3 50.2,284.3 37.6,281.8 	"/>
	
		<polyline fill="none" stroke="#000000" stroke-linecap="round" stroke-linejoin="round" stroke-miterlimit="500" stroke-dasharray="4" points="
		182.9,236.6 170.3,239.1 165.4,240.1 160.4,241 155.4,242 150.5,242.8 145.5,243.7 140.5,244.4 135.5,245.1 130.4,245.6 125.4,246 
		120.4,246.4 115.3,246.5 110.3,246.6 105.2,246.5 100.2,246.4 95.1,246 90.1,245.6 85.1,245.1 80,244.4 75.1,243.7 70.1,242.8 
		65.1,242 60.1,241 55.2,240.1 50.2,239.1 37.6,236.6 	"/>
	
		<polyline fill="none" stroke="#000000" stroke-linecap="round" stroke-linejoin="round" stroke-miterlimit="500" stroke-dasharray="4" points="
		37.6,191.4 50.2,193.9 55.2,194.8 60.1,195.8 65.1,196.7 70.1,197.6 75.1,198.5 80,199.2 85.1,199.8 90.1,200.4 95.1,200.8 
		100.2,201.1 105.2,201.3 110.3,201.4 115.3,201.3 120.4,201.1 125.4,200.8 130.4,200.4 135.5,199.8 140.5,199.2 145.5,198.5 
		150.5,197.6 155.4,196.7 160.4,195.8 165.4,194.8 170.3,193.9 182.9,191.4 	"/>
	
		<polyline fill="none" stroke="#000000" stroke-linecap="round" stroke-linejoin="round" stroke-miterlimit="500" stroke-dasharray="4" points="
		182.9,146.1 170.3,148.7 165.4,149.6 160.4,150.6 155.4,151.5 150.5,152.4 145.5,153.2 140.5,154 135.5,154.6 130.4,155.2 
		125.4,155.6 120.4,155.9 115.3,156.1 110.3,156.2 105.2,156.1 100.2,155.9 95.1,155.6 90.1,155.2 85.1,154.6 80,154 75.1,153.2 
		70.1,152.4 65.1,151.5 60.1,150.6 55.2,149.6 50.2,148.7 37.6,146.1 	"/>
	
		<polyline fill="none" stroke="#000000" stroke-linecap="round" stroke-linejoin="round" stroke-miterlimit="500" stroke-dasharray="4" points="
		37.6,100.9 50.2,103.4 55.2,104.4 60.1,105.4 65.1,106.3 70.1,107.2 75.1,108 80,108.8 85.1,109.4 90.1,110 95.1,110.4 
		100.2,110.7 105.2,110.9 110.3,111 115.3,110.9 120.4,110.7 125.4,110.4 130.4,110 135.5,109.4 140.5,108.8 145.5,108 150.5,107.2 
		155.4,106.3 160.4,105.4 165.4,104.4 170.3,103.4 182.9,100.9 	"/>
	
		<polyline fill="none" stroke="#000000" stroke-linecap="round" stroke-linejoin="round" stroke-miterlimit="500" stroke-dasharray="4" points="
		182.9,55.7 170.3,58.2 165.4,59.2 160.4,60.2 155.4,61.1 150.5,62 145.5,62.8 140.5,63.6 135.5,64.2 130.4,64.8 125.4,65.2 
		120.4,65.5 115.3,65.7 110.3,65.8 105.2,65.7 100.2,65.5 95.1,65.2 90.1,64.8 85.1,64.2 80,63.6 75.1,62.8 70.1,62 65.1,61.1 
		60.1,60.2 55.2,59.2 50.2,58.2 37.6,55.7 	"/>
</g>
<g id="MountainLine">
	
		<line fill="none" stroke="#000000" stroke-linecap="round" stroke-linejoin="round" stroke-miterlimit="500" x1="182.9" y1="713.8" x2="37.6" y2="713.8"/>
	
		<line fill="none" stroke="#000000" stroke-linecap="round" stroke-linejoin="round" stroke-miterlimit="500" x1="182.9" y1="668.6" x2="37.6" y2="668.6"/>
	
		<line fill="none" stroke="#000000" stroke-linecap="round" stroke-linejoin="round" stroke-miterlimit="500" x1="182.9" y1="623.4" x2="37.6" y2="623.4"/>
	
		<line fill="none" stroke="#000000" stroke-linecap="round" stroke-linejoin="round" stroke-miterlimit="500" x1="182.9" y1="578.2" x2="37.6" y2="578.2"/>
	
		<line fill="none" stroke="#000000" stroke-linecap="round" stroke-linejoin="round" stroke-miterlimit="500" x1="182.9" y1="533" x2="37.6" y2="533"/>
	
		<line fill="none" stroke="#000000" stroke-linecap="round" stroke-linejoin="round" stroke-miterlimit="500" x1="182.9" y1="487.7" x2="37.6" y2="487.7"/>
	
		<line fill="none" stroke="#000000" stroke-linecap="round" stroke-linejoin="round" stroke-miterlimit="500" x1="182.9" y1="442.5" x2="37.6" y2="442.5"/>
	
		<line fill="none" stroke="#000000" stroke-linecap="round" stroke-linejoin="round" stroke-miterlimit="500" x1="182.9" y1="352.1" x2="37.6" y2="352.1"/>
	
		<line fill="none" stroke="#000000" stroke-linecap="round" stroke-linejoin="round" stroke-miterlimit="500" x1="182.9" y1="306.9" x2="37.6" y2="306.9"/>
	
		<line fill="none" stroke="#000000" stroke-linecap="round" stroke-linejoin="round" stroke-miterlimit="500" x1="182.9" y1="261.7" x2="37.6" y2="261.7"/>
	
		<line fill="none" stroke="#000000" stroke-linecap="round" stroke-linejoin="round" stroke-miterlimit="500" x1="182.9" y1="216.5" x2="37.6" y2="216.5"/>
	
		<line fill="none" stroke="#000000" stroke-linecap="round" stroke-linejoin="round" stroke-miterlimit="500" x1="182.9" y1="171.3" x2="37.6" y2="171.3"/>
	
		<line fill="none" stroke="#000000" stroke-linecap="round" stroke-linejoin="round" stroke-miterlimit="500" x1="182.9" y1="126" x2="37.6" y2="126"/>
	
		<line fill="none" stroke="#000000" stroke-linecap="round" stroke-linejoin="round" stroke-miterlimit="500" x1="182.9" y1="80.8" x2="37.6" y2="80.8"/>
	
		<line fill="none" stroke="#000000" stroke-linecap="round" stroke-linejoin="round" stroke-miterlimit="500" x1="182.9" y1="397.3" x2="37.6" y2="397.3"/>
</g>
</svg>
