<?xml version="1.0" encoding="utf-8"?>
<!-- Generator: Adobe Illustrator 22.1.0, SVG Export Plug-In . SVG Version: 6.00 Build 0)  -->
<svg version="1.1" id="Layer_1" xmlns="http://www.w3.org/2000/svg" xmlns:xlink="http://www.w3.org/1999/xlink" x="0px" y="0px"
	 viewBox="0 0 607.3 878.5" enable-background="new 0 0 607.3 878.5" xml:space="preserve">
<g id="CutLine">
	
		<rect x="59.5" y="95.4" fill="none" stroke="#231815" stroke-width="2" stroke-linecap="round" stroke-linejoin="round" width="486.9" height="693.9"/>
</g>
<g id="LINE_215_">
	<polyline fill="none" stroke="#231815" stroke-linecap="round" stroke-linejoin="round" points="526.7,95.4 522.8,104.7 
		518.1,115.8 517.6,117.1 512.9,127.7 508.8,137.1 508.1,138.8 502.7,150 498.6,158.6 497.5,160.8 491.9,172.1 487.9,180.1 
		486.5,182.8 480.8,194 476.8,201.8 475.2,204.9 469.6,215.9 465.7,223.4 463.8,227.1 458.4,237.7 454.7,245 452.6,249.2 
		447.5,259.5 444.8,264.9 444,266.6 441.7,271.2 438.6,277.9 438.6,277.9 439,280.8 439,281 439.8,287.1 440,288.3 440.5,292.5 
		440.6,292.9 440.6,293 441.9,300.6 442,301.3 442.1,301.6 442.9,306.6 443.6,310.2 444.2,313.7 444.3,314.3 444.4,314.8 
		445.6,320.3 445.8,321.2 446.1,322.3 446.9,325.9 448.2,331.9 448.8,334.4 448.9,334.9 449.2,336.2 450.2,339.8 450.5,340.6 
		451.2,343 451.8,345.2 454.2,353.6 454.6,354.9 454.7,355.2 455.4,357.7 455.9,359.2 456.1,359.6 457.6,363.8 457.8,364.5 
		461.2,373.7 546.4,373.7 467.4,373.7 461.2,373.7 460.5,375.1 458.6,378.8 456.5,385.2 453.1,395.9 451.8,399.9 451.1,407.3 
		450,416.9 449.6,421.1 450.6,429.6 451.6,438.2 452.1,442.3 455.8,452.2 458.5,459.7 460,463.5 466.9,475.3 470.5,481.5 
		472.5,484.8 484,499.2 487.3,503.3 489.3,505.9 507.2,524.2 	"/>
</g>
<g id="LINE_31_">
	<polyline fill="none" stroke="#231815" stroke-linecap="round" stroke-linejoin="round" points="336,461.9 339.7,463.6 374,477.3 
		382.4,480.6 392.8,484.8 438.7,501.2 443.1,502.8 451.8,505.9 507.2,524.2 509.3,525.4 512.1,527 546.4,544.8 	"/>
</g>
<g id="LINE_480_">
	<polyline fill="none" stroke="#231815" stroke-linecap="round" stroke-linejoin="round" points="360,352.9 363.2,349.6 
		363.6,349.3 363.7,349.2 364.3,348.6 376.5,336.3 376.8,336 378.2,334.6 383.9,329.1 386.2,326.8 386.8,326.2 390.9,322.3 
		398.6,314.8 399.1,314.4 402.1,311.6 405.4,308.5 410,304.2 410.6,303.6 418.5,296.2 422,293 422.3,292.7 426.7,288.7 427.8,287.7 
		434.7,281.4 434.9,281.2 438.6,277.9 	"/>
</g>
<g id="LINE_551_">
	<polyline fill="none" stroke="#231815" stroke-linecap="round" stroke-linejoin="round" points="394.2,445.3 391,442.3 
		385.6,435.3 374.7,421.1 370.9,413.5 364.1,399.9 362.2,391.9 359.2,378.8 359.1,370.7 359.1,357.7 360,352.9 	"/>
</g>
<g id="LINE_454_">
	<polyline fill="none" stroke="#231815" stroke-linecap="round" stroke-linejoin="round" points="360,352.9 345.6,357.7 344,358.2 
		309.7,368.5 297,372.4 291.1,374.1 275.7,378.8 260.5,383 246.2,386.9 218,394.7 218,394.7 207.4,385.2 200.2,378.8 197.1,375.1 
		187.4,363.2 182.9,357.7 181.1,354.4 173.8,341.3 171,336.3 170.1,333.4 165.5,319.5 163.9,314.8 163.5,312.3 161.3,297.6 
		160.6,293 160.5,290.8 160.4,275.8 160.3,271.2 160.5,269.3 161.8,253.8 162.2,249.2 162.5,247.4 164.6,232.7 	"/>
</g>
<g id="LINE_508_">
	<polyline fill="none" stroke="#231815" stroke-linecap="round" stroke-linejoin="round" points="230.1,789.3 226.2,785.9 
		217.8,778.8 212.6,774.4 204.6,767.6 200.7,764.4 192.5,757.6 185,751.5 178.2,745.9 174.2,742.9 165.9,736.7 154.6,728.2 
		148.9,723.9 145.3,721.3 137.9,716 122.3,704.8 118.4,701.9 115.6,700 109.8,695.9 88.8,681.1 86.9,679.8 85.5,678.7 82.3,676.5 
		59.5,660.5 	"/>
</g>
<g id="MountainLine">
	<g id="LINE_387_">
		<polyline fill="none" stroke="#231815" stroke-linecap="round" stroke-linejoin="round" points="400.1,789.3 396,782.6 
			386.9,767.6 382.4,760.3 373.4,745.9 367.9,737.9 358.4,723.9 352.1,715.1 342.7,701.9 335.8,692.3 326.7,679.8 319.1,669.4 
			310.5,657.6 302.5,646.5 294.6,635.5 294.2,635 286.3,623.7 279.1,613.4 278.3,612.3 270.8,601.1 264.4,591.6 263.3,589.9 
			256.3,578.7 250.8,569.9 249.5,567.5 243.2,556.5 238.6,548.4 237.2,545.5 231.8,534.6 228.1,527 227.8,526.4 226.7,523.6 
			222.4,513 219.5,505.9 219.2,504.6 219,503.9 218.4,501.9 215.3,491.5 213.3,484.8 212.9,482.8 212.6,481.1 212.5,480.2 
			210.7,470.1 209.6,463.6 209.6,462.6 209.5,460.9 209.4,457.8 209,448.9 208.7,442.3 209.1,439.1 209.6,433.9 210.3,427.7 
			211,421.1 211.9,417.4 213.9,409.2 214.5,406.7 216.1,399.9 217.6,395.7 218,394.7 		"/>
	</g>
</g>
<g id="ValleyLine">
	<g id="LINE_420_">
		<g>
			<g>
				<line fill="none" stroke="#231815" stroke-linecap="round" stroke-linejoin="round" x1="59.5" y1="458.6" x2="60" y2="460.5"/>
				
					<polyline fill="none" stroke="#231815" stroke-linecap="round" stroke-linejoin="round" stroke-dasharray="3.9848,3.9848" points="
					60.9,464.4 67.2,484 67.3,484.5 67.4,484.7 67.4,484.8 67.6,485.1 75.5,504.4 76,505.5 76.1,505.8 76.2,505.9 76.5,506.6 
					85.5,524.8 86.3,526.5 86.5,526.9 86.6,527 87.3,528.2 96.9,545.4 98.2,547.8 98.5,548.4 99.6,550.2 109.4,566.2 111.3,569.2 
					111.7,569.9 113.2,572.3 123.2,587.4 125.6,591.1 125.9,591.6 128,594.7 137.8,608.9 140.6,613 140.9,613.4 143.6,617.3 
					153.1,630.7 156.4,635.3 156.6,635.5 159.9,640.1 168.9,652.6 172.5,657.6 176.4,662.9 185,674.8 188.7,679.8 193.1,685.8 
					201.2,697 204.8,701.9 209.6,708.7 217.1,719.2 220.5,723.9 225.7,731.4 232.6,741.4 235.8,745.9 241.1,754 247.2,763.3 
					250,767.6 255.6,776.3 261.3,785.3 261.7,785.9 				"/>
				
					<line fill="none" stroke="#231815" stroke-linecap="round" stroke-linejoin="round" x1="262.8" y1="787.6" x2="263.9" y2="789.3"/>
			</g>
		</g>
		<g>
			<g>
				
					<line fill="none" stroke="#231815" stroke-linecap="round" stroke-linejoin="round" x1="167.8" y1="95.4" x2="168.2" y2="97.4"/>
				
					<polyline fill="none" stroke="#231815" stroke-linecap="round" stroke-linejoin="round" stroke-dasharray="3.9697,3.9697" points="
					169.1,101.3 172.4,116.5 172.5,117.1 173.3,122.2 175.7,138 175.8,138.8 175.7,144 175.3,159.9 175.3,160.8 174.7,166 
					173,181.7 172.8,182.8 172,187.9 169.5,203.6 169.3,204.9 168.4,209.9 165.7,225.5 165.5,227.1 164.8,231.9 164.6,232.7 
					153.1,247.6 151.9,249.2 148.9,253.2 146.4,256.4 136.4,269.7 135.3,271.2 132.9,274.5 128,281.3 120.5,291.7 119.5,293 
					117.8,295.6 110.6,306.2 105.5,313.7 104.8,314.8 103.6,316.8 95,330.6 92,335.4 91.5,336.3 90.7,337.6 81.5,354.5 80.1,357.1 
					79.7,357.7 79.4,358.5 70.7,377.4 70.2,378.5 70.1,378.8 69.9,379.2 62.7,399.6 62.6,399.9 62.5,400 60.4,409.3 				"/>
				<line fill="none" stroke="#231815" stroke-linecap="round" stroke-linejoin="round" x1="60" y1="411.2" x2="59.5" y2="413.2"/>
			</g>
		</g>
		<g>
			<g>
				
					<line fill="none" stroke="#231815" stroke-linecap="round" stroke-linejoin="round" x1="480.1" y1="95.8" x2="478.3" y2="96.5"/>
				
					<polyline fill="none" stroke="#231815" stroke-linecap="round" stroke-linejoin="round" stroke-dasharray="4.1259,4.1259" points="
					474.4,98 437.4,112.2 429.7,115.2 429.4,115.3 424.8,117.1 421.9,118.2 391.8,130.2 				"/>
				<polyline fill="none" stroke="#231815" stroke-linecap="round" stroke-linejoin="round" points="389.9,131 388,131.7 388,131.7 
					386.2,132.5 				"/>
				
					<polyline fill="none" stroke="#231815" stroke-linecap="round" stroke-linejoin="round" stroke-dasharray="3.9533,3.9533" points="
					382.5,133.9 375.2,136.8 374.5,137.1 370.2,138.8 365.6,140.8 340.9,151.5 324.3,158.7 323.2,159.1 319.5,160.8 313.4,163.6 
					296,171.5 275.8,180.7 274.2,181.4 271.1,182.8 263.7,186.2 252.3,191.6 228.1,202.9 225.7,204 223.7,204.9 215,209 
					209.2,211.7 180.4,225.3 177.1,226.8 176.6,227.1 168.2,231 				"/>
				<polyline fill="none" stroke="#231815" stroke-linecap="round" stroke-linejoin="round" points="166.5,231.8 166.4,231.8 
					166.2,231.9 164.6,232.7 				"/>
			</g>
		</g>
		<g>
			<g>
				
					<line fill="none" stroke="#231815" stroke-linecap="round" stroke-linejoin="round" x1="360" y1="352.9" x2="360.4" y2="350.9"/>
				
					<polyline fill="none" stroke="#231815" stroke-linecap="round" stroke-linejoin="round" stroke-dasharray="4.0253,4.0253" points="
					361.1,347 363.2,336.2 366,328.3 370.9,314.8 374.6,307.1 381.5,293 385.8,285.8 394.4,271.2 398.9,264.5 409.1,249.2 
					413.4,243.1 424.8,227.1 428.6,221.7 440.8,204.9 444.2,200.3 456.7,182.8 459.4,178.8 471.8,160.8 473.8,157.5 485.4,138.8 
					486.7,136.1 496,117.1 496.9,114.9 503.9,99.1 				"/>
				
					<line fill="none" stroke="#231815" stroke-linecap="round" stroke-linejoin="round" x1="504.8" y1="97.2" x2="505.6" y2="95.4"/>
			</g>
		</g>
		<g>
			<g>
				
					<line fill="none" stroke="#231815" stroke-linecap="round" stroke-linejoin="round" x1="546.4" y1="652.4" x2="544.9" y2="651.1"/>
				
					<polyline fill="none" stroke="#231815" stroke-linecap="round" stroke-linejoin="round" stroke-dasharray="3.9482,3.9482" points="
					541.8,648.6 525.4,635.5 524.1,634.5 498.1,613.4 495.3,611.2 471.5,591.6 467.3,588.1 445.6,569.9 440.2,565.2 421,548.4 
					414.6,542.6 397.4,527 396.2,525.8 390.4,520.3 375.6,505.9 373.2,503.3 371.9,502 368.2,498.2 355.4,484.8 352.2,481 
					349.5,477.8 348,476.1 338.5,465 				"/>
				<path fill="none" stroke="#231815" stroke-linecap="round" stroke-linejoin="round" d="M337.2,463.5l-1.2-1.6
					c0,0,0.8-0.2,1.9-0.5"/>
				<path fill="none" stroke="#231815" stroke-linecap="round" stroke-linejoin="round" stroke-dasharray="3.7636,3.7636" d="
					M341.6,460.3c3.1-0.9,6.2-1.8,6.2-1.8l11-3.1l31.6-9"/>
				<polyline fill="none" stroke="#231815" stroke-linecap="round" stroke-linejoin="round" points="392.3,445.8 394.2,445.3 
					392.3,445.8 				"/>
				
					<polyline fill="none" stroke="#231815" stroke-linecap="round" stroke-linejoin="round" stroke-dasharray="3.9351,3.9351" points="
					388.5,446.9 336,461.9 329.4,458.8 317.9,453.6 293.3,442.3 284.6,437.5 271.6,430.4 254.9,421.1 248.1,416.5 235,407.6 
					223.8,399.9 220.9,397.3 				"/>
				<polyline fill="none" stroke="#231815" stroke-linecap="round" stroke-linejoin="round" points="219.4,396 219.1,395.7 
					218,394.7 				"/>
			</g>
		</g>
		<g>
			<g>
				
					<line fill="none" stroke="#231815" stroke-linecap="round" stroke-linejoin="round" x1="438.6" y1="277.9" x2="437.7" y2="279.7"/>
				
					<polyline fill="none" stroke="#231815" stroke-linecap="round" stroke-linejoin="round" stroke-dasharray="4.0183,4.0183" points="
					436,283.3 433.8,288 431.6,292.6 431.4,293 427.5,302 427.1,302.8 424.3,309.4 422.2,314.1 421.9,314.8 418.7,323 418.1,324.4 
					415.7,330.5 413.9,335.1 413.4,336.3 410.8,344.1 410.1,346 408.2,351.6 406.6,356.3 406.2,357.7 404,365.4 403.4,367.6 
					402.1,372.5 400.8,377.3 400.4,378.8 398.8,387 398.3,389.4 397.5,393.5 396.5,398.4 396.2,399.9 395.3,409.4 395,411.6 
					394.7,414.5 394.2,420.1 394,421.1 393.9,433.5 393.9,434.6 393.9,435.7 393.9,442.1 393.9,442.3 394.2,445.3 407.2,457.5 
					413.7,463.6 435.4,479.9 441.8,484.8 469.7,502.6 474.9,505.9 503.7,522.2 				"/>
				
					<line fill="none" stroke="#231815" stroke-linecap="round" stroke-linejoin="round" x1="505.4" y1="523.2" x2="507.2" y2="524.2"/>
			</g>
		</g>
		<g>
			<g>
				
					<line fill="none" stroke="#231815" stroke-linecap="round" stroke-linejoin="round" x1="546.4" y1="265.8" x2="545" y2="267.2"/>
				
					<polyline fill="none" stroke="#231815" stroke-linecap="round" stroke-linejoin="round" stroke-dasharray="4.0671,4.0671" points="
					542.1,270 541.1,271 540.8,271.2 540.3,271.8 520.8,291.9 519.7,293 517.6,295.4 502.1,312.8 500.3,314.8 497.4,318.5 
					485.5,333.6 483.4,336.2 480.3,341 471.4,354.4 469.2,357.7 466.4,363.2 463,370.1 				"/>
				
					<line fill="none" stroke="#231815" stroke-linecap="round" stroke-linejoin="round" x1="462.1" y1="371.9" x2="461.2" y2="373.7"/>
			</g>
		</g>
		<g>
			
				<line fill="none" stroke="#231815" stroke-linecap="round" stroke-linejoin="round" stroke-dasharray="0.3335" x1="429.4" y1="115.4" x2="429.7" y2="115.3"/>
		</g>
	</g>
</g>
</svg>
