<?xml version="1.0" encoding="utf-8"?>
<!-- Generator: Adobe Illustrator 22.1.0, SVG Export Plug-In . SVG Version: 6.00 Build 0)  -->
<svg version="1.1" id="Layer_1" xmlns="http://www.w3.org/2000/svg" xmlns:xlink="http://www.w3.org/1999/xlink" x="0px" y="0px"
	 viewBox="0 0 500 500" enable-background="new 0 0 500 500" xml:space="preserve">
<polyline fill="none" stroke="#040000" stroke-linecap="round" stroke-linejoin="round" stroke-dasharray="4" points="194.2,199.4 
	194.9,195.5 196,189.7 197.2,185.2 198.7,181.1 200.6,176.2 202.9,171.1 205.4,165.9 208,160.5 210.4,154.6 212.4,148.5 
	213.9,142.3 214.4,136.3 213.8,130.2 212.2,124.4 210,119.3 207.6,114.7 205.7,111 203.9,107.8 203.9,107.8 228.6,65.1 "/>
<polyline fill="none" stroke="#040000" stroke-linecap="round" stroke-linejoin="round" stroke-dasharray="4" points="159,65.1 
	183.7,107.8 183.7,107.8 181.9,111 180,114.7 177.6,119.3 175.4,124.4 173.8,130.2 173.1,136.3 173.7,142.3 175.1,148.5 
	177.2,154.6 179.6,160.5 182.2,165.9 184.7,171.1 187,176.2 188.9,181.1 190.4,185.2 191.6,189.7 192.7,195.5 193.4,199.4 "/>
<polyline fill="none" stroke="#040000" stroke-linecap="round" stroke-linejoin="round" stroke-dasharray="4" points="191.7,200.4 
	188.7,197.8 184.2,194 180.9,190.7 178.1,187.3 174.9,183.2 171.5,178.7 168.3,173.9 164.9,169 161,163.9 156.7,159.1 152.1,154.8 
	147.2,151.3 141.6,148.8 135.8,147.2 130.2,146.6 125,146.4 120.9,146.2 117.3,146.2 117.3,146.2 117.3,146.2 92.6,103.4 "/>
<polyline fill="none" stroke="#040000" stroke-linecap="round" stroke-linejoin="round" stroke-dasharray="4" points="57.8,163.7 
	57.8,163.7 107.1,163.7 107.1,163.7 107.1,163.7 107.1,163.7 109,166.8 111.2,170.3 114,174.7 117.3,179.2 121.6,183.5 126.6,187.1 
	132,189.6 138.1,191.4 144.4,192.7 150.7,193.6 156.7,194 162.4,194.4 168.1,195 173.2,195.8 177.5,196.6 182,197.8 187.6,199.7 
	191.3,201.1 "/>
<polyline fill="none" stroke="#040000" stroke-linecap="round" stroke-linejoin="round" stroke-dasharray="4" points="191.3,203 
	187.6,204.4 182,206.3 177.5,207.5 173.2,208.3 168.1,209 162.4,209.6 156.7,210 150.7,210.5 144.4,211.4 138.1,212.7 132,214.5 
	126.6,217 121.6,220.6 117.3,224.9 114,229.4 111.2,233.7 109,237.3 107.1,240.4 107.1,240.4 107.1,240.4 107.1,240.4 57.8,240.4 
	57.8,240.4 "/>
<polyline fill="none" stroke="#040000" stroke-linecap="round" stroke-linejoin="round" stroke-dasharray="4" points="92.6,300.7 
	92.6,300.7 117.3,257.9 117.3,257.9 117.3,257.9 120.9,257.8 125,257.7 130.2,257.4 135.8,256.8 141.6,255.3 147.2,252.8 
	152.1,249.3 156.7,245 161,240.1 164.9,235.1 168.3,230.2 171.5,225.4 174.9,220.8 178.1,216.7 180.9,213.4 184.2,210.1 
	188.7,206.2 191.7,203.7 "/>
<polyline fill="none" stroke="#040000" stroke-linecap="round" stroke-linejoin="round" stroke-dasharray="4" points="159,339 
	159,339 183.7,296.2 "/>
<polyline fill="none" stroke="#040000" stroke-linecap="round" stroke-linejoin="round" stroke-dasharray="4" points="203.9,296.2 
	183.7,296.2 183.7,296.2 181.9,293.1 180,289.4 177.6,284.8 175.4,279.7 173.8,273.9 173.1,267.7 173.7,261.7 175.1,255.6 
	177.2,249.4 179.6,243.5 182.2,238.2 184.7,233 187,227.8 188.9,223 190.4,218.8 191.6,214.4 192.7,208.6 193.4,204.6 "/>
<polyline fill="none" stroke="#040000" stroke-linecap="round" stroke-linejoin="round" stroke-dasharray="4" points="228.6,339 
	228.6,339 203.9,296.2 203.9,296.2 203.9,296.2 205.7,293.1 207.6,289.4 210,284.8 212.2,279.7 213.8,273.9 214.5,267.7 
	213.9,261.7 212.4,255.6 210.4,249.4 208,243.5 205.4,238.2 202.9,233 200.6,227.8 198.7,223 197.2,218.8 196,214.4 194.9,208.6 
	194.2,204.6 "/>
<polyline fill="none" stroke="#040000" stroke-linecap="round" stroke-linejoin="round" stroke-dasharray="4" points="295,300.7 
	295,300.7 270.3,257.9 270.3,257.9 270.3,257.9 "/>
<polyline fill="none" stroke="#040000" stroke-linecap="round" stroke-linejoin="round" stroke-dasharray="4" points="280.4,240.4 
	270.3,257.9 266.7,257.8 262.5,257.7 257.4,257.4 251.8,256.8 246,255.3 240.4,252.8 235.4,249.3 230.8,245 226.5,240.1 
	222.6,235.1 219.3,230.2 216,225.4 212.7,220.8 209.5,216.7 206.6,213.4 203.4,210.1 198.9,206.2 195.8,203.7 "/>
<polyline fill="none" stroke="#040000" stroke-linecap="round" stroke-linejoin="round" stroke-dasharray="4" points="329.8,240.4 
	329.8,240.4 280.4,240.4 280.4,240.4 280.4,240.4 278.6,237.3 276.4,233.7 273.6,229.4 270.3,224.9 266,220.6 261,217 255.5,214.5 
	249.5,212.7 243.2,211.3 236.8,210.5 230.9,210 225.1,209.6 219.5,209 214.4,208.3 210,207.5 205.6,206.3 200,204.4 196.3,203 "/>
<polyline fill="none" stroke="#040000" stroke-linecap="round" stroke-linejoin="round" stroke-dasharray="4" points="196.3,201.1 
	200,199.7 205.6,197.8 210,196.6 214.4,195.8 219.5,195 225.1,194.4 230.9,194 236.8,193.6 243.1,192.7 249.5,191.4 255.5,189.6 
	261,187.1 266,183.5 270.3,179.2 273.6,174.7 276.4,170.3 278.6,166.8 280.4,163.7 280.4,163.7 280.4,163.7 329.8,163.7 
	329.8,163.7 "/>
<polyline fill="none" stroke="#040000" stroke-linecap="round" stroke-linejoin="round" stroke-dasharray="4" points="295,103.4 
	270.3,146.2 270.3,146.2 266.7,146.2 262.5,146.4 257.4,146.6 251.8,147.2 246,148.8 240.4,151.3 235.4,154.8 230.8,159.1 
	226.5,163.9 222.6,169 219.3,173.9 216,178.7 212.7,183.2 209.5,187.3 206.6,190.7 203.4,194 198.9,197.8 195.8,200.4 "/>
<path fill="none" stroke="#040000" stroke-linecap="round" stroke-linejoin="round" stroke-dasharray="4" d="M128.3,127"/>
<line fill="none" stroke="#040000" stroke-linecap="round" stroke-linejoin="round" stroke-dasharray="4" x1="96.1" y1="221.2" x2="96.1" y2="182.9"/>
<line fill="none" stroke="#040000" stroke-linecap="round" stroke-linejoin="round" stroke-dasharray="4" x1="161.5" y1="296.2" x2="128.3" y2="277.1"/>
<line fill="none" stroke="#040000" stroke-linecap="round" stroke-linejoin="round" stroke-dasharray="4" x1="259.2" y1="277.1" x2="226.1" y2="296.2"/>
<polyline fill="none" stroke="#040000" stroke-linecap="round" stroke-linejoin="round" stroke-dasharray="4" points="291.5,182.9 
	291.5,182.9 291.5,221.2 "/>
<path fill="none" stroke="#040000" stroke-linecap="round" stroke-linejoin="round" stroke-dasharray="4" d="M259.2,127"/>
<line fill="none" stroke="#040000" stroke-linecap="round" stroke-linejoin="round" stroke-dasharray="4" x1="161.5" y1="107.8" x2="128.3" y2="127"/>
<line fill="none" stroke="#040000" stroke-linecap="round" stroke-linejoin="round" stroke-dasharray="4" x1="259.2" y1="127" x2="226.1" y2="107.8"/>
<line fill="none" stroke="#040000" stroke-linecap="round" stroke-linejoin="round" stroke-dasharray="4" x1="117.3" y1="257.9" x2="107.1" y2="240.4"/>
<line fill="none" stroke="#040000" stroke-linecap="round" stroke-linejoin="round" stroke-dasharray="4" x1="107.1" y1="163.7" x2="117.3" y2="146.2"/>
<line fill="none" stroke="#040000" stroke-linecap="round" stroke-linejoin="round" stroke-dasharray="4" x1="183.7" y1="107.8" x2="203.9" y2="107.8"/>
<line fill="none" stroke="#040000" stroke-linecap="round" stroke-linejoin="round" stroke-dasharray="4" x1="270.3" y1="146.2" x2="280.4" y2="163.7"/>
<line fill="none" stroke="#040000" stroke-linecap="round" stroke-linejoin="round" x1="161.5" y1="107.8" x2="142.4" y2="74.7"/>
<line fill="none" stroke="#040000" stroke-linecap="round" stroke-linejoin="round" x1="245.2" y1="74.7" x2="226.1" y2="107.8"/>
<line fill="none" stroke="#040000" stroke-linecap="round" stroke-linejoin="round" x1="259.2" y1="127" x2="278.4" y2="93.8"/>
<path fill="none" stroke="#040000" stroke-linecap="round" stroke-linejoin="round" d="M226.1,107.8"/>
<line fill="none" stroke="#040000" stroke-linecap="round" stroke-linejoin="round" x1="142.4" y1="329.4" x2="161.5" y2="296.2"/>
<line fill="none" stroke="#040000" stroke-linecap="round" stroke-linejoin="round" x1="128.3" y1="277.1" x2="109.2" y2="310.2"/>
<line fill="none" stroke="#040000" stroke-linecap="round" stroke-linejoin="round" x1="278.4" y1="310.2" x2="259.2" y2="277.1"/>
<line fill="none" stroke="#040000" stroke-linecap="round" stroke-linejoin="round" x1="226.1" y1="296.2" x2="245.2" y2="329.4"/>
<line fill="none" stroke="#040000" stroke-linecap="round" stroke-linejoin="round" x1="329.8" y1="182.9" x2="291.5" y2="182.9"/>
<line fill="none" stroke="#040000" stroke-linecap="round" stroke-linejoin="round" x1="291.5" y1="221.2" x2="329.8" y2="221.2"/>
<line fill="none" stroke="#040000" stroke-linecap="round" stroke-linejoin="round" x1="57.8" y1="221.2" x2="96.1" y2="221.2"/>
<line fill="none" stroke="#040000" stroke-linecap="round" stroke-linejoin="round" x1="96.1" y1="182.9" x2="57.8" y2="182.9"/>
<polyline fill="none" stroke="#040000" stroke-linecap="round" stroke-linejoin="round" points="192.8,204.6 191.4,208.6 
	189.1,214.4 187.2,218.8 185.3,223 182.9,227.8 180.3,233 177.5,238.2 174.7,243.5 171.8,249.4 169,255.6 166.5,261.7 164.5,267.7 
	163,273.9 162.2,279.7 161.8,284.8 161.7,289.4 161.6,293.1 161.5,296.2 183.7,296.2 "/>
<polyline fill="none" stroke="#040000" stroke-linecap="round" stroke-linejoin="round" points="117.3,257.9 128.3,277.1 
	131.1,275.4 134.2,273.6 138.1,271.1 142.4,268.3 147,264.6 151.5,260.3 155.7,255.5 159.8,250.3 163.7,244.8 167.4,239.3 
	170.6,234.2 173.7,229.2 176.9,224.3 179.9,219.9 182.5,216.1 185.4,212.3 189.3,207.4 192,204.2 "/>
<polyline fill="none" stroke="#040000" stroke-linecap="round" stroke-linejoin="round" points="195.6,204.2 198.2,207.4 
	202.1,212.2 205.1,216.1 207.7,219.9 210.7,224.3 213.8,229.2 216.9,234.2 220.2,239.3 223.8,244.8 227.8,250.3 231.8,255.5 
	236,260.3 240.6,264.6 245.2,268.3 249.5,271.1 253.4,273.6 256.5,275.4 259.2,277.1 270.3,257.9 "/>
<polyline fill="none" stroke="#040000" stroke-linecap="round" stroke-linejoin="round" points="203.9,296.2 226,296.2 226,293.1 
	225.9,289.4 225.8,284.8 225.4,279.7 224.5,273.9 223.1,267.7 221.1,261.7 218.6,255.6 215.8,249.4 212.9,243.5 210,238.2 
	207.3,233 204.6,227.8 202.3,223 200.3,218.8 198.5,214.4 196.2,208.6 194.8,204.6 "/>
<polyline fill="none" stroke="#040000" stroke-linecap="round" stroke-linejoin="round" points="196.5,201.6 200.7,200.9 
	206.8,199.9 211.6,199.3 216.2,198.9 221.5,198.5 227.3,198.2 233.2,198 239.3,197.8 245.8,197.4 252.6,196.7 259.1,195.8 
	265.3,194.6 271.4,192.7 276.8,190.6 281.5,188.4 285.5,186.2 288.7,184.4 291.5,182.9 280.4,163.7 "/>
<polyline fill="none" stroke="#040000" stroke-linecap="round" stroke-linejoin="round" points="280.4,240.4 291.5,221.2 
	288.7,219.6 285.5,217.9 281.5,215.7 276.8,213.5 271.4,211.3 265.3,209.5 259.1,208.3 252.6,207.4 245.8,206.7 239.3,206.3 
	233.2,206 227.3,205.8 221.5,205.5 216.2,205.2 211.6,204.8 206.8,204.2 200.7,203.2 196.5,202.5 "/>
<polyline fill="none" stroke="#040000" stroke-linecap="round" stroke-linejoin="round" points="194.8,199.4 196.2,195.5 
	198.5,189.7 200.3,185.2 202.3,181.1 204.6,176.2 207.3,171.1 210,165.9 212.9,160.5 215.8,154.6 218.6,148.5 221.1,142.3 
	223.1,136.3 224.5,130.2 225.4,124.4 225.8,119.3 225.9,114.7 226,111 226.1,107.8 203.9,107.8 "/>
<polyline fill="none" stroke="#040000" stroke-linecap="round" stroke-linejoin="round" points="270.3,146.2 259.2,127 256.5,128.6 
	253.4,130.5 249.5,132.9 245.2,135.8 240.6,139.5 236,143.8 231.9,148.6 227.8,153.8 223.8,159.3 220.2,164.8 216.9,169.9 
	213.9,174.9 210.7,179.7 207.7,184.2 205.1,188 202.2,191.8 198.2,196.7 195.6,199.9 "/>
<polyline fill="none" stroke="#040000" stroke-linecap="round" stroke-linejoin="round" points="128.3,127 131.1,128.6 134.2,130.5 
	138.1,132.9 142.4,135.8 147,139.5 151.5,143.8 155.7,148.6 159.8,153.8 163.7,159.3 167.4,164.8 170.6,169.9 173.7,174.9 
	176.9,179.7 179.9,184.2 182.5,188 185.4,191.8 189.3,196.7 192,199.9 "/>
<polyline fill="none" stroke="#040000" stroke-linecap="round" stroke-linejoin="round" points="183.7,107.8 161.5,107.8 161.6,111 
	161.7,114.7 161.8,119.3 162.2,124.4 163.1,130.2 164.5,136.3 166.5,142.3 169,148.5 171.8,154.6 174.7,160.5 177.6,165.9 
	180.3,171.1 182.9,176.2 185.3,181.1 187.2,185.2 189.1,189.7 191.4,195.5 192.8,199.4 "/>
<polyline fill="none" stroke="#040000" stroke-linecap="round" stroke-linejoin="round" points="191,202.5 186.9,203.2 180.8,204.2 
	176,204.8 171.4,205.2 166,205.5 160.2,205.8 154.4,206 148.3,206.3 141.7,206.7 135,207.3 128.4,208.3 122.2,209.5 116.2,211.3 
	110.7,213.5 106.1,215.7 102.1,217.9 98.9,219.6 96.1,221.2 107.1,240.4 "/>
<polyline fill="none" stroke="#040000" stroke-linecap="round" stroke-linejoin="round" points="107.1,163.7 96.1,182.9 98.9,184.4 
	102.1,186.2 106.1,188.4 110.7,190.6 116.2,192.7 122.2,194.6 128.4,195.8 135,196.7 141.7,197.4 148.3,197.8 154.4,198 
	160.2,198.2 166,198.5 171.4,198.9 176,199.3 180.8,199.9 186.9,200.9 191,201.6 "/>
<polyline fill="none" stroke="#040000" stroke-linecap="round" stroke-linejoin="round" points="109.2,93.8 128.3,127 117.3,146.2 
	"/>
<polyline fill="none" stroke="#040000" stroke-width="2" stroke-linecap="round" stroke-linejoin="round" points="329.8,163.7 
	295,103.4 228.6,65.1 159,65.1 92.6,103.4 57.8,163.7 57.8,163.7 57.8,240.4 92.6,300.7 159,339 228.6,339 295,300.7 329.8,240.4 
	329.8,163.7 "/>
</svg>
