<?xml version="1.0" encoding="utf-8"?>
<!-- Generator: Adobe Illustrator 16.0.0, SVG Export Plug-In . SVG Version: 6.00 Build 0)  -->
<!DOCTYPE svg PUBLIC "-//W3C//DTD SVG 1.1//EN" "http://www.w3.org/Graphics/SVG/1.1/DTD/svg11.dtd">
<svg version="1.1" id="Layer_1" xmlns="http://www.w3.org/2000/svg" xmlns:xlink="http://www.w3.org/1999/xlink" x="0px" y="0px"
	 width="700px" height="700px" viewBox="0 0 700 700" enable-background="new 0 0 700 700" xml:space="preserve">
<path fill="none" stroke="#000000" stroke-miterlimit="10" d="M372.244,81.372c-14.959-8.616-33.979-9.244-50.002,0.008h50"/>
<path fill="none" stroke="#000000" stroke-miterlimit="10" d="M297.234,124.678c-0.01,8.499,2.151,17.115,6.707,25.003
	c4.555,7.888,10.935,14.066,18.299,18.309l0.003-0.008l-25-43.301"/>
<path fill="none" stroke="#000000" stroke-miterlimit="10" d="M397.25,124.679c-0.016,17.264-8.982,34.049-25.008,43.303
	c0,0,25-43.301,24.998-43.301l-24.999,43.301"/>
<path fill="none" stroke="#000000" stroke-miterlimit="10" d="M522.243,81.372c-14.959-8.616-33.979-9.244-50.003,0.008h50.001"/>
<path fill="none" stroke="#000000" stroke-miterlimit="10" d="M447.232,124.679c-0.009,8.499,2.151,17.115,6.707,25.003
	c4.555,7.888,10.935,14.066,18.299,18.309l0.003-0.008l-25-43.301"/>
<path fill="none" stroke="#000000" stroke-miterlimit="10" d="M547.249,124.68c-0.016,17.264-8.982,34.049-25.008,43.303
	c0,0,25-43.301,24.998-43.301l-24.999,43.301"/>
<path fill="none" stroke="#000000" stroke-miterlimit="10" d="M222.242,81.379c-14.959-8.616-33.978-9.244-50.002,0.008h50"/>
<path fill="none" stroke="#000000" stroke-miterlimit="10" d="M147.232,124.686c-0.009,8.499,2.152,17.115,6.707,25.003
	s10.935,14.066,18.299,18.309l0.003-0.008l-25-43.301"/>
<path fill="none" stroke="#000000" stroke-miterlimit="10" d="M247.248,124.687c-0.016,17.264-8.982,34.049-25.008,43.303
	c0,0,25-43.301,24.998-43.301l-24.999,43.301"/>
<path fill="none" stroke="#000000" stroke-miterlimit="10" d="M447.244,211.275c-14.959-8.616-33.979-9.244-50.004,0.008h50.002"/>
<path fill="none" stroke="#000000" stroke-miterlimit="10" d="M372.232,254.582c-0.008,8.5,2.151,17.115,6.707,25.004
	c4.555,7.889,10.935,14.066,18.299,18.309l0.003-0.008l-25-43.302"/>
<path fill="none" stroke="#000000" stroke-miterlimit="10" d="M472.25,254.583c-0.016,17.265-8.982,34.05-25.008,43.304
	c0,0,25-43.302,24.998-43.302l-25,43.302"/>
<path fill="none" stroke="#000000" stroke-miterlimit="10" d="M597.242,211.276c-14.959-8.616-33.978-9.244-50.002,0.008h50"/>
<path fill="none" stroke="#000000" stroke-miterlimit="10" d="M522.232,254.582c-0.009,8.5,2.151,17.115,6.707,25.004
	c4.555,7.889,10.934,14.066,18.299,18.309l0.002-0.008l-25-43.301"/>
<path fill="none" stroke="#000000" stroke-miterlimit="10" d="M622.248,254.584c-0.016,17.264-8.982,34.049-25.008,43.303
	c0,0,25-43.301,24.998-43.301l-24.998,43.301"/>
<path fill="none" stroke="#000000" stroke-miterlimit="10" d="M297.241,211.283c-14.959-8.616-33.978-9.244-50.002,0.008h50"/>
<path fill="none" stroke="#000000" stroke-miterlimit="10" d="M222.231,254.59c-0.009,8.5,2.152,17.115,6.707,25.004
	s10.935,14.066,18.299,18.309l0.003-0.008l-25-43.302"/>
<path fill="none" stroke="#000000" stroke-miterlimit="10" d="M322.247,254.591c-0.017,17.265-8.981,34.05-25.009,43.304
	c0,0,25-43.302,24.998-43.302l-24.998,43.302"/>
<path fill="none" stroke="#000000" stroke-miterlimit="10" d="M372.249,341.186c-14.959-8.615-33.978-9.244-50.002,0.008h50"/>
<path fill="none" stroke="#000000" stroke-miterlimit="10" d="M297.238,384.491c-0.008,8.5,2.152,17.114,6.707,25.004
	c4.556,7.889,10.936,14.065,18.3,18.31l0.003-0.009l-25-43.301"/>
<path fill="none" stroke="#000000" stroke-miterlimit="10" d="M397.255,384.493c-0.016,17.264-8.981,34.049-25.008,43.303
	c0,0,25-43.301,24.998-43.301l-24.999,43.301"/>
<path fill="none" stroke="#000000" stroke-miterlimit="10" d="M522.248,341.186c-14.959-8.615-33.979-9.244-50.003,0.008h50.001"/>
<path fill="none" stroke="#000000" stroke-miterlimit="10" d="M447.237,384.492c-0.009,8.499,2.151,17.113,6.707,25.003
	c4.555,7.889,10.935,14.065,18.299,18.31l0.003-0.009l-25-43.301"/>
<path fill="none" stroke="#000000" stroke-miterlimit="10" d="M547.254,384.493c-0.016,17.264-8.981,34.049-25.008,43.303
	c0,0,25-43.301,24.998-43.301l-24.999,43.301"/>
<path fill="none" stroke="#000000" stroke-miterlimit="10" d="M222.247,341.191c-14.959-8.614-33.978-9.243-50.002,0.009h50"/>
<path fill="none" stroke="#000000" stroke-miterlimit="10" d="M147.237,384.499c-0.009,8.5,2.152,17.114,6.707,25.004
	c4.555,7.89,10.935,14.065,18.299,18.31l0.003-0.008l-25-43.302"/>
<path fill="none" stroke="#000000" stroke-miterlimit="10" d="M247.253,384.501c-0.016,17.265-8.982,34.049-25.008,43.304
	c0,0,25-43.302,24.998-43.302l-24.999,43.302"/>
<path fill="none" stroke="#000000" stroke-miterlimit="10" d="M447.249,471.089c-14.959-8.616-33.979-9.243-50.004,0.009h50.002"/>
<path fill="none" stroke="#000000" stroke-miterlimit="10" d="M372.236,514.396c-0.008,8.5,2.152,17.114,6.707,25.004
	c4.556,7.889,10.936,14.065,18.3,18.309l0.003-0.008l-25-43.302"/>
<path fill="none" stroke="#000000" stroke-miterlimit="10" d="M472.255,514.396c-0.016,17.265-8.981,34.05-25.008,43.304
	c0,0,25-43.302,24.998-43.302l-25,43.302"/>
<path fill="none" stroke="#000000" stroke-miterlimit="10" d="M597.247,471.089c-14.959-8.614-33.978-9.243-50.002,0.009h50"/>
<path fill="none" stroke="#000000" stroke-miterlimit="10" d="M522.237,514.396c-0.009,8.5,2.151,17.114,6.707,25.004
	c4.555,7.889,10.934,14.065,18.299,18.309l0.002-0.008l-25-43.301"/>
<path fill="none" stroke="#000000" stroke-miterlimit="10" d="M622.253,514.397c-0.016,17.264-8.981,34.049-25.008,43.303
	c0,0,25-43.301,24.998-43.301L597.245,557.7"/>
<path fill="none" stroke="#000000" stroke-miterlimit="10" d="M297.246,471.098c-14.959-8.617-33.979-9.244-50.002,0.008h50"/>
<path fill="none" stroke="#000000" stroke-miterlimit="10" d="M222.236,514.403c-0.009,8.5,2.152,17.114,6.707,25.004
	c4.555,7.889,10.935,14.065,18.299,18.309l0.003-0.008l-25-43.302"/>
<path fill="none" stroke="#000000" stroke-miterlimit="10" d="M322.252,514.404c-0.016,17.265-8.982,34.05-25.008,43.304
	c0,0,25-43.302,24.998-43.302l-24.999,43.302"/>
<path fill="none" stroke="#000000" stroke-miterlimit="10" d="M597.237,384.492c-0.009,8.499,2.151,17.113,6.707,25.003
	c4.555,7.889,10.935,14.065,18.299,18.31l0.003-0.009l-25-43.301"/>
<path fill="none" stroke="#000000" stroke-miterlimit="10" d="M147.234,211.286c-14.959-8.616-33.978-9.244-50.002,0.008h50"/>
<path fill="none" stroke="#000000" stroke-miterlimit="10" d="M72.224,254.592c-0.009,8.5,2.151,17.115,6.707,25.004
	c4.555,7.889,10.934,14.066,18.299,18.309l0.002-0.008l-25-43.301"/>
<path fill="none" stroke="#000000" stroke-miterlimit="10" d="M172.24,254.594c-0.016,17.264-8.982,34.049-25.008,43.303
	c0,0,25-43.301,24.998-43.301l-24.998,43.301"/>
<path fill="none" stroke="#000000" stroke-miterlimit="10" d="M147.239,471.1c-14.959-8.615-33.978-9.244-50.002,0.008h50"/>
<path fill="none" stroke="#000000" stroke-miterlimit="10" d="M72.229,514.406c-0.009,8.5,2.151,17.115,6.707,25.004
	c4.555,7.889,10.934,14.066,18.299,18.309l0.002-0.008l-25-43.301"/>
<path fill="none" stroke="#000000" stroke-miterlimit="10" d="M172.245,514.408c-0.016,17.264-8.981,34.049-25.008,43.303
	c0,0,25-43.301,24.998-43.301l-24.998,43.301"/>
<path fill="none" stroke="#000000" stroke-miterlimit="10" d="M97.241,124.69c-0.016,17.264-8.982,34.049-25.008,43.303
	c0,0,25-43.301,24.998-43.301l-24.999,43.301"/>
<path fill="none" stroke="#000000" stroke-miterlimit="10" d="M97.246,384.503c-0.016,17.264-8.981,34.049-25.008,43.303
	c0,0,25-43.301,24.998-43.301l-24.999,43.301"/>
<path fill="none" stroke="#000000" stroke-miterlimit="10" d="M372.243,601.009c-14.959-8.615-33.978-9.244-50.002,0.008h50"/>
<path fill="none" stroke="#000000" stroke-miterlimit="10" d="M522.242,601.009c-14.959-8.615-33.979-9.244-50.003,0.008h50.001"/>
<path fill="none" stroke="#000000" stroke-miterlimit="10" d="M222.241,601.015c-14.959-8.614-33.978-9.243-50.002,0.009h50"/>
<path fill="none" stroke="#000000" stroke-miterlimit="10" d="M597.24,124.683c-0.009,8.499,2.151,17.115,6.707,25.003
	c4.555,7.888,10.935,14.066,18.299,18.309l0.003-0.008l-25-43.301"/>
</svg>
