<?xml version="1.0" encoding="utf-8"?>
<svg version="1.1" xmlns="http://www.w3.org/2000/svg" viewBox="0 0 500 500">
<line fill="none" stroke="#000000" stroke-width="1" x1="0" y1="414.2" x2="414.2" y2="0"/>
<line fill="none" stroke="#000000" stroke-width="1" x1="292.8" y1="0" x2="292.8" y2="500"/>
<line fill="none" stroke="#000000" stroke-width="1" x1="0" y1="292.8" x2="500" y2="292.8"/>
<line fill="none" stroke="#000000" stroke-width="1" x1="171.5" y1="0" x2="0" y2="171.5"/>
<line fill="none" stroke="#000000" stroke-width="1" x1="0" y1="343.2" x2="500" y2="136.1"/>
<line fill="none" stroke="#000000" stroke-width="1" x1="378.7" y1="500" x2="0" y2="343.2"/>
<line fill="none" stroke="#000000" stroke-width="1" x1="500" y1="378.7" x2="378.7" y2="500"/>
<line fill="none" stroke="#000000" stroke-width="1" x1="343.2" y1="0" x2="136.1" y2="500"/>
<line fill="none" stroke="#000000" stroke-width="1" x1="500" y1="378.7" x2="343.2" y2="0"/>
<line fill="none" stroke="#000000" stroke-width="1" x1="0" y1="292.8" x2="292.8" y2="0"/>
<line fill="none" stroke="#000000" stroke-width="1" x1="0" y1="171.5" x2="500" y2="378.7"/>
<line fill="none" stroke="#000000" stroke-width="1" x1="0" y1="121.3" x2="500" y2="328.5"/>
<line fill="none" stroke="#000000" stroke-width="1" x1="171.5" y1="0" x2="378.7" y2="500"/>
<line fill="none" stroke="#000000" stroke-width="1" x1="325.3" y1="496.8" x2="121.3" y2="0"/>
<line fill="none" stroke="#000000" stroke-width="1" x1="500" y1="257.4" x2="0" y2="50.2"/>
<line fill="none" stroke="#000000" stroke-width="1" x1="121.3" y1="0" x2="500" y2="378.7"/>
<line fill="none" stroke="#000000" stroke-width="1" x1="0" y1="292.8" x2="121.3" y2="0"/>
<line fill="none" stroke="#000000" stroke-width="1" x1="0" y1="121.3" x2="378.7" y2="500"/>
<line fill="none" stroke="#000000" stroke-width="1" x1="292.8" y1="0" x2="0" y2="121.3"/>
<line fill="none" stroke="#000000" stroke-width="1" x1="500" y1="500" x2="292.8" y2="0"/>
<line fill="none" stroke="#000000" stroke-width="1" x1="500" y1="500" x2="0" y2="292.8"/>
<line fill="none" stroke="#000000" stroke-width="1" x1="257.4" y1="500" x2="50.2" y2="0"/>
<line fill="none" stroke="#000000" stroke-width="1" x1="464.5" y1="0" x2="257.4" y2="500"/>
<line fill="none" stroke="#000000" stroke-width="1" x1="500" y1="85.8" x2="464.5" y2="0"/>
<line fill="none" stroke="#000000" stroke-width="1" x1="500" y1="85.8" x2="414.2" y2="0"/>
<line fill="none" stroke="#000000" stroke-width="1" x1="0" y1="464.5" x2="500" y2="257.4"/>
<line fill="none" stroke="#000000" stroke-width="1" x1="85.8" y1="500" x2="0" y2="464.5"/>
<line fill="none" stroke="#000000" stroke-width="1" x1="85.8" y1="500" x2="0" y2="292.8"/>
<line fill="none" stroke="#000000" stroke-width="1" x1="500" y1="85.8" x2="85.8" y2="500"/>
<line fill="none" stroke="#000000" stroke-width="1" x1="0" y1="292.8" x2="500" y2="85.8"/>
<line fill="none" stroke="#000000" stroke-width="1" x1="500" y1="85.8" x2="0" y2="85.8"/>
<line fill="none" stroke="#000000" stroke-width="1" x1="85.8" y1="500" x2="85.8" y2="0"/>
<line fill="none" stroke="#000000" stroke-width="1" x1="500" y1="328.5" x2="85.8" y2="500"/>
<line fill="none" stroke="#000000" stroke-width="1" x1="171.5" y1="0" x2="500" y2="328.5"/>
<line fill="none" stroke="#000000" stroke-width="1" x1="0" y1="414.2" x2="171.5" y2="0"/>
<line fill="none" stroke="#000000" stroke-width="1" x1="85.8" y1="500" x2="0" y2="414.2"/>
<line fill="none" stroke="#000000" stroke-width="1" x1="292.8" y1="0" x2="85.8" y2="500"/>
<line fill="none" stroke="#000000" stroke-width="1" x1="500" y1="85.8" x2="292.8" y2="0"/>
<line fill="none" stroke="#000000" stroke-width="1" x1="328.5" y1="500" x2="500" y2="85.8"/>
<line fill="none" stroke="#000000" stroke-width="1" x1="0" y1="171.5" x2="328.5" y2="500"/>
<line fill="none" stroke="#000000" stroke-width="1" x1="414.2" y1="0" x2="0" y2="171.5"/>
<line fill="none" stroke="#000000" stroke-width="1" x1="207.2" y1="500" x2="500" y2="378.7"/>
<line fill="none" stroke="#000000" stroke-width="1" x1="207.2" y1="500" x2="414.2" y2="0"/>
<line fill="none" stroke="#000000" stroke-width="1" x1="207.2" y1="500" x2="207.2" y2="0"/>
<line fill="none" stroke="#000000" stroke-width="1" x1="207.2" y1="500" x2="0" y2="292.8"/>
<line fill="none" stroke="#000000" stroke-width="1" x1="207.2" y1="500" x2="0" y2="414.2"/>
<line fill="none" stroke="#000000" stroke-width="1" x1="500" y1="207.2" x2="378.7" y2="500"/>
<line fill="none" stroke="#000000" stroke-width="1" x1="500" y1="207.2" x2="0" y2="414.2"/>
<line fill="none" stroke="#000000" stroke-width="1" x1="500" y1="207.2" x2="0" y2="207.2"/>
<line fill="none" stroke="#000000" stroke-width="1" x1="500" y1="207.2" x2="414.2" y2="0"/>
<line fill="none" stroke="#000000" stroke-width="1" x1="500" y1="207.2" x2="207.2" y2="500"/>
<line fill="none" stroke="#000000" stroke-width="1" x1="0" y1="0" x2="207.2" y2="500"/>
<line fill="none" stroke="#000000" stroke-width="1" x1="0" y1="0" x2="500" y2="207.2"/>
<line fill="none" stroke="#000000" stroke-width="1" x1="0" y1="0" x2="500" y2="500"/>
<rect fill="none" stroke="#000000" stroke-width="1" width="500" height="500"/>
<line fill="none" stroke="#000000" stroke-width="1" x1="242.6" y1="0" x2="35.5" y2="500"/>
<line fill="none" stroke="#000000" stroke-width="1" x1="500" y1="257.4" x2="242.6" y2="0"/>
<line fill="none" stroke="#000000" stroke-width="1" x1="500" y1="0" x2="0" y2="500"/>
<line fill="none" stroke="#000000" stroke-width="1" x1="500" y1="207.2" x2="292.8" y2="0"/>
</svg>
