<?xml version="1.0" encoding="utf-8"?>
<!-- Generator: Adobe Illustrator 16.0.0, SVG Export Plug-In . SVG Version: 6.00 Build 0)  -->
<!DOCTYPE svg PUBLIC "-//W3C//DTD SVG 1.1//EN" "http://www.w3.org/Graphics/SVG/1.1/DTD/svg11.dtd">
<svg version="1.1" xmlns="http://www.w3.org/2000/svg" xmlns:xlink="http://www.w3.org/1999/xlink" x="0px" y="0px" width="500px"
	 height="500px" viewBox="0 0 500 500" enable-background="new 0 0 500 500" xml:space="preserve">
<g id="valley">
	<g>
		<g>
			<line fill="none" stroke="#FF005C" stroke-miterlimit="10" x1="13.156" y1="328.848" x2="14.57" y2="330.262"/>
			
				<line fill="none" stroke="#FF005C" stroke-miterlimit="10" stroke-dasharray="3.9218,1.9609" x1="15.957" y1="331.648" x2="90.138" y2="405.829"/>
			<line fill="none" stroke="#FF005C" stroke-miterlimit="10" x1="90.831" y1="406.522" x2="92.245" y2="407.937"/>
		</g>
	</g>
	<g>
		<g>
			<path fill="none" stroke="#FF005C" stroke-miterlimit="10" d="M171.335,487.025c0.371-0.461,0.785-0.982,1.241-1.562"/>
			<path fill="none" stroke="#FF005C" stroke-miterlimit="10" stroke-dasharray="4.0347,2.0173" d="M173.809,483.872
				c16.969-22.119,74.635-106.643,75.557-231.097"/>
			<path fill="none" stroke="#FF005C" stroke-miterlimit="10" d="M249.372,251.757c0.003-0.666,0.005-1.333,0.005-2.001
				l-0.001,0.002c0-0.668-0.001-1.336-0.005-2.002"/>
			<path fill="none" stroke="#FF005C" stroke-miterlimit="10" stroke-dasharray="4.0347,2.0173" d="M249.356,245.737
				c-1.238-125.463-60.076-210.142-76.167-230.897"/>
			<path fill="none" stroke="#FF005C" stroke-miterlimit="10" d="M172.574,14.05c-0.456-0.581-0.87-1.102-1.241-1.563"/>
		</g>
	</g>
	<g>
		<g>
			<line fill="none" stroke="#FF005C" stroke-miterlimit="10" x1="329.518" y1="487.027" x2="330.932" y2="485.613"/>
			
				<line fill="none" stroke="#FF005C" stroke-miterlimit="10" stroke-dasharray="3.9218,1.9609" x1="332.318" y1="484.227" x2="406.501" y2="410.045"/>
			<line fill="none" stroke="#FF005C" stroke-miterlimit="10" x1="407.194" y1="409.352" x2="408.608" y2="407.938"/>
		</g>
	</g>
	<g>
		<g>
			<path fill="none" stroke="#FF005C" stroke-miterlimit="10" d="M487.695,328.848c-0.461-0.371-0.982-0.785-1.562-1.24"/>
			<path fill="none" stroke="#FF005C" stroke-miterlimit="10" stroke-dasharray="3.9866,1.9933" d="M484.561,326.389
				c-22.268-17.087-107.993-75.584-234.135-75.584c-127.671,0-213.938,59.921-234.917,76.187"/>
			<path fill="none" stroke="#FF005C" stroke-miterlimit="10" d="M14.719,327.607c-0.581,0.455-1.102,0.869-1.563,1.24"/>
		</g>
	</g>
	<g>
		<g>
			<line fill="none" stroke="#FF005C" stroke-miterlimit="10" x1="487.695" y1="170.664" x2="486.281" y2="169.25"/>
			
				<line fill="none" stroke="#FF005C" stroke-miterlimit="10" stroke-dasharray="3.9218,1.9609" x1="484.895" y1="167.863" x2="410.713" y2="93.682"/>
			<line fill="none" stroke="#FF005C" stroke-miterlimit="10" x1="410.02" y1="92.989" x2="408.605" y2="91.575"/>
		</g>
	</g>
	<g>
		<g>
			<path fill="none" stroke="#FF005C" stroke-miterlimit="10" d="M329.516,12.487c-0.371,0.461-0.785,0.982-1.24,1.563"/>
			<path fill="none" stroke="#FF005C" stroke-miterlimit="10" stroke-dasharray="4.0347,2.0173" d="M327.042,15.64
				c-16.969,22.12-74.637,106.643-75.559,231.097"/>
			<path fill="none" stroke="#FF005C" stroke-miterlimit="10" d="M251.478,247.755c-0.003,0.666-0.005,1.333-0.005,2.002l0.004,0
				c0,0.668,0.002,1.335,0.005,2.001"/>
			<path fill="none" stroke="#FF005C" stroke-miterlimit="10" stroke-dasharray="4.0347,2.0173" d="M251.496,253.778
				c1.238,125.462,60.076,210.142,76.166,230.897"/>
			<path fill="none" stroke="#FF005C" stroke-miterlimit="10" d="M328.277,485.464c0.455,0.581,0.869,1.103,1.24,1.563"/>
		</g>
	</g>
	<g>
		<g>
			<path fill="none" stroke="#FF005C" stroke-miterlimit="10" d="M487.695,170.664c-0.461,0.371-0.982,0.785-1.562,1.24"/>
			<path fill="none" stroke="#FF005C" stroke-miterlimit="10" stroke-dasharray="4.0347,2.0173" d="M484.542,173.138
				c-22.12,16.969-106.643,74.636-231.097,75.558"/>
			<path fill="none" stroke="#FF005C" stroke-miterlimit="10" d="M252.428,248.702c-0.666,0.003-1.334,0.005-2.002,0.005v0.002
				c-0.668,0-1.336-0.001-2.002-0.005"/>
			<path fill="none" stroke="#FF005C" stroke-miterlimit="10" stroke-dasharray="4.0347,2.0173" d="M246.405,248.689
				c-125.463-1.238-210.142-60.075-230.897-76.167"/>
			<path fill="none" stroke="#FF005C" stroke-miterlimit="10" d="M14.718,171.907c-0.581-0.455-1.102-0.87-1.563-1.24"/>
		</g>
	</g>
	<g>
		<g>
			<line fill="none" stroke="#FF005C" stroke-miterlimit="10" x1="171.333" y1="12.487" x2="169.919" y2="13.901"/>
			
				<line fill="none" stroke="#FF005C" stroke-miterlimit="10" stroke-dasharray="3.9218,1.9609" x1="168.532" y1="15.288" x2="94.352" y2="89.469"/>
			<line fill="none" stroke="#FF005C" stroke-miterlimit="10" x1="93.658" y1="90.163" x2="92.244" y2="91.577"/>
		</g>
	</g>
	<g>
		<g>
			<line fill="none" stroke="#FF005C" stroke-miterlimit="10" x1="92.244" y1="91.577" x2="90.83" y2="90.163"/>
			
				<line fill="none" stroke="#FF005C" stroke-miterlimit="10" stroke-dasharray="3.9218,1.9609" x1="89.443" y1="88.776" x2="15.262" y2="14.595"/>
			<line fill="none" stroke="#FF005C" stroke-miterlimit="10" x1="14.569" y1="13.902" x2="13.155" y2="12.488"/>
		</g>
	</g>
	<g>
		<g>
			<line fill="none" stroke="#FF005C" stroke-miterlimit="10" x1="487.508" y1="486.838" x2="486.094" y2="485.424"/>
			
				<line fill="none" stroke="#FF005C" stroke-miterlimit="10" stroke-dasharray="3.9218,1.9609" x1="484.707" y1="484.037" x2="410.526" y2="409.856"/>
			<line fill="none" stroke="#FF005C" stroke-miterlimit="10" x1="409.833" y1="409.163" x2="408.419" y2="407.749"/>
		</g>
	</g>
	<g>
		<g>
			<line fill="none" stroke="#FF005C" stroke-miterlimit="10" x1="487.504" y1="12.672" x2="486.09" y2="14.086"/>
			
				<line fill="none" stroke="#FF005C" stroke-miterlimit="10" stroke-dasharray="3.9218,1.9609" x1="484.703" y1="15.473" x2="410.523" y2="89.654"/>
			<line fill="none" stroke="#FF005C" stroke-miterlimit="10" x1="409.83" y1="90.348" x2="408.416" y2="91.762"/>
		</g>
	</g>
	<g>
		<g>
			<line fill="none" stroke="#FF005C" stroke-miterlimit="10" x1="92.431" y1="407.752" x2="91.017" y2="409.166"/>
			
				<line fill="none" stroke="#FF005C" stroke-miterlimit="10" stroke-dasharray="3.9218,1.9609" x1="89.63" y1="410.553" x2="15.449" y2="484.732"/>
			<line fill="none" stroke="#FF005C" stroke-miterlimit="10" x1="14.756" y1="485.426" x2="13.342" y2="486.84"/>
		</g>
	</g>
</g>
<g id="mountain">
	<path fill="none" stroke="#0033FF" stroke-miterlimit="10" d="M92.429,91.765c67.446,0,109.486,45.366,109.486,45.366
		s45.366,42.039,45.366,109.486c-67.446,0-109.486-45.366-109.486-45.366S92.429,159.211,92.429,91.765z"/>
	<path fill="none" stroke="#0033FF" stroke-miterlimit="10" d="M92.431,407.752c0-67.447,45.366-109.488,45.366-109.488
		s42.04-45.365,109.486-45.365c0,67.447-45.366,109.486-45.366,109.486S159.877,407.752,92.431,407.752z"/>
	<path fill="none" stroke="#0033FF" stroke-miterlimit="10" d="M408.419,407.749c-67.447,0-109.487-45.364-109.487-45.364
		s-45.365-42.041-45.365-109.488c67.446,0,109.485,45.367,109.485,45.367S408.419,340.303,408.419,407.749z"/>
	<path fill="none" stroke="#0033FF" stroke-miterlimit="10" d="M408.416,91.762c0,67.446-45.364,109.487-45.364,109.487
		s-42.041,45.365-109.487,45.365c0-67.446,45.367-109.485,45.367-109.485S340.971,91.762,408.416,91.762z"/>
	<line fill="none" stroke="#0033FF" stroke-miterlimit="10" x1="92.245" y1="407.937" x2="171.335" y2="487.025"/>
	<line fill="none" stroke="#0033FF" stroke-miterlimit="10" x1="408.608" y1="407.938" x2="487.695" y2="328.848"/>
	<line fill="none" stroke="#0033FF" stroke-miterlimit="10" x1="408.605" y1="91.575" x2="329.516" y2="12.487"/>
	<line fill="none" stroke="#0033FF" stroke-miterlimit="10" x1="92.244" y1="91.577" x2="13.155" y2="170.667"/>
</g>
<g id="outline">
	<line fill="none" stroke="#000000" stroke-miterlimit="10" x1="13.155" y1="12.488" x2="487.504" y2="12.672"/>
	<line fill="none" stroke="#000000" stroke-miterlimit="10" x1="487.504" y1="12.672" x2="487.508" y2="486.838"/>
	<line fill="none" stroke="#000000" stroke-miterlimit="10" x1="487.508" y1="486.838" x2="13.342" y2="486.84"/>
	<line fill="none" stroke="#000000" stroke-miterlimit="10" x1="13.342" y1="486.84" x2="13.155" y2="12.488"/>
</g>
</svg>
