<?xml version="1.0" encoding="utf-8"?>
<svg version="1.1" xmlns="http://www.w3.org/2000/svg" x="0px" y="0px" viewBox="0 0 363.6 363.6">
<g id="mountain">
	<line stroke="#000000" stroke-width="3" stroke-linecap="round" x1="29.3" y1="121.2" x2="30.3" y2="121.2"/>
	<line stroke="#000000" stroke-width="3" stroke-linecap="round" x1="30.3" y1="120.2" x2="30.3" y2="121.2"/>
	<line stroke="#000000" stroke-width="3" stroke-linecap="round" x1="90.2" y1="181.1" x2="90.9" y2="181.8"/>
	<line stroke="#000000" stroke-width="3" stroke-linecap="round" x1="60.6" y1="90.9" x2="61.3" y2="91.6"/>
	<line stroke="#000000" stroke-width="3" stroke-linecap="round" x1="120.5" y1="150.8" x2="121.2" y2="151.5"/>
	<line stroke="#000000" stroke-width="3" stroke-linecap="round" x1="29.3" y1="242.4" x2="30.3" y2="242.4"/>
	<line stroke="#000000" stroke-width="3" stroke-linecap="round" x1="30.3" y1="243.4" x2="30.3" y2="242.4"/>
	<line stroke="#000000" stroke-width="3" stroke-linecap="round" x1="90.2" y1="182.5" x2="90.9" y2="181.8"/>
	<line stroke="#000000" stroke-width="3" stroke-linecap="round" x1="60.6" y1="272.7" x2="61.3" y2="272"/>
	<line stroke="#000000" stroke-width="3" stroke-linecap="round" x1="120.5" y1="212.8" x2="121.2" y2="212.1"/>
	<line stroke="#000000" stroke-width="3" stroke-linecap="round" x1="180.8" y1="181.8" x2="181.8" y2="181.8"/>
	<line stroke="#000000" stroke-width="3" stroke-linecap="round" x1="334.3" y1="242.4" x2="333.3" y2="242.4"/>
	<line stroke="#000000" stroke-width="3" stroke-linecap="round" x1="333.3" y1="243.4" x2="333.3" y2="242.4"/>
	<line stroke="#000000" stroke-width="3" stroke-linecap="round" x1="303" y1="272.7" x2="302.3" y2="272"/>
	<line stroke="#000000" stroke-width="3" stroke-linecap="round" x1="243.1" y1="212.8" x2="242.4" y2="212.1"/>
	<line stroke="#000000" stroke-width="3" stroke-linecap="round" x1="303" y1="90.9" x2="302.3" y2="91.6"/>
	<line stroke="#000000" stroke-width="3" stroke-linecap="round" x1="243.1" y1="150.8" x2="242.4" y2="151.5"/>
	<line stroke="#000000" stroke-width="3" stroke-linecap="round" x1="182.8" y1="181.8" x2="181.8" y2="181.8"/>
	<polyline fill="none" stroke="#000000" stroke-width="3" stroke-linecap="round" points="28.4,121.2 2.9,121.2 1,121.2 0,121.2 	
		"/>
	<polyline fill="none" stroke="#000000" stroke-width="3" stroke-linecap="round" points="30.3,119.3 30.3,93.8 30.3,91.9 
		30.3,90.9 30.3,89.9 30.3,88.9 30.3,3 30.3,1 30.3,0 	"/>
	<line stroke="#000000" stroke-width="3" stroke-linecap="round" x1="90.9" y1="121.2" x2="90.9" y2="151.5"/>
	<line stroke="#000000" stroke-width="3" stroke-linecap="round" x1="121.2" y1="121.2" x2="151.5" y2="121.2"/>
	<line stroke="#000000" stroke-width="3" stroke-linecap="round" x1="62.8" y1="93.1" x2="119.8" y2="150.1"/>
	<polyline fill="none" stroke="#000000" stroke-width="3" stroke-linecap="round" points="28.4,242.4 2.9,242.4 1,242.4 0,242.4 	
		"/>
	<polyline fill="none" stroke="#000000" stroke-width="3" stroke-linecap="round" points="30.3,242.4 31,241.7 32.5,240.3 
		89.5,183.2 89.5,180.4 32.5,123.4 31,121.9 30.3,121.2 	"/>
	<line stroke="#000000" stroke-width="3" stroke-linecap="round" x1="90.9" y1="242.4" x2="90.9" y2="212.1"/>
	<line stroke="#000000" stroke-width="3" stroke-linecap="round" x1="121.2" y1="242.4" x2="151.5" y2="242.4"/>
	<line stroke="#000000" stroke-width="3" stroke-linecap="round" x1="62.8" y1="270.6" x2="119.8" y2="213.6"/>
	<polyline fill="none" stroke="#000000" stroke-width="3" stroke-linecap="round" points="179.8,181.8 93.9,181.8 91.9,181.8 
		90.9,181.8 	"/>
	<polyline fill="none" stroke="#000000" stroke-width="3" stroke-linecap="round" points="30.3,363.6 30.3,362.6 30.3,361.6 
		30.3,275.7 30.3,273.7 30.3,272.7 30.3,271.7 30.3,269.8 30.3,244.4 	"/>
	<polyline fill="none" stroke="#000000" stroke-width="3" stroke-linecap="round" points="151.5,363.6 151.5,362.6 151.5,361.6 
		151.5,275.7 151.5,273.7 151.5,272.7 151.5,271.7 151.5,270.7 151.5,93.9 151.5,91.9 151.5,90.9 151.5,89.9 151.5,88.9 151.5,3 
		151.5,1 151.5,0 	"/>
	<polyline fill="none" stroke="#000000" stroke-width="3" stroke-linecap="round" points="335.3,242.4 360.7,242.4 362.6,242.4 
		363.6,242.4 	"/>
	<line stroke="#000000" stroke-width="3" stroke-linecap="round" x1="272.7" y1="242.4" x2="272.7" y2="212.1"/>
	<line stroke="#000000" stroke-width="3" stroke-linecap="round" x1="242.4" y1="242.4" x2="212.1" y2="242.4"/>
	<line stroke="#000000" stroke-width="3" stroke-linecap="round" x1="300.9" y1="270.6" x2="243.9" y2="213.6"/>
	<polyline fill="none" stroke="#000000" stroke-width="3" stroke-linecap="round" points="333.3,121.2 334.3,121.2 335.3,121.2 
		360.7,121.2 362.6,121.2 363.6,121.2 	"/>
	<polyline fill="none" stroke="#000000" stroke-width="3" stroke-linecap="round" points="333.3,0 333.3,1 333.3,3 333.3,88.9 
		333.3,89.9 333.3,90.9 333.3,91.9 333.3,93.8 333.3,119.3 333.3,120.2 333.3,121.2 	"/>
	<polyline fill="none" stroke="#000000" stroke-width="3" stroke-linecap="round" points="333.3,121.2 332.6,121.9 331.2,123.4 
		274.2,180.4 273.4,181.1 272.7,181.8 273.4,182.5 274.2,183.2 331.2,240.3 332.6,241.7 333.3,242.4 	"/>
	<line stroke="#000000" stroke-width="3" stroke-linecap="round" x1="272.7" y1="121.2" x2="272.7" y2="151.5"/>
	<line stroke="#000000" stroke-width="3" stroke-linecap="round" x1="242.4" y1="121.2" x2="212.1" y2="121.2"/>
	<line stroke="#000000" stroke-width="3" stroke-linecap="round" x1="300.9" y1="93.1" x2="243.9" y2="150.1"/>
	<polyline fill="none" stroke="#000000" stroke-width="3" stroke-linecap="round" points="183.8,181.8 269.8,181.8 271.7,181.8 
		272.7,181.8 	"/>
	<polyline fill="none" stroke="#000000" stroke-width="3" stroke-linecap="round" points="212.1,363.6 212.1,362.6 212.1,361.6 
		212.1,275.7 212.1,273.7 212.1,272.7 212.1,271.7 212.1,269.7 212.1,92.9 212.1,91.9 212.1,90.9 212.1,89.9 212.1,88.9 212.1,3 
		212.1,1 212.1,0 	"/>
	<polyline fill="none" stroke="#000000" stroke-width="3" stroke-linecap="round" points="333.3,363.6 333.3,362.6 333.3,361.6 
		333.3,275.7 333.3,273.7 333.3,272.7 333.3,271.7 333.3,269.8 333.3,244.4 	"/>
</g>
<g id="valley">
	<line stroke="#000000" stroke-dasharray="2,2" x1="60.6" y1="0" x2="60.6" y2="90.9"/>
	<line stroke="#000000" stroke-dasharray="2,2" x1="30.3" y1="121.2" x2="60.6" y2="90.9"/>
	<line stroke="#000000" stroke-dasharray="2,2" x1="90.9" y1="121.2" x2="121.2" y2="121.2"/>
	<line stroke="#000000" stroke-dasharray="2,2" x1="121.2" y1="151.5" x2="151.5" y2="181.8"/>
	<line stroke="#000000" stroke-dasharray="2,2" x1="0" y1="151.5" x2="121.2" y2="151.5"/>
	<polyline fill="none" stroke="#000000" stroke-dasharray="2,2" points="121.2,151.5 121.2,90.9 121.2,0 	"/>
	<line stroke="#000000" stroke-dasharray="2,2" x1="30.3" y1="242.4" x2="60.6" y2="272.7"/>
	<line stroke="#000000" stroke-dasharray="2,2" x1="90.9" y1="242.4" x2="121.2" y2="242.4"/>
	<line stroke="#000000" stroke-dasharray="2,2" x1="121.2" y1="212.1" x2="151.5" y2="181.8"/>
	<line stroke="#000000" stroke-dasharray="2,2" x1="0" y1="212.1" x2="121.2" y2="212.1"/>
	<line stroke="#000000" stroke-dasharray="2,2" x1="60.6" y1="90.9" x2="60.6" y2="272.7"/>
	<line stroke="#000000" stroke-dasharray="2,2" x1="90.9" y1="151.5" x2="90.9" y2="212.1"/>
	<line stroke="#000000" stroke-dasharray="2,2" x1="60.6" y1="272.7" x2="60.6" y2="363.6"/>
	<polyline fill="none" stroke="#000000" stroke-dasharray="2,2" points="121.2,363.6 121.2,272.7 121.2,212.1 	"/>
	<line stroke="#000000" stroke-dasharray="2,2" x1="303" y1="0" x2="303" y2="90.9"/>
	<line stroke="#000000" stroke-dasharray="2,2" x1="333.3" y1="242.4" x2="303" y2="272.7"/>
	<line stroke="#000000" stroke-dasharray="2,2" x1="272.7" y1="242.4" x2="242.4" y2="242.4"/>
	<polyline fill="none" stroke="#000000" stroke-dasharray="2,2" points="212.1,242.4 181.8,242.4 151.5,242.4 	"/>
	<line stroke="#000000" stroke-dasharray="2,2" x1="242.4" y1="212.1" x2="212.1" y2="181.8"/>
	<line stroke="#000000" stroke-dasharray="2,2" x1="363.6" y1="212.1" x2="242.4" y2="212.1"/>
	<line stroke="#000000" stroke-dasharray="2,2" x1="333.3" y1="121.2" x2="303" y2="90.9"/>
	<line stroke="#000000" stroke-dasharray="2,2" x1="272.7" y1="121.2" x2="242.4" y2="121.2"/>
	<polyline fill="none" stroke="#000000" stroke-dasharray="2,2" points="212.1,121.2 181.8,121.2 151.5,121.2 	"/>
	<line stroke="#000000" stroke-dasharray="2,2" x1="242.4" y1="151.5" x2="212.1" y2="181.8"/>
	<line stroke="#000000" stroke-dasharray="2,2" x1="363.6" y1="151.5" x2="242.4" y2="151.5"/>
	<polyline fill="none" stroke="#000000" stroke-dasharray="2,2" points="242.4,151.5 242.4,90.9 242.4,0 	"/>
	<line stroke="#000000" stroke-dasharray="2,2" x1="303" y1="272.7" x2="303" y2="90.9"/>
	<line stroke="#000000" stroke-dasharray="2,2" x1="272.7" y1="212.1" x2="272.7" y2="151.5"/>
	<polyline fill="none" stroke="#000000" stroke-dasharray="2,2" points="242.4,363.6 242.4,272.7 242.4,212.1 	"/>
	<line stroke="#000000" stroke-dasharray="2,2" x1="303" y1="272.7" x2="303" y2="363.6"/>
</g>
<g id="boundary">
	<rect fill="none" stroke="#000000" stroke-width="3" stroke-linejoin="round" width="363.6" height="363.6"/>
</g>
</svg>
