<?xml version="1.0" encoding="utf-8"?>
<!-- Generator: Adobe Illustrator 16.0.0, SVG Export Plug-In . SVG Version: 6.00 Build 0)  -->
<!DOCTYPE svg PUBLIC "-//W3C//DTD SVG 1.1//EN" "http://www.w3.org/Graphics/SVG/1.1/DTD/svg11.dtd">
<svg version="1.1" xmlns="http://www.w3.org/2000/svg" xmlns:xlink="http://www.w3.org/1999/xlink" x="0px" y="0px" width="500px"
	 height="500px" viewBox="0 0 500 500" enable-background="new 0 0 500 500" xml:space="preserve">
<g id="Layer_1">
	<polyline fill="none" stroke="#010101" stroke-miterlimit="10" points="48.059,41.86 93.539,41.86 135.695,59.323 146.248,59.323 
		146.248,59.346 188.404,41.883 233.885,41.883 276.041,59.346 286.594,59.346 286.594,59.369 328.75,41.906 374.23,41.906 
		416.387,59.369 	"/>
	<polyline fill="none" stroke="#010101" stroke-miterlimit="10" points="48.059,122.269 93.539,122.269 135.697,104.807 
		135.695,104.827 146.247,104.827 146.246,104.83 188.404,122.292 233.885,122.292 276.043,104.83 276.041,104.85 286.593,104.85 
		286.592,104.853 328.75,122.315 374.23,122.315 416.389,104.853 	"/>
	<polyline fill="none" stroke="#010101" stroke-miterlimit="10" points="65.523,104.804 76.076,104.804 76.075,104.804 
		118.232,87.341 118.23,87.364 163.711,87.364 205.869,104.827 216.422,104.827 216.421,104.827 258.578,87.364 258.576,87.387 
		304.057,87.387 346.215,104.85 356.768,104.85 356.767,104.85 398.924,87.387 	"/>
	<polyline fill="none" stroke="#010101" stroke-miterlimit="10" points="65.523,59.324 76.076,59.324 76.075,59.324 118.232,76.787 
		118.23,76.789 163.711,76.789 163.711,76.81 205.869,59.347 216.422,59.347 216.421,59.347 258.578,76.81 258.576,76.812 
		304.057,76.812 304.057,76.833 346.215,59.37 356.768,59.37 356.767,59.37 398.924,76.833 	"/>
	<polyline fill="none" stroke="#010101" stroke-miterlimit="10" points="48.059,213.23 93.539,213.23 135.697,195.768 
		135.695,195.788 146.247,195.788 146.246,195.79 188.404,213.253 233.885,213.253 276.043,195.79 276.041,195.812 286.593,195.812 
		286.592,195.813 328.75,213.276 374.23,213.276 416.389,195.813 	"/>
	<polyline fill="none" stroke="#010101" stroke-miterlimit="10" points="65.523,195.766 65.523,195.787 76.075,195.787 
		76.075,195.766 118.232,178.303 118.23,178.325 163.711,178.325 205.869,195.788 205.869,195.81 216.421,195.81 216.421,195.788 
		258.578,178.325 258.576,178.349 304.057,178.349 346.215,195.812 346.215,195.833 356.767,195.833 356.767,195.812 
		398.924,178.349 	"/>
	<polyline fill="none" stroke="#010101" stroke-miterlimit="10" points="48.059,314.744 93.539,314.744 135.696,332.205 
		135.693,332.205 146.248,332.205 146.247,332.227 188.404,314.766 233.885,314.766 276.042,332.227 276.039,332.229 
		286.594,332.229 286.593,332.25 328.75,314.789 374.23,314.789 416.388,332.25 	"/>
	<polyline fill="none" stroke="#010101" stroke-miterlimit="10" points="48.059,304.191 48.059,304.168 93.539,304.168 
		93.539,304.191 135.697,286.729 135.693,286.725 146.248,286.725 146.246,286.75 188.404,304.213 188.404,304.189 233.885,304.189 
		233.885,304.213 276.043,286.75 276.039,286.748 286.594,286.748 286.592,286.773 328.75,304.236 328.75,304.213 374.23,304.213 
		374.23,304.236 416.389,286.773 	"/>
	<polyline fill="none" stroke="#010101" stroke-miterlimit="10" points="65.523,286.729 76.075,286.729 118.232,269.264 
		118.23,269.262 163.711,269.262 163.711,269.285 205.869,286.75 216.421,286.75 258.578,269.285 258.576,269.285 304.057,269.285 
		304.057,269.309 346.215,286.773 356.767,286.773 398.924,269.309 	"/>
	<polyline fill="none" stroke="#010101" stroke-miterlimit="10" points="65.523,241.269 76.075,241.269 76.075,241.246 
		118.232,258.711 118.23,258.686 163.711,258.686 163.711,258.732 205.869,241.269 205.869,241.292 216.421,241.292 
		216.421,241.269 258.578,258.732 258.576,258.709 304.057,258.709 304.057,258.756 346.215,241.292 346.215,241.315 
		356.767,241.315 356.767,241.292 398.924,258.756 	"/>
	<polyline fill="none" stroke="#010101" stroke-miterlimit="10" points="48.059,395.152 93.539,395.152 135.697,377.691 
		135.693,377.709 146.246,377.709 146.246,377.713 188.404,395.174 233.885,395.174 276.043,377.713 276.039,377.732 
		286.592,377.732 286.592,377.736 328.75,395.197 374.23,395.197 416.389,377.736 	"/>
	<polyline fill="none" stroke="#010101" stroke-miterlimit="10" points="65.521,377.688 76.075,377.688 118.232,360.225 
		118.23,360.246 163.711,360.246 205.867,377.709 216.421,377.709 258.578,360.246 258.576,360.27 304.057,360.27 346.213,377.732 
		356.767,377.732 398.924,360.27 	"/>
	<polyline fill="none" stroke="#010101" stroke-miterlimit="10" points="65.521,332.207 76.075,332.207 118.232,349.67 
		118.23,349.67 163.711,349.67 163.711,349.691 205.867,332.229 216.421,332.229 258.578,349.691 258.576,349.693 304.057,349.693 
		304.057,349.715 346.213,332.252 356.767,332.252 398.924,349.715 	"/>
	<polyline fill="none" stroke="#010101" stroke-miterlimit="10" points="48.059,223.783 48.059,223.806 93.539,223.806 
		93.539,223.783 135.695,241.246 135.695,241.247 146.247,241.247 146.248,241.269 188.404,223.806 188.404,223.829 
		233.885,223.829 233.885,223.806 276.041,241.269 276.041,241.27 286.593,241.27 286.594,241.292 328.75,223.829 328.75,223.852 
		374.23,223.852 374.23,223.829 416.387,241.292 	"/>
	<polyline fill="none" stroke="#010101" stroke-miterlimit="10" points="48.059,405.705 48.059,405.729 93.539,405.729 
		93.539,405.705 135.696,423.168 135.695,423.189 146.247,423.189 188.404,405.727 188.404,405.75 233.885,405.75 233.885,405.727 
		276.042,423.189 276.041,423.213 286.593,423.213 328.75,405.75 328.75,405.773 374.23,405.773 374.23,405.75 416.388,423.213 	"/>
	<polyline fill="none" stroke="#010101" stroke-miterlimit="10" points="65.521,423.191 76.074,423.191 76.075,423.168 
		118.232,440.633 118.23,440.654 163.711,440.654 205.867,423.189 205.867,423.213 216.42,423.213 216.421,423.189 258.578,440.654 
		258.576,440.678 304.057,440.678 346.213,423.213 346.213,423.236 356.766,423.236 356.767,423.213 398.924,440.678 	"/>
	<polyline fill="none" stroke="#010101" stroke-miterlimit="10" points="65.523,150.308 76.075,150.308 76.075,150.285 
		118.232,167.749 163.711,167.771 205.869,150.308 216.421,150.308 258.578,167.771 304.057,167.794 346.215,150.331 
		356.767,150.331 398.924,167.794 	"/>
	<polyline fill="none" stroke="#010101" stroke-miterlimit="10" points="48.059,132.844 93.539,132.844 93.539,132.822 
		135.695,150.285 146.248,150.308 188.404,132.845 233.885,132.845 276.041,150.308 286.594,150.331 328.75,132.868 374.23,132.868 
		416.387,150.331 	"/>
	<line fill="none" stroke="#010101" stroke-miterlimit="10" x1="398.924" y1="76.833" x2="444.404" y2="76.833"/>
	<line fill="none" stroke="#010101" stroke-miterlimit="10" x1="416.389" y1="59.367" x2="426.941" y2="59.367"/>
	<line fill="none" stroke="#010101" stroke-miterlimit="10" x1="398.924" y1="167.793" x2="444.404" y2="167.794"/>
	<polyline fill="none" stroke="#010101" stroke-miterlimit="10" points="416.389,150.329 416.389,150.351 426.94,150.351 	"/>
	<line fill="none" stroke="#010101" stroke-miterlimit="10" x1="398.924" y1="269.307" x2="444.404" y2="269.307"/>
	<polyline fill="none" stroke="#010101" stroke-miterlimit="10" points="398.924,258.754 398.924,258.73 444.404,258.73 	"/>
	<line fill="none" stroke="#010101" stroke-miterlimit="10" x1="416.389" y1="241.292" x2="426.94" y2="241.292"/>
	<line fill="none" stroke="#010101" stroke-miterlimit="10" x1="416.389" y1="195.833" x2="426.94" y2="195.833"/>
	<line fill="none" stroke="#010101" stroke-miterlimit="10" x1="398.924" y1="349.715" x2="444.404" y2="349.715"/>
	<line fill="none" stroke="#010101" stroke-miterlimit="10" x1="416.387" y1="332.25" x2="426.94" y2="332.25"/>
	<line fill="none" stroke="#010101" stroke-miterlimit="10" x1="416.387" y1="286.77" x2="426.94" y2="286.77"/>
	<polyline fill="none" stroke="#010101" stroke-miterlimit="10" points="398.924,178.346 398.924,178.37 444.404,178.37 	"/>
	<polyline fill="none" stroke="#010101" stroke-miterlimit="10" points="398.924,360.268 398.924,360.291 444.404,360.291 	"/>
	<line fill="none" stroke="#010101" stroke-miterlimit="10" x1="416.387" y1="377.754" x2="426.939" y2="377.754"/>
	<line fill="none" stroke="#010101" stroke-miterlimit="10" x1="416.389" y1="104.871" x2="426.94" y2="104.871"/>
	<line fill="none" stroke="#010101" stroke-miterlimit="10" x1="398.924" y1="87.408" x2="444.404" y2="87.408"/>
	<line fill="none" stroke="#010101" stroke-miterlimit="10" x1="398.924" y1="440.678" x2="444.404" y2="440.678"/>
	<line fill="none" stroke="#010101" stroke-miterlimit="10" x1="416.389" y1="423.215" x2="426.941" y2="423.215"/>
</g>
<g id="Layer_2">
	<polyline fill="none" stroke="#010101" stroke-miterlimit="10" points="276.041,13.866 276.041,59.346 258.578,76.81 
		258.578,87.362 258.578,87.364 276.041,104.828 276.041,150.307 258.578,167.771 258.578,178.324 276.041,195.788 276.041,241.269 
		258.578,258.732 258.578,269.285 276.042,286.748 276.042,332.227 258.578,349.691 258.578,360.244 258.578,360.246 
		276.042,377.711 276.042,423.188 276.042,423.189 258.578,440.654 258.578,451.207 	"/>
	<polyline fill="none" stroke="#010101" stroke-miterlimit="10" points="244.526,457.029 244.526,434.832 261.99,417.367 
		261.99,383.531 244.526,366.066 244.526,366.068 244.526,343.871 261.99,326.406 261.99,292.568 244.526,275.105 244.525,275.107 
		244.525,252.91 261.989,235.448 261.989,201.61 244.525,184.146 244.525,184.147 244.525,161.95 261.989,144.486 261.989,110.648 
		244.525,93.185 244.525,70.988 261.989,53.524 261.989,19.687 	"/>
	<polyline fill="none" stroke="#010101" stroke-miterlimit="10" points="230.474,462.85 230.474,429.012 247.938,411.547 
		247.938,389.352 230.474,371.889 230.474,338.049 247.938,320.586 247.938,298.389 230.474,280.926 230.473,280.928 
		230.473,247.09 247.938,229.628 247.938,207.431 230.473,189.968 230.473,156.129 247.938,138.666 247.938,116.469 230.473,99.005 
		230.473,65.168 247.938,47.704 247.938,25.508 	"/>
	<polyline fill="none" stroke="#010101" stroke-miterlimit="10" points="216.421,468.67 216.421,423.189 233.885,405.727 
		233.885,395.174 233.885,395.172 216.421,377.709 216.421,332.229 233.885,314.766 233.885,304.213 233.885,304.211 
		216.421,286.746 216.421,286.75 216.421,241.269 233.885,223.806 233.885,213.253 216.421,195.788 216.421,150.308 
		233.885,132.845 233.885,122.292 233.885,122.291 216.421,104.827 216.421,59.347 233.885,41.883 233.885,31.331 	"/>
	<polyline fill="none" stroke="#010101" stroke-miterlimit="10" points="146.248,13.866 146.248,59.346 163.711,76.81 
		163.711,87.362 163.711,87.364 146.248,104.828 146.248,150.307 163.711,167.771 163.711,178.324 146.248,195.788 146.248,241.269 
		163.711,258.732 163.711,269.285 146.247,286.748 146.247,332.227 163.711,349.691 163.711,360.244 163.711,360.246 
		146.247,377.711 146.247,423.188 146.247,423.189 163.711,440.654 163.711,451.207 	"/>
	<polyline fill="none" stroke="#010101" stroke-miterlimit="10" points="177.763,457.029 177.763,434.832 160.299,417.367 
		160.299,383.531 177.763,366.066 177.763,366.068 177.763,343.871 160.299,326.406 160.299,292.568 177.763,275.105 
		177.764,275.107 177.764,252.91 160.3,235.448 160.3,201.61 177.764,184.146 177.764,184.147 177.764,161.95 160.3,144.486 
		160.3,110.648 177.764,93.185 177.764,70.988 160.3,53.524 160.3,19.687 	"/>
	<polyline fill="none" stroke="#010101" stroke-miterlimit="10" points="191.815,462.85 191.815,429.012 174.352,411.547 
		174.352,389.352 191.815,371.889 191.815,338.049 174.352,320.586 174.352,298.389 191.815,280.926 191.816,280.928 
		191.816,247.09 174.352,229.628 174.352,207.431 191.816,189.968 191.816,156.129 174.352,138.666 174.352,116.469 191.816,99.005 
		191.816,65.168 174.352,47.704 174.352,25.508 	"/>
	<polyline fill="none" stroke="#010101" stroke-miterlimit="10" points="205.867,468.67 205.867,423.189 188.404,405.727 
		188.404,395.174 188.404,395.172 205.867,377.709 205.867,332.229 188.404,314.766 188.404,304.213 188.404,304.211 
		205.867,286.746 205.869,286.75 205.869,241.269 188.404,223.806 188.404,213.253 205.869,195.788 205.869,150.308 
		188.404,132.845 188.404,122.292 188.404,122.291 205.869,104.827 205.869,59.347 188.404,41.883 188.404,31.331 	"/>
	<polyline fill="none" stroke="#010101" stroke-miterlimit="10" points="135.695,13.843 135.695,59.323 118.232,76.787 
		118.232,87.339 118.232,87.341 135.695,104.805 135.695,150.284 118.232,167.749 118.232,178.301 135.695,195.766 135.695,241.246 
		118.232,258.711 118.232,269.264 135.696,286.727 135.696,332.205 118.232,349.67 118.232,360.223 118.232,360.225 
		135.696,377.689 135.696,423.166 135.696,423.168 118.232,440.633 118.232,451.186 	"/>
	<polyline fill="none" stroke="#010101" stroke-miterlimit="10" points="104.181,457.008 104.181,434.811 121.645,417.346 
		121.645,383.51 104.181,366.045 104.181,366.047 104.181,343.85 121.645,326.385 121.645,292.547 104.181,275.084 104.18,275.086 
		104.18,252.889 121.644,235.425 121.644,201.587 104.18,184.123 104.18,184.125 104.18,161.927 121.644,144.463 121.644,110.625 
		104.18,93.162 104.18,70.965 121.644,53.501 121.644,19.664 	"/>
	<polyline fill="none" stroke="#010101" stroke-miterlimit="10" points="90.128,462.828 90.128,428.99 107.592,411.525 
		107.592,389.33 90.128,371.867 90.128,338.027 107.592,320.564 107.592,298.367 90.128,280.904 90.127,280.906 90.127,247.068 
		107.592,229.605 107.592,207.407 90.127,189.944 90.127,156.106 107.592,138.643 107.592,116.446 90.127,98.982 90.127,65.145 
		107.592,47.681 107.592,25.485 	"/>
	<polyline fill="none" stroke="#010101" stroke-miterlimit="10" points="76.075,468.648 76.075,423.168 93.539,405.705 
		93.539,395.152 93.539,395.15 76.075,377.688 76.075,332.207 93.539,314.744 93.539,304.191 93.539,304.189 76.075,286.725 
		76.075,286.729 76.075,241.246 93.539,223.783 93.539,213.23 76.075,195.766 76.075,150.285 93.539,132.822 93.539,122.269 
		93.539,122.268 76.075,104.804 76.075,59.324 93.539,41.86 93.539,31.308 	"/>
	<polyline fill="none" stroke="#010101" stroke-miterlimit="10" points="416.387,13.889 416.387,59.369 398.924,76.833 
		398.924,87.385 398.924,87.387 416.387,104.851 416.387,150.33 398.924,167.794 398.924,178.347 416.387,195.812 416.387,241.292 
		398.924,258.756 398.924,269.309 416.388,286.771 416.388,332.25 398.924,349.715 398.924,360.268 398.924,360.27 416.388,377.734 
		416.388,423.211 416.388,423.213 398.924,440.678 398.924,451.23 	"/>
	<polyline fill="none" stroke="#010101" stroke-miterlimit="10" points="384.872,457.053 384.872,434.855 402.336,417.391 
		402.336,383.555 384.872,366.09 384.872,366.092 384.872,343.895 402.336,326.43 402.336,292.592 384.872,275.129 384.871,275.131 
		384.871,252.934 402.335,235.471 402.335,201.633 384.871,184.169 384.871,184.17 384.871,161.973 402.335,144.509 
		402.335,110.671 384.871,93.208 384.871,71.011 402.335,53.547 402.335,19.71 	"/>
	<polyline fill="none" stroke="#010101" stroke-miterlimit="10" points="370.819,462.873 370.819,429.035 388.283,411.57 
		388.283,389.375 370.819,371.912 370.819,338.072 388.283,320.609 388.283,298.412 370.819,280.949 370.818,280.951 
		370.818,247.114 388.283,229.651 388.283,207.453 370.818,189.99 370.818,156.152 388.283,138.688 388.283,116.492 370.818,99.028 
		370.818,65.191 388.283,47.727 388.283,25.531 	"/>
	<polyline fill="none" stroke="#010101" stroke-miterlimit="10" points="356.767,468.693 356.767,423.213 374.23,405.75 
		374.23,395.197 374.23,395.195 356.767,377.732 356.767,332.252 374.23,314.789 374.23,304.236 374.23,304.234 356.767,286.77 
		356.767,286.773 356.767,241.292 374.23,223.829 374.23,213.276 356.767,195.812 356.767,150.331 374.23,132.868 374.23,122.315 
		374.23,122.313 356.767,104.85 356.767,59.37 374.23,41.906 374.23,31.354 	"/>
	<polyline fill="none" stroke="#010101" stroke-miterlimit="10" points="286.594,13.889 286.594,59.369 304.057,76.833 
		304.057,87.385 304.057,87.387 286.594,104.851 286.594,150.33 304.057,167.794 304.057,178.347 286.594,195.812 286.594,241.292 
		304.057,258.756 304.057,269.309 286.593,286.771 286.593,332.25 304.057,349.715 304.057,360.268 304.057,360.27 286.593,377.734 
		286.593,423.211 286.593,423.213 304.057,440.678 304.057,451.23 	"/>
	<polyline fill="none" stroke="#010101" stroke-miterlimit="10" points="318.108,457.053 318.108,434.855 300.645,417.391 
		300.645,383.555 318.108,366.09 318.108,366.092 318.108,343.895 300.645,326.43 300.645,292.592 318.108,275.129 318.109,275.131 
		318.109,252.934 300.646,235.471 300.646,201.633 318.109,184.169 318.109,184.17 318.109,161.973 300.646,144.509 
		300.646,110.671 318.109,93.208 318.109,71.011 300.646,53.547 300.646,19.71 	"/>
	<polyline fill="none" stroke="#010101" stroke-miterlimit="10" points="332.161,462.873 332.161,429.035 314.697,411.57 
		314.697,389.375 332.161,371.912 332.161,338.072 314.697,320.609 314.697,298.412 332.161,280.949 332.162,280.951 
		332.162,247.114 314.697,229.651 314.697,207.454 332.162,189.99 332.162,156.152 314.697,138.688 314.697,116.492 332.162,99.028 
		332.162,65.191 314.697,47.727 314.697,25.531 	"/>
	<polyline fill="none" stroke="#010101" stroke-miterlimit="10" points="346.213,468.693 346.213,423.213 328.75,405.75 
		328.75,395.197 328.75,395.195 346.213,377.732 346.213,332.252 328.75,314.789 328.75,304.236 328.75,304.234 346.213,286.77 
		346.215,286.773 346.215,241.292 328.75,223.829 328.75,213.276 346.215,195.812 346.215,150.331 328.75,132.868 328.75,122.315 
		328.75,122.313 346.215,104.85 346.215,59.37 328.75,41.906 328.75,31.354 	"/>
</g>
</svg>
