<?xml version="1.0" encoding="utf-8"?>
<!-- Generator: Adobe Illustrator 16.0.0, SVG Export Plug-In . SVG Version: 6.00 Build 0)  -->
<!DOCTYPE svg PUBLIC "-//W3C//DTD SVG 1.1//EN" "http://www.w3.org/Graphics/SVG/1.1/DTD/svg11.dtd">
<svg version="1.1" xmlns="http://www.w3.org/2000/svg" xmlns:xlink="http://www.w3.org/1999/xlink" x="0px" y="0px" width="550px"
	 height="425px" viewBox="0 0 550 425" enable-background="new 0 0 550 425" xml:space="preserve">
<g id="Layer_2">
	<polyline fill="none" stroke="#000000" stroke-miterlimit="10" points="0.109,423.794 12.456,411.445 24.804,399.098 
		37.151,386.75 37.151,303.527 24.813,291.189 12.475,278.851 0.136,266.512 	"/>
	<polyline fill="none" stroke="#000000" stroke-miterlimit="10" points="0.11,1.368 12.457,13.717 24.805,26.064 37.152,38.412 
		37.151,38.375 37.151,121.598 24.813,133.936 12.475,146.274 0.136,158.613 	"/>
	<polyline fill="none" stroke="#000000" stroke-miterlimit="10" points="25.337,1.367 37.684,13.716 50.032,26.063 62.379,38.411 
		62.378,38.374 62.378,121.597 50.041,133.936 37.702,146.274 25.364,158.613 13.025,170.951 13.025,254.174 25.364,266.512 
		37.702,278.851 50.041,291.189 62.379,303.527 62.378,386.751 50.031,399.099 37.683,411.446 25.336,423.795 	"/>
	<polyline fill="none" stroke="#000000" stroke-miterlimit="10" points="124.649,1.293 112.302,13.642 99.954,25.989 87.606,38.337 
		87.605,38.374 87.605,121.597 99.953,133.944 112.301,146.292 124.648,158.64 136.997,170.988 136.997,170.951 136.997,254.174 
		136.997,254.137 124.648,266.484 112.301,278.832 99.953,291.181 87.605,303.528 87.605,386.751 87.605,386.825 99.953,399.173 
		112.301,411.521 124.648,423.869 	"/>
	<polyline fill="none" stroke="#000000" stroke-miterlimit="10" points="149.877,1.33 137.53,13.678 125.183,26.026 112.834,38.374 
		112.833,38.336 112.833,121.56 125.182,133.908 137.529,146.255 149.876,158.604 162.224,170.951 162.224,254.174 149.876,266.521 
		137.529,278.87 125.182,291.218 112.833,303.565 112.833,386.788 125.182,399.136 137.529,411.484 149.876,423.832 	"/>
	<polyline fill="none" stroke="#000000" stroke-miterlimit="10" points="199.762,1.368 212.11,13.717 224.458,26.064 
		236.806,38.412 236.805,38.375 236.805,121.598 224.467,133.936 212.129,146.274 199.79,158.613 187.452,170.951 187.452,254.174 
		199.79,266.512 212.129,278.851 224.467,291.189 236.805,303.527 236.805,386.75 224.457,399.098 212.109,411.445 199.761,423.794 
			"/>
	<polyline fill="none" stroke="#000000" stroke-miterlimit="10" points="224.991,1.331 237.338,13.68 249.686,26.027 
		262.033,38.374 262.034,121.598 249.695,133.936 237.356,146.274 225.018,158.613 212.679,170.951 212.679,254.174 
		225.018,266.512 237.356,278.851 249.695,291.189 262.033,303.528 262.033,386.751 262.033,386.787 249.685,399.135 
		237.337,411.482 224.99,423.831 	"/>
	<polyline fill="none" stroke="#000000" stroke-miterlimit="10" points="324.304,1.293 311.955,13.642 299.608,25.989 
		287.26,38.337 287.26,38.374 287.26,121.597 299.608,133.944 311.955,146.292 324.304,158.64 336.65,170.988 336.65,170.951 
		336.65,254.174 336.65,254.137 324.304,266.484 311.955,278.832 299.608,291.181 287.26,303.528 287.26,386.751 287.259,386.825 
		299.607,399.173 311.954,411.521 324.303,423.869 	"/>
	<polyline fill="none" stroke="#000000" stroke-miterlimit="10" points="349.531,1.33 337.185,13.678 324.836,26.026 
		312.489,38.374 312.488,38.336 312.488,121.56 324.835,133.908 337.184,146.255 349.53,158.604 361.879,170.951 361.879,254.174 
		349.53,266.521 337.184,278.87 324.835,291.218 312.488,303.565 312.488,386.788 324.835,399.136 337.184,411.484 349.53,423.832 	
		"/>
	<polyline fill="none" stroke="#000000" stroke-miterlimit="10" points="399.416,1.368 411.764,13.717 424.111,26.064 
		436.46,38.412 436.459,38.375 436.459,121.598 424.121,133.936 411.782,146.274 399.443,158.613 387.106,170.951 387.106,254.174 
		399.443,266.512 411.782,278.851 424.121,291.189 436.459,303.527 436.459,386.75 424.11,399.098 411.763,411.445 399.415,423.794 
			"/>
	<polyline fill="none" stroke="#000000" stroke-miterlimit="10" points="424.645,1.331 436.992,13.68 449.34,26.027 461.687,38.374 
		461.687,121.598 449.35,133.936 437.01,146.274 424.672,158.613 412.333,170.951 412.333,254.174 424.672,266.512 437.01,278.851 
		449.35,291.189 461.687,303.528 461.687,386.751 461.686,386.787 449.339,399.135 436.991,411.482 424.644,423.831 	"/>
	<polyline fill="none" stroke="#000000" stroke-miterlimit="10" points="523.956,1.33 511.607,13.678 499.261,26.025 
		486.914,38.374 486.914,121.597 499.261,133.944 511.609,146.292 523.957,158.64 536.305,170.988 536.305,170.951 536.305,254.174 
		536.305,254.137 523.957,266.484 511.609,278.832 499.261,291.181 486.914,303.528 486.914,386.751 486.912,386.789 
		499.26,399.137 511.606,411.484 523.955,423.832 	"/>
	<polyline fill="none" stroke="#000000" stroke-miterlimit="10" points="549.183,423.795 536.836,411.447 524.487,399.1 
		512.141,386.751 512.143,386.788 512.143,303.565 524.48,291.227 536.82,278.889 549.158,266.551 	"/>
	<polyline fill="none" stroke="#000000" stroke-miterlimit="10" points="549.184,1.367 536.837,13.715 524.488,26.062 
		512.142,38.411 512.143,38.336 512.143,121.56 524.48,133.898 536.82,146.236 549.158,158.575 	"/>
</g>
<g id="Layer_3">
	<path fill="none" stroke="#000000" stroke-miterlimit="10" d="M149.849,423.758c0-11.44,11.173-20.708,24.957-20.708
		c13.784,0,24.956,9.268,24.956,20.708"/>
	<path fill="none" stroke="#000000" stroke-miterlimit="10" d="M349.503,423.758c0-11.44,11.173-20.708,24.956-20.708
		c13.784,0,24.956,9.268,24.956,20.708"/>
	<path fill="none" stroke="#000000" stroke-miterlimit="10" d="M242.062,424.356c-2.998-3.819-4.706-8.222-4.706-12.909
		l-0.028,0.008H212.1l0.009-0.047c0-14.652-16.697-26.527-37.298-26.527c-20.6,0-37.301,11.875-37.301,26.527l0.01,0.103h-25.228
		l0.009-0.063c0,4.688-1.708,9.09-4.706,12.91"/>
	<path fill="none" stroke="#000000" stroke-miterlimit="10" d="M441.717,424.355c-2.997-3.82-4.706-8.222-4.706-12.909l-0.029,0.009
		h-25.228l0.009-0.047c0-14.652-16.697-26.526-37.298-26.526s-37.301,11.874-37.301,26.526l0.01,0.103h-25.229l0.01-0.063
		c0,4.688-1.708,9.09-4.706,12.91"/>
	<path fill="none" stroke="#000000" stroke-miterlimit="10" d="M42.408,424.356c-2.998-3.819-4.706-8.222-4.707-12.909l0.009-0.028
		H12.484l-0.029-0.011c0-7.827-4.766-14.863-12.346-19.718"/>
	<path fill="none" stroke="#000000" stroke-miterlimit="10" d="M549.186,391.728c-7.581,4.855-12.347,11.892-12.347,19.718
		l-0.013,0.029h-25.229l0.012-0.028c0,4.688-1.707,9.091-4.705,12.911"/>
	<path fill="none" stroke="#000000" stroke-miterlimit="10" d="M549.185,373.656c-14.767,5.098-24.692,14.583-24.692,25.444
		l-0.005,0.037H499.26l0.002-0.038c0,11.438-11.171,20.708-24.955,20.708c-13.783,0-24.957-9.27-24.957-20.708l-0.029,0.019h-25.228
		l0.018-0.056c0-16.251-22.224-29.422-49.642-29.422c-27.416,0-49.643,13.171-49.643,29.422l0.009,0.111h-25.228l0.001-0.074
		c0,11.438-11.172,20.708-24.956,20.708c-13.783,0-24.957-9.27-24.957-20.708l-0.028,0.019h-25.228l0.018-0.056
		c0-16.251-22.224-29.422-49.641-29.422s-49.644,13.171-49.644,29.422l0.01,0.111H99.953v-0.074
		c0,11.438-11.171,20.708-24.956,20.708c-13.784,0-24.957-9.27-24.957-20.708l0.018-0.027H24.831l-0.029-0.01
		c0-10.861-9.926-20.346-24.693-25.443"/>
	<path fill="none" stroke="#000000" stroke-miterlimit="10" d="M549.294,359.852c-21.872,4.538-37.151,14.89-37.151,26.936
		l-0.002-0.037c0,0-25.227,0-25.226,0c0,6.607-5.646,11.961-12.613,11.961c-6.968,0-12.615-5.354-12.615-11.961l-0.003,0.036
		h-25.226l0.001-0.037c0-16.234-27.749-29.389-61.985-29.389c-34.234,0-61.986,13.155-61.986,29.389l0.001,0.038h-25.227
		l-0.001-0.037c0,6.607-5.646,11.961-12.613,11.961c-6.967,0-12.614-5.354-12.614-11.961l-0.002,0.036h-25.227l0.001-0.037
		c0-16.234-27.75-29.389-61.985-29.389c-34.234,0-61.987,13.155-61.987,29.389l0,0.038H87.606l-0.001-0.037
		c0,6.607-5.646,11.961-12.613,11.961s-12.614-5.354-12.615-11.96H37.151v-0.002c0-12.046-15.279-22.398-37.151-26.936"/>
	<path fill="none" stroke="#000000" stroke-miterlimit="10" d="M549.294,330.502c-21.872-4.54-37.151-14.89-37.151-26.937h-25.227
		l-0.002-0.037c0-6.607-5.647-11.961-12.612-11.961c-6.968,0-12.615,5.354-12.615,11.961l-0.002-0.001h-25.226l0.038,0.001
		c0,16.234-27.749,29.389-61.984,29.389s-61.986-13.154-61.986-29.389l-0.038,0.037h-25.227l-0.001-0.037
		c0-6.607-5.647-11.961-12.613-11.961s-12.614,5.354-12.615,11.96h-25.227l0.038,0.001c0,16.234-27.749,29.389-61.985,29.389
		c-34.234,0-61.987-13.154-61.987-29.389l-0.038,0.037H87.606l-0.001-0.037c0-6.607-5.646-11.961-12.613-11.961
		s-12.614,5.354-12.615,11.96H37.151v0.002c0,12.046-15.279,22.397-37.151,26.937"/>
	<path fill="none" stroke="#000000" stroke-miterlimit="10" d="M549.186,316.699c-14.767-5.097-24.693-14.582-24.693-25.443
		l-0.002-0.076h-25.229c0-11.438-11.171-20.708-24.955-20.708c-13.782,0-24.956,9.269-24.956,20.708l0.018,0.028h-25.229l0.01,0.009
		c0,16.25-22.223,29.421-49.64,29.421c-27.418,0-49.646-13.17-49.646-29.421l-0.028-0.037h-25.227
		c0-11.438-11.172-20.708-24.956-20.708c-13.783,0-24.957,9.269-24.957,20.708l0.019,0.028h-25.229l0.01,0.009
		c0,16.25-22.224,29.421-49.642,29.421s-49.644-13.17-49.644-29.421l-0.028-0.037H99.953c0-11.438-11.171-20.708-24.956-20.708
		c-13.784,0-24.957,9.269-24.957,20.708l0.018,0.028H24.831l-0.029,0.01c0,10.86-9.926,20.345-24.693,25.442"/>
	<path fill="none" stroke="#000000" stroke-miterlimit="10" d="M549.187,298.627c-7.582-4.855-12.346-11.891-12.346-19.719
		l-0.012-0.067H511.6l0.01-0.01c0-14.653-16.697-26.527-37.298-26.527c-20.602,0-37.302,11.875-37.302,26.527l0.01,0.029h-25.229
		l0.01,0.009c0,14.653-16.696,26.528-37.298,26.528c-20.601,0-37.301-11.875-37.301-26.528l-0.027-0.028h-25.229l0.01-0.01
		c0-14.653-16.697-26.527-37.297-26.527c-20.602,0-37.302,11.875-37.302,26.527l0.01,0.029h-25.228l0.01,0.009
		c0,14.653-16.698,26.528-37.299,26.528c-20.601,0-37.301-11.875-37.301-26.528l-0.028-0.028h-25.228l0.009-0.01
		c0-14.653-16.698-26.527-37.298-26.527s-37.301,11.875-37.301,26.527l0.009,0.029H12.484l-0.029,0.01
		c0,7.829-4.766,14.864-12.346,19.719"/>
	<path fill="none" stroke="#000000" stroke-miterlimit="10" d="M549.166,266.504h-25.227l0.018-0.02
		c0-16.25-22.224-29.421-49.642-29.421c-27.417,0-49.644,13.171-49.644,29.421v0.028h-25.229l0.01,0.009
		c0,11.438-11.172,20.708-24.956,20.708c-13.782,0-24.956-9.269-24.956-20.708l-0.028-0.018h-25.227l0.018-0.02
		c0-16.25-22.224-29.421-49.642-29.421c-27.417,0-49.644,13.171-49.644,29.421v0.028H199.79l0.01,0.009
		c0,11.438-11.172,20.708-24.956,20.708c-13.783,0-24.957-9.269-24.957-20.708l-0.028-0.018H124.63l0.018-0.02
		c0-16.25-22.223-29.421-49.641-29.421s-49.644,13.171-49.644,29.421v0.028H0.136"/>
	<path fill="none" stroke="#000000" stroke-miterlimit="10" d="M549.188,254.212h-12.917l0.034-0.038
		c0-16.235-27.749-29.389-61.983-29.389c-34.236,0-61.988,13.154-61.988,29.389c-0.001,0-25.227,0-25.227,0
		c0,6.607-5.646,11.961-12.613,11.961c-6.967,0-12.614-5.354-12.614-11.961h-0.002H336.65c0-16.235-27.749-29.389-61.984-29.389
		c-34.234,0-61.987,13.154-61.987,29.389c-0.001,0-25.228,0-25.228,0c0,6.607-5.646,11.961-12.613,11.961
		c-6.966,0-12.614-5.354-12.615-11.961c0,0-25.227,0-25.227,0c0-16.235-27.749-29.389-61.985-29.389
		c-34.234,0-61.986,13.154-61.987,29.389H0.107"/>
	<path fill="none" stroke="#000000" stroke-miterlimit="10" d="M549.188,170.913h-12.917l0.034,0.038
		c0,16.235-27.749,29.389-61.983,29.389c-34.236,0-61.988-13.154-61.988-29.389c-0.001,0-25.227,0-25.227,0
		c0-6.607-5.646-11.961-12.613-11.961c-6.967,0-12.614,5.354-12.614,11.961h-0.002H336.65c0,16.235-27.749,29.389-61.984,29.389
		c-34.234,0-61.987-13.154-61.987-29.389c-0.001,0-25.228,0-25.228,0c0-6.607-5.646-11.961-12.613-11.961
		c-6.966,0-12.614,5.354-12.615,11.961c0,0-25.227,0-25.227,0c0,16.235-27.749,29.389-61.985,29.389
		c-34.234,0-61.986-13.154-61.987-29.389H0.107"/>
	<path fill="none" stroke="#000000" stroke-miterlimit="10" d="M549.166,158.621h-25.227l0.018,0.02
		c0,16.25-22.224,29.421-49.642,29.421c-27.417,0-49.644-13.171-49.644-29.421v-0.028h-25.229l0.01-0.009
		c0-11.438-11.172-20.708-24.956-20.708c-13.782,0-24.956,9.269-24.956,20.708l-0.028,0.018h-25.227l0.018,0.02
		c0,16.25-22.224,29.421-49.642,29.421c-27.417,0-49.644-13.171-49.644-29.421v-0.028H199.79l0.01-0.009
		c0-11.438-11.172-20.708-24.956-20.708c-13.783,0-24.957,9.269-24.957,20.708l-0.028,0.018H124.63l0.018,0.02
		c0,16.25-22.223,29.421-49.641,29.421s-49.644-13.171-49.644-29.421v-0.028H0.136"/>
	<path fill="none" stroke="#000000" stroke-miterlimit="10" d="M549.187,126.498c-7.582,4.855-12.346,11.891-12.346,19.719
		l-0.012,0.067H511.6l0.01,0.01c0,14.653-16.697,26.527-37.298,26.527c-20.602,0-37.302-11.875-37.302-26.527l0.01-0.029h-25.229
		l0.01-0.009c0-14.653-16.696-26.528-37.298-26.528c-20.601,0-37.301,11.875-37.301,26.528l-0.027,0.028h-25.229l0.01,0.01
		c0,14.653-16.697,26.527-37.297,26.527c-20.602,0-37.302-11.875-37.302-26.527l0.01-0.029h-25.228l0.01-0.009
		c0-14.653-16.698-26.528-37.299-26.528c-20.601,0-37.301,11.875-37.301,26.528l-0.028,0.028h-25.228l0.009,0.01
		c0,14.653-16.698,26.527-37.298,26.527s-37.301-11.875-37.301-26.527l0.009-0.029H12.484l-0.029-0.01
		c0-7.829-4.766-14.864-12.346-19.719"/>
	<path fill="none" stroke="#000000" stroke-miterlimit="10" d="M549.186,108.426c-14.767,5.097-24.693,14.582-24.693,25.443
		l-0.002,0.076h-25.229c0,11.438-11.171,20.708-24.955,20.708c-13.782,0-24.956-9.269-24.956-20.708l0.018-0.028h-25.229l0.01-0.009
		c0-16.25-22.223-29.421-49.64-29.421c-27.418,0-49.646,13.17-49.646,29.421l-0.028,0.037h-25.227
		c0,11.438-11.172,20.708-24.956,20.708c-13.783,0-24.957-9.269-24.957-20.708l0.019-0.028h-25.229l0.01-0.009
		c0-16.25-22.224-29.421-49.642-29.421s-49.644,13.17-49.644,29.421l-0.028,0.037H99.953c0,11.438-11.171,20.708-24.956,20.708
		c-13.784,0-24.957-9.269-24.957-20.708l0.018-0.028H24.831l-0.029-0.01c0-10.86-9.926-20.345-24.693-25.442"/>
	<path fill="none" stroke="#000000" stroke-miterlimit="10" d="M549.294,94.623c-21.872,4.54-37.151,14.89-37.151,26.937h-25.227
		l-0.002,0.037c0,6.607-5.647,11.961-12.612,11.961c-6.968,0-12.615-5.354-12.615-11.961l-0.002,0.001h-25.226l0.038-0.001
		c0-16.234-27.749-29.389-61.984-29.389s-61.986,13.154-61.986,29.389l-0.038-0.037h-25.227l-0.001,0.037
		c0,6.607-5.647,11.961-12.613,11.961s-12.614-5.354-12.615-11.96h-25.227l0.038-0.001c0-16.234-27.749-29.389-61.985-29.389
		c-34.234,0-61.987,13.154-61.987,29.389l-0.038-0.037H87.606l-0.001,0.037c0,6.607-5.646,11.961-12.613,11.961
		s-12.614-5.354-12.615-11.96H37.151v-0.002c0-12.046-15.279-22.397-37.151-26.937"/>
	<path fill="none" stroke="#000000" stroke-miterlimit="10" d="M549.295,65.31c-21.872-4.538-37.151-14.89-37.151-26.936
		l-0.002,0.037c0,0-25.227,0-25.226,0c0-6.607-5.646-11.961-12.613-11.961c-6.968,0-12.615,5.354-12.615,11.961l-0.003-0.036
		h-25.226l0.001,0.037c0,16.234-27.749,29.389-61.985,29.389c-34.234,0-61.986-13.155-61.986-29.389l0.001-0.038h-25.227
		l-0.001,0.037c0-6.607-5.646-11.961-12.613-11.961c-6.967,0-12.614,5.354-12.614,11.961l-0.002-0.036h-25.227l0.001,0.037
		c0,16.234-27.75,29.389-61.985,29.389c-34.234,0-61.987-13.155-61.987-29.389l0-0.038H87.607l-0.001,0.037
		c0-6.607-5.646-11.961-12.613-11.961s-12.614,5.354-12.615,11.96H37.152v0.002c0,12.046-15.279,22.398-37.151,26.936"/>
	<path fill="none" stroke="#000000" stroke-miterlimit="10" d="M549.186,51.506c-14.767-5.098-24.692-14.583-24.692-25.444
		l-0.005-0.037h-25.228l0.002,0.038c0-11.438-11.171-20.708-24.955-20.708c-13.783,0-24.957,9.27-24.957,20.708l-0.029-0.019
		h-25.228l0.018,0.056c0,16.251-22.224,29.422-49.642,29.422c-27.416,0-49.643-13.171-49.643-29.422l0.009-0.111h-25.228
		l0.001,0.074c0-11.438-11.172-20.708-24.956-20.708c-13.783,0-24.957,9.27-24.957,20.708l-0.028-0.019H224.44l0.018,0.056
		c0,16.251-22.224,29.422-49.641,29.422s-49.644-13.171-49.644-29.422l0.01-0.111H99.954v0.074
		c0-11.438-11.171-20.708-24.956-20.708c-13.784,0-24.957,9.27-24.957,20.708l0.018,0.027H24.832l-0.029,0.01
		c0,10.861-9.926,20.346-24.693,25.443"/>
	<path fill="none" stroke="#000000" stroke-miterlimit="10" d="M242.063,0.806c-2.998,3.819-4.706,8.222-4.706,12.909l-0.028-0.008
		h-25.228l0.009,0.047c0,14.652-16.697,26.527-37.298,26.527c-20.6,0-37.301-11.875-37.301-26.527l0.01-0.103h-25.228l0.009,0.063
		c0-4.688-1.708-9.09-4.706-12.91"/>
	<path fill="none" stroke="#000000" stroke-miterlimit="10" d="M42.409,0.806c-2.998,3.819-4.706,8.222-4.707,12.909l0.009,0.028
		H12.485l-0.029,0.011c0,7.827-4.766,14.863-12.346,19.718"/>
	<path fill="none" stroke="#000000" stroke-miterlimit="10" d="M441.718,0.807c-2.997,3.82-4.706,8.222-4.706,12.909l-0.029-0.009
		h-25.228l0.009,0.047c0,14.652-16.697,26.526-37.298,26.526s-37.301-11.874-37.301-26.526l0.01-0.103h-25.229l0.01,0.063
		c0-4.688-1.708-9.09-4.706-12.91"/>
	<path fill="none" stroke="#000000" stroke-miterlimit="10" d="M549.187,33.435c-7.581-4.855-12.347-11.892-12.347-19.718
		l-0.013-0.029h-25.229l0.012,0.028c0-4.688-1.707-9.091-4.705-12.911"/>
	<path fill="none" stroke="#000000" stroke-miterlimit="10" d="M149.85,1.404c0,11.44,11.173,20.708,24.957,20.708
		c13.784,0,24.956-9.268,24.956-20.708"/>
	<path fill="none" stroke="#000000" stroke-miterlimit="10" d="M349.504,1.404c0,11.44,11.173,20.708,24.956,20.708
		c13.784,0,24.956-9.268,24.956-20.708"/>
</g>
</svg>
