<?xml version="1.0" encoding="utf-8"?>
<!-- Generator: Adobe Illustrator 16.0.0, SVG Export Plug-In . SVG Version: 6.00 Build 0)  -->
<!DOCTYPE svg PUBLIC "-//W3C//DTD SVG 1.1//EN" "http://www.w3.org/Graphics/SVG/1.1/DTD/svg11.dtd">
<svg version="1.1" xmlns="http://www.w3.org/2000/svg" xmlns:xlink="http://www.w3.org/1999/xlink" x="0px" y="0px" width="500px"
	 height="500px" viewBox="0 0 500 500" enable-background="new 0 0 500 500" xml:space="preserve">
<g id="Layer_4">
	<polygon fill="none" stroke="#E62790" stroke-miterlimit="10" points="425.203,188.34 438.853,177.676 436.441,160.523 
		422.791,171.186 	"/>
	<polygon fill="none" stroke="#E62790" stroke-miterlimit="10" points="390.672,158.209 406.732,164.698 420.383,154.035 
		404.32,147.545 	"/>
	<polygon fill="none" stroke="#E62790" stroke-miterlimit="10" points="399.499,113.238 401.91,130.393 417.973,136.883 
		415.559,119.729 	"/>
	<polygon fill="none" stroke="#E62790" stroke-miterlimit="10" points="442.86,98.402 445.268,115.553 431.622,126.218 
		429.211,109.066 	"/>
	<polygon fill="none" stroke="#E62790" stroke-miterlimit="10" points="407.54,278.275 391.479,271.787 389.07,254.637 
		405.131,261.125 	"/>
	<polygon fill="none" stroke="#E62790" stroke-miterlimit="10" points="364.179,293.115 377.83,282.45 375.418,265.299 
		361.768,275.961 	"/>
	<polygon fill="none" stroke="#E62790" stroke-miterlimit="10" points="329.648,262.984 345.709,269.473 359.359,258.811 
		343.297,252.32 	"/>
	<polygon fill="none" stroke="#E62790" stroke-miterlimit="10" points="338.477,218.016 340.887,235.169 356.949,241.658 
		354.536,224.503 	"/>
	<polygon fill="none" stroke="#E62790" stroke-miterlimit="10" points="381.837,203.178 384.244,220.328 370.599,230.993 
		368.188,213.841 	"/>
	<polygon fill="none" stroke="#E62790" stroke-miterlimit="10" points="416.37,233.309 400.309,226.818 386.656,237.48 
		402.717,243.971 	"/>
	<polygon fill="none" stroke="#E62790" stroke-miterlimit="10" points="424.422,398.349 438.072,387.686 435.66,370.532 
		422.01,381.195 	"/>
	<polygon fill="none" stroke="#E62790" stroke-miterlimit="10" points="389.891,368.218 405.951,374.707 419.603,364.044 
		403.539,357.555 	"/>
	<polygon fill="none" stroke="#E62790" stroke-miterlimit="10" points="398.719,323.248 401.13,340.4 417.192,346.893 
		414.778,329.736 	"/>
	<polygon fill="none" stroke="#E62790" stroke-miterlimit="10" points="442.08,308.411 444.487,325.562 430.842,336.227 
		428.431,319.075 	"/>
	<polygon fill="none" stroke="#E62790" stroke-miterlimit="10" points="364.959,83.105 378.609,72.441 376.197,55.289 
		362.547,65.952 	"/>
	<polygon fill="none" stroke="#E62790" stroke-miterlimit="10" points="330.428,52.975 346.488,59.464 360.139,48.801 
		344.076,42.311 	"/>
	<polygon fill="none" stroke="#E62790" stroke-miterlimit="10" points="225.267,382.6 209.206,376.111 206.797,358.959 
		222.857,365.449 	"/>
	<polygon fill="none" stroke="#E62790" stroke-miterlimit="10" points="181.906,397.438 195.556,386.773 193.145,369.621 
		179.494,380.284 	"/>
	<polygon fill="none" stroke="#E62790" stroke-miterlimit="10" points="147.375,367.309 163.436,373.797 177.086,363.134 
		161.023,356.645 	"/>
	<polygon fill="none" stroke="#E62790" stroke-miterlimit="10" points="156.203,322.337 158.613,339.491 174.676,345.98 
		172.262,328.826 	"/>
	<polygon fill="none" stroke="#E62790" stroke-miterlimit="10" points="199.563,307.501 201.971,324.65 188.325,335.316 
		185.914,318.164 	"/>
	<polygon fill="none" stroke="#E62790" stroke-miterlimit="10" points="234.098,337.631 218.035,331.143 204.383,341.805 
		220.443,348.293 	"/>
	<polygon fill="none" stroke="#E62790" stroke-miterlimit="10" points="346.516,383.053 330.456,376.564 328.047,359.412 
		344.107,365.902 	"/>
	<polygon fill="none" stroke="#E62790" stroke-miterlimit="10" points="303.156,397.892 316.806,387.227 314.395,370.075 
		300.744,380.736 	"/>
	<polygon fill="none" stroke="#E62790" stroke-miterlimit="10" points="268.625,367.761 284.686,374.25 298.336,363.587 
		282.273,357.098 	"/>
	<polygon fill="none" stroke="#E62790" stroke-miterlimit="10" points="277.453,322.79 279.863,339.943 295.926,346.434 
		293.514,329.279 	"/>
	<polygon fill="none" stroke="#E62790" stroke-miterlimit="10" points="320.812,307.954 323.222,325.104 309.575,335.77 
		307.165,318.617 	"/>
	<polygon fill="none" stroke="#E62790" stroke-miterlimit="10" points="355.347,338.084 339.285,331.596 325.634,342.258 
		341.693,348.746 	"/>
	<polygon fill="none" stroke="#E62790" stroke-miterlimit="10" points="165.828,67.363 149.77,60.875 147.359,43.722 163.42,50.212 
			"/>
	<polygon fill="none" stroke="#E62790" stroke-miterlimit="10" points="122.469,82.202 136.118,71.537 133.707,54.385 
		120.057,65.048 	"/>
	<polygon fill="none" stroke="#E62790" stroke-miterlimit="10" points="226.062,172.595 210.003,166.106 207.594,148.954 
		223.654,155.443 	"/>
	<polygon fill="none" stroke="#E62790" stroke-miterlimit="10" points="182.703,187.434 196.353,176.77 193.941,159.617 
		180.29,170.279 	"/>
	<polygon fill="none" stroke="#E62790" stroke-miterlimit="10" points="148.172,157.303 164.232,163.792 177.883,153.129 
		161.82,146.639 	"/>
	<polygon fill="none" stroke="#E62790" stroke-miterlimit="10" points="156.999,112.332 159.41,129.486 175.473,135.977 
		173.059,118.822 	"/>
	<polygon fill="none" stroke="#E62790" stroke-miterlimit="10" points="200.36,97.496 202.768,114.646 189.122,125.312 
		186.711,108.16 	"/>
	<polygon fill="none" stroke="#E62790" stroke-miterlimit="10" points="234.893,127.627 218.832,121.137 205.18,131.8 
		221.24,138.288 	"/>
	<polygon fill="none" stroke="#E62790" stroke-miterlimit="10" points="104.806,172.139 88.746,165.65 86.336,148.499 
		102.396,154.988 	"/>
	<polygon fill="none" stroke="#E62790" stroke-miterlimit="10" points="61.444,186.979 75.096,176.312 72.684,159.16 
		59.033,169.823 	"/>
	<polygon fill="none" stroke="#E62790" stroke-miterlimit="10" points="26.914,156.847 42.975,163.336 56.625,152.673 
		40.562,146.184 	"/>
	<polygon fill="none" stroke="#E62790" stroke-miterlimit="10" points="35.742,111.877 38.152,129.031 54.215,135.521 
		51.802,118.365 	"/>
	<polygon fill="none" stroke="#E62790" stroke-miterlimit="10" points="79.103,97.04 81.511,114.19 67.864,124.855 65.454,107.703 	
		"/>
	<polygon fill="none" stroke="#E62790" stroke-miterlimit="10" points="113.636,127.17 97.574,120.681 83.923,131.344 
		99.982,137.832 	"/>
	<polygon fill="none" stroke="#E62790" stroke-miterlimit="10" points="165.048,277.373 148.988,270.885 146.579,253.73 
		162.64,260.223 	"/>
	<polygon fill="none" stroke="#E62790" stroke-miterlimit="10" points="121.688,292.211 135.338,281.547 132.927,264.395 
		119.276,275.059 	"/>
	<polygon fill="none" stroke="#E62790" stroke-miterlimit="10" points="87.157,262.08 103.218,268.568 116.868,257.906 
		100.806,251.417 	"/>
	<polygon fill="none" stroke="#E62790" stroke-miterlimit="10" points="95.984,217.109 98.396,234.264 114.458,240.754 
		112.045,223.6 	"/>
	<polygon fill="none" stroke="#E62790" stroke-miterlimit="10" points="139.346,202.273 141.753,219.425 128.107,230.09 
		125.696,212.938 	"/>
	<polygon fill="none" stroke="#E62790" stroke-miterlimit="10" points="173.879,232.404 157.816,225.915 144.166,236.577 
		160.226,243.066 	"/>
	<polygon fill="none" stroke="#E62790" stroke-miterlimit="10" points="286.298,277.826 270.238,271.338 267.828,254.186 
		283.889,260.676 	"/>
	<polygon fill="none" stroke="#E62790" stroke-miterlimit="10" points="242.938,292.665 256.588,282.001 254.176,264.85 
		240.525,275.512 	"/>
	<polygon fill="none" stroke="#E62790" stroke-miterlimit="10" points="208.406,262.535 224.468,269.023 238.117,258.359 
		222.055,251.871 	"/>
	<polygon fill="none" stroke="#E62790" stroke-miterlimit="10" points="217.234,217.564 219.645,234.719 235.708,241.208 
		233.294,224.055 	"/>
	<polygon fill="none" stroke="#E62790" stroke-miterlimit="10" points="260.596,202.729 263.003,219.879 249.355,230.543 
		246.945,213.391 	"/>
	<polygon fill="none" stroke="#E62790" stroke-miterlimit="10" points="295.128,232.857 279.066,226.369 265.415,237.031 
		281.475,243.521 	"/>
	<polygon fill="none" stroke="#E62790" stroke-miterlimit="10" points="347.312,173.048 331.253,166.56 328.844,149.407 
		344.904,155.896 	"/>
	<polygon fill="none" stroke="#E62790" stroke-miterlimit="10" points="303.952,187.887 317.603,177.223 315.191,160.07 
		301.541,170.732 	"/>
	<polygon fill="none" stroke="#E62790" stroke-miterlimit="10" points="269.422,157.756 285.482,164.245 299.133,153.582 
		283.07,147.092 	"/>
	<polygon fill="none" stroke="#E62790" stroke-miterlimit="10" points="278.25,112.785 280.66,129.939 296.723,136.43 
		294.311,119.275 	"/>
	<polygon fill="none" stroke="#E62790" stroke-miterlimit="10" points="321.609,97.949 324.018,115.1 310.372,125.765 
		307.961,108.613 	"/>
	<polygon fill="none" stroke="#E62790" stroke-miterlimit="10" points="356.143,128.08 340.081,121.59 326.43,132.253 
		342.49,138.741 	"/>
	<polygon fill="none" stroke="#E62790" stroke-miterlimit="10" points="287.079,67.816 271.02,61.328 268.609,44.175 284.67,50.665 
			"/>
	<polygon fill="none" stroke="#E62790" stroke-miterlimit="10" points="243.719,82.655 257.368,71.99 254.957,54.838 
		241.307,65.501 	"/>
	<polygon fill="none" stroke="#E62790" stroke-miterlimit="10" points="209.188,52.524 225.248,59.013 238.898,48.351 
		222.836,41.86 	"/>
	<polygon fill="none" stroke="#E62790" stroke-miterlimit="10" points="218.016,7.554 220.426,24.708 236.488,31.197 
		234.075,14.043 	"/>
	<polygon fill="none" stroke="#E62790" stroke-miterlimit="10" points="295.909,22.848 279.848,16.358 266.195,27.021 
		282.256,33.51 	"/>
	<polygon fill="none" stroke="#E62790" stroke-miterlimit="10" points="104.016,382.146 87.956,375.658 85.547,358.506 
		101.607,364.996 	"/>
	<polygon fill="none" stroke="#E62790" stroke-miterlimit="10" points="60.656,396.984 74.306,386.32 71.895,369.168 
		58.244,379.831 	"/>
	<polygon fill="none" stroke="#E62790" stroke-miterlimit="10" points="26.125,366.854 42.186,373.344 55.836,362.682 
		39.773,356.191 	"/>
	<polygon fill="none" stroke="#E62790" stroke-miterlimit="10" points="34.953,321.885 37.363,339.038 53.426,345.527 
		51.013,328.373 	"/>
	<polygon fill="none" stroke="#E62790" stroke-miterlimit="10" points="78.313,307.048 80.721,324.198 67.075,334.863 
		64.665,317.711 	"/>
	<polygon fill="none" stroke="#E62790" stroke-miterlimit="10" points="112.847,337.178 96.785,330.688 83.134,341.352 
		99.193,347.84 	"/>
	<polygon fill="none" stroke="#E62790" stroke-miterlimit="10" points="43.782,276.916 27.722,270.427 25.312,253.273 
		41.373,259.764 	"/>
	<polygon fill="none" stroke="#E62790" stroke-miterlimit="10" points="52.612,231.947 36.551,225.457 22.899,236.12 
		38.959,242.607 	"/>
	<polygon fill="none" stroke="#E62790" stroke-miterlimit="10" points="328.874,472.995 344.935,479.483 358.585,468.82 
		342.522,462.331 	"/>
	<polygon fill="none" stroke="#E62790" stroke-miterlimit="10" points="337.702,428.023 340.112,445.178 356.175,451.667 
		353.762,434.514 	"/>
	<polygon fill="none" stroke="#E62790" stroke-miterlimit="10" points="381.062,413.188 383.471,430.339 369.824,441.003 
		367.414,423.852 	"/>
	<polygon fill="none" stroke="#E62790" stroke-miterlimit="10" points="138.572,412.284 140.979,429.435 127.334,440.1 
		124.923,422.947 	"/>
	<polygon fill="none" stroke="#E62790" stroke-miterlimit="10" points="173.105,442.415 157.044,435.925 143.391,446.587 
		159.452,453.077 	"/>
	<polygon fill="none" stroke="#E62790" stroke-miterlimit="10" points="285.525,487.835 269.466,481.348 267.057,464.194 
		283.116,470.685 	"/>
	<polygon fill="none" stroke="#E62790" stroke-miterlimit="10" points="242.165,502.675 255.814,492.01 253.402,474.857 
		239.753,485.521 	"/>
	<polygon fill="none" stroke="#E62790" stroke-miterlimit="10" points="207.634,472.544 223.694,479.032 237.345,468.37 
		221.282,461.88 	"/>
	<polygon fill="none" stroke="#E62790" stroke-miterlimit="10" points="216.462,427.573 218.872,444.728 234.935,451.217 
		232.521,434.062 	"/>
	<polygon fill="none" stroke="#E62790" stroke-miterlimit="10" points="259.822,412.737 262.229,429.888 248.585,440.553 
		246.175,423.4 	"/>
	<polygon fill="none" stroke="#E62790" stroke-miterlimit="10" points="294.355,442.868 278.294,436.378 264.643,447.04 
		280.702,453.529 	"/>
	<polygon fill="none" stroke="#E62790" stroke-miterlimit="10" points="468.564,173.502 452.505,167.014 450.096,149.861 
		466.156,156.35 	"/>
	<polygon fill="none" stroke="#E62790" stroke-miterlimit="10" points="467.768,383.506 451.708,377.018 449.299,359.865 
		465.359,366.354 	"/>
	<polygon fill="none" stroke="#E62790" stroke-miterlimit="10" points="476.6,338.537 460.538,332.049 446.887,342.711 
		462.946,349.199 	"/>
	<polygon fill="none" stroke="#E62790" stroke-miterlimit="10" points="477.396,128.534 461.335,122.046 447.684,132.708 
		463.743,139.196 	"/>
</g>
<g id="Layer_3">
	<polygon fill="none" stroke="#824E9F" stroke-miterlimit="10" points="381.031,89.598 394.681,78.932 426.801,91.912 
		413.15,102.575 	"/>
	<polygon fill="none" stroke="#824E9F" stroke-miterlimit="10" points="413.958,216.154 397.898,209.669 393.077,175.363 
		409.137,181.852 	"/>
	<polygon fill="none" stroke="#824E9F" stroke-miterlimit="10" points="358.548,145.232 360.959,162.384 388.256,141.057 
		385.848,123.903 	"/>
	<polygon fill="none" stroke="#824E9F" stroke-miterlimit="10" points="418.782,250.464 421.193,267.615 448.49,246.288 
		446.082,229.135 	"/>
	<polygon fill="none" stroke="#824E9F" stroke-miterlimit="10" points="412.36,312.582 426.01,301.919 393.891,288.939 
		380.239,299.604 	"/>
	<polygon fill="none" stroke="#824E9F" stroke-miterlimit="10" points="320.009,194.373 333.657,183.709 365.777,196.687 
		352.128,207.352 	"/>
	<polygon fill="none" stroke="#824E9F" stroke-miterlimit="10" points="352.935,320.932 336.875,314.443 332.054,280.139 
		348.113,286.627 	"/>
	<polygon fill="none" stroke="#824E9F" stroke-miterlimit="10" points="297.525,250.008 299.936,267.159 327.232,245.832 
		324.825,228.68 	"/>
	<polygon fill="none" stroke="#824E9F" stroke-miterlimit="10" points="413.178,426.165 397.117,419.679 392.297,385.372 
		408.356,391.861 	"/>
	<polygon fill="none" stroke="#824E9F" stroke-miterlimit="10" points="357.768,355.242 360.178,372.395 387.476,351.066 
		385.068,333.912 	"/>
	<polygon fill="none" stroke="#824E9F" stroke-miterlimit="10" points="353.714,110.921 337.654,104.435 332.833,70.128 
		348.893,76.617 	"/>
	<polygon fill="none" stroke="#824E9F" stroke-miterlimit="10" points="298.305,39.998 300.715,57.15 328.013,35.822 
		325.604,18.669 	"/>
	<polygon fill="none" stroke="#824E9F" stroke-miterlimit="10" points="263.805,333.456 266.216,350.607 238.915,371.938 
		236.506,354.783 	"/>
	<polygon fill="none" stroke="#824E9F" stroke-miterlimit="10" points="230.087,416.905 243.736,406.241 211.617,393.264 
		197.966,403.927 	"/>
	<polygon fill="none" stroke="#824E9F" stroke-miterlimit="10" points="137.735,298.695 151.384,288.031 183.504,301.01 
		169.854,311.674 	"/>
	<polygon fill="none" stroke="#824E9F" stroke-miterlimit="10" points="226.863,286.171 210.803,279.684 215.623,313.986 
		231.686,320.479 	"/>
	<polygon fill="none" stroke="#824E9F" stroke-miterlimit="10" points="170.661,425.254 154.602,418.768 149.78,384.462 
		165.84,390.95 	"/>
	<polygon fill="none" stroke="#824E9F" stroke-miterlimit="10" points="115.251,354.331 117.662,371.482 144.959,350.156 
		142.552,333.002 	"/>
	<polygon fill="none" stroke="#824E9F" stroke-miterlimit="10" points="287.098,391.402 271.037,384.914 275.857,419.218 
		291.918,425.711 	"/>
	<polygon fill="none" stroke="#824E9F" stroke-miterlimit="10" points="76.712,403.473 90.36,392.809 122.48,405.785 
		108.831,416.449 	"/>
	<polygon fill="none" stroke="#824E9F" stroke-miterlimit="10" points="319.22,404.381 332.867,393.717 364.988,406.694 
		351.339,417.357 	"/>
	<polygon fill="none" stroke="#824E9F" stroke-miterlimit="10" points="258.984,299.148 272.634,288.484 304.755,301.463 
		291.104,312.126 	"/>
	<polygon fill="none" stroke="#824E9F" stroke-miterlimit="10" points="204.367,18.22 206.778,35.372 179.478,56.7 177.068,39.547 	
		"/>
	<polygon fill="none" stroke="#824E9F" stroke-miterlimit="10" points="170.649,101.669 184.299,91.005 152.18,78.027 
		138.528,88.69 	"/>
	<polygon fill="none" stroke="#824E9F" stroke-miterlimit="10" points="111.224,110.018 95.164,103.531 90.343,69.226 
		106.402,75.714 	"/>
	<polygon fill="none" stroke="#824E9F" stroke-miterlimit="10" points="264.602,123.451 267.012,140.604 239.712,161.932 
		237.303,144.779 	"/>
	<polygon fill="none" stroke="#824E9F" stroke-miterlimit="10" points="230.883,206.9 244.533,196.236 212.414,183.259 
		198.763,193.922 	"/>
	<polygon fill="none" stroke="#824E9F" stroke-miterlimit="10" points="227.659,76.167 211.6,69.678 216.42,103.981 232.48,110.474 
			"/>
	<polygon fill="none" stroke="#824E9F" stroke-miterlimit="10" points="171.458,215.25 155.398,208.764 150.577,174.457 
		166.637,180.945 	"/>
	<polygon fill="none" stroke="#824E9F" stroke-miterlimit="10" points="116.048,144.326 118.459,161.479 145.756,140.15 
		143.348,122.997 	"/>
	<polygon fill="none" stroke="#824E9F" stroke-miterlimit="10" points="109.626,206.443 123.275,195.781 91.156,182.803 
		77.505,193.467 	"/>
	<polygon fill="none" stroke="#824E9F" stroke-miterlimit="10" points="50.2,214.793 34.141,208.307 29.319,174 45.379,180.489 	"/>
	<polygon fill="none" stroke="#824E9F" stroke-miterlimit="10" points="203.586,228.229 205.998,245.381 178.697,266.709 
		176.287,249.557 	"/>
	<polygon fill="none" stroke="#824E9F" stroke-miterlimit="10" points="110.443,320.027 94.384,313.541 89.562,279.234 
		105.622,285.723 	"/>
	<polygon fill="none" stroke="#824E9F" stroke-miterlimit="10" points="55.033,249.104 57.443,266.256 84.741,244.93 
		82.334,227.775 	"/>
	<polygon fill="none" stroke="#824E9F" stroke-miterlimit="10" points="287.895,181.398 271.834,174.91 276.654,209.214 
		292.716,215.705 	"/>
	<polygon fill="none" stroke="#824E9F" stroke-miterlimit="10" points="259.782,89.144 273.432,78.48 305.551,91.457 291.9,102.121 
			"/>
	<polygon fill="none" stroke="#824E9F" stroke-miterlimit="10" points="16.485,298.243 30.134,287.579 62.254,300.557 
		48.604,311.221 	"/>
	<polygon fill="none" stroke="#824E9F" stroke-miterlimit="10" points="296.751,460.018 299.161,477.169 326.459,455.842 
		324.05,438.688 	"/>
	<polygon fill="none" stroke="#824E9F" stroke-miterlimit="10" points="202.813,438.239 205.224,455.392 177.924,476.72 
		175.514,459.566 	"/>
</g>
<g id="Layer_2">
	<polyline fill="none" stroke="#FFB806" stroke-miterlimit="10" points="292.716,215.705 282.811,217.094 266.748,210.612 
		260.596,202.729 266.747,210.604 269.161,227.759 269.162,227.761 282.811,217.094 282.811,217.1 266.748,210.612 269.162,227.761 
		265.416,237.033 	"/>
	<polyline fill="none" stroke="#FFB806" stroke-miterlimit="10" points="235.704,241.207 225.799,242.595 209.736,236.114 
		203.584,228.23 209.735,236.106 212.149,253.26 212.15,253.262 225.799,242.595 225.799,242.601 209.736,236.114 212.15,253.262 
		208.404,262.535 	"/>
	<polyline fill="none" stroke="#FFB806" stroke-miterlimit="10" points="286.296,277.826 276.391,279.215 260.328,272.732 
		254.176,264.85 260.327,272.725 262.741,289.879 262.742,289.881 276.391,279.215 276.391,279.221 260.328,272.732 
		262.742,289.881 258.996,299.154 	"/>
	<polyline fill="none" stroke="#FFB806" stroke-miterlimit="10" points="238.116,258.361 234.366,267.635 220.722,278.304 
		210.818,279.69 220.714,278.301 236.776,284.787 236.779,284.787 234.366,267.635 234.372,267.637 220.722,278.304 
		236.779,284.787 242.937,292.668 	"/>
	<polyline fill="none" stroke="#FFB806" stroke-miterlimit="10" points="295.123,232.856 291.373,242.13 277.729,252.799 
		267.825,254.186 277.721,252.796 293.783,259.282 293.786,259.282 291.373,242.13 291.379,242.132 277.729,252.799 
		293.786,259.282 299.943,267.163 	"/>
	<polyline fill="none" stroke="#FFB806" stroke-miterlimit="10" points="244.535,196.236 240.785,205.51 227.14,216.179 
		217.237,217.565 227.132,216.176 243.195,222.662 243.198,222.662 240.785,205.51 240.791,205.512 227.14,216.179 243.198,222.662 
		249.355,230.543 	"/>
	<polyline fill="none" stroke="#FFB806" stroke-miterlimit="10" points="222.056,251.871 241.863,249.088 245.61,239.814 
		233.295,224.054 245.61,239.813 255.513,238.421 263.003,219.879 255.512,238.421 261.669,246.303 281.477,243.52 261.672,246.302 
		257.926,255.573 270.238,271.339 257.926,255.573 257.927,255.574 248.022,256.966 248.021,256.969 240.526,275.513 
		248.021,256.969 241.864,249.089 	"/>
	<polyline fill="none" stroke="#FFB806" stroke-miterlimit="10" points="317.603,177.223 313.859,186.489 320.009,194.373 
		316.268,203.646 300.206,197.16 313.859,186.489 316.268,203.646 322.426,211.529 306.365,205.04 300.206,197.159 303.952,187.887 
		287.887,181.398 300.206,197.159 292.716,215.705 	"/>
	<polyline fill="none" stroke="#FFB806" stroke-miterlimit="10" points="279.066,226.369 288.962,224.979 292.716,215.71 
		302.616,214.313 305.03,231.466 288.962,224.979 302.616,214.313 306.364,205.039 308.774,222.192 305.03,231.467 295.127,232.858 
		297.54,250.017 305.03,231.467 324.836,228.681 	"/>
	<polyline fill="none" stroke="#FFB806" stroke-miterlimit="10" points="256.59,282.004 252.847,291.27 258.996,299.154 
		255.255,308.427 239.193,301.941 252.847,291.27 255.255,308.427 261.413,316.311 245.353,309.821 239.193,301.94 242.939,292.668 
		226.874,286.18 239.193,301.94 231.703,320.486 	"/>
	<polyline fill="none" stroke="#FFB806" stroke-miterlimit="10" points="157.814,225.919 167.71,224.528 171.464,215.26 
		181.364,213.863 183.778,231.016 167.71,224.528 181.364,213.863 185.112,204.589 187.522,221.742 183.778,231.017 
		173.875,232.408 176.288,249.566 183.778,231.017 203.584,228.23 	"/>
	<polyline fill="none" stroke="#FFB806" stroke-miterlimit="10" points="279.863,339.943 273.711,332.069 263.807,333.453 
		257.647,325.577 271.295,314.91 273.711,332.069 257.647,325.577 247.742,326.969 261.392,316.305 271.295,314.91 277.453,322.791 
		291.105,312.121 271.295,314.91 258.98,299.15 	"/>
	<polyline fill="none" stroke="#FFB806" stroke-miterlimit="10" points="219.645,234.719 213.493,226.845 203.588,228.229 
		197.429,220.353 211.077,209.686 213.493,226.845 197.429,220.353 187.524,221.744 201.173,211.08 211.077,209.686 
		217.235,217.566 230.887,206.896 211.077,209.686 198.762,193.926 	"/>
	<polyline fill="none" stroke="#FFB806" stroke-miterlimit="10" points="242.122,179.085 248.274,186.96 244.537,196.234 
		250.69,204.115 264.341,193.453 248.274,186.96 250.69,204.115 246.944,213.391 260.593,202.726 264.341,193.452 258.184,185.572 
		271.837,174.905 264.341,193.452 276.654,209.214 	"/>
	<polyline fill="none" stroke="#FFB806" stroke-miterlimit="10" points="181.091,283.857 187.243,291.732 183.506,301.007 
		189.659,308.888 203.31,298.226 187.243,291.732 189.659,308.888 185.913,318.163 199.562,307.498 203.31,298.225 197.152,290.345 
		210.806,279.678 203.31,298.225 215.623,313.986 	"/>
	<polyline fill="none" stroke="#FFB806" stroke-miterlimit="10" points="197.164,290.354 200.908,281.088 210.808,279.688 
		214.557,270.418 198.498,263.928 200.908,281.088 214.557,270.418 224.462,269.025 208.402,262.537 198.497,263.928 194.751,273.2 
		178.687,266.71 198.497,263.928 205.99,245.383 	"/>
	<polyline fill="none" stroke="#FFB806" stroke-miterlimit="10" points="318.406,290.803 322.15,281.537 332.051,280.137 
		335.799,270.867 319.74,264.377 322.15,281.537 335.799,270.867 345.705,269.475 329.645,262.986 319.738,264.377 315.993,273.649 
		299.929,267.159 319.738,264.377 327.232,245.832 	"/>
	<polyline fill="none" stroke="#FFB806" stroke-miterlimit="10" points="258.184,185.573 261.928,176.308 271.828,174.907 
		275.576,165.638 259.518,159.147 261.928,176.308 275.576,165.638 285.482,164.245 269.422,157.757 259.516,159.147 
		255.771,168.42 239.706,161.93 259.516,159.147 267.01,140.603 	"/>
	<polyline fill="none" stroke="#FFB806" stroke-miterlimit="10" points="255.771,168.42 245.874,169.811 239.712,161.937 
		229.81,163.325 232.218,180.478 245.874,169.811 229.81,163.325 223.651,155.442 226.062,172.596 232.22,180.479 242.122,179.087 
		244.534,196.243 232.22,180.479 212.412,183.262 	"/>
	<polyline fill="none" stroke="#FFB806" stroke-miterlimit="10" points="315.993,273.649 306.097,275.04 299.935,267.166 
		290.032,268.555 292.44,285.707 306.097,275.04 290.032,268.555 283.874,260.672 286.284,277.825 292.442,285.709 302.345,284.316 
		304.757,301.473 292.442,285.709 272.635,288.491 	"/>
	<polyline fill="none" stroke="#FFB806" stroke-miterlimit="10" points="194.751,273.2 184.854,274.591 178.692,266.717 
		168.79,268.105 171.198,285.258 184.854,274.591 168.79,268.105 162.632,260.223 165.042,277.376 171.2,285.26 181.103,283.867 
		183.515,301.023 171.2,285.26 151.393,288.042 	"/>
	<polyline fill="none" stroke="#FFB806" stroke-miterlimit="10" points="196.35,176.774 192.607,186.04 198.756,193.924 
		195.015,203.197 178.954,196.711 192.607,186.04 195.015,203.197 201.173,211.08 185.113,204.591 178.954,196.71 182.7,187.438 
		166.634,180.949 178.954,196.71 171.463,215.256 	"/>
	<polyline fill="none" stroke="#FFB806" stroke-miterlimit="10" points="302.345,284.316 308.497,292.191 304.76,301.466 
		310.913,309.347 324.563,298.685 308.497,292.191 310.913,309.347 307.167,318.622 320.815,307.957 324.563,298.684 
		318.406,290.804 332.06,280.137 324.563,298.684 336.877,314.445 	"/>
	<polyline fill="none" stroke="#FFB806" stroke-miterlimit="10" points="218.055,331.151 227.95,329.761 231.704,320.492 
		241.604,319.096 244.019,336.248 227.95,329.761 241.604,319.096 245.353,309.821 247.763,326.975 244.019,336.249 
		234.115,337.641 236.528,354.799 244.019,336.249 263.824,333.463 	"/>
	<polyline fill="none" stroke="#FFB806" stroke-miterlimit="10" points="340.887,235.169 334.734,227.295 324.83,228.679 
		318.672,220.803 332.318,210.136 334.734,227.295 318.672,220.803 308.766,222.194 322.416,211.53 332.318,210.136 
		338.477,218.017 352.129,207.347 332.318,210.136 320.004,194.376 	"/>
	<polyline fill="none" stroke="#FFB806" stroke-miterlimit="10" points="111.224,110.016 101.319,111.405 85.256,104.923 
		79.104,97.04 85.255,104.916 87.669,122.07 87.67,122.072 101.319,111.405 101.319,111.411 85.256,104.923 87.67,122.072 
		83.924,131.344 	"/>
	<polyline fill="none" stroke="#FFB806" stroke-miterlimit="10" points="54.212,135.518 44.307,136.906 28.245,130.425 
		22.092,122.542 28.244,130.417 30.658,147.571 30.659,147.573 44.307,136.906 44.307,136.912 28.245,130.425 30.659,147.573 
		26.913,156.846 	"/>
	<polyline fill="none" stroke="#FFB806" stroke-miterlimit="10" points="104.804,172.137 94.899,173.526 78.836,167.043 
		72.684,159.161 78.835,167.036 81.25,184.19 81.25,184.192 94.899,173.526 94.899,173.532 78.836,167.043 81.25,184.192 
		77.504,193.465 	"/>
	<polyline fill="none" stroke="#FFB806" stroke-miterlimit="10" points="56.625,152.672 52.875,161.946 39.23,172.615 
		29.327,174.001 39.222,172.612 55.285,179.098 55.288,179.098 52.875,161.946 52.88,161.948 39.23,172.615 55.288,179.098 
		61.445,186.979 	"/>
	<polyline fill="none" stroke="#FFB806" stroke-miterlimit="10" points="113.631,127.167 109.881,136.441 96.237,147.11 
		86.333,148.497 96.229,147.107 112.292,153.593 112.294,153.593 109.881,136.441 109.887,136.443 96.237,147.11 112.294,153.593 
		118.452,161.474 	"/>
	<polyline fill="none" stroke="#FFB806" stroke-miterlimit="10" points="63.043,90.547 59.293,99.821 45.648,110.49 35.745,111.876 
		45.641,110.487 61.703,116.973 61.706,116.973 59.293,99.821 59.299,99.823 45.648,110.49 61.706,116.973 67.863,124.854 	"/>
	<polyline fill="none" stroke="#FFB806" stroke-miterlimit="10" points="40.564,146.182 60.372,143.399 64.118,134.125 
		51.803,118.365 64.119,134.125 74.021,132.732 81.511,114.19 74.02,132.732 80.177,140.614 99.985,137.831 80.18,140.613 
		76.434,149.884 88.747,165.65 76.434,149.884 76.435,149.885 66.531,151.277 66.529,151.28 59.034,169.824 66.529,151.28 
		60.373,143.4 	"/>
	<polyline fill="none" stroke="#FFB806" stroke-miterlimit="10" points="136.111,71.534 132.368,80.8 138.517,88.684 
		134.776,97.957 118.714,91.471 132.368,80.8 134.776,97.957 140.934,105.84 124.874,99.351 118.714,91.47 122.46,82.198 
		106.395,75.709 118.714,91.47 111.224,110.016 	"/>
	<polyline fill="none" stroke="#FFB806" stroke-miterlimit="10" points="97.575,120.68 107.47,119.29 111.224,110.021 
		121.125,108.625 123.539,125.777 107.47,119.29 121.125,108.625 124.873,99.35 127.283,116.503 123.539,125.778 113.635,127.169 
		116.048,144.328 123.539,125.778 143.344,122.992 	"/>
	<polyline fill="none" stroke="#FFB806" stroke-miterlimit="10" points="75.098,176.315 71.355,185.581 77.504,193.465 
		73.763,202.738 57.702,196.252 71.355,185.581 73.763,202.738 79.921,210.622 63.861,204.132 57.702,196.251 61.448,186.979 
		45.382,180.491 57.702,196.251 50.211,214.798 	"/>
	<polyline fill="none" stroke="#FFB806" stroke-miterlimit="10" points="98.372,234.255 92.219,226.38 82.315,227.765 
		76.156,219.888 89.803,209.222 92.219,226.38 76.156,219.888 66.25,221.28 79.9,210.616 89.803,209.222 95.961,217.103 
		109.614,206.432 89.803,209.222 77.489,193.461 	"/>
	<polyline fill="none" stroke="#FFB806" stroke-miterlimit="10" points="60.63,73.396 66.783,81.271 63.045,90.545 69.199,98.426 
		82.849,87.764 66.783,81.271 69.199,98.426 65.453,107.702 79.101,97.037 82.849,87.763 76.692,79.883 90.345,69.216 
		82.849,87.763 95.163,103.525 	"/>
	<polyline fill="none" stroke="#FFB806" stroke-miterlimit="10" points="136.915,185.114 140.659,175.848 150.559,174.448 
		154.307,165.178 138.249,158.688 140.659,175.848 154.307,165.178 164.213,163.786 148.153,157.297 138.247,158.688 
		134.501,167.96 118.437,161.47 138.247,158.688 145.741,140.143 	"/>
	<polyline fill="none" stroke="#FFB806" stroke-miterlimit="10" points="134.501,167.96 124.605,169.351 118.443,161.477 
		108.541,162.866 110.949,180.018 124.605,169.351 108.541,162.866 102.382,154.983 104.792,172.136 110.951,180.02 
		120.853,178.627 123.265,195.784 110.951,180.02 91.143,182.802 	"/>
	<polyline fill="none" stroke="#FFB806" stroke-miterlimit="10" points="120.853,178.627 127.005,186.502 123.268,195.777 
		129.421,203.658 143.072,192.996 127.005,186.502 129.421,203.658 125.675,212.933 139.324,202.268 143.072,192.995 
		136.915,185.115 150.568,174.448 143.072,192.995 155.385,208.757 	"/>
	<polyline fill="none" stroke="#FFB806" stroke-miterlimit="10" points="36.563,225.462 46.458,224.071 50.212,214.804 
		60.113,213.407 62.527,230.56 46.458,224.071 60.113,213.407 63.861,204.132 66.271,221.286 62.527,230.56 52.624,231.952 
		55.037,249.11 62.527,230.56 82.333,227.774 	"/>
	<polyline fill="none" stroke="#FFB806" stroke-miterlimit="10" points="159.395,129.48 153.243,121.606 143.338,122.99 
		137.18,115.114 150.827,104.447 153.243,121.606 137.18,115.114 127.274,116.505 140.924,105.841 150.827,104.447 156.985,112.328 
		170.637,101.658 150.827,104.447 138.512,88.687 	"/>
	<polyline fill="none" stroke="#FFB806" stroke-miterlimit="10" points="236.484,31.196 226.579,32.584 210.517,26.103 
		204.364,18.22 210.516,26.095 212.93,43.249 212.931,43.251 226.579,32.584 226.579,32.59 210.517,26.103 212.931,43.251 
		209.185,52.524 	"/>
	<polyline fill="none" stroke="#FFB806" stroke-miterlimit="10" points="287.076,67.815 277.171,69.204 261.108,62.722 
		254.956,54.839 261.107,62.714 263.521,79.868 263.522,79.87 277.171,69.204 277.171,69.21 261.108,62.722 263.522,79.87 
		259.776,89.144 	"/>
	<polyline fill="none" stroke="#FFB806" stroke-miterlimit="10" points="238.896,48.351 235.146,57.624 221.502,68.293 
		211.599,69.68 221.494,68.29 237.557,74.776 237.56,74.776 235.146,57.624 235.152,57.626 221.502,68.293 237.56,74.776 
		243.717,82.657 	"/>
	<polyline fill="none" stroke="#FFB806" stroke-miterlimit="10" points="295.903,22.846 292.153,32.119 278.509,42.788 
		268.605,44.175 278.501,42.785 294.563,49.271 294.566,49.271 292.153,32.119 292.159,32.121 278.509,42.788 294.566,49.271 
		300.724,57.152 	"/>
	<polyline fill="none" stroke="#FFB806" stroke-miterlimit="10" points="222.836,41.86 242.644,39.077 246.39,29.804 
		234.075,14.043 246.391,29.803 256.293,28.41 263.783,9.868 256.292,28.41 262.449,36.292 282.257,33.509 262.452,36.291 
		258.706,45.562 271.019,61.328 258.706,45.562 258.707,45.563 248.803,46.955 248.801,46.958 241.306,65.502 248.801,46.958 
		242.645,39.078 	"/>
	<polyline fill="none" stroke="#FFB806" stroke-miterlimit="10" points="257.37,71.993 253.627,81.259 259.776,89.144 
		256.035,98.416 239.974,91.931 253.627,81.259 256.035,98.416 262.193,106.3 246.133,99.811 239.974,91.93 243.72,82.657 
		227.654,76.169 239.974,91.93 232.483,110.476 	"/>
	<polyline fill="none" stroke="#FFB806" stroke-miterlimit="10" points="280.644,129.933 274.491,122.059 264.587,123.442 
		258.428,115.566 272.075,104.899 274.491,122.059 258.428,115.566 248.522,116.958 262.172,106.294 272.075,104.899 
		278.233,112.78 291.886,102.11 272.075,104.899 259.761,89.14 	"/>
	<polyline fill="none" stroke="#FFB806" stroke-miterlimit="10" points="181.871,73.847 188.023,81.722 184.286,90.996 
		190.439,98.877 204.09,88.215 188.023,81.722 190.439,98.877 186.693,108.152 200.342,97.487 204.09,88.214 197.933,80.334 
		211.586,69.667 204.09,88.214 216.403,103.976 	"/>
	<polyline fill="none" stroke="#FFB806" stroke-miterlimit="10" points="197.944,80.343 201.688,71.077 211.588,69.677 
		215.337,60.407 199.278,53.917 201.688,71.077 215.337,60.407 225.243,59.015 209.182,52.526 199.277,53.917 195.531,63.189 
		179.467,56.699 199.277,53.917 206.771,35.372 	"/>
	<polyline fill="none" stroke="#FFB806" stroke-miterlimit="10" points="319.187,80.792 322.931,71.526 332.831,70.126 
		336.579,60.856 320.521,54.366 322.931,71.526 336.579,60.856 346.485,59.464 330.425,52.976 320.519,54.366 316.773,63.639 
		300.709,57.148 320.519,54.366 328.013,35.821 	"/>
	<polyline fill="none" stroke="#FFB806" stroke-miterlimit="10" points="316.773,63.639 306.877,65.029 300.715,57.155 
		290.812,58.544 293.221,75.696 306.877,65.029 290.812,58.544 284.654,50.661 287.064,67.814 293.223,75.698 303.125,74.306 
		305.537,91.462 293.223,75.698 273.415,78.48 	"/>
	<polyline fill="none" stroke="#FFB806" stroke-miterlimit="10" points="195.531,63.189 185.635,64.58 179.473,56.706 
		169.57,58.095 171.979,75.247 185.635,64.58 169.57,58.095 163.412,50.212 165.822,67.365 171.98,75.249 181.883,73.856 
		184.295,91.013 171.98,75.249 152.173,78.031 	"/>
	<polyline fill="none" stroke="#FFB806" stroke-miterlimit="10" points="303.125,74.306 309.277,82.181 305.54,91.455 
		311.693,99.336 325.344,88.674 309.277,82.181 311.693,99.336 307.947,108.611 321.596,97.946 325.344,88.673 319.187,80.793 
		332.84,70.126 325.344,88.673 337.657,104.435 	"/>
	<polyline fill="none" stroke="#FFB806" stroke-miterlimit="10" points="218.835,121.141 228.73,119.75 232.484,110.481 
		242.385,109.085 244.799,126.237 228.73,119.75 242.385,109.085 246.133,99.811 248.543,116.964 244.799,126.238 234.896,127.63 
		237.309,144.788 244.799,126.238 264.604,123.452 	"/>
	<polyline fill="none" stroke="#FFB806" stroke-miterlimit="10" points="474.98,111.379 465.075,112.768 449.013,106.286 
		442.86,98.403 449.012,106.278 451.426,123.433 451.427,123.435 465.075,112.768 465.075,112.773 449.013,106.286 451.427,123.435 
		447.681,132.707 	"/>
	<polyline fill="none" stroke="#FFB806" stroke-miterlimit="10" points="417.969,136.88 408.063,138.269 392.001,131.788 
		385.849,123.904 392,131.78 394.414,148.934 394.415,148.936 408.063,138.269 408.063,138.275 392.001,131.788 394.415,148.936 
		390.669,158.209 	"/>
	<polyline fill="none" stroke="#FFB806" stroke-miterlimit="10" points="468.561,173.5 458.655,174.889 442.593,168.406 
		436.44,160.523 442.592,168.398 445.006,185.553 445.007,185.555 458.655,174.889 458.655,174.895 442.593,168.406 
		445.007,185.555 441.261,194.828 	"/>
	<polyline fill="none" stroke="#FFB806" stroke-miterlimit="10" points="420.381,154.035 416.631,163.309 402.986,173.978 
		393.083,175.364 402.979,173.975 419.041,180.461 419.044,180.461 416.631,163.309 416.637,163.311 402.986,173.978 
		419.044,180.461 425.201,188.342 	"/>
	<polyline fill="none" stroke="#FFB806" stroke-miterlimit="10" points="426.8,91.91 423.05,101.184 409.405,111.853 
		399.501,113.239 409.397,111.85 425.46,118.336 425.462,118.336 423.05,101.184 423.056,101.186 409.405,111.853 425.462,118.336 
		431.62,126.217 	"/>
	<polyline fill="none" stroke="#FFB806" stroke-miterlimit="10" points="404.321,147.545 424.128,144.762 427.874,135.488 
		415.56,119.728 427.875,135.487 437.777,134.095 445.268,115.553 437.776,134.095 443.934,141.977 463.741,139.194 
		443.937,141.976 440.19,151.247 452.503,167.013 440.19,151.247 440.191,151.248 430.287,152.64 430.285,152.643 422.79,171.187 
		430.285,152.643 424.129,144.763 	"/>
	<polyline fill="none" stroke="#FFB806" stroke-miterlimit="10" points="438.854,177.678 435.111,186.943 441.261,194.828 
		437.52,204.101 421.458,197.615 435.111,186.943 437.52,204.101 443.678,211.984 427.617,205.495 421.458,197.614 425.204,188.342 
		409.139,181.854 421.458,197.614 413.968,216.16 	"/>
	<polyline fill="none" stroke="#FFB806" stroke-miterlimit="10" points="340.079,121.593 349.975,120.202 353.729,110.934 
		363.629,109.537 366.043,126.689 349.975,120.202 363.629,109.537 367.377,100.263 369.787,117.416 366.043,126.69 356.14,128.082 
		358.553,145.24 366.043,126.69 385.849,123.904 	"/>
	<polyline fill="none" stroke="#FFB806" stroke-miterlimit="10" points="462.128,235.617 455.976,227.743 446.071,229.127 
		439.912,221.251 453.56,210.584 455.976,227.743 439.912,221.251 430.007,222.643 443.656,211.979 453.56,210.584 459.718,218.465 
		473.37,207.795 453.56,210.584 441.245,194.824 	"/>
	<polyline fill="none" stroke="#FFB806" stroke-miterlimit="10" points="401.909,130.393 395.757,122.519 385.853,123.902 
		379.694,116.026 393.341,105.359 395.757,122.519 379.694,116.026 369.788,117.418 383.438,106.754 393.341,105.359 
		399.499,113.24 413.151,102.57 393.341,105.359 381.026,89.6 	"/>
	<polyline fill="none" stroke="#FFB806" stroke-miterlimit="10" points="363.355,179.531 369.508,187.406 365.771,196.681 
		371.924,204.562 385.574,193.899 369.508,187.406 371.924,204.562 368.178,213.837 381.826,203.172 385.574,193.898 
		379.417,186.019 393.07,175.352 385.574,193.898 397.888,209.66 	"/>
	<polyline fill="none" stroke="#FFB806" stroke-miterlimit="10" points="379.429,186.027 383.173,176.762 393.073,175.361 
		396.821,166.092 380.763,159.602 383.173,176.762 396.821,166.092 406.728,164.699 390.667,158.211 380.761,159.602 
		377.016,168.874 360.951,162.384 380.761,159.602 388.255,141.057 	"/>
	<polyline fill="none" stroke="#FFB806" stroke-miterlimit="10" points="377.016,168.874 367.119,170.265 360.957,162.391 
		351.055,163.779 353.463,180.932 367.119,170.265 351.055,163.779 344.896,155.896 347.307,173.05 353.465,180.934 
		363.367,179.541 365.779,196.697 353.465,180.934 333.657,183.716 	"/>
	<polyline fill="none" stroke="#FFB806" stroke-miterlimit="10" points="378.614,72.448 374.872,81.714 381.021,89.598 
		377.28,98.871 361.218,92.385 374.872,81.714 377.28,98.871 383.438,106.754 367.378,100.265 361.218,92.384 364.964,83.112 
		348.898,76.623 361.218,92.384 353.728,110.93 	"/>
	<polyline fill="none" stroke="#FFB806" stroke-miterlimit="10" points="400.319,226.825 410.215,225.435 413.969,216.166 
		423.869,214.77 426.283,231.922 410.215,225.435 423.869,214.77 427.617,205.495 430.027,222.648 426.283,231.923 416.38,233.314 
		418.793,250.473 426.283,231.923 446.089,229.137 	"/>
	<polyline fill="none" stroke="#FFB806" stroke-miterlimit="10" points="474.2,321.389 464.295,322.777 448.232,316.296 
		442.08,308.412 448.231,316.288 450.646,333.442 450.646,333.444 464.295,322.777 464.295,322.783 448.232,316.296 
		450.646,333.444 446.9,342.717 	"/>
	<polyline fill="none" stroke="#FFB806" stroke-miterlimit="10" points="417.188,346.891 407.283,348.279 391.221,341.797 
		385.068,333.914 391.22,341.789 393.634,358.943 393.635,358.945 407.283,348.279 407.283,348.285 391.221,341.797 
		393.635,358.945 389.889,368.219 	"/>
	<polyline fill="none" stroke="#FFB806" stroke-miterlimit="10" points="467.78,383.51 457.875,384.898 441.812,378.416 
		435.66,370.533 441.812,378.408 444.226,395.562 444.227,395.564 457.875,384.898 457.875,384.904 441.812,378.416 
		444.227,395.564 440.48,404.838 	"/>
	<polyline fill="none" stroke="#FFB806" stroke-miterlimit="10" points="419.601,364.045 415.851,373.318 402.206,383.987 
		392.303,385.374 402.198,383.984 418.261,390.471 418.264,390.471 415.851,373.318 415.856,373.32 402.206,383.987 
		418.264,390.471 424.421,398.352 	"/>
	<polyline fill="none" stroke="#FFB806" stroke-miterlimit="10" points="426.02,301.92 422.27,311.193 408.625,321.862 
		398.721,323.249 408.617,321.859 424.68,328.346 424.682,328.346 422.27,311.193 422.275,311.195 408.625,321.862 424.682,328.346 
		430.84,336.227 	"/>
	<polyline fill="none" stroke="#FFB806" stroke-miterlimit="10" points="403.541,357.555 423.348,354.771 427.094,345.498 
		414.779,329.738 427.095,345.497 436.997,344.104 444.487,325.562 436.996,344.104 443.153,351.986 462.961,349.203 
		443.156,351.985 439.41,361.257 451.723,377.022 439.41,361.257 439.411,361.258 429.507,362.649 429.505,362.652 422.01,381.196 
		429.505,362.652 423.349,354.772 	"/>
	<polyline fill="none" stroke="#FFB806" stroke-miterlimit="10" points="339.299,331.603 349.194,330.212 352.948,320.943 
		362.849,319.547 365.263,336.699 349.194,330.212 362.849,319.547 366.597,310.272 369.007,327.426 365.263,336.7 355.359,338.092 
		357.772,355.25 365.263,336.7 385.068,333.914 	"/>
	<polyline fill="none" stroke="#FFB806" stroke-miterlimit="10" points="401.129,340.402 394.977,332.528 385.072,333.912 
		378.914,326.036 392.561,315.369 394.977,332.528 378.914,326.036 369.008,327.428 382.658,316.764 392.561,315.369 
		398.719,323.25 412.371,312.58 392.561,315.369 380.246,299.609 	"/>
	<polyline fill="none" stroke="#FFB806" stroke-miterlimit="10" points="423.606,284.769 429.759,292.644 426.021,301.918 
		432.175,309.799 445.825,299.137 429.759,292.644 432.175,309.799 428.429,319.074 442.077,308.409 445.825,299.136 
		439.668,291.256 453.321,280.589 445.825,299.136 458.139,314.897 	"/>
	<polyline fill="none" stroke="#FFB806" stroke-miterlimit="10" points="362.575,389.541 368.728,397.416 364.99,406.69 
		371.144,414.571 384.794,403.909 368.728,397.416 371.144,414.571 367.397,423.847 381.046,413.182 384.794,403.908 
		378.637,396.028 392.29,385.361 384.794,403.908 397.107,419.67 	"/>
	<polyline fill="none" stroke="#FFB806" stroke-miterlimit="10" points="378.648,396.037 382.393,386.771 392.293,385.371 
		396.041,376.102 379.982,369.611 382.393,386.771 396.041,376.102 405.947,374.709 389.887,368.221 379.98,369.611 
		376.235,378.884 360.171,372.394 379.98,369.611 387.475,351.066 	"/>
	<polyline fill="none" stroke="#FFB806" stroke-miterlimit="10" points="439.668,291.257 443.412,281.991 453.312,280.591 
		457.061,271.321 441.002,264.831 443.412,281.991 457.061,271.321 466.967,269.929 450.906,263.44 441,264.831 437.255,274.104 
		421.19,267.613 441,264.831 448.494,246.286 	"/>
	<polyline fill="none" stroke="#FFB806" stroke-miterlimit="10" points="437.255,274.104 427.358,275.494 421.196,267.62 
		411.294,269.009 413.702,286.161 427.358,275.494 411.294,269.009 405.136,261.126 407.546,278.279 413.704,286.163 
		423.606,284.771 426.019,301.927 413.704,286.163 393.896,288.945 	"/>
	<polyline fill="none" stroke="#FFB806" stroke-miterlimit="10" points="376.235,378.884 366.339,380.274 360.177,372.4 
		350.274,373.789 352.683,390.941 366.339,380.274 350.274,373.789 344.116,365.906 346.526,383.06 352.685,390.943 
		362.587,389.551 364.999,406.707 352.685,390.943 332.877,393.726 	"/>
	<polyline fill="none" stroke="#FFB806" stroke-miterlimit="10" points="377.834,282.458 374.092,291.724 380.24,299.607 
		376.5,308.881 360.438,302.395 374.092,291.724 376.5,308.881 382.658,316.764 366.598,310.275 360.438,302.395 364.184,293.122 
		348.119,286.633 360.438,302.395 352.947,320.939 	"/>
	<polyline fill="none" stroke="#FFB806" stroke-miterlimit="10" points="291.941,425.714 282.036,427.103 265.974,420.621 
		259.821,412.737 265.973,420.613 268.387,437.768 268.388,437.77 282.036,427.103 282.036,427.108 265.974,420.621 268.388,437.77 
		264.642,447.042 	"/>
	<polyline fill="none" stroke="#FFB806" stroke-miterlimit="10" points="234.93,451.216 225.024,452.604 208.962,446.122 
		202.81,438.239 208.961,446.114 211.375,463.269 211.376,463.271 225.024,452.604 225.024,452.61 208.962,446.122 211.376,463.271 
		207.63,472.544 	"/>
	<polyline fill="none" stroke="#FFB806" stroke-miterlimit="10" points="237.342,468.37 233.592,477.644 219.947,488.312 
		210.044,489.699 219.939,488.31 236.002,494.796 236.005,494.796 233.592,477.644 233.598,477.646 219.947,488.312 
		236.005,494.796 242.162,502.677 	"/>
	<polyline fill="none" stroke="#FFB806" stroke-miterlimit="10" points="294.349,442.865 290.599,452.139 276.954,462.808 
		267.051,464.194 276.946,462.805 293.009,469.291 293.012,469.291 290.599,452.139 290.604,452.141 276.954,462.808 
		293.012,469.291 299.169,477.172 	"/>
	<polyline fill="none" stroke="#FFB806" stroke-miterlimit="10" points="243.761,406.245 240.011,415.519 226.366,426.188 
		216.462,427.574 226.358,426.185 242.421,432.671 242.423,432.671 240.011,415.519 240.017,415.521 226.366,426.188 
		242.423,432.671 248.581,440.552 	"/>
	<polyline fill="none" stroke="#FFB806" stroke-miterlimit="10" points="221.282,461.88 241.089,459.097 244.835,449.823 
		232.521,434.063 244.836,449.822 254.738,448.43 262.229,429.888 254.737,448.43 260.895,456.312 280.702,453.528 260.897,456.311 
		257.151,465.582 269.464,481.348 257.151,465.582 257.152,465.583 247.248,466.975 247.246,466.978 239.751,485.521 
		247.246,466.978 241.09,459.098 	"/>
	<polyline fill="none" stroke="#FFB806" stroke-miterlimit="10" points="316.828,387.231 313.085,396.497 319.234,404.382 
		315.493,413.654 299.432,407.169 313.085,396.497 315.493,413.654 321.651,421.538 305.591,415.049 299.432,407.168 
		303.178,397.896 287.112,391.407 299.432,407.168 291.941,425.714 	"/>
	<polyline fill="none" stroke="#FFB806" stroke-miterlimit="10" points="278.292,436.378 288.188,434.987 291.941,425.719 
		301.842,424.322 304.256,441.475 288.188,434.987 301.842,424.322 305.59,415.048 308,432.201 304.256,441.476 294.353,442.867 
		296.766,460.025 304.256,441.476 324.062,438.689 	"/>
	<polyline fill="none" stroke="#FFB806" stroke-miterlimit="10" points="157.04,435.928 166.936,434.537 170.689,425.269 
		180.59,423.872 183.004,441.024 166.936,434.537 180.59,423.872 184.338,414.598 186.748,431.751 183.004,441.025 173.101,442.417 
		175.514,459.575 183.004,441.025 202.81,438.239 	"/>
	<polyline fill="none" stroke="#FFB806" stroke-miterlimit="10" points="218.87,444.728 212.718,436.854 202.813,438.237 
		196.655,430.361 210.302,419.694 212.718,436.854 196.655,430.361 186.749,431.753 200.399,421.089 210.302,419.694 
		216.46,427.575 230.112,416.905 210.302,419.694 197.987,403.935 	"/>
	<polyline fill="none" stroke="#FFB806" stroke-miterlimit="10" points="241.348,389.094 247.5,396.969 243.763,406.243 
		249.916,414.124 263.566,403.462 247.5,396.969 249.916,414.124 246.17,423.399 259.818,412.734 263.566,403.461 257.409,395.581 
		271.062,384.914 263.566,403.461 275.88,419.223 	"/>
	<polyline fill="none" stroke="#FFB806" stroke-miterlimit="10" points="196.39,500.362 200.134,491.097 210.034,489.696 
		213.782,480.427 197.724,473.937 200.134,491.097 213.782,480.427 223.688,479.034 207.628,472.546 197.722,473.937 
		193.977,483.209 177.912,476.719 197.722,473.937 205.216,455.392 	"/>
	<polyline fill="none" stroke="#FFB806" stroke-miterlimit="10" points="257.409,395.582 261.153,386.316 271.054,384.916 
		274.802,375.646 258.743,369.156 261.153,386.316 274.802,375.646 284.708,374.254 268.647,367.766 258.741,369.156 
		254.996,378.429 238.932,371.938 258.741,369.156 266.235,350.611 	"/>
	<polyline fill="none" stroke="#FFB806" stroke-miterlimit="10" points="254.996,378.429 245.1,379.819 238.938,371.945 
		229.035,373.334 231.443,390.486 245.1,379.819 229.035,373.334 222.877,365.451 225.287,382.604 231.445,390.488 241.348,389.096 
		243.76,406.252 231.445,390.488 211.638,393.271 	"/>
	<polyline fill="none" stroke="#FFB806" stroke-miterlimit="10" points="195.575,386.783 191.833,396.049 197.981,403.933 
		194.241,413.206 178.179,406.72 191.833,396.049 194.241,413.206 200.399,421.089 184.339,414.601 178.179,406.72 181.925,397.447 
		165.86,390.958 178.179,406.72 170.688,425.265 	"/>
	<polyline fill="none" stroke="#FFB806" stroke-miterlimit="10" points="340.112,445.178 333.96,437.304 324.056,438.688 
		317.897,430.812 331.544,420.145 333.96,437.304 317.897,430.812 307.991,432.203 321.642,421.539 331.544,420.145 
		337.702,428.025 351.354,417.355 331.544,420.145 319.229,404.385 	"/>
	<polyline fill="none" stroke="#FFB806" stroke-miterlimit="10" points="110.434,320.024 100.529,321.413 84.466,314.932 
		78.314,307.048 84.465,314.924 86.879,332.078 86.88,332.08 100.529,321.413 100.529,321.419 84.466,314.932 86.88,332.08 
		83.134,341.353 	"/>
	<polyline fill="none" stroke="#FFB806" stroke-miterlimit="10" points="53.422,345.526 43.517,346.915 27.455,340.433 
		21.302,332.55 27.454,340.425 29.868,357.579 29.869,357.581 43.517,346.915 43.517,346.921 27.455,340.433 29.869,357.581 
		26.123,366.854 	"/>
	<polyline fill="none" stroke="#FFB806" stroke-miterlimit="10" points="104.014,382.146 94.109,383.534 78.046,377.052 
		71.894,369.169 78.045,377.044 80.459,394.198 80.46,394.2 94.109,383.534 94.109,383.54 78.046,377.052 80.46,394.2 
		76.714,403.474 	"/>
	<polyline fill="none" stroke="#FFB806" stroke-miterlimit="10" points="55.834,362.681 52.084,371.954 38.44,382.623 
		28.537,384.01 38.432,382.62 54.495,389.106 54.498,389.106 52.084,371.954 52.09,371.956 38.44,382.623 54.498,389.106 
		60.655,396.987 	"/>
	<polyline fill="none" stroke="#FFB806" stroke-miterlimit="10" points="112.841,337.176 109.091,346.449 95.447,357.118 
		85.543,358.505 95.439,357.115 111.501,363.602 111.504,363.602 109.091,346.449 109.097,346.451 95.447,357.118 111.504,363.602 
		117.662,371.482 	"/>
	<polyline fill="none" stroke="#FFB806" stroke-miterlimit="10" points="62.253,300.556 58.503,309.829 44.859,320.498 
		34.955,321.885 44.851,320.495 60.914,326.981 60.916,326.981 58.503,309.829 58.509,309.831 44.859,320.498 60.916,326.981 
		67.074,334.862 	"/>
	<polyline fill="none" stroke="#FFB806" stroke-miterlimit="10" points="39.775,356.19 59.582,353.407 63.328,344.134 
		51.013,328.374 63.329,344.133 73.231,342.74 80.721,324.198 73.23,342.74 79.387,350.622 99.195,347.839 79.39,350.621 
		75.644,359.893 87.957,375.658 75.644,359.893 75.645,359.894 65.741,361.285 65.739,361.288 58.244,379.832 65.739,361.288 
		59.583,353.408 	"/>
	<polyline fill="none" stroke="#FFB806" stroke-miterlimit="10" points="135.321,281.542 131.578,290.808 137.727,298.692 
		133.986,307.965 117.924,301.479 131.578,290.808 133.986,307.965 140.144,315.849 124.083,309.359 117.924,301.479 
		121.67,292.206 105.605,285.718 117.924,301.479 110.434,320.024 	"/>
	<polyline fill="none" stroke="#FFB806" stroke-miterlimit="10" points="96.785,330.688 106.68,329.298 110.434,320.029 
		120.334,318.633 122.749,335.785 106.68,329.298 120.334,318.633 124.083,309.358 126.493,326.512 122.749,335.786 
		112.845,337.178 115.258,354.336 122.749,335.786 142.554,333 	"/>
	<polyline fill="none" stroke="#FFB806" stroke-miterlimit="10" points="59.84,283.404 65.993,291.279 62.255,300.554 
		68.409,308.435 82.059,297.772 65.993,291.279 68.409,308.435 64.663,317.71 78.311,307.045 82.059,297.771 75.902,289.892 
		89.555,279.225 82.059,297.771 94.373,313.533 	"/>
	<polyline fill="none" stroke="#FFB806" stroke-miterlimit="10" points="136.125,395.122 139.869,385.856 149.769,384.456 
		153.517,375.187 137.458,368.696 139.869,385.856 153.517,375.187 163.423,373.794 147.363,367.306 137.457,368.696 
		133.711,377.969 117.647,371.479 137.457,368.696 144.951,350.151 	"/>
	<polyline fill="none" stroke="#FFB806" stroke-miterlimit="10" points="75.902,289.893 79.646,280.627 89.546,279.227 
		93.294,269.957 77.236,263.467 79.646,280.627 93.294,269.957 103.201,268.564 87.14,262.076 77.234,263.467 73.489,272.739 
		57.424,266.249 77.234,263.467 84.728,244.922 	"/>
	<polyline fill="none" stroke="#FFB806" stroke-miterlimit="10" points="73.489,272.739 63.592,274.13 57.43,266.256 
		47.528,267.645 49.936,284.797 63.592,274.13 47.528,267.645 41.37,259.762 43.78,276.915 49.938,284.799 59.84,283.406 
		62.252,300.562 49.938,284.799 30.13,287.581 	"/>
	<polyline fill="none" stroke="#FFB806" stroke-miterlimit="10" points="133.711,377.969 123.815,379.359 117.653,371.485 
		107.75,372.874 110.159,390.026 123.815,379.359 107.75,372.874 101.592,364.991 104.002,382.145 110.161,390.028 120.063,388.636 
		122.475,405.792 110.161,390.028 90.353,392.811 	"/>
	<polyline fill="none" stroke="#FFB806" stroke-miterlimit="10" points="120.063,388.636 126.215,396.511 122.478,405.785 
		128.631,413.666 142.282,403.004 126.215,396.511 128.631,413.666 124.885,422.941 138.534,412.276 142.282,403.003 
		136.125,395.123 149.778,384.456 142.282,403.003 154.595,418.765 	"/>
	<polyline fill="none" stroke="#FFB806" stroke-miterlimit="10" points="158.605,339.488 152.453,331.614 142.548,332.998 
		136.39,325.122 150.037,314.455 152.453,331.614 136.39,325.122 126.484,326.514 140.134,315.85 150.037,314.455 156.195,322.336 
		169.847,311.666 150.037,314.455 137.722,298.695 	"/>
	<polyline fill="none" stroke="#FFB806" stroke-miterlimit="10" points="231.684,320.477 221.779,321.865 205.716,315.384 
		199.564,307.5 205.715,315.376 208.129,332.53 208.13,332.532 221.779,321.865 221.779,321.871 205.716,315.384 208.13,332.532 
		204.384,341.805 	"/>
	<polyline fill="none" stroke="#FFB806" stroke-miterlimit="10" points="174.672,345.979 164.767,347.367 148.705,340.885 
		142.552,333.002 148.704,340.877 151.118,358.031 151.119,358.033 164.767,347.367 164.767,347.373 148.705,340.885 
		151.119,358.033 147.373,367.307 	"/>
	<polyline fill="none" stroke="#FFB806" stroke-miterlimit="10" points="225.264,382.598 215.359,383.986 199.296,377.504 
		193.144,369.621 199.295,377.496 201.709,394.65 201.71,394.652 215.359,383.986 215.359,383.992 199.296,377.504 201.71,394.652 
		197.964,403.926 	"/>
	<polyline fill="none" stroke="#FFB806" stroke-miterlimit="10" points="177.084,363.133 173.334,372.406 159.69,383.075 
		149.787,384.462 159.682,383.072 175.745,389.559 175.748,389.559 173.334,372.406 173.34,372.408 159.69,383.075 175.748,389.559 
		181.905,397.439 	"/>
	<polyline fill="none" stroke="#FFB806" stroke-miterlimit="10" points="234.091,337.628 230.341,346.901 216.697,357.57 
		206.793,358.957 216.689,357.567 232.751,364.054 232.754,364.054 230.341,346.901 230.347,346.903 216.697,357.57 
		232.754,364.054 238.912,371.935 	"/>
	<polyline fill="none" stroke="#FFB806" stroke-miterlimit="10" points="183.503,301.008 179.753,310.281 166.109,320.95 
		156.205,322.337 166.101,320.947 182.164,327.434 182.166,327.434 179.753,310.281 179.759,310.283 166.109,320.95 
		182.166,327.434 188.324,335.314 	"/>
	<polyline fill="none" stroke="#FFB806" stroke-miterlimit="10" points="161.025,356.643 180.832,353.859 184.578,344.586 
		172.263,328.826 184.579,344.585 194.481,343.192 201.971,324.65 194.48,343.192 200.637,351.074 220.445,348.291 200.64,351.073 
		196.894,360.345 209.207,376.11 196.894,360.345 196.895,360.346 186.991,361.737 186.989,361.74 179.494,380.284 186.989,361.74 
		180.833,353.86 	"/>
	<polyline fill="none" stroke="#FFB806" stroke-miterlimit="10" points="352.935,320.93 343.029,322.318 326.967,315.837 
		320.814,307.953 326.966,315.829 329.38,332.983 329.381,332.985 343.029,322.318 343.029,322.324 326.967,315.837 
		329.381,332.985 325.635,342.258 	"/>
	<polyline fill="none" stroke="#FFB806" stroke-miterlimit="10" points="295.923,346.432 286.018,347.82 269.955,341.338 
		263.803,333.455 269.954,341.33 272.368,358.484 272.369,358.486 286.018,347.82 286.018,347.826 269.955,341.338 272.369,358.486 
		268.623,367.76 	"/>
	<polyline fill="none" stroke="#FFB806" stroke-miterlimit="10" points="346.515,383.051 336.609,384.439 320.547,377.957 
		314.395,370.074 320.546,377.949 322.96,395.104 322.961,395.105 336.609,384.439 336.609,384.445 320.547,377.957 
		322.961,395.105 319.215,404.379 	"/>
	<polyline fill="none" stroke="#FFB806" stroke-miterlimit="10" points="298.335,363.586 294.585,372.859 280.94,383.528 
		271.037,384.915 280.933,383.525 296.995,390.012 296.998,390.012 294.585,372.859 294.591,372.861 280.94,383.528 
		296.998,390.012 303.155,397.893 	"/>
	<polyline fill="none" stroke="#FFB806" stroke-miterlimit="10" points="355.342,338.081 351.592,347.354 337.947,358.023 
		328.044,359.41 337.939,358.021 354.002,364.507 354.005,364.507 351.592,347.354 351.598,347.356 337.947,358.023 
		354.005,364.507 360.162,372.388 	"/>
	<polyline fill="none" stroke="#FFB806" stroke-miterlimit="10" points="304.754,301.461 301.004,310.734 287.359,321.403 
		277.455,322.79 287.352,321.4 303.414,327.887 303.416,327.887 301.004,310.734 301.01,310.736 287.359,321.403 303.416,327.887 
		309.574,335.768 	"/>
	<polyline fill="none" stroke="#FFB806" stroke-miterlimit="10" points="282.275,357.096 302.082,354.312 305.828,345.039 
		293.514,329.279 305.829,345.038 315.731,343.646 323.222,325.104 315.73,343.646 321.888,351.527 341.695,348.744 
		321.891,351.526 318.145,360.798 330.457,376.563 318.145,360.798 318.146,360.799 308.241,362.19 308.239,362.193 
		300.744,380.737 308.239,362.193 302.083,354.313 	"/>
	<polyline fill="none" stroke="#FFB806" stroke-miterlimit="10" points="413.184,426.165 403.278,427.554 387.216,421.072 
		381.063,413.188 387.215,421.064 389.629,438.219 389.63,438.221 403.278,427.554 403.278,427.56 387.216,421.072 389.63,438.221 
		385.884,447.493 	"/>
	<polyline fill="none" stroke="#FFB806" stroke-miterlimit="10" points="356.172,451.667 346.267,453.056 330.204,446.573 
		324.052,438.69 330.203,446.565 332.617,463.72 332.618,463.722 346.267,453.056 346.267,453.062 330.204,446.573 332.618,463.722 
		328.872,472.995 	"/>
	<polyline fill="none" stroke="#FFB806" stroke-miterlimit="10" points="365.003,406.696 361.253,415.97 347.608,426.639 
		337.704,428.025 347.601,426.636 363.663,433.122 363.665,433.122 361.253,415.97 361.259,415.972 347.608,426.639 
		363.665,433.122 369.823,441.003 	"/>
	<polyline fill="none" stroke="#FFB806" stroke-miterlimit="10" points="170.692,425.261 160.787,426.649 144.724,420.168 
		138.572,412.284 144.723,420.16 147.137,437.314 147.138,437.316 160.787,426.649 160.787,426.655 144.724,420.168 
		147.138,437.316 143.392,446.589 	"/>
	<polyline fill="none" stroke="#FFB806" stroke-miterlimit="10" points="171.466,215.251 161.561,216.64 145.498,210.158 
		139.346,202.274 145.497,210.15 147.911,227.305 147.912,227.307 161.561,216.64 161.561,216.646 145.498,210.158 147.912,227.307 
		144.166,236.579 	"/>
	<polyline fill="none" stroke="#FFB806" stroke-miterlimit="10" points="114.454,240.753 104.549,242.142 88.486,235.659 
		82.334,227.776 88.485,235.651 90.899,252.806 90.9,252.808 104.549,242.142 104.549,242.147 88.486,235.659 90.9,252.808 
		87.154,262.081 	"/>
	<polyline fill="none" stroke="#FFB806" stroke-miterlimit="10" points="165.046,277.372 155.141,278.761 139.078,272.278 
		132.926,264.396 139.077,272.271 141.491,289.425 141.492,289.427 155.141,278.761 155.141,278.767 139.078,272.278 
		141.492,289.427 137.746,298.7 	"/>
	<polyline fill="none" stroke="#FFB806" stroke-miterlimit="10" points="116.866,257.907 113.116,267.181 99.472,277.85 
		89.568,279.236 99.464,277.847 115.526,284.333 115.529,284.333 113.116,267.181 113.122,267.183 99.472,277.85 115.529,284.333 
		121.687,292.214 	"/>
	<polyline fill="none" stroke="#FFB806" stroke-miterlimit="10" points="173.873,232.402 170.123,241.676 156.479,252.345 
		146.575,253.731 156.471,252.342 172.533,258.828 172.536,258.828 170.123,241.676 170.129,241.678 156.479,252.345 
		172.536,258.828 178.693,266.709 	"/>
	<polyline fill="none" stroke="#FFB806" stroke-miterlimit="10" points="123.285,195.782 119.535,205.056 105.891,215.725 
		95.986,217.111 105.883,215.722 121.945,222.208 121.947,222.208 119.535,205.056 119.541,205.058 105.891,215.725 
		121.947,222.208 128.105,230.089 	"/>
	<polyline fill="none" stroke="#FFB806" stroke-miterlimit="10" points="100.807,251.417 120.613,248.634 124.359,239.36 
		112.045,223.601 124.36,239.359 134.263,237.967 141.753,219.425 134.262,237.967 140.419,245.849 160.227,243.065 
		140.422,245.848 136.676,255.119 148.988,270.885 136.676,255.119 136.677,255.12 126.772,256.512 126.771,256.515 
		119.275,275.059 126.771,256.515 120.614,248.635 	"/>
	<polyline fill="none" stroke="#FFB806" stroke-miterlimit="10" points="50.199,214.793 40.293,216.182 24.231,209.7 
		18.079,201.816 24.23,209.692 26.644,226.847 26.645,226.849 40.293,216.182 40.293,216.188 24.231,209.7 26.645,226.849 
		22.899,236.121 	"/>
	<polyline fill="none" stroke="#FFB806" stroke-miterlimit="10" points="52.606,231.944 48.856,241.218 35.211,251.887 
		25.308,253.273 35.204,251.884 51.266,258.37 51.269,258.37 48.856,241.218 48.862,241.22 35.211,251.887 51.269,258.37 
		57.426,266.251 	"/>
	<polyline fill="none" stroke="#FFB806" stroke-miterlimit="10" points="232.481,110.472 222.576,111.861 206.513,105.379 
		200.361,97.496 206.512,105.372 208.926,122.526 208.927,122.528 222.576,111.861 222.576,111.867 206.513,105.379 
		208.927,122.528 205.181,131.8 	"/>
	<polyline fill="none" stroke="#FFB806" stroke-miterlimit="10" points="175.469,135.974 165.564,137.363 149.501,130.88 
		143.349,122.998 149.5,130.873 151.915,148.027 151.916,148.029 165.564,137.363 165.564,137.369 149.501,130.88 151.916,148.029 
		148.169,157.302 	"/>
	<polyline fill="none" stroke="#FFB806" stroke-miterlimit="10" points="226.061,172.593 216.156,173.982 200.093,167.5 
		193.941,159.617 200.092,167.492 202.506,184.646 202.507,184.648 216.156,173.982 216.156,173.988 200.093,167.5 202.507,184.648 
		198.761,193.921 	"/>
	<polyline fill="none" stroke="#FFB806" stroke-miterlimit="10" points="177.881,153.128 174.131,162.402 160.487,173.071 
		150.583,174.458 160.479,173.068 176.542,179.554 176.544,179.554 174.131,162.402 174.137,162.404 160.487,173.071 
		176.544,179.554 182.702,187.435 	"/>
	<polyline fill="none" stroke="#FFB806" stroke-miterlimit="10" points="234.888,127.624 231.138,136.897 217.494,147.566 
		207.59,148.953 217.486,147.563 233.548,154.049 233.551,154.049 231.138,136.897 231.144,136.899 217.494,147.566 
		233.551,154.049 239.708,161.93 	"/>
	<polyline fill="none" stroke="#FFB806" stroke-miterlimit="10" points="184.3,91.003 180.55,100.277 166.906,110.946 
		157.001,112.333 166.898,110.943 182.96,117.429 182.962,117.429 180.55,100.277 180.556,100.279 166.906,110.946 182.962,117.429 
		189.121,125.31 	"/>
	<polyline fill="none" stroke="#FFB806" stroke-miterlimit="10" points="161.822,146.638 181.628,143.855 185.375,134.582 
		173.06,118.822 185.375,134.581 195.278,133.188 202.768,114.646 195.277,133.188 201.434,141.07 221.242,138.287 201.437,141.069 
		197.691,150.34 210.003,166.106 197.691,150.34 197.692,150.341 187.788,151.733 187.786,151.736 180.291,170.28 187.786,151.736 
		181.629,143.856 	"/>
	<polyline fill="none" stroke="#FFB806" stroke-miterlimit="10" points="353.73,110.926 343.825,112.315 327.763,105.833 
		321.61,97.95 327.762,105.826 330.176,122.98 330.177,122.982 343.825,112.315 343.825,112.321 327.763,105.833 330.177,122.982 
		326.431,132.254 	"/>
	<polyline fill="none" stroke="#FFB806" stroke-miterlimit="10" points="296.719,136.428 286.813,137.817 270.751,131.334 
		264.599,123.452 270.75,131.327 273.164,148.481 273.165,148.483 286.813,137.817 286.813,137.823 270.751,131.334 
		273.165,148.483 269.419,157.756 	"/>
	<polyline fill="none" stroke="#FFB806" stroke-miterlimit="10" points="347.311,173.047 337.405,174.436 321.343,167.954 
		315.19,160.071 321.342,167.946 323.756,185.1 323.757,185.102 337.405,174.436 337.405,174.442 321.343,167.954 323.757,185.102 
		320.011,194.375 	"/>
	<polyline fill="none" stroke="#FFB806" stroke-miterlimit="10" points="299.131,153.583 295.381,162.856 281.736,173.525 
		271.833,174.912 281.729,173.522 297.791,180.008 297.794,180.008 295.381,162.856 295.387,162.858 281.736,173.525 
		297.794,180.008 303.951,187.889 	"/>
	<polyline fill="none" stroke="#FFB806" stroke-miterlimit="10" points="356.138,128.078 352.388,137.351 338.743,148.02 
		328.84,149.407 338.735,148.017 354.798,154.503 354.801,154.503 352.388,137.351 352.394,137.353 338.743,148.02 354.801,154.503 
		360.958,162.384 	"/>
	<polyline fill="none" stroke="#FFB806" stroke-miterlimit="10" points="305.55,91.458 301.8,100.731 288.155,111.4 
		278.251,112.787 288.147,111.397 304.21,117.883 304.212,117.883 301.8,100.731 301.806,100.733 288.155,111.4 304.212,117.883 
		310.37,125.764 	"/>
	<polyline fill="none" stroke="#FFB806" stroke-miterlimit="10" points="283.071,147.092 302.878,144.309 306.624,135.036 
		294.31,119.276 306.625,135.035 316.527,133.642 324.018,115.1 316.526,133.642 322.684,141.524 342.491,138.741 322.687,141.523 
		318.94,150.794 331.253,166.56 318.94,150.794 318.941,150.795 309.037,152.187 309.035,152.19 301.54,170.734 309.035,152.19 
		302.879,144.31 	"/>
	<polyline fill="none" stroke="#FFB806" stroke-miterlimit="10" points="413.957,216.154 404.052,217.543 387.989,211.062 
		381.837,203.178 387.988,211.054 390.402,228.208 390.403,228.21 404.052,217.543 404.052,217.549 387.989,211.062 390.403,228.21 
		386.657,237.482 	"/>
	<polyline fill="none" stroke="#FFB806" stroke-miterlimit="10" points="356.945,241.656 347.04,243.045 330.978,236.562 
		324.825,228.68 330.977,236.555 333.391,253.709 333.392,253.711 347.04,243.045 347.04,243.051 330.978,236.562 333.392,253.711 
		329.646,262.984 	"/>
	<polyline fill="none" stroke="#FFB806" stroke-miterlimit="10" points="407.537,278.275 397.632,279.664 381.569,273.182 
		375.417,265.299 381.568,273.174 383.982,290.328 383.983,290.33 397.632,279.664 397.632,279.67 381.569,273.182 383.983,290.33 
		380.237,299.604 	"/>
	<polyline fill="none" stroke="#FFB806" stroke-miterlimit="10" points="359.357,258.811 355.607,268.084 341.963,278.753 
		332.06,280.14 341.955,278.75 358.018,285.236 358.021,285.236 355.607,268.084 355.613,268.086 341.963,278.753 358.021,285.236 
		364.178,293.117 	"/>
	<polyline fill="none" stroke="#FFB806" stroke-miterlimit="10" points="416.364,233.306 412.614,242.579 398.97,253.248 
		389.066,254.635 398.962,253.245 415.024,259.731 415.027,259.731 412.614,242.579 412.62,242.581 398.97,253.248 415.027,259.731 
		421.185,267.612 	"/>
	<polyline fill="none" stroke="#FFB806" stroke-miterlimit="10" points="365.776,196.686 362.026,205.959 348.382,216.628 
		338.478,218.015 348.374,216.625 364.437,223.111 364.438,223.111 362.026,205.959 362.032,205.961 348.382,216.628 
		364.438,223.111 370.597,230.992 	"/>
	<polyline fill="none" stroke="#FFB806" stroke-miterlimit="10" points="343.298,252.32 363.104,249.537 366.851,240.264 
		354.536,224.504 366.852,240.263 376.754,238.87 384.244,220.328 376.753,238.87 382.91,246.752 402.718,243.969 382.913,246.751 
		379.167,256.022 391.479,271.788 379.167,256.022 379.168,256.023 369.264,257.415 369.262,257.418 361.767,275.962 
		369.262,257.418 363.105,249.538 	"/>
	<polyline fill="none" stroke="#FFB806" stroke-miterlimit="10" points="478.206,242.114 468.301,243.503 452.238,237.021 
		446.086,229.138 452.237,237.013 454.651,254.167 454.652,254.169 468.301,243.503 468.301,243.509 452.238,237.021 
		454.652,254.169 450.906,263.442 	"/>
	<polyline fill="none" stroke="#FFB806" stroke-miterlimit="10" points="408.317,68.266 398.412,69.655 382.35,63.172 
		376.197,55.29 382.349,63.165 384.763,80.319 384.764,80.321 398.412,69.655 398.412,69.661 382.35,63.172 384.764,80.321 
		381.018,89.594 	"/>
	<polyline fill="none" stroke="#FFB806" stroke-miterlimit="10" points="360.138,48.801 356.388,58.075 342.743,68.744 
		332.84,70.13 342.735,68.741 358.798,75.227 358.801,75.227 356.388,58.075 356.394,58.077 342.743,68.744 358.801,75.227 
		364.958,83.108 	"/>
	<polyline fill="none" stroke="#FFB806" stroke-miterlimit="10" points="165.826,67.362 155.921,68.751 139.858,62.269 
		133.706,54.386 139.857,62.261 142.271,79.415 142.272,79.417 155.921,68.751 155.921,68.757 139.858,62.269 142.272,79.417 
		138.526,88.69 	"/>
	<polyline fill="none" stroke="#FFB806" stroke-miterlimit="10" points="174.653,22.393 170.903,31.666 157.259,42.335 
		147.355,43.722 157.251,42.332 173.313,48.818 173.316,48.818 170.903,31.666 170.909,31.668 157.259,42.335 173.316,48.818 
		179.474,56.699 	"/>
</g>
<g id="Layer_5">
	<polygon fill="none" stroke="#40F90D" stroke-miterlimit="10" points="258.184,185.572 255.771,168.42 242.122,179.087 	"/>
	<polygon fill="none" stroke="#40F90D" stroke-miterlimit="10" points="379.429,186.026 377.016,168.874 363.367,179.541 	"/>
	<polygon fill="none" stroke="#40F90D" stroke-miterlimit="10" points="319.187,80.791 316.773,63.639 303.125,74.306 	"/>
	<polygon fill="none" stroke="#40F90D" stroke-miterlimit="10" points="76.692,79.883 74.279,62.731 60.63,73.398 	"/>
	<polygon fill="none" stroke="#40F90D" stroke-miterlimit="10" points="136.915,185.113 134.501,167.96 120.853,178.627 	"/>
	<polygon fill="none" stroke="#40F90D" stroke-miterlimit="10" points="75.902,289.892 73.489,272.739 59.84,283.406 	"/>
	<polygon fill="none" stroke="#40F90D" stroke-miterlimit="10" points="136.125,395.121 133.711,377.969 120.063,388.636 	"/>
	<polygon fill="none" stroke="#40F90D" stroke-miterlimit="10" points="378.648,396.036 376.235,378.884 362.587,389.551 	"/>
	<polygon fill="none" stroke="#40F90D" stroke-miterlimit="10" points="439.668,291.256 437.255,274.104 423.606,284.771 	"/>
	<polygon fill="none" stroke="#40F90D" stroke-miterlimit="10" points="318.406,290.802 315.993,273.649 302.345,284.316 	"/>
	<polygon fill="none" stroke="#40F90D" stroke-miterlimit="10" points="197.164,290.353 194.751,273.2 181.103,283.867 	"/>
	<polygon fill="none" stroke="#40F90D" stroke-miterlimit="10" points="257.409,395.581 254.996,378.429 241.348,389.096 	"/>
	<polygon fill="none" stroke="#40F90D" stroke-miterlimit="10" points="197.944,80.342 195.531,63.189 181.883,73.856 	"/>
</g>
</svg>
