<?xml version="1.0" encoding="utf-8"?>
<!-- Generator: Adobe Illustrator 22.1.0, SVG Export Plug-In . SVG Version: 6.00 Build 0)  -->
<svg version="1.1" xmlns="http://www.w3.org/2000/svg" xmlns:xlink="http://www.w3.org/1999/xlink" x="0px" y="0px"
	 viewBox="0 0 600 600" enable-background="new 0 0 600 600" xml:space="preserve">
<g id="Layer_1">
	<line fill="none" stroke="#000000" stroke-miterlimit="10" x1="276.8" y1="252.9" x2="251.8" y2="296.2"/>
	<line fill="none" stroke="#000000" stroke-miterlimit="10" x1="251.8" y1="296.2" x2="276.8" y2="339.5"/>
	<line fill="none" stroke="#000000" stroke-miterlimit="10" x1="276.8" y1="339.5" x2="326.8" y2="339.5"/>
	<line fill="none" stroke="#000000" stroke-miterlimit="10" x1="326.8" y1="339.5" x2="351.8" y2="296.2"/>
	<line fill="none" stroke="#000000" stroke-miterlimit="10" x1="351.8" y1="296.2" x2="326.8" y2="252.9"/>
	<line fill="none" stroke="#000000" stroke-miterlimit="10" x1="326.8" y1="252.9" x2="276.8" y2="252.9"/>
	<line fill="none" stroke="#000000" stroke-miterlimit="10" x1="276.8" y1="123" x2="326.8" y2="123"/>
	<line fill="none" stroke="#000000" stroke-miterlimit="10" x1="164.3" y1="404.5" x2="139.3" y2="361.2"/>
	<line fill="none" stroke="#000000" stroke-miterlimit="10" x1="464.3" y1="361.2" x2="439.3" y2="404.5"/>
	<line fill="none" stroke="#000000" stroke-miterlimit="10" x1="439.3" y1="188" x2="464.3" y2="231.3"/>
	<line fill="none" stroke="#000000" stroke-miterlimit="10" x1="351.8" y1="296.2" x2="326.8" y2="252.9"/>
	<line fill="none" stroke="#000000" stroke-miterlimit="10" x1="139.3" y1="231.3" x2="164.3" y2="188"/>
	<line fill="none" stroke="#000000" stroke-miterlimit="10" x1="326.8" y1="469.4" x2="276.8" y2="469.4"/>
	<line fill="none" stroke="#000000" stroke-miterlimit="10" x1="464.3" y1="144.7" x2="439.3" y2="188"/>
	<line fill="none" stroke="#000000" stroke-miterlimit="10" x1="464.3" y1="231.3" x2="514.3" y2="231.3"/>
	<line fill="none" stroke="#000000" stroke-miterlimit="10" x1="514.3" y1="231.3" x2="539.3" y2="188"/>
	<line fill="none" stroke="#000000" stroke-miterlimit="10" x1="514.3" y1="144.7" x2="464.3" y2="144.7"/>
	<line fill="none" stroke="#000000" stroke-miterlimit="10" x1="539.3" y1="188" x2="514.3" y2="144.7"/>
	<line fill="none" stroke="#000000" stroke-miterlimit="10" x1="276.8" y1="36.4" x2="251.8" y2="79.7"/>
	<line fill="none" stroke="#000000" stroke-miterlimit="10" x1="251.8" y1="79.7" x2="276.8" y2="123"/>
	<line fill="none" stroke="#000000" stroke-miterlimit="10" x1="326.8" y1="123" x2="351.8" y2="79.7"/>
	<line fill="none" stroke="#000000" stroke-miterlimit="10" x1="326.8" y1="36.4" x2="276.8" y2="36.4"/>
	<line fill="none" stroke="#000000" stroke-miterlimit="10" x1="351.8" y1="79.7" x2="326.8" y2="36.4"/>
	<line fill="none" stroke="#000000" stroke-miterlimit="10" x1="89.3" y1="144.7" x2="64.3" y2="188"/>
	<line fill="none" stroke="#000000" stroke-miterlimit="10" x1="64.3" y1="188" x2="89.3" y2="231.3"/>
	<line fill="none" stroke="#000000" stroke-miterlimit="10" x1="89.3" y1="231.3" x2="139.3" y2="231.3"/>
	<line fill="none" stroke="#000000" stroke-miterlimit="10" x1="139.3" y1="144.7" x2="89.3" y2="144.7"/>
	<line fill="none" stroke="#000000" stroke-miterlimit="10" x1="164.3" y1="188" x2="139.3" y2="144.7"/>
	<line fill="none" stroke="#000000" stroke-miterlimit="10" x1="89.3" y1="361.2" x2="64.3" y2="404.5"/>
	<line fill="none" stroke="#000000" stroke-miterlimit="10" x1="64.3" y1="404.5" x2="89.3" y2="447.8"/>
	<line fill="none" stroke="#000000" stroke-miterlimit="10" x1="89.3" y1="447.8" x2="139.3" y2="447.8"/>
	<line fill="none" stroke="#000000" stroke-miterlimit="10" x1="139.3" y1="447.8" x2="164.3" y2="404.5"/>
	<line fill="none" stroke="#000000" stroke-miterlimit="10" x1="139.3" y1="361.2" x2="89.3" y2="361.2"/>
	<line fill="none" stroke="#000000" stroke-miterlimit="10" x1="276.8" y1="469.4" x2="251.8" y2="512.7"/>
	<line fill="none" stroke="#000000" stroke-miterlimit="10" x1="251.8" y1="512.7" x2="276.8" y2="556"/>
	<line fill="none" stroke="#000000" stroke-miterlimit="10" x1="276.8" y1="556" x2="326.8" y2="556"/>
	<line fill="none" stroke="#000000" stroke-miterlimit="10" x1="326.8" y1="556" x2="351.8" y2="512.7"/>
	<line fill="none" stroke="#000000" stroke-miterlimit="10" x1="351.8" y1="512.7" x2="326.8" y2="469.4"/>
	<line fill="none" stroke="#000000" stroke-miterlimit="10" x1="439.3" y1="404.5" x2="464.3" y2="447.8"/>
	<line fill="none" stroke="#000000" stroke-miterlimit="10" x1="464.3" y1="447.8" x2="514.3" y2="447.8"/>
	<line fill="none" stroke="#000000" stroke-miterlimit="10" x1="514.3" y1="447.8" x2="539.3" y2="404.5"/>
	<line fill="none" stroke="#000000" stroke-miterlimit="10" x1="514.3" y1="361.2" x2="464.3" y2="361.2"/>
	<line fill="none" stroke="#000000" stroke-miterlimit="10" x1="539.3" y1="404.5" x2="514.3" y2="361.2"/>
</g>
<g id="Layer_3">
	<line fill="none" stroke="#000000" stroke-miterlimit="10" x1="276.8" y1="252.9" x2="276.8" y2="123"/>
	<line fill="none" stroke="#000000" stroke-miterlimit="10" x1="326.8" y1="252.9" x2="326.8" y2="123"/>
	<line fill="none" stroke="#000000" stroke-miterlimit="10" x1="326.8" y1="166.3" x2="276.8" y2="166.3"/>
	<line fill="none" stroke="#000000" stroke-miterlimit="10" x1="364.3" y1="231.3" x2="389.3" y2="274.6"/>
	<line fill="none" stroke="#000000" stroke-miterlimit="10" x1="276.8" y1="339.5" x2="164.3" y2="404.5"/>
	<line fill="none" stroke="#000000" stroke-miterlimit="10" x1="251.8" y1="296.2" x2="139.3" y2="361.2"/>
	<line fill="none" stroke="#000000" stroke-miterlimit="10" x1="176.8" y1="339.5" x2="201.8" y2="382.8"/>
	<line fill="none" stroke="#000000" stroke-miterlimit="10" x1="351.8" y1="296.2" x2="464.3" y2="361.2"/>
	<line fill="none" stroke="#000000" stroke-miterlimit="10" x1="326.8" y1="339.5" x2="439.3" y2="404.5"/>
	<line fill="none" stroke="#000000" stroke-miterlimit="10" x1="401.8" y1="382.8" x2="426.8" y2="339.5"/>
	<line fill="none" stroke="#000000" stroke-miterlimit="10" x1="464.3" y1="231.3" x2="351.8" y2="296.2"/>
	<line fill="none" stroke="#000000" stroke-miterlimit="10" x1="439.3" y1="188" x2="326.8" y2="252.9"/>
	<line fill="none" stroke="#000000" stroke-miterlimit="10" x1="364.3" y1="231.3" x2="389.3" y2="274.6"/>
	<line fill="none" stroke="#000000" stroke-miterlimit="10" x1="164.3" y1="188" x2="276.8" y2="252.9"/>
	<line fill="none" stroke="#000000" stroke-miterlimit="10" x1="139.3" y1="231.3" x2="251.8" y2="296.2"/>
	<line fill="none" stroke="#000000" stroke-miterlimit="10" x1="214.3" y1="274.6" x2="239.3" y2="231.3"/>
	<line fill="none" stroke="#000000" stroke-miterlimit="10" x1="276.8" y1="469.4" x2="276.8" y2="339.5"/>
	<line fill="none" stroke="#000000" stroke-miterlimit="10" x1="326.8" y1="469.4" x2="326.8" y2="339.5"/>
	<line fill="none" stroke="#000000" stroke-miterlimit="10" x1="326.8" y1="382.8" x2="276.8" y2="382.8"/>
	<line fill="none" stroke="#000000" stroke-miterlimit="10" x1="351.8" y1="79.7" x2="464.3" y2="144.7"/>
	<line fill="none" stroke="#000000" stroke-miterlimit="10" x1="326.8" y1="123" x2="439.3" y2="188"/>
	<line fill="none" stroke="#000000" stroke-miterlimit="10" x1="401.8" y1="166.3" x2="426.8" y2="123"/>
	<line fill="none" stroke="#000000" stroke-miterlimit="10" x1="276.8" y1="123" x2="164.3" y2="188"/>
	<line fill="none" stroke="#000000" stroke-miterlimit="10" x1="251.8" y1="79.7" x2="139.3" y2="144.7"/>
	<line fill="none" stroke="#000000" stroke-miterlimit="10" x1="176.8" y1="123" x2="201.8" y2="166.3"/>
	<line fill="none" stroke="#000000" stroke-miterlimit="10" x1="89.3" y1="361.2" x2="89.3" y2="231.3"/>
	<line fill="none" stroke="#000000" stroke-miterlimit="10" x1="139.3" y1="361.2" x2="139.3" y2="231.3"/>
	<line fill="none" stroke="#000000" stroke-miterlimit="10" x1="139.3" y1="274.6" x2="89.3" y2="274.6"/>
	<line fill="none" stroke="#000000" stroke-miterlimit="10" x1="464.3" y1="361.2" x2="464.3" y2="231.3"/>
	<line fill="none" stroke="#000000" stroke-miterlimit="10" x1="514.3" y1="361.2" x2="514.3" y2="231.3"/>
	<line fill="none" stroke="#000000" stroke-miterlimit="10" x1="514.3" y1="274.6" x2="464.3" y2="274.6"/>
	<line fill="none" stroke="#000000" stroke-miterlimit="10" x1="464.3" y1="447.8" x2="351.8" y2="512.7"/>
	<line fill="none" stroke="#000000" stroke-miterlimit="10" x1="439.3" y1="404.5" x2="326.8" y2="469.4"/>
	<line fill="none" stroke="#000000" stroke-miterlimit="10" x1="364.3" y1="447.8" x2="389.3" y2="491.1"/>
	<line fill="none" stroke="#000000" stroke-miterlimit="10" x1="164.3" y1="404.5" x2="276.8" y2="469.4"/>
	<line fill="none" stroke="#000000" stroke-miterlimit="10" x1="139.3" y1="447.8" x2="251.8" y2="512.7"/>
	<line fill="none" stroke="#000000" stroke-miterlimit="10" x1="214.3" y1="491.1" x2="239.3" y2="447.8"/>
</g>
<g id="Layer_2">
	<line fill="none" stroke="#000000" stroke-miterlimit="10" x1="201.8" y1="166.3" x2="239.3" y2="231.3"/>
	<line fill="none" stroke="#000000" stroke-miterlimit="10" x1="239.3" y1="231.3" x2="276.8" y2="166.3"/>
	<line fill="none" stroke="#000000" stroke-miterlimit="10" x1="276.8" y1="166.3" x2="201.8" y2="166.3"/>
	<line fill="none" stroke="#000000" stroke-miterlimit="10" x1="326.8" y1="166.3" x2="364.3" y2="231.3"/>
	<line fill="none" stroke="#000000" stroke-miterlimit="10" x1="364.3" y1="231.3" x2="401.8" y2="166.3"/>
	<line fill="none" stroke="#000000" stroke-miterlimit="10" x1="401.8" y1="166.3" x2="326.8" y2="166.3"/>
	<line fill="none" stroke="#000000" stroke-miterlimit="10" x1="389.3" y1="274.6" x2="426.8" y2="339.5"/>
	<line fill="none" stroke="#000000" stroke-miterlimit="10" x1="426.8" y1="339.5" x2="464.3" y2="274.6"/>
	<line fill="none" stroke="#000000" stroke-miterlimit="10" x1="464.3" y1="274.6" x2="389.3" y2="274.6"/>
	<line fill="none" stroke="#000000" stroke-miterlimit="10" x1="401.8" y1="382.8" x2="364.3" y2="447.8"/>
	<line fill="none" stroke="#000000" stroke-miterlimit="10" x1="364.3" y1="447.8" x2="326.8" y2="382.8"/>
	<line fill="none" stroke="#000000" stroke-miterlimit="10" x1="326.8" y1="382.8" x2="401.8" y2="382.8"/>
	<line fill="none" stroke="#000000" stroke-miterlimit="10" x1="276.8" y1="382.8" x2="239.3" y2="447.8"/>
	<line fill="none" stroke="#000000" stroke-miterlimit="10" x1="239.3" y1="447.8" x2="201.8" y2="382.8"/>
	<line fill="none" stroke="#000000" stroke-miterlimit="10" x1="201.8" y1="382.8" x2="276.8" y2="382.8"/>
	<line fill="none" stroke="#000000" stroke-miterlimit="10" x1="176.8" y1="339.5" x2="214.3" y2="274.6"/>
	<line fill="none" stroke="#000000" stroke-miterlimit="10" x1="214.3" y1="274.6" x2="139.3" y2="274.6"/>
	<line fill="none" stroke="#000000" stroke-miterlimit="10" x1="139.3" y1="274.6" x2="178.4" y2="342.3"/>
</g>
<g id="Layer_4" display="none">
	<line display="inline" fill="none" stroke="#000000" stroke-miterlimit="10" x1="326.8" y1="252.9" x2="301.8" y2="296.2"/>
	<line display="inline" fill="none" stroke="#000000" stroke-miterlimit="10" x1="301.8" y1="296.2" x2="351.8" y2="296.2"/>
	<line display="inline" fill="none" stroke="#000000" stroke-miterlimit="10" x1="351.8" y1="296.2" x2="326.8" y2="252.9"/>
	<line display="inline" fill="none" stroke="#000000" stroke-miterlimit="10" x1="489.3" y1="188" x2="464.3" y2="231.3"/>
	<line display="inline" fill="none" stroke="#000000" stroke-miterlimit="10" x1="464.3" y1="231.3" x2="514.3" y2="231.3"/>
	<line display="inline" fill="none" stroke="#000000" stroke-miterlimit="10" x1="514.3" y1="231.3" x2="489.3" y2="188"/>
	<line display="inline" fill="none" stroke="#000000" stroke-miterlimit="10" x1="464.3" y1="144.7" x2="439.3" y2="188"/>
	<line display="inline" fill="none" stroke="#000000" stroke-miterlimit="10" x1="439.3" y1="188" x2="489.3" y2="188"/>
	<line display="inline" fill="none" stroke="#000000" stroke-miterlimit="10" x1="489.3" y1="188" x2="464.3" y2="144.7"/>
	<line display="inline" fill="none" stroke="#000000" stroke-miterlimit="10" x1="514.3" y1="144.7" x2="489.3" y2="188"/>
	<line display="inline" fill="none" stroke="#000000" stroke-miterlimit="10" x1="489.3" y1="188" x2="539.3" y2="188"/>
	<line display="inline" fill="none" stroke="#000000" stroke-miterlimit="10" x1="539.3" y1="188" x2="514.3" y2="144.7"/>
	<line display="inline" fill="none" stroke="#000000" stroke-miterlimit="10" x1="301.8" y1="296.2" x2="276.8" y2="339.5"/>
	<line display="inline" fill="none" stroke="#000000" stroke-miterlimit="10" x1="276.8" y1="339.5" x2="326.8" y2="339.5"/>
	<line display="inline" fill="none" stroke="#000000" stroke-miterlimit="10" x1="326.8" y1="339.5" x2="301.8" y2="296.2"/>
	<line display="inline" fill="none" stroke="#000000" stroke-miterlimit="10" x1="276.8" y1="252.9" x2="251.8" y2="296.2"/>
	<line display="inline" fill="none" stroke="#000000" stroke-miterlimit="10" x1="251.8" y1="296.2" x2="301.8" y2="296.2"/>
	<line display="inline" fill="none" stroke="#000000" stroke-miterlimit="10" x1="301.8" y1="296.2" x2="276.8" y2="252.9"/>
	<line display="inline" fill="none" stroke="#000000" stroke-miterlimit="10" x1="301.8" y1="209.6" x2="276.8" y2="252.9"/>
	<line display="inline" fill="none" stroke="#000000" stroke-miterlimit="10" x1="276.8" y1="252.9" x2="326.8" y2="252.9"/>
	<line display="inline" fill="none" stroke="#000000" stroke-miterlimit="10" x1="326.8" y1="252.9" x2="301.8" y2="209.6"/>
	<line display="inline" fill="none" stroke="#000000" stroke-miterlimit="10" x1="326.8" y1="166.3" x2="301.8" y2="209.6"/>
	<line display="inline" fill="none" stroke="#000000" stroke-miterlimit="10" x1="301.8" y1="209.6" x2="351.8" y2="209.6"/>
	<line display="inline" fill="none" stroke="#000000" stroke-miterlimit="10" x1="351.8" y1="209.6" x2="326.8" y2="166.3"/>
	<line display="inline" fill="none" stroke="#000000" stroke-miterlimit="10" x1="276.8" y1="166.3" x2="251.8" y2="209.6"/>
	<line display="inline" fill="none" stroke="#000000" stroke-miterlimit="10" x1="251.8" y1="209.6" x2="301.8" y2="209.6"/>
	<line display="inline" fill="none" stroke="#000000" stroke-miterlimit="10" x1="301.8" y1="209.6" x2="276.8" y2="166.3"/>
	<line display="inline" fill="none" stroke="#000000" stroke-miterlimit="10" x1="301.8" y1="123" x2="276.8" y2="166.3"/>
	<line display="inline" fill="none" stroke="#000000" stroke-miterlimit="10" x1="276.8" y1="166.3" x2="326.8" y2="166.3"/>
	<line display="inline" fill="none" stroke="#000000" stroke-miterlimit="10" x1="326.8" y1="166.3" x2="301.8" y2="123"/>
	<line display="inline" fill="none" stroke="#000000" stroke-miterlimit="10" x1="301.8" y1="79.7" x2="276.8" y2="123"/>
	<line display="inline" fill="none" stroke="#000000" stroke-miterlimit="10" x1="276.8" y1="123" x2="326.8" y2="123"/>
	<line display="inline" fill="none" stroke="#000000" stroke-miterlimit="10" x1="326.8" y1="123" x2="301.8" y2="79.7"/>
	<line display="inline" fill="none" stroke="#000000" stroke-miterlimit="10" x1="326.8" y1="36.4" x2="301.8" y2="79.7"/>
	<line display="inline" fill="none" stroke="#000000" stroke-miterlimit="10" x1="301.8" y1="79.7" x2="351.8" y2="79.7"/>
	<line display="inline" fill="none" stroke="#000000" stroke-miterlimit="10" x1="351.8" y1="79.7" x2="326.8" y2="36.4"/>
	<line display="inline" fill="none" stroke="#000000" stroke-miterlimit="10" x1="276.8" y1="36.4" x2="251.8" y2="79.7"/>
	<line display="inline" fill="none" stroke="#000000" stroke-miterlimit="10" x1="251.8" y1="79.7" x2="301.8" y2="79.7"/>
	<line display="inline" fill="none" stroke="#000000" stroke-miterlimit="10" x1="301.8" y1="79.7" x2="276.8" y2="36.4"/>
	<line display="inline" fill="none" stroke="#000000" stroke-miterlimit="10" x1="114.3" y1="188" x2="89.3" y2="231.3"/>
	<line display="inline" fill="none" stroke="#000000" stroke-miterlimit="10" x1="89.3" y1="231.3" x2="139.3" y2="231.3"/>
	<line display="inline" fill="none" stroke="#000000" stroke-miterlimit="10" x1="139.3" y1="231.3" x2="114.3" y2="188"/>
	<line display="inline" fill="none" stroke="#000000" stroke-miterlimit="10" x1="139.3" y1="144.7" x2="114.3" y2="188"/>
	<line display="inline" fill="none" stroke="#000000" stroke-miterlimit="10" x1="114.3" y1="188" x2="164.3" y2="188"/>
	<line display="inline" fill="none" stroke="#000000" stroke-miterlimit="10" x1="164.3" y1="188" x2="139.3" y2="144.7"/>
	<line display="inline" fill="none" stroke="#000000" stroke-miterlimit="10" x1="89.3" y1="144.7" x2="64.3" y2="188"/>
	<line display="inline" fill="none" stroke="#000000" stroke-miterlimit="10" x1="64.3" y1="188" x2="114.3" y2="188"/>
	<line display="inline" fill="none" stroke="#000000" stroke-miterlimit="10" x1="114.3" y1="188" x2="89.3" y2="144.7"/>
	<line display="inline" fill="none" stroke="#000000" stroke-miterlimit="10" x1="239.3" y1="231.3" x2="214.3" y2="274.6"/>
	<line display="inline" fill="none" stroke="#000000" stroke-miterlimit="10" x1="214.3" y1="274.6" x2="264.3" y2="274.6"/>
	<line display="inline" fill="none" stroke="#000000" stroke-miterlimit="10" x1="264.3" y1="274.6" x2="239.3" y2="231.3"/>
	<line display="inline" fill="none" stroke="#000000" stroke-miterlimit="10" x1="214.3" y1="188" x2="189.3" y2="231.3"/>
	<line display="inline" fill="none" stroke="#000000" stroke-miterlimit="10" x1="189.3" y1="231.3" x2="239.3" y2="231.3"/>
	<line display="inline" fill="none" stroke="#000000" stroke-miterlimit="10" x1="239.3" y1="231.3" x2="214.3" y2="188"/>
	<line display="inline" fill="none" stroke="#000000" stroke-miterlimit="10" x1="164.3" y1="188" x2="139.3" y2="231.3"/>
	<line display="inline" fill="none" stroke="#000000" stroke-miterlimit="10" x1="139.3" y1="231.3" x2="189.3" y2="231.3"/>
	<line display="inline" fill="none" stroke="#000000" stroke-miterlimit="10" x1="189.3" y1="231.3" x2="164.3" y2="188"/>
	<line display="inline" fill="none" stroke="#000000" stroke-miterlimit="10" x1="189.3" y1="231.3" x2="164.3" y2="274.6"/>
	<line display="inline" fill="none" stroke="#000000" stroke-miterlimit="10" x1="164.3" y1="274.6" x2="214.3" y2="274.6"/>
	<line display="inline" fill="none" stroke="#000000" stroke-miterlimit="10" x1="214.3" y1="274.6" x2="189.3" y2="231.3"/>
	<line display="inline" fill="none" stroke="#000000" stroke-miterlimit="10" x1="114.3" y1="231.3" x2="89.3" y2="274.6"/>
	<line display="inline" fill="none" stroke="#000000" stroke-miterlimit="10" x1="89.3" y1="274.6" x2="139.3" y2="274.6"/>
	<line display="inline" fill="none" stroke="#000000" stroke-miterlimit="10" x1="139.3" y1="274.6" x2="114.3" y2="231.3"/>
	<line display="inline" fill="none" stroke="#000000" stroke-miterlimit="10" x1="139.3" y1="274.6" x2="114.3" y2="317.9"/>
	<line display="inline" fill="none" stroke="#000000" stroke-miterlimit="10" x1="114.3" y1="317.9" x2="164.3" y2="317.9"/>
	<line display="inline" fill="none" stroke="#000000" stroke-miterlimit="10" x1="164.3" y1="317.9" x2="139.3" y2="274.6"/>
	<line display="inline" fill="none" stroke="#000000" stroke-miterlimit="10" x1="89.3" y1="274.6" x2="64.3" y2="317.9"/>
	<line display="inline" fill="none" stroke="#000000" stroke-miterlimit="10" x1="64.3" y1="317.9" x2="114.3" y2="317.9"/>
	<line display="inline" fill="none" stroke="#000000" stroke-miterlimit="10" x1="114.3" y1="317.9" x2="89.3" y2="274.6"/>
	<line display="inline" fill="none" stroke="#000000" stroke-miterlimit="10" x1="139.3" y1="361.2" x2="114.3" y2="404.5"/>
	<line display="inline" fill="none" stroke="#000000" stroke-miterlimit="10" x1="114.3" y1="404.5" x2="164.3" y2="404.5"/>
	<line display="inline" fill="none" stroke="#000000" stroke-miterlimit="10" x1="164.3" y1="404.5" x2="139.3" y2="361.2"/>
	<line display="inline" fill="none" stroke="#000000" stroke-miterlimit="10" x1="114.3" y1="317.9" x2="89.3" y2="361.2"/>
	<line display="inline" fill="none" stroke="#000000" stroke-miterlimit="10" x1="89.3" y1="361.2" x2="139.3" y2="361.2"/>
	<line display="inline" fill="none" stroke="#000000" stroke-miterlimit="10" x1="139.3" y1="361.2" x2="114.3" y2="317.9"/>
	<line display="inline" fill="none" stroke="#000000" stroke-miterlimit="10" x1="89.3" y1="361.2" x2="64.3" y2="404.5"/>
	<line display="inline" fill="none" stroke="#000000" stroke-miterlimit="10" x1="64.3" y1="404.5" x2="114.3" y2="404.5"/>
	<line display="inline" fill="none" stroke="#000000" stroke-miterlimit="10" x1="114.3" y1="404.5" x2="89.3" y2="361.2"/>
	<line display="inline" fill="none" stroke="#000000" stroke-miterlimit="10" x1="114.3" y1="404.5" x2="89.3" y2="447.8"/>
	<line display="inline" fill="none" stroke="#000000" stroke-miterlimit="10" x1="89.3" y1="447.8" x2="139.3" y2="447.8"/>
	<line display="inline" fill="none" stroke="#000000" stroke-miterlimit="10" x1="139.3" y1="447.8" x2="114.3" y2="404.5"/>
	<line display="inline" fill="none" stroke="#000000" stroke-miterlimit="10" x1="176.8" y1="339.5" x2="151.8" y2="382.8"/>
	<line display="inline" fill="none" stroke="#000000" stroke-miterlimit="10" x1="151.8" y1="382.8" x2="201.8" y2="382.8"/>
	<line display="inline" fill="none" stroke="#000000" stroke-miterlimit="10" x1="201.8" y1="382.8" x2="176.8" y2="339.5"/>
	<line display="inline" fill="none" stroke="#000000" stroke-miterlimit="10" x1="201.8" y1="296.2" x2="176.8" y2="339.5"/>
	<line display="inline" fill="none" stroke="#000000" stroke-miterlimit="10" x1="176.8" y1="339.5" x2="226.8" y2="339.5"/>
	<line display="inline" fill="none" stroke="#000000" stroke-miterlimit="10" x1="226.8" y1="339.5" x2="201.8" y2="296.2"/>
	<line display="inline" fill="none" stroke="#000000" stroke-miterlimit="10" x1="226.8" y1="339.5" x2="201.8" y2="382.8"/>
	<line display="inline" fill="none" stroke="#000000" stroke-miterlimit="10" x1="201.8" y1="382.8" x2="251.8" y2="382.8"/>
	<line display="inline" fill="none" stroke="#000000" stroke-miterlimit="10" x1="251.8" y1="382.8" x2="226.8" y2="339.5"/>
	<line display="inline" fill="none" stroke="#000000" stroke-miterlimit="10" x1="251.8" y1="296.2" x2="226.8" y2="339.5"/>
	<line display="inline" fill="none" stroke="#000000" stroke-miterlimit="10" x1="226.8" y1="339.5" x2="276.8" y2="339.5"/>
	<line display="inline" fill="none" stroke="#000000" stroke-miterlimit="10" x1="276.8" y1="339.5" x2="251.8" y2="296.2"/>
	<line display="inline" fill="none" stroke="#000000" stroke-miterlimit="10" x1="426.8" y1="339.5" x2="401.8" y2="382.8"/>
	<line display="inline" fill="none" stroke="#000000" stroke-miterlimit="10" x1="401.8" y1="382.8" x2="451.8" y2="382.8"/>
	<line display="inline" fill="none" stroke="#000000" stroke-miterlimit="10" x1="451.8" y1="382.8" x2="426.8" y2="339.5"/>
	<line display="inline" fill="none" stroke="#000000" stroke-miterlimit="10" x1="376.8" y1="339.5" x2="351.8" y2="382.8"/>
	<line display="inline" fill="none" stroke="#000000" stroke-miterlimit="10" x1="351.8" y1="382.8" x2="401.8" y2="382.8"/>
	<line display="inline" fill="none" stroke="#000000" stroke-miterlimit="10" x1="401.8" y1="382.8" x2="376.8" y2="339.5"/>
	<line display="inline" fill="none" stroke="#000000" stroke-miterlimit="10" x1="401.8" y1="296.2" x2="376.8" y2="339.5"/>
	<line display="inline" fill="none" stroke="#000000" stroke-miterlimit="10" x1="376.8" y1="339.5" x2="426.8" y2="339.5"/>
	<line display="inline" fill="none" stroke="#000000" stroke-miterlimit="10" x1="426.8" y1="339.5" x2="401.8" y2="296.2"/>
	<line display="inline" fill="none" stroke="#000000" stroke-miterlimit="10" x1="351.8" y1="296.2" x2="326.8" y2="339.5"/>
	<line display="inline" fill="none" stroke="#000000" stroke-miterlimit="10" x1="326.8" y1="339.5" x2="376.8" y2="339.5"/>
	<line display="inline" fill="none" stroke="#000000" stroke-miterlimit="10" x1="376.8" y1="339.5" x2="351.8" y2="296.2"/>
	<line display="inline" fill="none" stroke="#000000" stroke-miterlimit="10" x1="439.3" y1="188" x2="414.3" y2="231.3"/>
	<line display="inline" fill="none" stroke="#000000" stroke-miterlimit="10" x1="414.3" y1="231.3" x2="464.3" y2="231.3"/>
	<line display="inline" fill="none" stroke="#000000" stroke-miterlimit="10" x1="464.3" y1="231.3" x2="439.3" y2="188"/>
	<line display="inline" fill="none" stroke="#000000" stroke-miterlimit="10" x1="414.3" y1="231.3" x2="389.3" y2="274.6"/>
	<line display="inline" fill="none" stroke="#000000" stroke-miterlimit="10" x1="389.3" y1="274.6" x2="439.3" y2="274.6"/>
	<line display="inline" fill="none" stroke="#000000" stroke-miterlimit="10" x1="439.3" y1="274.6" x2="414.3" y2="231.3"/>
	<line display="inline" fill="none" stroke="#000000" stroke-miterlimit="10" x1="389.3" y1="188" x2="364.3" y2="231.3"/>
	<line display="inline" fill="none" stroke="#000000" stroke-miterlimit="10" x1="364.3" y1="231.3" x2="414.3" y2="231.3"/>
	<line display="inline" fill="none" stroke="#000000" stroke-miterlimit="10" x1="414.3" y1="231.3" x2="389.3" y2="188"/>
	<line display="inline" fill="none" stroke="#000000" stroke-miterlimit="10" x1="364.3" y1="231.3" x2="339.3" y2="274.6"/>
	<line display="inline" fill="none" stroke="#000000" stroke-miterlimit="10" x1="339.3" y1="274.6" x2="389.3" y2="274.6"/>
	<line display="inline" fill="none" stroke="#000000" stroke-miterlimit="10" x1="389.3" y1="274.6" x2="364.3" y2="231.3"/>
</g>
</svg>
