<?xml version="1.0" encoding="utf-8"?>
<!-- Generator: Adobe Illustrator 16.0.0, SVG Export Plug-In . SVG Version: 6.00 Build 0)  -->
<!DOCTYPE svg PUBLIC "-//W3C//DTD SVG 1.1//EN" "http://www.w3.org/Graphics/SVG/1.1/DTD/svg11.dtd">
<svg version="1.1" xmlns="http://www.w3.org/2000/svg" xmlns:xlink="http://www.w3.org/1999/xlink" x="0px" y="0px" width="700px"
	 height="700px" viewBox="0 0 700 700" enable-background="new 0 0 700 700" xml:space="preserve">
<g id="Layer_1">
	<polygon fill="none" stroke="#000000" stroke-miterlimit="10" points="346.173,359.239 340.761,353.827 340.761,346.173 
		346.173,340.761 353.827,340.761 359.239,346.173 359.239,353.827 353.827,359.239 	"/>
	<polygon fill="none" stroke="#000000" stroke-miterlimit="10" points="342.346,368.478 331.522,357.654 331.522,342.347 
		342.346,331.522 357.653,331.522 368.478,342.347 368.478,357.654 357.653,368.478 	"/>
	<polygon fill="none" stroke="#000000" stroke-miterlimit="10" points="338.52,377.717 322.284,361.48 322.284,338.52 
		338.52,322.284 361.48,322.284 377.717,338.52 377.717,361.48 361.48,377.717 	"/>
	<polygon fill="none" stroke="#000000" stroke-miterlimit="10" points="334.693,386.955 313.045,365.308 313.045,334.693 
		334.693,313.045 365.308,313.045 386.955,334.693 386.955,365.308 365.308,386.955 	"/>
	<polygon fill="none" stroke="#000000" stroke-miterlimit="10" points="330.866,396.194 303.806,369.134 303.806,330.866 
		330.866,303.806 369.134,303.806 396.194,330.866 396.194,369.134 369.134,396.194 	"/>
	<polygon fill="none" stroke="#000000" stroke-miterlimit="10" points="327.039,405.433 294.567,372.961 294.567,327.039 
		327.039,294.567 372.961,294.567 405.433,327.039 405.433,372.961 372.961,405.433 	"/>
	<polygon fill="none" stroke="#000000" stroke-miterlimit="10" points="323.212,414.672 285.329,376.788 285.329,323.212 
		323.212,285.329 376.788,285.329 414.672,323.212 414.672,376.788 376.788,414.672 	"/>
	<polygon fill="none" stroke="#000000" stroke-miterlimit="10" points="323.212,414.672 285.329,376.788 285.329,323.212 
		323.212,285.329 376.788,285.329 414.672,323.212 414.672,376.788 376.788,414.672 	"/>
	<polygon fill="none" stroke="#000000" stroke-miterlimit="10" points="319.386,423.91 276.09,380.614 276.09,319.385 
		319.386,276.09 380.615,276.09 423.91,319.385 423.91,380.614 380.615,423.91 	"/>
	<polygon fill="none" stroke="#000000" stroke-miterlimit="10" points="319.386,423.91 276.09,380.614 276.09,319.385 
		319.386,276.09 380.615,276.09 423.91,319.385 423.91,380.614 380.615,423.91 	"/>
	<polygon fill="none" stroke="#000000" stroke-miterlimit="10" points="315.559,433.149 266.851,384.441 266.851,315.559 
		315.559,266.851 384.441,266.851 433.149,315.559 433.149,384.441 384.441,433.149 	"/>
	<polygon fill="none" stroke="#000000" stroke-miterlimit="10" points="311.732,442.389 257.612,388.269 257.612,311.732 
		311.732,257.612 388.269,257.612 442.389,311.732 442.389,388.269 388.269,442.389 	"/>
	<polygon fill="none" stroke="#000000" stroke-miterlimit="10" points="307.905,451.627 248.373,392.096 248.373,307.905 
		307.905,248.374 392.095,248.374 451.627,307.905 451.627,392.096 392.095,451.627 	"/>
	<polygon fill="none" stroke="#000000" stroke-miterlimit="10" points="304.078,460.865 239.134,395.922 239.134,304.078 
		304.078,239.134 395.922,239.134 460.865,304.078 460.865,395.922 395.922,460.865 	"/>
	<polygon fill="none" stroke="#000000" stroke-miterlimit="10" points="300.251,470.104 229.896,399.749 229.896,300.251 
		300.251,229.896 399.749,229.896 470.104,300.251 470.104,399.749 399.749,470.104 	"/>
	<polygon fill="none" stroke="#000000" stroke-miterlimit="10" points="296.424,479.344 220.657,403.576 220.657,296.425 
		296.424,220.657 403.575,220.657 479.343,296.425 479.343,403.576 403.575,479.344 	"/>
	<polygon fill="none" stroke="#000000" stroke-miterlimit="10" points="292.598,488.582 211.418,407.402 211.418,292.597 
		292.598,211.418 407.403,211.418 488.582,292.597 488.582,407.402 407.403,488.582 	"/>
	<polygon fill="none" stroke="#000000" stroke-miterlimit="10" points="288.771,497.82 202.179,411.229 202.179,288.771 
		288.771,202.179 411.229,202.179 497.82,288.771 497.82,411.229 411.229,497.82 	"/>
	<polygon fill="none" stroke="#000000" stroke-miterlimit="10" points="284.943,507.06 192.94,415.057 192.94,284.944 
		284.943,192.941 415.056,192.941 507.06,284.944 507.06,415.057 415.056,507.06 	"/>
	<polygon fill="none" stroke="#000000" stroke-miterlimit="10" points="281.118,516.299 183.702,418.884 183.702,281.118 
		281.118,183.702 418.884,183.702 516.299,281.118 516.299,418.884 418.884,516.299 	"/>
	<polygon fill="none" stroke="#000000" stroke-miterlimit="10" points="277.29,525.537 174.462,422.71 174.463,277.29 
		277.29,174.463 422.71,174.463 525.537,277.29 525.537,422.71 422.71,525.537 	"/>
	<polygon fill="none" stroke="#000000" stroke-miterlimit="10" points="273.463,534.775 165.224,426.536 165.224,273.463 
		273.463,165.224 426.536,165.224 534.775,273.463 534.775,426.536 426.536,534.775 	"/>
	<polygon fill="none" stroke="#000000" stroke-miterlimit="10" points="269.636,544.015 155.985,430.363 155.985,269.636 
		269.636,155.985 430.363,155.985 544.015,269.636 544.015,430.363 430.363,544.015 	"/>
	<polygon fill="none" stroke="#000000" stroke-miterlimit="10" points="265.809,553.254 146.746,434.19 146.746,265.81 
		265.809,146.747 434.189,146.747 553.253,265.81 553.253,434.19 434.189,553.254 	"/>
	<polygon fill="none" stroke="#000000" stroke-miterlimit="10" points="261.982,562.493 137.507,438.018 137.507,261.983 
		261.982,137.508 438.017,137.508 562.492,261.983 562.492,438.018 438.017,562.493 	"/>
	<polygon fill="none" stroke="#000000" stroke-miterlimit="10" points="258.155,571.731 128.269,441.845 128.269,258.157 
		258.155,128.27 441.844,128.27 571.73,258.157 571.73,441.845 441.844,571.731 	"/>
	<polygon fill="none" stroke="#000000" stroke-miterlimit="10" points="254.33,580.97 119.031,445.67 119.031,254.329 
		254.33,119.03 445.671,119.03 580.971,254.329 580.971,445.67 445.671,580.97 	"/>
	<polygon fill="none" stroke="#000000" stroke-miterlimit="10" points="250.502,590.208 109.791,449.497 109.791,250.502 
		250.502,109.791 449.497,109.791 590.208,250.502 590.208,449.497 449.497,590.208 	"/>
	<polygon fill="none" stroke="#000000" stroke-miterlimit="10" points="246.676,599.447 100.553,453.324 100.553,246.675 
		246.676,100.552 453.325,100.552 599.448,246.675 599.448,453.324 453.325,599.447 	"/>
	<polygon fill="none" stroke="#000000" stroke-miterlimit="10" points="242.848,608.688 91.313,457.152 91.313,242.85 
		242.848,91.314 457.15,91.314 608.686,242.85 608.686,457.152 457.15,608.688 	"/>
	<polygon fill="none" stroke="#000000" stroke-miterlimit="10" points="239.021,617.925 82.074,460.978 82.074,239.021 
		239.021,82.074 460.978,82.074 617.925,239.021 617.925,460.978 460.978,617.925 	"/>
	<polygon fill="none" stroke="#000000" stroke-miterlimit="10" points="235.196,627.165 72.837,464.806 72.837,235.196 
		235.196,72.837 464.806,72.837 627.165,235.196 627.164,464.806 464.806,627.165 	"/>
	<polygon fill="none" stroke="#000000" stroke-miterlimit="10" points="231.369,636.402 63.598,468.632 63.598,231.368 
		231.369,63.597 468.633,63.597 636.403,231.368 636.403,468.632 468.633,636.402 	"/>
	<polygon fill="none" stroke="#000000" stroke-miterlimit="10" points="227.541,645.641 54.358,472.458 54.358,227.541 
		227.541,54.358 472.458,54.358 645.641,227.541 645.641,472.458 472.458,645.641 	"/>
</g>
<g id="Layer_2">
	<line fill="none" stroke="#000000" stroke-miterlimit="10" x1="472.458" y1="54.358" x2="353.827" y2="340.761"/>
	<line fill="none" stroke="#000000" stroke-miterlimit="10" x1="346.173" y1="340.761" x2="227.541" y2="54.358"/>
	<line fill="none" stroke="#000000" stroke-miterlimit="10" x1="54.358" y1="227.541" x2="340.761" y2="346.173"/>
	<line fill="none" stroke="#000000" stroke-miterlimit="10" x1="340.761" y1="353.827" x2="54.358" y2="472.458"/>
	<line fill="none" stroke="#000000" stroke-miterlimit="10" x1="227.541" y1="645.641" x2="346.173" y2="359.239"/>
	<line fill="none" stroke="#000000" stroke-miterlimit="10" x1="353.827" y1="359.239" x2="472.458" y2="645.641"/>
	<line fill="none" stroke="#000000" stroke-miterlimit="10" x1="645.641" y1="472.458" x2="359.239" y2="353.827"/>
	<line fill="none" stroke="#000000" stroke-miterlimit="10" x1="359.239" y1="346.173" x2="645.641" y2="227.541"/>
</g>
</svg>
