<?xml version="1.0" encoding="utf-8"?>
<!DOCTYPE svg PUBLIC "-//W3C//DTD SVG 1.1//EN" "http://www.w3.org/Graphics/SVG/1.1/DTD/svg11.dtd">
<svg version="1.1" id="Layer_1" xmlns="http://www.w3.org/2000/svg" xmlns:xlink="http://www.w3.org/1999/xlink" x="0px" y="0px"
	 width="1000px" height="500px" viewBox="0 0 1000 500" enable-background="new 0 0 1000 500"
	 xml:space="preserve">
<g id="Layer_11">
	<path fill="none" stroke="#000000" stroke-width="4" d="M25.017,12.512h950.778c0,262.596-212.875,475.47-475.47,475.47
		c-262.594,0-475.47-212.874-475.47-475.47"/>
	<path fill="none" stroke="#000000" stroke-width="4" d="M637.093,317.462c-90.25-21.851-132.523-31.825-255.075,8.074"/>
	<path fill="none" stroke="#000000" stroke-width="4" d="M150.693,141.712c35.467,44.333,28.861,118.384,5.428,198.818"/>
	<path fill="none" stroke="#000000" stroke-width="4" d="M637.093,317.462c-120.966-108.299-171.95-71.487-255.075,8.074"/>
	<path fill="none" stroke="#000000" stroke-width="4" d="M150.693,141.712c-25.59-17.278-99.039-40.17-118.469-45.36"/>
	<path fill="none" stroke="#000000" stroke-width="4" d="M707.395,93.579c44.648-33.567,170.523-65.392,227.05-81.067"/>
	<path fill="none" stroke="#000000" stroke-width="4" d="M548.424,12.512c65.553,171.314,84.075,279.772,88.669,304.95"/>
	<path fill="none" stroke="#000000" stroke-width="4" d="M452.162,12.512c-51.145,179.075-62.544,265.05-70.145,313.024"/>
	<path fill="none" stroke="#000000" stroke-width="4" d="M150.693,141.712c-11.163-1.01-90.768,3.919-106.66,4.917"/>
	<path fill="none" stroke="#000000" stroke-width="4" d="M707.395,93.579c-17.102-37.842-8.552-63.017,1.898-81.067"/>
	<path fill="none" stroke="#000000" stroke-width="4" d="M548.424,12.512c8.514,27.194,12.572,51.313,15.526,85.868
		c7.118,83.232-22.332,151.631-56.304,151.564c-33.599-0.066-64.517-59.782-64.354-147.657c0.067-35.994,4.233-64.006,8.869-89.775"/>
	<path fill="none" stroke="#000000" stroke-width="4" d="M150.693,141.712c-14.567,10.766-75.034,57.956-84.534,64.922"/>
	<path fill="none" stroke="#000000" stroke-width="4" d="M637.093,317.462c-0.95,44.649-0.659,150.752-0.659,150.752"/>
	<path fill="none" stroke="#000000" stroke-width="4" d="M707.395,93.579c68.398,6.333,214.939,23.908,255.789,28.183"/>
	<path fill="none" stroke="#000000" stroke-width="4" d="M548.424,12.512c3.406,19.119,5.445,32.211,3.81,54.856
		c-3.134,43.35-24.211,71.338-48.849,71.338c-26.96,0-47.504-34.876-50.592-70.264c-1.885-21.607-3.087-31.469-0.631-55.931"/>
	<path fill="none" stroke="#000000" stroke-width="4" d="M150.693,141.712c-10.767,25.966-45.6,89.617-61.433,109.883"/>
	<path fill="none" stroke="#000000" stroke-width="4" d="M637.093,317.462c45.602,36.574,96.618,83.924,113.143,99.623"/>
	<path fill="none" stroke="#000000" stroke-width="4" d="M674.143,174.487c-0.633-36.892,4.119-56.208,33.252-80.908"/>
	<path fill="none" stroke="#000000" stroke-width="4" d="M548.424,12.512c1.773,12.227,2.188,21.462,0,36.1
		c-4.354,29.16-20.817,50.825-47.02,50.825c-21.062,0-41.644-24.156-45.999-49.875c-2.494-14.725-4.162-21.971-3.243-37.05"/>
	<path fill="none" stroke="#000000" stroke-width="4" d="M150.693,141.712c45.6-36.1,123.252-100.225,140.827-129.2"/>
	<path fill="none" stroke="#000000" stroke-width="4" d="M25.017,25.022c18.428-4.493,33.837-9.553,42.394-12.51"/>
	<path fill="none" stroke="#000000" stroke-width="4" d="M637.093,317.462c64.125-23.274,135.876,0.113,209.384,21.015"/>
	<path fill="none" stroke="#000000" stroke-width="4" d="M674.143,174.487c33.014-41.8,181.738-47.381,289.041-52.725"/>
	<path fill="none" stroke="#000000" stroke-width="4" d="M382.018,325.537c-25.175,22.325-83.979,80.973-107.336,105.598"/>
	<path fill="none" stroke="#000000" stroke-width="4" d="M637.093,317.462c-46.075,27.074-78.85,72.937-122.55,170.312"/>
	<path fill="none" stroke="#000000" stroke-width="4" d="M674.143,174.487c71.727-0.219,227.281,32.3,257.683,38"/>
	<path fill="none" stroke="#000000" stroke-width="4" d="M637.093,317.462c5.7-63.649,6.65-110.2,37.05-142.976"/>
</g>
</svg>
